<svg width="295" height="295" viewBox="0 0 295 295" fill="none" xmlns="http://www.w3.org/2000/svg">
<path d="M147.018 294.026C124.522 294.088 102.317 288.931 82.1507 278.96C78.2084 277.017 74.3351 274.894 70.6686 272.647C53.3304 262.062 38.3503 248.03 26.6562 231.419H23.2102C20.0954 231.416 17.109 230.178 14.9052 227.976C12.7013 225.775 11.4598 222.79 11.4525 219.675V204.003C3.89308 185.956 0 166.586 0 147.02C0 127.454 3.89308 108.084 11.4525 90.0369V73.1239C11.3644 72.6186 11.3183 72.1068 11.3147 71.5939V56.5418C11.3147 54.4543 12.1439 52.4524 13.6199 50.9763C15.096 49.5003 17.0979 48.6711 19.1853 48.6711H37.7386C51.7153 33.1395 68.8424 20.7657 87.9781 12.3748C107.114 3.98384 127.818 -0.231501 148.711 0.0098047C169.605 0.25111 190.206 4.94352 209.143 13.7742C228.08 22.6048 244.916 35.3708 258.531 51.2211L258.848 51.5933C262.989 56.4315 266.807 61.5381 270.275 66.8798L270.371 67.0176C284.439 88.7218 292.533 113.753 293.835 139.585C295.138 165.416 289.604 191.135 277.791 214.144C265.978 237.153 248.304 256.639 226.554 270.636C204.804 284.632 179.746 292.643 153.91 293.861C151.636 293.971 149.306 294.026 147.018 294.026Z" fill="white"/>
<path d="M287.491 147.02C287.488 182.788 273.71 217.18 249.018 243.058C224.327 268.936 190.617 284.31 154.889 285.99C152.725 286.087 150.547 286.142 148.355 286.142C127.072 286.172 106.068 281.294 86.9751 271.889C83.2994 270.051 79.6788 268.066 76.1133 265.934C58.5149 255.226 43.5038 240.756 32.1561 223.562C30.0058 220.295 28.0209 216.946 26.1049 213.486C24.189 210.026 22.3281 206.167 20.674 202.39C11.5458 181.391 7.7507 158.462 9.6265 135.642C11.5023 112.822 18.9908 90.8198 31.4256 71.5936C34.8093 66.3561 38.5393 61.3505 42.5906 56.6104V56.5415C55.6539 41.2902 71.8633 29.047 90.1058 20.6528C108.348 12.2586 128.191 7.91223 148.273 7.91223C168.354 7.91223 188.197 12.2586 206.439 20.6528C224.682 29.047 240.891 41.2902 253.955 56.5415C253.995 56.5758 254.028 56.618 254.051 56.6656C258.011 61.2523 261.663 66.0965 264.982 71.1663L265.064 71.2904C279.735 93.8202 287.528 120.134 287.491 147.02V147.02Z" fill="#FFE173"/>
<path d="M264.982 71.1667V219.703C264.978 220.728 264.568 221.71 263.842 222.433C263.116 223.157 262.133 223.563 261.108 223.563H154.627C153.602 223.563 152.619 223.157 151.893 222.433C151.167 221.71 150.757 220.728 150.754 219.703V56.6108H254.134C258.067 61.2178 261.691 66.0805 264.982 71.1667V71.1667Z" fill="#FFEEE8"/>
<path d="M265.092 71.2901V71.5244H150.836V56.4861H253.954C253.995 56.5204 254.028 56.5626 254.051 56.6101C258.013 61.2146 261.665 66.0773 264.982 71.166L265.092 71.2901Z" fill="#707DFF"/>
<path d="M236.38 64.4258C236.383 65.0398 236.203 65.6407 235.864 66.1526C235.525 66.6644 235.041 67.0641 234.475 67.3009C233.908 67.5378 233.284 67.6012 232.682 67.4831C232.079 67.3649 231.525 67.0706 231.09 66.6375C230.655 66.2043 230.358 65.6517 230.238 65.0497C230.117 64.4477 230.177 63.8234 230.412 63.2559C230.646 62.6884 231.044 62.2032 231.554 61.8618C232.064 61.5204 232.664 61.3381 233.278 61.3381C234.099 61.3381 234.885 61.663 235.467 62.2417C236.048 62.8203 236.376 63.6056 236.38 64.4258V64.4258Z" fill="#FFD4C5"/>
<path d="M246.111 64.4258C246.114 65.0398 245.934 65.6408 245.595 66.1526C245.256 66.6644 244.773 67.0641 244.206 67.3009C243.64 67.5378 243.016 67.6012 242.413 67.4831C241.811 67.365 241.257 67.0707 240.822 66.6375C240.387 66.2043 240.09 65.6517 239.969 65.0497C239.848 64.4477 239.909 63.8234 240.143 63.2559C240.378 62.6884 240.775 62.2032 241.285 61.8618C241.796 61.5204 242.396 61.3382 243.01 61.3382C243.417 61.3364 243.82 61.4149 244.196 61.5692C244.572 61.7236 244.914 61.9508 245.202 62.2377C245.49 62.5245 245.719 62.8655 245.875 63.241C246.031 63.6165 246.111 64.0192 246.111 64.4258Z" fill="#FC8AAA"/>
<path d="M255.857 64.4258C255.859 65.0398 255.68 65.6408 255.341 66.1526C255.002 66.6644 254.518 67.0641 253.952 67.3009C253.385 67.5378 252.761 67.6012 252.159 67.4831C251.556 67.365 251.002 67.0707 250.567 66.6375C250.132 66.2043 249.835 65.6517 249.714 65.0497C249.594 64.4477 249.654 63.8234 249.889 63.2559C250.123 62.6884 250.52 62.2032 251.031 61.8618C251.541 61.5204 252.141 61.3382 252.755 61.3382C253.162 61.3364 253.565 61.4149 253.941 61.5692C254.317 61.7236 254.659 61.9508 254.947 62.2377C255.236 62.5245 255.464 62.8655 255.62 63.241C255.776 63.6165 255.857 64.0192 255.857 64.4258V64.4258Z" fill="#FFE173"/>
<path d="M221.162 123.491L219.026 125.931C217.457 124.639 215.536 123.851 213.512 123.67C212.442 123.545 211.362 123.522 210.287 123.601C208.817 123.665 207.366 123.958 205.986 124.47C204.954 124.845 204.013 125.437 203.229 126.206L200.914 123.904C202.32 122.534 204.051 121.543 205.945 121.024C207.293 120.642 208.68 120.415 210.08 120.348C211.222 120.246 212.37 120.246 213.512 120.348C216.331 120.56 219.009 121.66 221.162 123.491V123.491Z" fill="#FF529B"/>
<path d="M205.945 121.051V124.469C204.912 124.844 203.972 125.437 203.188 126.206L200.914 123.904C202.323 122.544 204.054 121.562 205.945 121.051V121.051Z" fill="black"/>
<path d="M221.162 123.49L219.026 125.93C217.457 124.639 215.536 123.851 213.512 123.67V120.43C216.321 120.619 218.998 121.69 221.162 123.49V123.49Z" fill="black"/>
<path d="M204.47 127.143C204.471 131.038 203.349 134.851 201.24 138.125C199.13 141.399 196.121 143.995 192.574 145.603C189.027 147.212 185.091 147.763 181.238 147.193C177.386 146.622 173.779 144.953 170.85 142.385C167.921 139.818 165.795 136.461 164.725 132.716C163.655 128.971 163.687 124.997 164.817 121.27C165.947 117.542 168.127 114.22 171.097 111.7C174.066 109.179 177.699 107.569 181.561 107.06C182.438 106.938 183.322 106.878 184.207 106.881C186.869 106.877 189.506 107.399 191.966 108.416C194.426 109.433 196.661 110.925 198.543 112.807C200.426 114.69 201.918 116.925 202.935 119.385C203.952 121.845 204.474 124.481 204.47 127.143V127.143Z" fill="#FF529B"/>
<path d="M256.463 127.143C256.449 132.504 254.309 137.64 250.513 141.425C246.717 145.211 241.575 147.337 236.214 147.337C235.663 147.337 235.112 147.309 234.56 147.254C229.354 146.823 224.515 144.397 221.056 140.482C217.596 136.567 215.784 131.466 215.998 126.246C216.211 121.026 218.434 116.091 222.202 112.472C225.969 108.852 230.99 106.829 236.214 106.825C236.821 106.825 237.427 106.825 238.02 106.908C242.525 107.288 246.766 109.194 250.04 112.311C252.078 114.205 253.701 116.501 254.807 119.054C255.913 121.607 256.477 124.361 256.463 127.143V127.143Z" fill="#FF529B"/>
<path d="M167.446 127.281H161.602C160.945 127.277 160.316 127.015 159.851 126.55C159.387 126.086 159.124 125.457 159.121 124.8C159.124 124.143 159.387 123.514 159.851 123.05C160.316 122.585 160.945 122.322 161.602 122.319H167.474C168.131 122.322 168.76 122.585 169.224 123.05C169.689 123.514 169.951 124.143 169.955 124.8V124.8C169.953 125.128 169.887 125.452 169.76 125.754C169.633 126.056 169.447 126.33 169.214 126.56C168.981 126.79 168.705 126.973 168.402 127.096C168.099 127.22 167.774 127.283 167.446 127.281V127.281Z" fill="#FF529B"/>
<path d="M259.868 127.281H253.954C253.298 127.277 252.669 127.015 252.204 126.55C251.74 126.086 251.477 125.457 251.473 124.8C251.477 124.143 251.74 123.514 252.204 123.05C252.669 122.585 253.298 122.322 253.954 122.319H259.84C260.497 122.322 261.126 122.585 261.591 123.05C262.055 123.514 262.318 124.143 262.321 124.8V124.8C262.318 125.452 262.059 126.077 261.6 126.541C261.142 127.005 260.52 127.27 259.868 127.281V127.281Z" fill="#FF529B"/>
<path opacity="0.31" d="M250.04 112.367C244.94 124.047 239.78 135.694 234.56 147.309C231.85 147.097 229.21 146.337 226.801 145.077C224.392 143.817 222.263 142.082 220.542 139.976C226.138 128.848 231.964 117.821 238.02 106.895C242.534 107.293 246.775 109.224 250.04 112.367V112.367Z" fill="#FFEEE8"/>
<path opacity="0.31" d="M194.752 109.831C189.386 122.107 183.964 134.352 178.487 146.565C175.813 145.772 173.331 144.437 171.196 142.641C169.062 140.846 167.32 138.629 166.081 136.13C171.071 126.344 176.236 116.654 181.575 107.06C182.451 106.938 183.336 106.878 184.221 106.881C187.936 106.876 191.58 107.897 194.752 109.831V109.831Z" fill="#FFEEE8"/>
<path d="M228.663 158.846H188.028C182.387 158.846 177.814 163.419 177.814 169.06V169.226C177.814 174.867 182.387 179.44 188.028 179.44H228.663C234.304 179.44 238.877 174.867 238.877 169.226V169.06C238.877 163.419 234.304 158.846 228.663 158.846Z" fill="#707DFF"/>
<path d="M238.82 190.04H182.154C178.545 190.04 175.62 192.965 175.62 196.573V196.918C175.62 200.526 178.545 203.451 182.154 203.451H238.82C242.428 203.451 245.353 200.526 245.353 196.918V196.573C245.353 192.965 242.428 190.04 238.82 190.04Z" fill="#FFD4C5"/>
<path d="M187.143 191.156L188.384 194.974H192.395L189.142 197.345L190.396 201.177L187.143 198.806L183.877 201.177L185.131 197.345L181.878 194.974H185.889L187.143 191.156Z" fill="#FF9A68"/>
<path d="M198.984 191.156L200.224 194.974H204.249L200.996 197.345L202.237 201.177L198.984 198.806L195.731 201.177L196.971 197.345L193.718 194.974H197.743L198.984 191.156Z" fill="#FF9A68"/>
<path d="M210.824 191.156L212.079 194.974H216.09L212.837 197.345L214.077 201.177L210.824 198.806L207.571 201.177L208.812 197.345L205.559 194.974H209.584L210.824 191.156Z" fill="#FF9A68"/>
<path d="M222.679 191.156L223.919 194.974H227.944L224.691 197.345L225.932 201.177L222.679 198.806L219.425 201.177L220.666 197.345L217.413 194.974H221.438L222.679 191.156Z" fill="#FF9A68"/>
<path d="M234.519 191.156L235.76 194.974H239.785L236.532 197.345L237.772 201.177L234.519 198.806L231.266 201.177L232.507 197.345L229.254 194.974H233.278L234.519 191.156Z" fill="#FF9A68"/>
<path d="M134.93 56.6108V219.703C134.926 220.728 134.516 221.71 133.79 222.433C133.064 223.157 132.081 223.563 131.056 223.563H24.5473C23.5224 223.563 22.5393 223.157 21.8133 222.433C21.0873 221.71 20.6777 220.728 20.674 219.703V56.6108H134.93Z" fill="#FFEEE8"/>
<path d="M86.8096 110.975L83.7082 111.181L68.6561 112.133V111.181L68.8353 89.127L84.2871 77.4796C84.4836 77.3371 84.7199 77.2599 84.9625 77.259C85.2539 77.2589 85.5338 77.3728 85.7424 77.5762C85.9511 77.7797 86.0719 78.0567 86.079 78.348L86.8096 110.975Z" fill="#FC8AAA"/>
<path d="M65.5685 111.181H90.2832V119.286H65.3755L65.5685 111.181Z" fill="#FFD4C5"/>
<path d="M62.0812 118.169H93.3709V152.547H61.1852L62.0812 118.169Z" fill="#FF529B"/>
<path opacity="0.32" d="M84.9764 77.2866C84.2182 79.9745 82.2196 85.9154 78.6219 88.6447C77.2164 89.6649 75.5454 90.256 73.811 90.3465C72.0766 90.437 70.3531 90.023 68.8491 89.1547L84.3009 77.5072C84.4974 77.3647 84.7337 77.2875 84.9764 77.2866V77.2866Z" fill="#FF529B"/>
<path d="M135.012 56.5415H20.5361V71.5936H135.012V56.5415Z" fill="#707DFF"/>
<path d="M106.286 64.4258C106.289 65.0404 106.109 65.6419 105.77 66.154C105.43 66.6662 104.946 67.0658 104.378 67.3022C103.811 67.5387 103.186 67.6013 102.583 67.482C101.981 67.3628 101.427 67.0671 100.992 66.6326C100.557 66.198 100.262 65.6441 100.143 65.0412C100.023 64.4383 100.086 63.8136 100.322 63.2463C100.559 62.6791 100.958 62.1948 101.471 61.8551C101.983 61.5154 102.584 61.3354 103.199 61.3382C104.018 61.3382 104.803 61.6635 105.382 62.2425C105.961 62.8216 106.286 63.6069 106.286 64.4258Z" fill="#FFD4C5"/>
<path d="M116.032 64.4258C116.034 65.0398 115.855 65.6408 115.516 66.1526C115.177 66.6644 114.693 67.0641 114.127 67.3009C113.56 67.5378 112.936 67.6012 112.334 67.4831C111.731 67.365 111.177 67.0707 110.742 66.6375C110.307 66.2043 110.01 65.6517 109.89 65.0497C109.769 64.4477 109.829 63.8234 110.064 63.2559C110.298 62.6884 110.696 62.2032 111.206 61.8618C111.716 61.5204 112.316 61.3382 112.93 61.3382C113.337 61.3364 113.74 61.4149 114.116 61.5692C114.492 61.7236 114.834 61.9508 115.122 62.2377C115.411 62.5245 115.639 62.8655 115.795 63.241C115.951 63.6165 116.032 64.0192 116.032 64.4258V64.4258Z" fill="#FC8AAA"/>
<path d="M125.763 64.4258C125.766 65.0398 125.586 65.6407 125.247 66.1526C124.908 66.6644 124.425 67.0641 123.858 67.3009C123.292 67.5378 122.668 67.6012 122.065 67.4831C121.463 67.3649 120.909 67.0706 120.474 66.6375C120.039 66.2043 119.742 65.6517 119.621 65.0497C119.5 64.4477 119.561 63.8234 119.795 63.2559C120.03 62.6884 120.427 62.2032 120.937 61.8618C121.448 61.5204 122.048 61.3381 122.662 61.3381C123.482 61.3381 124.269 61.663 124.85 62.2417C125.431 62.8203 125.76 63.6056 125.763 64.4258V64.4258Z" fill="#FFE173"/>
<path d="M98.9396 158.846H58.3043C52.6633 158.846 48.0904 163.419 48.0904 169.06V169.226C48.0904 174.867 52.6633 179.44 58.3043 179.44H98.9396C104.581 179.44 109.154 174.867 109.154 169.226V169.06C109.154 163.419 104.581 158.846 98.9396 158.846Z" fill="#707DFF"/>
<path d="M108.74 190.04H52.074C48.4655 190.04 45.5403 192.965 45.5403 196.573V196.918C45.5403 200.526 48.4655 203.451 52.074 203.451H108.74C112.348 203.451 115.274 200.526 115.274 196.918V196.573C115.274 192.965 112.348 190.04 108.74 190.04Z" fill="#FFD4C5"/>
<path d="M57.05 191.156L58.3043 194.974H62.3155L59.0624 197.345L60.3168 201.177L57.05 198.806L53.7969 201.177L55.0375 197.345L51.7845 194.974H55.8094L57.05 191.156Z" fill="#FF9A68"/>
<path d="M68.9042 191.156L70.1447 194.974H74.1697L70.9166 197.345L72.1572 201.177L68.9042 198.806L65.6511 201.177L66.8917 197.345L63.6387 194.974H67.6636L68.9042 191.156Z" fill="#FF9A68"/>
<path d="M80.7447 191.156L81.9853 194.974H86.0102L82.7572 197.345L83.9978 201.177L80.7447 198.806L77.4917 201.177L78.7323 197.345L75.4792 194.974H79.5042L80.7447 191.156Z" fill="#FF9A68"/>
<path d="M92.5989 191.156L93.8394 194.974H97.8506L94.5975 197.345L95.8519 201.177L92.5989 198.806L89.3458 201.177L90.5864 197.345L87.3334 194.974H91.3445L92.5989 191.156Z" fill="#FF9A68"/>
<path d="M104.439 191.156L105.68 194.974H109.705L106.452 197.345L107.692 201.177L104.439 198.806L101.186 201.177L102.427 197.345L99.1739 194.974H103.199L104.439 191.156Z" fill="#FF9A68"/>
<path d="M198.234 200.754L198.234 200.754L198.228 200.761C197.73 201.357 197.016 202.339 196.109 203.617L196.109 203.617L196.103 203.625L195.665 204.268C195.665 204.269 195.664 204.27 195.664 204.27C190.956 211.008 181.861 224.948 173.719 238.228C169.647 244.869 165.811 251.35 162.879 256.687C161.413 259.355 160.17 261.742 159.237 263.722C158.309 265.69 157.67 267.293 157.433 268.378L157.432 268.379C156.86 271.038 155.755 277.576 154.461 285.509C152.437 285.594 150.402 285.642 148.355 285.642H148.354C127.148 285.672 106.221 280.813 87.198 271.442C83.6389 269.662 80.1315 267.744 76.6758 265.688C79.8672 250.486 83.7859 232.266 87.3326 217.112C89.1196 209.476 90.8112 202.623 92.267 197.329C92.995 194.681 93.6627 192.428 94.2528 190.663C94.8472 188.886 95.3504 187.643 95.743 186.989L95.7434 186.988C99.898 180.044 104.168 176.708 107.646 175.144C111.125 173.58 113.855 173.771 114.958 173.951L114.97 173.953L114.982 173.955C115.153 173.974 115.321 174.009 115.485 174.06L116.659 174.421L116.183 173.547C116.231 173.429 116.299 173.263 116.39 173.055C116.586 172.603 116.883 171.957 117.282 171.186C118.083 169.641 119.291 167.603 120.925 165.617C124.199 161.639 129.117 157.945 135.851 158.723L136.244 158.769L136.378 158.397C136.438 158.233 136.507 158.073 136.587 157.918L136.142 157.689L136.591 157.91C137.318 156.436 138.309 155.107 139.515 153.989L139.563 153.945L139.591 153.901L139.618 153.884L139.651 153.853C142.531 151.211 147.611 148.685 156.016 151.272L156.407 151.407L157.12 151.653L157.069 150.901C157.068 150.885 157.068 150.868 157.068 150.852C158.945 142.862 161.385 135.015 164.369 127.369C164.479 127.092 164.585 126.827 164.704 126.563L164.708 126.555L164.711 126.546C165.477 124.66 166.324 122.855 167.186 121.215L167.243 121.105V121.074C167.247 121.068 167.251 121.063 167.255 121.057C167.275 121.027 167.304 120.982 167.331 120.924C168.22 119.206 169.253 117.566 170.419 116.023L170.776 115.573L170.916 115.42L170.921 115.415L170.926 115.409C172.8 113.236 174.648 112.108 176.486 112.312C177.078 112.384 177.665 112.503 178.238 112.668L178.306 112.688H178.377H178.735H178.845H178.943C179.598 112.909 180.229 113.196 180.827 113.544L180.943 113.611H181.024C182.139 114.29 182.993 115.327 183.445 116.554C183.864 117.884 184.078 119.271 184.079 120.666V121.146C184.065 125.113 183.607 129.065 182.714 132.931L183.201 133.043H182.701V133.21C182.244 135.314 181.75 137.358 181.296 139.222C181.253 139.396 181.211 139.569 181.169 139.74C180.761 141.411 180.391 142.927 180.121 144.185C179.24 148.267 176.192 162.893 173.326 176.646C170.715 189.177 168.254 200.984 167.721 203.43C167.67 203.589 167.637 203.754 167.623 203.92L167.611 204.06L167.674 204.185L168.121 203.962L168.512 204.274L168.512 204.274L168.512 204.273L168.516 204.27L168.528 204.254C168.54 204.24 168.556 204.22 168.576 204.196C168.617 204.147 168.671 204.083 168.727 204.021L168.732 204.015L168.737 204.009L169.344 203.292C171.462 200.789 177.186 194.217 183.252 188.784C186.288 186.065 189.387 183.652 192.149 182.171C193.53 181.431 194.803 180.937 195.926 180.745C197.046 180.553 197.983 180.667 198.734 181.1L198.734 181.1L198.746 181.107C201.658 182.68 203.203 184.453 203.869 186.276C204.536 188.102 204.354 190.063 203.641 192.075C203.62 192.134 203.599 192.191 203.578 192.248C203.503 192.454 203.431 192.651 203.351 192.843C202.022 195.705 200.3 198.368 198.234 200.754Z" fill="#FCC2A5" stroke="#F2B89A"/>
<path d="M110.27 186.662H110.16C110.11 186.65 110.063 186.627 110.022 186.595C109.981 186.564 109.947 186.524 109.923 186.478C109.898 186.433 109.883 186.383 109.879 186.332C109.875 186.28 109.881 186.228 109.898 186.18C110.174 185.256 116.79 163.629 127.266 159.218C127.472 159.122 132.779 156.572 136.515 157.84C136.613 157.873 136.695 157.943 136.742 158.036C136.788 158.13 136.796 158.237 136.763 158.336C136.73 158.435 136.659 158.516 136.566 158.563C136.473 158.609 136.365 158.617 136.267 158.584C132.876 157.44 127.638 159.962 127.583 159.962C117.493 164.222 110.711 186.152 110.642 186.442C110.609 186.511 110.556 186.57 110.49 186.609C110.424 186.648 110.347 186.667 110.27 186.662V186.662Z" fill="black"/>
<path d="M127.817 182.073H127.721C127.622 182.047 127.538 181.983 127.486 181.895C127.435 181.807 127.42 181.703 127.445 181.604C127.721 180.474 134.557 154.036 143.021 150.425C143.214 150.314 148.824 147.406 156.488 150.631C156.583 150.672 156.658 150.748 156.697 150.844C156.736 150.939 156.735 151.046 156.695 151.141C156.654 151.236 156.578 151.312 156.482 151.35C156.387 151.389 156.28 151.388 156.185 151.348C154.179 150.42 152.001 149.922 149.791 149.884C147.582 149.846 145.388 150.269 143.352 151.128C135.219 154.615 128.272 181.521 128.189 181.797C128.162 181.875 128.112 181.943 128.045 181.992C127.979 182.041 127.899 182.069 127.817 182.073V182.073Z" fill="black"/>
<path d="M168.7 203.603H168.618C168.516 203.58 168.427 203.518 168.371 203.431C168.314 203.343 168.294 203.237 168.314 203.135L176.681 161.466C180.114 147.365 185.958 119.645 183.504 115.482C182.814 114.352 181.834 113.426 180.666 112.801C179.498 112.176 178.184 111.874 176.861 111.926C173.139 112.064 169.734 114.959 167.212 120.045C161.243 132.285 148.617 181.287 148.493 181.783C148.468 181.884 148.403 181.97 148.314 182.023C148.225 182.076 148.118 182.092 148.018 182.066C147.917 182.04 147.831 181.976 147.778 181.887C147.725 181.798 147.709 181.691 147.735 181.59C147.859 181.094 160.513 131.968 166.509 119.7C170.024 112.464 174.462 111.237 176.792 111.14C178.256 111.088 179.707 111.425 180.998 112.118C182.289 112.811 183.373 113.834 184.139 115.083C187.35 120.596 177.812 159.963 177.412 161.631L169.031 203.286C169.019 203.369 168.98 203.444 168.92 203.502C168.86 203.559 168.783 203.595 168.7 203.603Z" fill="black"/>
<path d="M171.995 130.989C168.948 130.989 165.103 129.611 163.821 126.854C163.778 126.759 163.775 126.651 163.811 126.553C163.847 126.455 163.92 126.375 164.014 126.33C164.061 126.31 164.111 126.299 164.163 126.298C164.214 126.298 164.265 126.307 164.312 126.327C164.36 126.346 164.403 126.374 164.439 126.411C164.475 126.447 164.504 126.49 164.524 126.537C165.902 129.556 170.782 130.672 173.552 130.107C179.755 128.853 180.996 121.216 181.23 118.914C181.277 118.553 181.179 118.187 180.956 117.897C180.734 117.608 180.406 117.419 180.045 117.371L169.872 115.634C169.77 115.617 169.678 115.561 169.617 115.477C169.556 115.393 169.532 115.288 169.548 115.186C169.564 115.083 169.621 114.992 169.705 114.931C169.789 114.87 169.894 114.845 169.996 114.862L180.224 116.585C180.776 116.68 181.271 116.98 181.611 117.424C181.951 117.869 182.11 118.426 182.057 118.983C181.809 121.423 180.472 129.5 173.787 130.865C173.196 130.971 172.595 131.013 171.995 130.989V130.989Z" fill="black"/>
<path d="M204.112 192.245C204.015 192.507 203.932 192.783 203.808 193.045L197.371 186.704C197.228 186.56 197.055 186.45 196.864 186.381C196.674 186.312 196.47 186.286 196.268 186.304C196.066 186.326 195.871 186.39 195.695 186.492C195.52 186.594 195.367 186.732 195.248 186.897C193.65 189.199 191.113 193.693 192.078 197.924C192.386 199.158 192.939 200.317 193.704 201.333C194.468 202.349 195.43 203.201 196.53 203.838L196.075 204.499C194.896 203.8 193.866 202.873 193.048 201.773C192.229 200.673 191.637 199.421 191.306 198.09C190.314 193.513 192.947 188.799 194.601 186.401C194.782 186.138 195.019 185.918 195.296 185.759C195.572 185.599 195.881 185.503 196.2 185.477C196.512 185.442 196.828 185.478 197.124 185.583C197.42 185.688 197.689 185.859 197.909 186.084L204.112 192.245Z" fill="black"/>
<path d="M159.424 49.1809L135.233 48.0368L145.185 26.0238L150.326 33.9634L163.021 18.5391L171.154 33.0536L154.02 40.1662L159.424 49.1809Z" fill="#FF529B"/>
<path d="M143.448 108.673C145.915 108.673 147.914 106.673 147.914 104.207C147.914 101.74 145.915 99.7407 143.448 99.7407C140.982 99.7407 138.982 101.74 138.982 104.207C138.982 106.673 140.982 108.673 143.448 108.673Z" fill="white"/>
<path d="M203.229 48.6568C203.353 47.9952 203.34 47.2784 203.409 46.6306C203.505 45.6381 203.574 44.6457 203.67 43.667L204.001 39.8902C204.016 39.8191 204.055 39.7554 204.112 39.7096C204.168 39.6639 204.239 39.6389 204.311 39.6389C204.384 39.6389 204.454 39.6639 204.511 39.7096C204.567 39.7554 204.606 39.8191 204.622 39.8902L206.537 48.3122C206.668 48.8957 206.984 49.421 207.439 49.8088C207.894 50.1967 208.463 50.4261 209.06 50.4625L217.703 51.0552C217.777 51.0602 217.847 51.0911 217.901 51.1425C217.954 51.1939 217.988 51.2626 217.996 51.3366C218.005 51.4105 217.987 51.4849 217.945 51.5469C217.904 51.6088 217.843 51.6544 217.771 51.6755L209.377 53.9637C208.837 54.1057 208.352 54.4084 207.988 54.8318C207.624 55.2551 207.397 55.7792 207.337 56.3345L206.289 65.749C206.289 65.8331 206.256 65.9137 206.197 65.9731C206.137 66.0326 206.056 66.066 205.972 66.066C205.888 66.066 205.808 66.0326 205.748 65.9731C205.689 65.9137 205.655 65.8331 205.655 65.749L204.015 57.2305C203.907 56.6419 203.611 56.1044 203.171 55.6991C202.731 55.2938 202.171 55.0427 201.575 54.9837L191.995 53.881C191.948 53.881 191.902 53.8621 191.869 53.8285C191.835 53.7949 191.816 53.7493 191.816 53.7018C191.816 53.6542 191.835 53.6087 191.869 53.5751C191.902 53.5415 191.948 53.5226 191.995 53.5226L196.489 52.3371C197.537 52.0614 198.46 51.965 199.714 51.579C200.969 51.1931 202.168 51.0277 202.885 49.856C203.074 49.4814 203.191 49.0746 203.229 48.6568V48.6568Z" fill="white"/>
<path d="M87.4575 36.141C87.5678 35.4793 87.554 34.7626 87.6229 34.1147C87.7332 33.1223 87.8021 32.1298 87.8848 31.1511L88.2156 27.3743C88.2307 27.3033 88.2697 27.2395 88.3262 27.1938C88.3826 27.148 88.4531 27.123 88.5258 27.123C88.5984 27.123 88.6689 27.148 88.7253 27.1938C88.7818 27.2395 88.8208 27.3033 88.8359 27.3743L90.7519 35.7964C90.8823 36.3798 91.1989 36.9051 91.6538 37.293C92.1088 37.6808 92.6776 37.9103 93.2743 37.9467L101.931 38.5394C102.002 38.5545 102.066 38.5935 102.111 38.6499C102.157 38.7064 102.182 38.7769 102.182 38.8495C102.182 38.9222 102.157 38.9926 102.111 39.0491C102.066 39.1056 102.002 39.1446 101.931 39.1597L93.55 41.4478C93.0098 41.5898 92.5255 41.8925 92.1612 42.3159C91.7969 42.7393 91.5698 43.2633 91.51 43.8187L90.4486 53.2332C90.4336 53.3042 90.3945 53.368 90.3381 53.4137C90.2816 53.4594 90.2111 53.4844 90.1385 53.4844C90.0658 53.4844 89.9954 53.4594 89.9389 53.4137C89.8824 53.368 89.8434 53.3042 89.8283 53.2332L88.1743 44.7146C88.0694 44.1343 87.7811 43.6029 87.3519 43.1985C86.9227 42.7941 86.3751 42.5381 85.7896 42.4678L76.1408 41.3651C76.1001 41.3539 76.0641 41.3296 76.0385 41.296C76.0128 41.2624 75.999 41.2213 75.999 41.179C75.999 41.1367 76.0128 41.0956 76.0385 41.062C76.0641 41.0284 76.1001 41.0041 76.1408 40.9929L80.6344 39.8213C81.682 39.5456 82.6055 39.4491 83.8461 39.0632C85.0866 38.6772 86.2996 38.5118 87.0164 37.3402C87.2444 36.9751 87.3945 36.5668 87.4575 36.141V36.141Z" fill="white"/>
<path d="M268.951 146.11C269.062 145.435 269.048 144.732 269.117 144.07C269.213 143.092 269.296 142.099 269.379 141.12L269.71 137.344C269.725 137.272 269.764 137.209 269.82 137.163C269.877 137.117 269.947 137.092 270.02 137.092C270.092 137.092 270.163 137.117 270.219 137.163C270.276 137.209 270.315 137.272 270.33 137.344L272.246 145.766C272.376 146.349 272.693 146.874 273.148 147.262C273.603 147.65 274.171 147.88 274.768 147.916L283.411 148.509C283.482 148.524 283.546 148.563 283.591 148.619C283.637 148.676 283.662 148.746 283.662 148.819C283.662 148.891 283.637 148.962 283.591 149.018C283.546 149.075 283.482 149.114 283.411 149.129L275.016 151.417C274.479 151.561 273.997 151.865 273.636 152.288C273.274 152.712 273.049 153.234 272.99 153.788L271.929 163.202C271.914 163.273 271.875 163.337 271.818 163.383C271.762 163.429 271.691 163.454 271.619 163.454C271.546 163.454 271.475 163.429 271.419 163.383C271.363 163.337 271.324 163.273 271.308 163.202L269.654 154.698C269.545 154.103 269.242 153.561 268.794 153.155C268.345 152.749 267.776 152.501 267.173 152.451L257.593 151.362C257.553 151.351 257.517 151.326 257.491 151.293C257.465 151.259 257.452 151.218 257.452 151.176C257.452 151.134 257.465 151.092 257.491 151.059C257.517 151.025 257.553 151.001 257.593 150.99L262.101 149.818C263.135 149.542 264.058 149.446 265.312 149.06C266.567 148.674 267.766 148.509 268.483 147.337C268.722 146.965 268.881 146.547 268.951 146.11V146.11Z" fill="white"/>
<path d="M195.386 238.435C195.51 237.774 195.483 237.057 195.552 236.409C195.662 235.417 195.731 234.438 195.814 233.446C195.924 232.191 196.048 230.937 196.158 229.669C196.173 229.598 196.212 229.534 196.269 229.488C196.325 229.442 196.396 229.417 196.468 229.417C196.541 229.417 196.611 229.442 196.668 229.488C196.724 229.534 196.763 229.598 196.778 229.669L198.681 238.091C198.809 238.679 199.127 239.209 199.585 239.6C200.043 239.99 200.616 240.221 201.217 240.255L209.859 240.834C209.931 240.849 209.994 240.888 210.04 240.944C210.086 241.001 210.111 241.071 210.111 241.144C210.111 241.217 210.086 241.287 210.04 241.344C209.994 241.4 209.931 241.439 209.859 241.454L201.575 243.701C201.035 243.843 200.551 244.146 200.186 244.569C199.822 244.992 199.595 245.516 199.535 246.072L198.474 255.486C198.459 255.557 198.42 255.621 198.363 255.667C198.307 255.713 198.236 255.737 198.164 255.737C198.091 255.737 198.021 255.713 197.964 255.667C197.908 255.621 197.869 255.557 197.854 255.486L196.2 246.968C196.088 246.377 195.786 245.84 195.341 245.437C194.895 245.034 194.331 244.787 193.732 244.735L184.152 243.632C184.105 243.632 184.059 243.613 184.026 243.579C183.992 243.546 183.973 243.5 183.973 243.453C183.973 243.405 183.992 243.36 184.026 243.326C184.059 243.292 184.105 243.274 184.152 243.274L188.646 242.088C189.693 241.826 190.617 241.716 191.871 241.33C193.126 240.944 194.311 240.779 195.042 239.607C195.227 239.241 195.344 238.844 195.386 238.435V238.435Z" fill="white"/>
<path d="M51.0539 221.509C51.1642 220.847 51.1504 220.13 51.2193 219.482C51.3158 218.504 51.3848 217.511 51.4812 216.519L51.8121 212.756C51.8271 212.685 51.8662 212.621 51.9226 212.575C51.9791 212.529 52.0495 212.504 52.1222 212.504C52.1949 212.504 52.2653 212.529 52.3218 212.575C52.3782 212.621 52.4173 212.685 52.4323 212.756L54.3483 221.164C54.4825 221.738 54.7972 222.254 55.2463 222.636C55.6953 223.018 56.255 223.246 56.8432 223.287L65.4858 223.879C65.5569 223.894 65.6206 223.933 65.6664 223.99C65.7121 224.046 65.7371 224.117 65.7371 224.19C65.7371 224.262 65.7121 224.333 65.6664 224.389C65.6206 224.446 65.5569 224.485 65.4858 224.5L57.0913 226.774C56.5517 226.919 56.0689 227.225 55.7071 227.651C55.3452 228.077 55.1213 228.603 55.0651 229.159L54.0864 238.559C54.0864 238.643 54.053 238.724 53.9936 238.783C53.9341 238.843 53.8535 238.876 53.7694 238.876C53.6853 238.876 53.6047 238.843 53.5452 238.783C53.4858 238.724 53.4524 238.643 53.4524 238.559L51.8258 230.041C51.716 229.446 51.4137 228.904 50.9653 228.498C50.5169 228.092 49.9475 227.844 49.3447 227.794L39.6959 226.691C39.6484 226.691 39.6028 226.672 39.5692 226.639C39.5356 226.605 39.5167 226.56 39.5167 226.512C39.5167 226.465 39.5356 226.419 39.5692 226.385C39.6028 226.352 39.6484 226.333 39.6959 226.333L44.1895 225.161C45.2371 224.886 46.1606 224.775 47.415 224.403C48.6693 224.031 49.8685 223.852 50.5853 222.68C50.8066 222.319 50.965 221.923 51.0539 221.509V221.509Z" fill="white"/>
<path d="M191.044 32.4611C193.511 32.4611 195.51 30.4616 195.51 27.9951C195.51 25.5286 193.511 23.5291 191.044 23.5291C188.578 23.5291 186.578 25.5286 186.578 27.9951C186.578 30.4616 188.578 32.4611 191.044 32.4611Z" fill="white"/>
<path d="M237.758 238.311C240.225 238.311 242.224 236.312 242.224 233.845C242.224 231.379 240.225 229.379 237.758 229.379C235.292 229.379 233.292 231.379 233.292 233.845C233.292 236.312 235.292 238.311 237.758 238.311Z" fill="white"/>
<path d="M178.142 268.484C178.145 269.371 177.884 270.239 177.393 270.978C176.902 271.717 176.203 272.293 175.383 272.634C174.564 272.975 173.662 273.065 172.792 272.892C171.922 272.72 171.122 272.293 170.495 271.666C169.868 271.038 169.441 270.239 169.268 269.368C169.096 268.498 169.186 267.596 169.526 266.777C169.867 265.958 170.444 265.259 171.182 264.767C171.921 264.276 172.789 264.015 173.676 264.018C174.86 264.022 175.994 264.493 176.83 265.33C177.667 266.167 178.139 267.301 178.142 268.484Z" fill="white"/>
<path d="M19.3921 152.257C21.8586 152.257 23.8581 150.258 23.8581 147.791C23.8581 145.325 21.8586 143.325 19.3921 143.325C16.9256 143.325 14.9261 145.325 14.9261 147.791C14.9261 150.258 16.9256 152.257 19.3921 152.257Z" fill="white"/>
<path d="M61.7005 166.06V172H60.3595V168.503L60.418 167.509L60.1885 168.647L59.1895 171.523H57.871L56.8765 168.647L56.6515 167.509L56.71 168.503V172H55.3645V166.06H57.2545L58.4515 170.024L58.5325 170.497L58.6135 170.024L59.8105 166.06H61.7005Z" fill="white"/>
<path d="M66.3874 166.06H67.7329V169.709C67.7329 170.198 67.6369 170.623 67.4449 170.983C67.2529 171.34 66.9784 171.617 66.6214 171.815C66.2644 172.01 65.8384 172.108 65.3434 172.108C64.8454 172.108 64.4164 172.01 64.0564 171.815C63.6964 171.617 63.4204 171.34 63.2284 170.983C63.0394 170.623 62.9449 170.198 62.9449 169.709V166.06H64.2859V169.637C64.2859 169.907 64.3279 170.135 64.4119 170.321C64.4989 170.507 64.6219 170.648 64.7809 170.744C64.9399 170.837 65.1274 170.884 65.3434 170.884C65.5564 170.884 65.7409 170.837 65.8969 170.744C66.0529 170.648 66.1729 170.507 66.2569 170.321C66.3439 170.135 66.3874 169.907 66.3874 169.637V166.06Z" fill="white"/>
<path d="M70.5355 166.06H71.872L74.2165 172H72.781L72.349 170.807H70.063L69.6265 172H68.1865L70.5355 166.06ZM70.513 169.628H71.9035L71.215 167.68H71.2015L70.513 169.628Z" fill="white"/>
<path d="M78.6798 167.293L78.7788 167.311V172H77.4333V166.06H79.2693L81.6768 170.74L81.5778 170.758V166.06H82.9233V172H81.0783L78.6798 167.293Z" fill="white"/>
<path d="M86.9343 168.679H89.9628V169.057C89.9628 169.483 89.8908 169.88 89.7468 170.249C89.6058 170.618 89.4033 170.942 89.1393 171.221C88.8753 171.5 88.5603 171.718 88.1943 171.874C87.8283 172.03 87.4233 172.108 86.9793 172.108C86.5203 172.108 86.1033 172.03 85.7283 171.874C85.3563 171.715 85.0353 171.494 84.7653 171.212C84.4953 170.93 84.2883 170.603 84.1443 170.231C84.0003 169.856 83.9283 169.454 83.9283 169.025C83.9283 168.599 84.0003 168.2 84.1443 167.828C84.2883 167.453 84.4953 167.126 84.7653 166.847C85.0353 166.565 85.3563 166.346 85.7283 166.19C86.1033 166.031 86.5203 165.952 86.9793 165.952C87.3543 165.952 87.6843 165.992 87.9693 166.073C88.2573 166.154 88.5048 166.262 88.7118 166.397C88.9188 166.532 89.0943 166.681 89.2383 166.843C89.3823 167.002 89.5023 167.158 89.5983 167.311L88.3203 167.914C88.1973 167.725 88.0292 167.56 87.8162 167.419C87.6062 167.278 87.3273 167.207 86.9793 167.207C86.7363 167.207 86.5128 167.255 86.3088 167.351C86.1078 167.447 85.9338 167.579 85.7868 167.747C85.6398 167.912 85.5258 168.106 85.4448 168.328C85.3668 168.547 85.3278 168.779 85.3278 169.025C85.3278 169.274 85.3668 169.508 85.4448 169.727C85.5258 169.946 85.6398 170.14 85.7868 170.308C85.9338 170.476 86.1078 170.608 86.3088 170.704C86.5128 170.797 86.7363 170.843 86.9793 170.843C87.1923 170.843 87.3858 170.816 87.5598 170.762C87.7338 170.708 87.8838 170.63 88.0098 170.528C88.1388 170.426 88.2393 170.306 88.3113 170.168C88.3863 170.027 88.4313 169.873 88.4463 169.705H86.9343V168.679Z" fill="white"/>
<path d="M92.5953 166.06H93.9318L96.2763 172H94.8408L94.4088 170.807H92.1228L91.6863 172H90.2463L92.5953 166.06ZM92.5728 169.628H93.9633L93.2748 167.68H93.2613L92.5728 169.628Z" fill="white"/>
<path d="M97.7975 169.862L95.75 166.06H97.3835L98.468 168.323L99.557 166.06H101.181L99.143 169.862V172H97.7975V169.862Z" fill="white"/>
<path d="M191.701 166.06V172H190.36V168.503L190.418 167.509L190.189 168.647L189.19 171.523H187.871L186.877 168.647L186.652 167.509L186.71 168.503V172H185.365V166.06H187.255L188.452 170.024L188.533 170.497L188.614 170.024L189.811 166.06H191.701Z" fill="white"/>
<path d="M196.387 166.06H197.733V169.709C197.733 170.198 197.637 170.623 197.445 170.983C197.253 171.34 196.978 171.617 196.621 171.815C196.264 172.01 195.838 172.108 195.343 172.108C194.845 172.108 194.416 172.01 194.056 171.815C193.696 171.617 193.42 171.34 193.228 170.983C193.039 170.623 192.945 170.198 192.945 169.709V166.06H194.286V169.637C194.286 169.907 194.328 170.135 194.412 170.321C194.499 170.507 194.622 170.648 194.781 170.744C194.94 170.837 195.127 170.884 195.343 170.884C195.556 170.884 195.741 170.837 195.897 170.744C196.053 170.648 196.173 170.507 196.257 170.321C196.344 170.135 196.387 169.907 196.387 169.637V166.06Z" fill="white"/>
<path d="M200.535 166.06H201.872L204.216 172H202.781L202.349 170.807H200.063L199.626 172H198.186L200.535 166.06ZM200.513 169.628H201.903L201.215 167.68H201.201L200.513 169.628Z" fill="white"/>
<path d="M208.68 167.293L208.779 167.311V172H207.433V166.06H209.269L211.677 170.74L211.578 170.758V166.06H212.923V172H211.078L208.68 167.293Z" fill="white"/>
<path d="M216.934 168.679H219.963V169.057C219.963 169.483 219.891 169.88 219.747 170.249C219.606 170.618 219.403 170.942 219.139 171.221C218.875 171.5 218.56 171.718 218.194 171.874C217.828 172.03 217.423 172.108 216.979 172.108C216.52 172.108 216.103 172.03 215.728 171.874C215.356 171.715 215.035 171.494 214.765 171.212C214.495 170.93 214.288 170.603 214.144 170.231C214 169.856 213.928 169.454 213.928 169.025C213.928 168.599 214 168.2 214.144 167.828C214.288 167.453 214.495 167.126 214.765 166.847C215.035 166.565 215.356 166.346 215.728 166.19C216.103 166.031 216.52 165.952 216.979 165.952C217.354 165.952 217.684 165.992 217.969 166.073C218.257 166.154 218.505 166.262 218.712 166.397C218.919 166.532 219.094 166.681 219.238 166.843C219.382 167.002 219.502 167.158 219.598 167.311L218.32 167.914C218.197 167.725 218.029 167.56 217.816 167.419C217.606 167.278 217.327 167.207 216.979 167.207C216.736 167.207 216.513 167.255 216.309 167.351C216.108 167.447 215.934 167.579 215.787 167.747C215.64 167.912 215.526 168.106 215.445 168.328C215.367 168.547 215.328 168.779 215.328 169.025C215.328 169.274 215.367 169.508 215.445 169.727C215.526 169.946 215.64 170.14 215.787 170.308C215.934 170.476 216.108 170.608 216.309 170.704C216.513 170.797 216.736 170.843 216.979 170.843C217.192 170.843 217.386 170.816 217.56 170.762C217.734 170.708 217.884 170.63 218.01 170.528C218.139 170.426 218.239 170.306 218.311 170.168C218.386 170.027 218.431 169.873 218.446 169.705H216.934V168.679Z" fill="white"/>
<path d="M222.595 166.06H223.932L226.276 172H224.841L224.409 170.807H222.123L221.686 172H220.246L222.595 166.06ZM222.573 169.628H223.963L223.275 167.68H223.261L222.573 169.628Z" fill="white"/>
<path d="M227.797 169.862L225.75 166.06H227.383L228.468 168.323L229.557 166.06H231.181L229.143 169.862V172H227.797V169.862Z" fill="white"/>
</svg>
