<svg width="294" height="294" viewBox="0 0 294 294" fill="none" xmlns="http://www.w3.org/2000/svg">
<path d="M146.907 293.758C120.484 293.767 94.5473 286.645 71.8332 273.144C49.119 259.643 30.4689 240.263 17.8493 217.048C6.19465 195.609 0.0605544 171.606 0.000446052 147.205C-0.0596623 122.803 5.95611 98.7707 17.505 77.275V65.2658C17.4049 64.767 17.3541 64.2596 17.3535 63.7509V48.9046C17.3535 46.8153 18.1835 44.8116 19.6609 43.3343C21.1382 41.8569 23.1419 41.027 25.2312 41.027H45.0629C62.3831 24.3653 83.5273 12.2084 106.641 5.62247C129.754 -0.963431 154.13 -1.77705 177.631 3.25299C201.132 8.28302 223.04 19.003 241.433 34.4727C259.825 49.9423 274.141 69.6889 283.124 91.9803C292.107 114.272 295.482 138.427 292.955 162.327C290.427 186.227 282.073 209.141 268.626 229.061C255.179 248.98 237.049 265.295 215.828 276.575C194.606 287.855 170.941 293.755 146.907 293.758V293.758Z" fill="white"/>
<path d="M285.923 146.879C285.923 174.373 277.769 201.25 262.494 224.111C247.219 246.972 225.508 264.79 200.106 275.312C174.704 285.834 146.753 288.587 119.787 283.223C92.8205 277.859 68.0503 264.619 48.6087 245.177C29.1671 225.736 15.9272 200.966 10.5632 173.999C5.19931 147.033 7.95228 119.082 18.474 93.6799C28.9957 68.2782 46.8137 46.567 69.6746 31.2918C92.5355 16.0166 119.413 7.86353 146.907 7.86353C165.163 7.86353 183.24 11.4593 200.106 18.4454C216.972 25.4316 232.297 35.6714 245.206 48.5801C258.115 61.4889 268.354 76.8138 275.341 93.6799C282.327 110.546 285.923 128.623 285.923 146.879Z" fill="#24CDF3"/>
<path d="M137.405 49.9512V157.497C137.405 158.874 135.711 160.045 133.617 160.045H29.17C27.0766 160.045 25.3827 158.902 25.3827 157.497V49.9512H137.405Z" fill="#DEF9FF"/>
<path d="M137.928 48.9043H25.2312V63.7506H137.928V48.9043Z" fill="#707DFF"/>
<path d="M109.833 56.19C109.833 56.7947 109.654 57.3858 109.318 57.8886C108.982 58.3913 108.504 58.7832 107.946 59.0146C107.387 59.246 106.772 59.3066 106.179 59.1886C105.586 59.0706 105.041 58.7795 104.614 58.3519C104.186 57.9243 103.895 57.3795 103.777 56.7864C103.659 56.1934 103.719 55.5786 103.951 55.02C104.182 54.4613 104.574 53.9838 105.077 53.6478C105.58 53.3119 106.171 53.1326 106.776 53.1326C107.585 53.1362 108.361 53.4595 108.933 54.0321C109.506 54.6047 109.829 55.3802 109.833 56.19V56.19Z" fill="#FFD4C5"/>
<path d="M119.446 56.19C119.446 56.7947 119.267 57.3858 118.931 57.8886C118.595 58.3913 118.117 58.7832 117.558 59.0146C117 59.246 116.385 59.3066 115.792 59.1886C115.199 59.0706 114.654 58.7795 114.227 58.3519C113.799 57.9243 113.508 57.3795 113.39 56.7864C113.272 56.1934 113.332 55.5786 113.564 55.02C113.795 54.4613 114.187 53.9838 114.69 53.6478C115.193 53.3119 115.784 53.1326 116.388 53.1326C117.198 53.1362 117.974 53.4595 118.546 54.0321C119.119 54.6047 119.442 55.3802 119.446 56.19V56.19Z" fill="#FC8AAA"/>
<path d="M129.059 56.19C129.061 56.798 128.884 57.3931 128.548 57.8999C128.212 58.4068 127.733 58.8026 127.172 59.0372C126.611 59.2717 125.994 59.3345 125.397 59.2176C124.8 59.1006 124.252 58.8092 123.821 58.3803C123.39 57.9513 123.096 57.4041 122.976 56.808C122.857 56.2119 122.917 55.5936 123.149 55.0316C123.381 54.4697 123.775 53.9892 124.28 53.6511C124.785 53.313 125.38 53.1326 125.988 53.1326C126.8 53.1326 127.579 53.4542 128.154 54.0272C128.73 54.6002 129.055 55.3778 129.059 56.19V56.19Z" fill="#FFD26B"/>
<path d="M64.3852 81.7234L68.1863 69.4387H99.8895L103.911 80.1534L127.131 89.3118L116.871 148.27H52.9957L38.9344 90.4274L64.3852 81.7234Z" fill="#FFE173"/>
<path d="M68.1862 69.4387L85.6492 84.6844L99.8895 69.4387H68.1862Z" fill="#D9C168"/>
<path d="M64.3851 81.7234L72.4831 100.481L85.539 84.8496L96.0333 100.137L104.297 80.4839" stroke="#FC8AAA" stroke-width="0.48" stroke-linecap="round" stroke-linejoin="round"/>
<path d="M85.539 84.8496L84.6576 148.38" stroke="#FC8AAA" stroke-width="0.48" stroke-linecap="round" stroke-linejoin="round"/>
<path d="M93.4717 109.75H115.135C115.135 109.75 115.025 125.822 105.192 126.496C95.9232 127.13 93.4717 109.75 93.4717 109.75Z" stroke="#FC8AAA" stroke-width="0.48" stroke-linecap="round" stroke-linejoin="round"/>
<path d="M162.554 176.407L162.556 176.407L275.018 145.089L162.554 176.407ZM162.554 176.407C162.15 176.521 161.727 176.555 161.31 176.505C160.893 176.455 160.49 176.324 160.124 176.118C159.758 175.912 159.436 175.636 159.177 175.306C158.917 174.976 158.726 174.597 158.613 174.193C158.613 174.193 158.613 174.193 158.613 174.193L140.462 108.968L140.461 108.966M162.554 176.407L140.461 108.966M140.461 108.966C140.347 108.562 140.314 108.14 140.363 107.723M140.461 108.966L140.363 107.723M277.259 141.156L259.095 75.9371L277.259 141.156ZM277.259 141.156C277.259 141.156 277.259 141.156 277.259 141.157M277.259 141.156L277.259 141.157M277.259 141.157C277.479 141.975 277.366 142.847 276.947 143.583C276.528 144.319 275.835 144.861 275.019 145.089L277.259 141.157ZM140.363 107.723C140.413 107.305 140.544 106.902 140.75 106.536M140.363 107.723L140.75 106.536M140.75 106.536C140.956 106.17 141.232 105.848 141.562 105.589M140.75 106.536L141.562 105.589M141.562 105.589C141.893 105.33 142.271 105.138 142.676 105.025M141.562 105.589L142.676 105.025M142.676 105.025L255.138 73.708C255.138 73.708 255.138 73.7079 255.138 73.7079C255.958 73.4806 256.835 73.5876 257.577 74.0053C258.318 74.4228 258.864 75.1169 259.095 75.9357L142.676 105.025Z" fill="white" stroke="#FF529B"/>
<path d="M143.253 119.043L261.894 86.0073L264.984 97.104L146.343 130.14L143.253 119.043Z" fill="#EEEEEE" stroke="#FF529B"/>
<path fill-rule="evenodd" clip-rule="evenodd" d="M181.613 156.667C182.734 156.367 183.929 156.526 184.935 157.11C185.941 157.693 186.676 158.654 186.978 159.78C187.279 160.906 187.123 162.105 186.544 163.113C185.964 164.122 185.009 164.857 183.888 165.157L178.144 166.697C177.022 166.997 175.827 166.838 174.821 166.254C173.815 165.671 173.08 164.71 172.778 163.584C172.477 162.459 172.633 161.259 173.212 160.251C173.792 159.242 174.747 158.507 175.869 158.207L181.613 156.667Z" fill="#24CDF3"/>
<path fill-rule="evenodd" clip-rule="evenodd" d="M171.909 143.615L191.221 138.441C192.315 138.165 193.473 138.324 194.454 138.885C195.435 139.445 196.164 140.364 196.488 141.449C196.812 142.534 196.707 143.701 196.193 144.709C195.68 145.716 194.799 146.484 193.734 146.854L174.204 152.087C173.11 152.363 171.952 152.204 170.971 151.643C169.99 151.083 169.261 150.165 168.937 149.08C168.613 147.995 168.718 146.827 169.231 145.82C169.745 144.812 170.626 144.044 171.691 143.674L171.909 143.615Z" fill="#24CDF3"/>
<path fill-rule="evenodd" clip-rule="evenodd" d="M198.781 120.75C199.894 120.418 201.094 120.543 202.116 121.097C203.139 121.652 203.901 122.592 204.235 123.709C204.568 124.826 204.446 126.03 203.896 127.055C203.345 128.08 202.41 128.843 201.298 129.176L170.28 137.487C169.159 137.774 167.97 137.609 166.967 137.028C165.964 136.446 165.227 135.494 164.915 134.375C164.645 133.291 164.788 132.146 165.315 131.163C165.841 130.181 166.715 129.432 167.763 129.062L198.781 120.75V120.75Z" fill="#24CDF3"/>
<path d="M264.672 129.802C265.109 131.36 265.074 133.014 264.571 134.552C264.068 136.091 263.119 137.445 261.846 138.445C260.572 139.444 259.031 140.043 257.417 140.166C255.803 140.289 254.189 139.931 252.779 139.136C251.368 138.341 250.226 137.146 249.495 135.702C248.765 134.257 248.479 132.628 248.675 131.021C248.87 129.414 249.538 127.902 250.594 126.675C251.649 125.447 253.045 124.561 254.605 124.128C256.692 123.547 258.925 123.819 260.812 124.883C262.699 125.947 264.088 127.716 264.672 129.802V129.802Z" fill="#FFEEE8"/>
<mask id="path-19-inside-1_49_267" fill="white">
<path d="M198.181 209.074C198.087 209.186 197.986 209.292 197.878 209.39L197.795 209.473C194.311 212.586 182.646 210.63 181.861 210.478C181.861 210.478 181.861 210.85 182.026 211.498C183.045 217.968 183.583 224.504 183.637 231.054C183.637 237.375 182.687 243.228 179.85 245.239L179.671 245.377C178.222 246.214 176.601 246.712 174.931 246.834C173.262 246.956 171.586 246.698 170.031 246.079C169.558 245.926 169.098 245.737 168.653 245.515L168.543 245.68C168.512 245.754 168.471 245.824 168.419 245.886C168.245 246.136 168.057 246.375 167.855 246.603C167.073 247.405 166.14 248.045 165.109 248.485C164.078 248.925 162.971 249.156 161.85 249.164C160.352 249.274 158.845 249.214 157.36 248.985C156.797 248.936 156.254 248.751 155.777 248.448C155.777 248.448 152.609 252.938 145.682 249.66C141.233 247.553 137.294 236.287 137.294 236.287L122.71 226.564C122.71 226.564 113.455 246.492 105.922 255.485C100.348 262.254 93.4068 267.769 85.5528 271.668C59.7445 258.959 38.5006 238.576 24.7354 213.315C51.8388 189.407 91.3233 155.376 96.6807 155.06C104.944 154.578 151.149 149.716 151.149 149.716L154.028 159.756V159.921C156.726 158.188 159.632 156.8 162.676 155.79C164.878 154.966 167.276 154.818 169.562 155.363L169.824 155.459C171.993 156.26 173.992 157.46 175.719 158.998C176.788 159.946 177.741 161.019 178.556 162.194C180.564 164.964 181.539 168.351 181.31 171.765C181.31 172.054 181.31 172.344 181.214 172.633V172.702L181.296 172.784L181.365 172.867C184.561 176.69 187.487 180.731 190.124 184.959V184.959C190.675 185.813 191.24 186.708 191.832 187.713C195.716 193.979 198.787 198.579 199.572 202.463C199.863 203.598 199.889 204.784 199.648 205.931C199.407 207.077 198.905 208.152 198.181 209.074V209.074Z"/>
</mask>
<path d="M198.181 209.074C198.087 209.186 197.986 209.292 197.878 209.39L197.795 209.473C194.311 212.586 182.646 210.63 181.861 210.478C181.861 210.478 181.861 210.85 182.026 211.498C183.045 217.968 183.583 224.504 183.637 231.054C183.637 237.375 182.687 243.228 179.85 245.239L179.671 245.377C178.222 246.214 176.601 246.712 174.931 246.834C173.262 246.956 171.586 246.698 170.031 246.079C169.558 245.926 169.098 245.737 168.653 245.515L168.543 245.68C168.512 245.754 168.471 245.824 168.419 245.886C168.245 246.136 168.057 246.375 167.855 246.603C167.073 247.405 166.14 248.045 165.109 248.485C164.078 248.925 162.971 249.156 161.85 249.164C160.352 249.274 158.845 249.214 157.36 248.985C156.797 248.936 156.254 248.751 155.777 248.448C155.777 248.448 152.609 252.938 145.682 249.66C141.233 247.553 137.294 236.287 137.294 236.287L122.71 226.564C122.71 226.564 113.455 246.492 105.922 255.485C100.348 262.254 93.4068 267.769 85.5528 271.668C59.7445 258.959 38.5006 238.576 24.7354 213.315C51.8388 189.407 91.3233 155.376 96.6807 155.06C104.944 154.578 151.149 149.716 151.149 149.716L154.028 159.756V159.921C156.726 158.188 159.632 156.8 162.676 155.79C164.878 154.966 167.276 154.818 169.562 155.363L169.824 155.459C171.993 156.26 173.992 157.46 175.719 158.998C176.788 159.946 177.741 161.019 178.556 162.194C180.564 164.964 181.539 168.351 181.31 171.765C181.31 172.054 181.31 172.344 181.214 172.633V172.702L181.296 172.784L181.365 172.867C184.561 176.69 187.487 180.731 190.124 184.959V184.959C190.675 185.813 191.24 186.708 191.832 187.713C195.716 193.979 198.787 198.579 199.572 202.463C199.863 203.598 199.889 204.784 199.648 205.931C199.407 207.077 198.905 208.152 198.181 209.074V209.074Z" fill="#FCC2A5"/>
<path d="M197.878 209.39L197.202 208.654L197.186 208.668L197.171 208.683L197.878 209.39ZM197.795 209.473L198.461 210.219L198.482 210.2L198.502 210.18L197.795 209.473ZM181.861 210.478L182.05 209.497L180.861 209.267L180.861 210.478L181.861 210.478ZM182.026 211.498L183.014 211.342L183.007 211.296L182.995 211.25L182.026 211.498ZM183.637 231.054H184.637L184.637 231.046L183.637 231.054ZM179.85 245.239L179.272 244.423L179.256 244.435L179.24 244.446L179.85 245.239ZM179.671 245.377L180.171 246.243L180.228 246.21L180.281 246.169L179.671 245.377ZM170.031 246.079L170.4 245.15L170.37 245.138L170.339 245.128L170.031 246.079ZM168.653 245.515L169.101 244.62L168.312 244.225L167.821 244.96L168.653 245.515ZM168.543 245.68L167.711 245.125L167.657 245.206L167.62 245.296L168.543 245.68ZM168.419 245.886L167.646 245.252L167.621 245.282L167.599 245.314L168.419 245.886ZM167.855 246.603L168.571 247.3L168.587 247.284L168.602 247.267L167.855 246.603ZM161.85 249.164L161.842 248.164L161.81 248.164L161.777 248.167L161.85 249.164ZM157.36 248.985L157.513 247.997L157.48 247.992L157.448 247.989L157.36 248.985ZM155.777 248.448L156.313 247.604L155.509 247.093L154.959 247.871L155.777 248.448ZM145.682 249.66L145.254 250.564L145.254 250.564L145.682 249.66ZM137.294 236.287L138.238 235.957L138.128 235.641L137.849 235.455L137.294 236.287ZM122.71 226.564L123.265 225.732L122.294 225.085L121.803 226.143L122.71 226.564ZM105.922 255.485L105.155 254.843L105.15 254.85L105.922 255.485ZM85.5528 271.668L85.1111 272.565L85.5546 272.783L85.9975 272.563L85.5528 271.668ZM24.7354 213.315L24.0739 212.566L23.4755 213.093L23.8573 213.794L24.7354 213.315ZM96.6807 155.06L96.6224 154.061L96.6216 154.061L96.6807 155.06ZM151.149 149.716L152.11 149.44L151.879 148.634L151.045 148.722L151.149 149.716ZM154.028 159.756H155.028V159.615L154.989 159.48L154.028 159.756ZM154.028 159.921H153.028V161.752L154.568 160.763L154.028 159.921ZM162.676 155.79L162.991 156.739L163.009 156.733L163.027 156.726L162.676 155.79ZM169.562 155.363L169.908 154.424L169.852 154.404L169.794 154.39L169.562 155.363ZM169.824 155.459L170.17 154.521L170.17 154.521L169.824 155.459ZM175.719 158.998L175.053 159.745L175.055 159.747L175.719 158.998ZM178.556 162.194L177.734 162.764L177.74 162.772L177.746 162.781L178.556 162.194ZM181.31 171.765L180.312 171.698L180.31 171.732V171.765H181.31ZM181.214 172.633L180.265 172.317L180.214 172.47V172.633H181.214ZM181.214 172.702H180.214V173.116L180.506 173.409L181.214 172.702ZM181.296 172.784L182.064 172.144L182.035 172.109L182.003 172.077L181.296 172.784ZM181.365 172.867L180.597 173.507L180.598 173.508L181.365 172.867ZM191.832 187.713L190.97 188.221L190.976 188.23L190.982 188.24L191.832 187.713ZM199.572 202.463L198.592 202.661L198.597 202.687L198.603 202.712L199.572 202.463ZM197.415 208.431C197.349 208.51 197.277 208.584 197.202 208.654L198.554 210.127C198.694 209.999 198.825 209.862 198.947 209.716L197.415 208.431ZM197.171 208.683L197.088 208.766L198.502 210.18L198.585 210.097L197.171 208.683ZM197.129 208.727C196.477 209.31 195.33 209.733 193.79 209.977C192.282 210.215 190.543 210.259 188.85 210.2C185.466 210.084 182.407 209.565 182.05 209.497L181.671 211.46C182.1 211.543 185.266 212.078 188.781 212.199C190.539 212.26 192.418 212.218 194.102 211.952C195.753 211.692 197.371 211.193 198.461 210.219L197.129 208.727ZM181.861 210.478C180.861 210.478 180.861 210.479 180.861 210.479C180.861 210.479 180.861 210.479 180.861 210.479C180.861 210.48 180.861 210.48 180.861 210.48C180.861 210.481 180.861 210.481 180.861 210.482C180.861 210.483 180.861 210.485 180.861 210.486C180.861 210.489 180.861 210.493 180.861 210.497C180.861 210.504 180.861 210.513 180.862 210.524C180.862 210.545 180.863 210.572 180.865 210.604C180.869 210.669 180.876 210.756 180.889 210.863C180.914 211.079 180.963 211.377 181.057 211.745L182.995 211.25C182.924 210.971 182.89 210.76 182.875 210.627C182.867 210.561 182.863 210.515 182.862 210.489C182.861 210.477 182.861 210.469 182.861 210.467C182.861 210.466 182.861 210.467 182.861 210.469C182.861 210.47 182.861 210.471 182.861 210.473C182.861 210.473 182.861 210.474 182.861 210.475C182.861 210.476 182.861 210.476 182.861 210.477C182.861 210.477 182.861 210.477 182.861 210.478C182.861 210.478 182.861 210.478 182.861 210.478C182.861 210.478 182.861 210.478 181.861 210.478ZM181.038 211.653C182.049 218.074 182.584 224.562 182.637 231.062L184.637 231.046C184.583 224.447 184.04 217.861 183.014 211.342L181.038 211.653ZM182.637 231.054C182.637 234.175 182.402 237.133 181.835 239.533C181.257 241.975 180.383 243.636 179.272 244.423L180.428 246.055C182.154 244.832 183.174 242.56 183.781 239.993C184.398 237.383 184.637 234.254 184.637 231.054H182.637ZM179.24 244.446L179.061 244.584L180.281 246.169L180.46 246.032L179.24 244.446ZM179.171 244.511C177.852 245.273 176.378 245.726 174.859 245.837L175.004 247.831C176.824 247.699 178.591 247.156 180.171 246.243L179.171 244.511ZM174.859 245.837C173.34 245.947 171.815 245.712 170.4 245.15L169.661 247.008C171.357 247.683 173.184 247.964 175.004 247.831L174.859 245.837ZM170.339 245.128C169.914 244.99 169.501 244.821 169.101 244.62L168.205 246.409C168.695 246.654 169.202 246.862 169.722 247.03L170.339 245.128ZM167.821 244.96L167.711 245.125L169.375 246.234L169.485 246.069L167.821 244.96ZM167.62 245.296C167.627 245.28 167.635 245.265 167.646 245.252L169.193 246.52C169.306 246.382 169.398 246.229 169.467 246.064L167.62 245.296ZM167.599 245.314C167.447 245.532 167.283 245.74 167.107 245.938L168.602 247.267C168.83 247.01 169.043 246.74 169.24 246.458L167.599 245.314ZM167.138 245.905C166.449 246.613 165.626 247.177 164.717 247.565L165.501 249.405C166.654 248.913 167.697 248.198 168.571 247.3L167.138 245.905ZM164.717 247.565C163.808 247.953 162.831 248.157 161.842 248.164L161.858 250.164C163.111 250.155 164.349 249.896 165.501 249.405L164.717 247.565ZM161.777 248.167C160.354 248.271 158.923 248.214 157.513 247.997L157.208 249.973C158.768 250.214 160.35 250.277 161.923 250.161L161.777 248.167ZM157.448 247.989C157.044 247.953 156.655 247.822 156.313 247.604L155.24 249.292C155.853 249.681 156.55 249.918 157.273 249.981L157.448 247.989ZM155.777 248.448C154.959 247.871 154.96 247.871 154.96 247.87C154.96 247.87 154.961 247.87 154.961 247.869C154.961 247.869 154.962 247.868 154.962 247.868C154.963 247.867 154.963 247.866 154.963 247.866C154.964 247.865 154.964 247.865 154.963 247.866C154.961 247.869 154.957 247.875 154.949 247.885C154.934 247.904 154.907 247.938 154.869 247.982C154.792 248.072 154.669 248.205 154.499 248.36C154.159 248.67 153.639 249.06 152.932 249.364C151.556 249.956 149.332 250.281 146.109 248.756L145.254 250.564C148.959 252.317 151.782 252.036 153.722 251.202C154.673 250.793 155.377 250.266 155.847 249.837C156.083 249.622 156.262 249.43 156.385 249.287C156.447 249.215 156.495 249.155 156.529 249.111C156.547 249.088 156.561 249.07 156.571 249.055C156.577 249.048 156.581 249.042 156.585 249.037C156.587 249.034 156.589 249.032 156.59 249.03C156.591 249.029 156.591 249.028 156.592 249.027C156.592 249.026 156.593 249.026 156.593 249.026C156.593 249.025 156.594 249.024 155.777 248.448ZM146.11 248.756C145.225 248.337 144.265 247.401 143.3 246.089C142.352 244.8 141.471 243.249 140.714 241.736C139.959 240.227 139.339 238.779 138.907 237.707C138.691 237.171 138.523 236.731 138.409 236.426C138.353 236.274 138.309 236.155 138.281 236.075C138.266 236.035 138.255 236.005 138.248 235.985C138.245 235.975 138.242 235.968 138.241 235.963C138.24 235.961 138.239 235.959 138.239 235.958C138.239 235.958 138.238 235.957 138.238 235.957C138.238 235.957 138.238 235.957 138.238 235.957C138.238 235.957 138.238 235.957 137.294 236.287C136.351 236.617 136.351 236.617 136.351 236.618C136.351 236.618 136.351 236.618 136.351 236.618C136.351 236.619 136.351 236.62 136.352 236.62C136.352 236.622 136.353 236.625 136.354 236.628C136.356 236.634 136.359 236.643 136.364 236.654C136.372 236.677 136.384 236.71 136.399 236.753C136.43 236.84 136.476 236.965 136.535 237.125C136.654 237.444 136.829 237.901 137.052 238.454C137.497 239.56 138.14 241.06 138.926 242.631C139.709 244.198 140.648 245.858 141.689 247.274C142.714 248.667 143.914 249.929 145.254 250.564L146.11 248.756ZM137.849 235.455L123.265 225.732L122.155 227.396L136.74 237.119L137.849 235.455ZM122.71 226.564C121.803 226.143 121.803 226.143 121.803 226.143C121.803 226.143 121.803 226.143 121.803 226.144C121.802 226.144 121.802 226.145 121.801 226.146C121.8 226.148 121.799 226.152 121.797 226.156C121.792 226.166 121.786 226.18 121.777 226.198C121.76 226.236 121.734 226.291 121.699 226.365C121.63 226.512 121.528 226.729 121.395 227.008C121.128 227.567 120.739 228.378 120.248 229.378C119.267 231.379 117.879 234.141 116.258 237.182C113.004 243.287 108.848 250.434 105.155 254.843L106.688 256.128C110.528 251.543 114.767 244.23 118.023 238.123C119.657 235.057 121.055 232.275 122.044 230.259C122.538 229.251 122.931 228.433 123.2 227.868C123.335 227.585 123.439 227.365 123.509 227.215C123.544 227.141 123.571 227.083 123.589 227.045C123.598 227.025 123.605 227.011 123.61 227.001C123.612 226.996 123.614 226.992 123.615 226.989C123.616 226.988 123.616 226.987 123.616 226.987C123.616 226.986 123.617 226.986 123.617 226.986C123.617 226.985 123.617 226.985 122.71 226.564ZM105.15 254.85C99.6657 261.51 92.836 266.936 85.1082 270.772L85.9975 272.563C93.9777 268.602 101.031 262.999 106.694 256.121L105.15 254.85ZM85.9946 270.771C60.3714 258.153 39.2799 237.916 25.6135 212.837L23.8573 213.794C37.7212 239.236 59.1176 259.765 85.1111 272.565L85.9946 270.771ZM25.3969 214.065C38.9464 202.113 55.5841 187.637 69.5007 176.111C76.4606 170.347 82.7288 165.33 87.5852 161.738C90.0152 159.94 92.076 158.511 93.685 157.526C94.4903 157.033 95.1657 156.661 95.7068 156.411C96.2752 156.149 96.6012 156.066 96.7397 156.058L96.6216 154.061C96.0904 154.093 95.4801 154.313 94.8684 154.596C94.2292 154.891 93.4805 155.306 92.6405 155.82C90.9589 156.85 88.8444 158.319 86.3958 160.13C81.4952 163.755 75.1938 168.799 68.225 174.571C54.2841 186.116 37.6278 200.609 24.0739 212.566L25.3969 214.065ZM96.7389 156.058C100.898 155.815 114.544 154.476 127.114 153.202C133.408 152.564 139.442 151.941 143.904 151.478C146.134 151.246 147.972 151.054 149.252 150.92C149.892 150.854 150.392 150.801 150.733 150.765C150.903 150.747 151.033 150.734 151.121 150.725C151.165 150.72 151.198 150.716 151.22 150.714C151.231 150.713 151.24 150.712 151.245 150.711C151.248 150.711 151.25 150.711 151.252 150.711C151.252 150.711 151.253 150.711 151.253 150.711C151.254 150.711 151.254 150.711 151.149 149.716C151.045 148.722 151.044 148.722 151.044 148.722C151.044 148.722 151.043 148.722 151.042 148.722C151.041 148.722 151.039 148.722 151.036 148.722C151.031 148.723 151.022 148.724 151.011 148.725C150.989 148.727 150.956 148.731 150.912 148.736C150.824 148.745 150.694 148.758 150.524 148.776C150.184 148.812 149.683 148.864 149.044 148.931C147.764 149.065 145.927 149.257 143.697 149.489C139.237 149.952 133.204 150.574 126.913 151.212C114.315 152.489 100.727 153.822 96.6224 154.061L96.7389 156.058ZM150.188 149.992L153.066 160.031L154.989 159.48L152.11 149.44L150.188 149.992ZM153.028 159.756V159.921H155.028V159.756H153.028ZM154.568 160.763C157.196 159.074 160.026 157.723 162.991 156.739L162.361 154.84C159.238 155.877 156.256 157.301 153.487 159.08L154.568 160.763ZM163.027 156.726C165.042 155.972 167.237 155.836 169.331 156.335L169.794 154.39C167.314 153.799 164.714 153.96 162.326 154.853L163.027 156.726ZM169.217 156.301L169.478 156.397L170.17 154.521L169.908 154.424L169.217 156.301ZM169.478 156.397C171.529 157.155 173.421 158.29 175.053 159.745L176.384 158.252C174.564 156.63 172.457 155.365 170.17 154.521L169.478 156.397ZM175.055 159.747C176.065 160.642 176.965 161.655 177.734 162.764L179.377 161.624C178.517 160.383 177.511 159.251 176.382 158.25L175.055 159.747ZM177.746 162.781C179.617 165.362 180.525 168.517 180.312 171.698L182.308 171.832C182.552 168.184 181.511 164.566 179.365 161.607L177.746 162.781ZM180.31 171.765C180.31 172.077 180.302 172.205 180.265 172.317L182.162 172.949C182.318 172.482 182.31 172.032 182.31 171.765H180.31ZM180.214 172.633V172.702H182.214V172.633H180.214ZM180.506 173.409L180.589 173.491L182.003 172.077L181.921 171.995L180.506 173.409ZM180.528 173.424L180.597 173.507L182.133 172.227L182.064 172.144L180.528 173.424ZM180.598 173.508C183.764 177.296 186.663 181.299 189.276 185.488L190.973 184.43C188.311 180.162 185.358 176.084 182.132 172.226L180.598 173.508ZM189.284 185.501C189.831 186.349 190.387 187.231 190.97 188.221L192.693 187.206C192.092 186.184 191.519 185.277 190.964 184.417L189.284 185.501ZM190.982 188.24C192.936 191.393 194.654 194.077 195.991 196.469C197.329 198.864 198.231 200.875 198.592 202.661L200.552 202.265C200.128 200.167 199.101 197.936 197.737 195.494C196.371 193.049 194.611 190.299 192.682 187.186L190.982 188.24ZM198.603 202.712C198.856 203.698 198.879 204.729 198.669 205.725L200.626 206.137C200.899 204.84 200.87 203.498 200.54 202.214L198.603 202.712ZM198.669 205.725C198.46 206.721 198.023 207.655 197.394 208.456L198.967 209.691C199.786 208.65 200.353 207.433 200.626 206.137L198.669 205.725Z" fill="#F2B89A" mask="url(#path-19-inside-1_49_267)"/>
<path d="M100.606 192.657C107.461 189.866 114.014 186.382 120.162 182.259C130.546 175.373 147.706 163.116 157.718 157.648C167.731 152.181 173.956 155.459 178.376 160.568C182.797 165.678 182.384 171.682 180.924 174.244C178.693 178.155 165.61 187.369 156.314 193.759C147.018 200.149 135.146 206.525 133.328 209.073C131.51 211.621 124.886 220.628 122.806 226.522" stroke="black" stroke-width="0.52" stroke-linecap="round" stroke-linejoin="round"/>
<path d="M172.675 157.814C172.297 157.529 171.848 157.354 171.377 157.305C170.907 157.256 170.431 157.337 170.003 157.538C165.472 159.714 151.452 167.441 157.14 176.971C162.828 186.501 175.677 175.828 179.313 172.454C179.63 172.161 179.868 171.793 180.003 171.383C180.138 170.973 180.166 170.536 180.084 170.112C179.19 165.249 176.557 160.877 172.675 157.814V157.814Z" stroke="black" stroke-width="0.52" stroke-linecap="round" stroke-linejoin="round"/>
<path d="M181.324 172.536C181.324 172.536 199.627 196.128 199.806 202.835C199.985 209.542 196.28 214.197 181.82 210.437C181.82 210.437 169.356 197.725 163.695 188.787" stroke="black" stroke-width="0.52" stroke-linecap="round" stroke-linejoin="round"/>
<path d="M189.849 184.546C188.473 186.36 187.627 188.521 187.406 190.788C187.185 193.055 187.597 195.338 188.596 197.385C189.595 199.431 191.142 201.161 193.065 202.381C194.988 203.601 197.212 204.263 199.489 204.295" stroke="black" stroke-width="0.52" stroke-linecap="round" stroke-linejoin="round"/>
<path d="M181.82 210.478C181.82 210.478 184.243 223.603 183.514 232.514C182.784 241.424 181.943 246.988 174.038 247.112C166.133 247.236 163.461 236.287 163.021 234.345C162.58 232.404 159.743 218.535 159.743 218.535L144.786 201.155" stroke="black" stroke-width="0.52" stroke-linecap="round" stroke-linejoin="round"/>
<path d="M159.757 218.314C162.376 216.193 165.364 214.573 168.571 213.535" stroke="black" stroke-width="0.52" stroke-linecap="round" stroke-linejoin="round"/>
<path d="M133.245 209.074L146.563 226.014C146.563 226.014 146.439 244.689 155.804 248.393C165.169 252.098 168.681 245.474 168.681 245.474" stroke="black" stroke-width="0.52" stroke-linecap="round" stroke-linejoin="round"/>
<path d="M146.494 226.013C148.592 224.117 151.114 222.752 153.848 222.033" stroke="black" stroke-width="0.52" stroke-linecap="round" stroke-linejoin="round"/>
<path d="M137.529 236.011C138.57 234.186 140.058 232.655 141.853 231.563" stroke="black" stroke-width="0.52" stroke-linecap="round" stroke-linejoin="round"/>
<path d="M260.362 193.91C261.753 199.093 261.576 204.572 259.853 209.654C258.13 214.736 254.939 219.193 250.683 222.462C246.427 225.73 241.298 227.663 235.943 228.016C230.588 228.369 225.249 227.126 220.601 224.445C215.953 221.763 212.204 217.764 209.829 212.952C207.454 208.14 206.56 202.731 207.258 197.411C207.957 192.09 210.218 187.097 213.755 183.061C217.292 179.026 221.947 176.13 227.13 174.739C234.079 172.875 241.483 173.848 247.715 177.443C253.947 181.038 258.496 186.961 260.362 193.91V193.91Z" fill="#FFD26B"/>
<path d="M265.259 204.217C267.727 189.438 257.746 175.456 242.967 172.988C228.188 170.521 214.206 180.501 211.738 195.28C209.27 210.06 219.251 224.041 234.03 226.509C248.809 228.977 262.791 218.997 265.259 204.217Z" fill="#FFD26B"/>
<path d="M260.362 193.91C261.753 199.093 261.576 204.572 259.853 209.654C258.13 214.736 254.939 219.193 250.683 222.462C246.427 225.73 241.298 227.663 235.943 228.016C230.588 228.369 225.249 227.126 220.601 224.445C215.953 221.763 212.204 217.764 209.829 212.952C207.454 208.14 206.56 202.731 207.258 197.411C207.957 192.09 210.218 187.097 213.755 183.061C217.292 179.026 221.947 176.13 227.13 174.739C234.079 172.875 241.483 173.848 247.715 177.443C253.947 181.038 258.496 186.961 260.362 193.91V193.91Z" stroke="#FF7900" stroke-width="0.5" stroke-miterlimit="10"/>
<path d="M258.769 202.246C259.501 188.636 249.061 177.009 235.451 176.277C221.84 175.544 210.213 185.984 209.481 199.594C208.749 213.205 219.188 224.832 232.799 225.564C246.409 226.297 258.036 215.857 258.769 202.246Z" stroke="#FF7900" stroke-width="0.5" stroke-miterlimit="10"/>
<path d="M235.434 208.757C234.479 209.037 233.48 209.145 232.487 209.074C231.523 208.986 230.586 208.705 229.733 208.247C229.545 208.183 229.378 208.069 229.251 207.917C229.134 207.774 229.046 207.61 228.989 207.435C228.915 207.151 228.955 206.85 229.099 206.595C229.168 206.461 229.266 206.344 229.385 206.251C229.504 206.158 229.641 206.092 229.788 206.058C230.024 205.976 230.281 205.976 230.518 206.058C231.164 206.412 231.868 206.65 232.597 206.76C233.354 206.86 234.124 206.799 234.856 206.581C235.415 206.442 235.943 206.199 236.412 205.865C236.82 205.579 237.155 205.202 237.39 204.763C237.592 204.382 237.641 203.939 237.528 203.524C237.421 203.034 237.13 202.605 236.715 202.325C236.255 202.031 235.731 201.851 235.186 201.802C234.449 201.739 233.707 201.739 232.969 201.802C232.264 201.872 231.553 201.872 230.848 201.802C230.246 201.733 229.66 201.566 229.113 201.306C228.606 201.062 228.159 200.71 227.804 200.273C227.425 199.78 227.153 199.212 227.006 198.607C226.77 197.779 226.799 196.898 227.088 196.087C227.411 195.289 227.938 194.591 228.617 194.062C229.39 193.467 230.275 193.036 231.22 192.795C232.116 192.55 233.048 192.461 233.974 192.534C234.774 192.573 235.555 192.79 236.261 193.167C236.448 193.242 236.617 193.357 236.755 193.505C236.893 193.653 236.997 193.829 237.059 194.021C237.125 194.302 237.081 194.598 236.935 194.847C236.873 194.979 236.783 195.095 236.672 195.188C236.56 195.281 236.429 195.348 236.288 195.384C236.102 195.454 235.896 195.454 235.71 195.384C235.357 195.176 234.97 195.031 234.567 194.957C234.112 194.872 233.652 194.821 233.189 194.806C232.725 194.788 232.261 194.839 231.812 194.957C231.23 195.097 230.678 195.345 230.187 195.687C229.805 195.951 229.5 196.312 229.306 196.734C229.141 197.145 229.119 197.599 229.244 198.024C229.369 198.449 229.633 198.819 229.994 199.075C230.411 199.335 230.882 199.495 231.371 199.543C232.008 199.604 232.647 199.627 233.286 199.612C234.065 199.564 234.847 199.564 235.627 199.612C236.266 199.639 236.896 199.779 237.486 200.026C238.024 200.243 238.498 200.594 238.863 201.045C239.279 201.587 239.575 202.211 239.731 202.876C239.967 203.712 239.924 204.602 239.607 205.41C239.264 206.223 238.725 206.938 238.037 207.49C237.274 208.099 236.385 208.532 235.434 208.757V208.757ZM237.156 210.038C237.223 210.33 237.175 210.636 237.02 210.893C236.866 211.15 236.619 211.337 236.329 211.415C236.184 211.457 236.032 211.468 235.882 211.447C235.733 211.425 235.589 211.372 235.462 211.291C235.202 211.128 235.015 210.872 234.938 210.575L229.967 192.01C229.928 191.865 229.918 191.714 229.939 191.566C229.96 191.417 230.01 191.275 230.087 191.146C230.164 191.017 230.267 190.906 230.388 190.818C230.509 190.729 230.647 190.667 230.793 190.633C230.935 190.592 231.085 190.581 231.231 190.6C231.378 190.619 231.52 190.668 231.647 190.743C231.913 190.909 232.105 191.17 232.184 191.473L237.156 210.038Z" fill="black"/>
<path d="M204.282 54.3493C210.617 40.7702 204.745 24.6268 191.166 18.2919C177.587 11.9571 161.443 17.8296 155.108 31.4086C148.774 44.9876 154.646 61.131 168.225 67.4659C181.804 73.8008 197.948 67.9283 204.282 54.3493Z" fill="#FFD26B"/>
<path d="M184.844 71.4042C199.821 70.9388 211.584 58.4204 211.119 43.4436C210.654 28.4668 198.135 16.7031 183.158 17.1685C168.182 17.6339 156.418 30.1523 156.883 45.1291C157.349 60.1059 169.867 71.8697 184.844 71.4042Z" fill="#FFD26B"/>
<path d="M204.282 54.3493C210.617 40.7702 204.745 24.6268 191.166 18.2919C177.587 11.9571 161.443 17.8296 155.108 31.4086C148.774 44.9876 154.646 61.131 168.225 67.4659C181.804 73.8008 197.948 67.9283 204.282 54.3493Z" stroke="#FF7900" stroke-width="0.5" stroke-miterlimit="10"/>
<path d="M199.538 57.5213C207.634 46.5561 205.308 31.104 194.343 23.008C183.377 14.9119 167.925 17.2378 159.829 28.203C151.733 39.1681 154.059 54.6203 165.024 62.7163C175.989 70.8123 191.442 68.4865 199.538 57.5213Z" stroke="#FF7900" stroke-width="0.5" stroke-miterlimit="10"/>
<path d="M176.476 50.1163C175.521 49.8158 174.626 49.3497 173.832 48.7391C173.077 48.1336 172.45 47.3847 171.986 46.5355C171.868 46.3733 171.792 46.1839 171.766 45.9847C171.725 45.8034 171.725 45.6151 171.766 45.4338C171.861 45.1597 172.059 44.9328 172.317 44.8003C172.45 44.7255 172.597 44.6795 172.749 44.6653C172.901 44.651 173.054 44.6689 173.198 44.7176C173.433 44.8074 173.631 44.972 173.763 45.1859C174.123 45.8326 174.588 46.4145 175.14 46.9074C175.727 47.4014 176.406 47.7757 177.137 48.0092C177.682 48.1927 178.257 48.2721 178.831 48.2433C179.312 48.2238 179.783 48.0967 180.208 47.8714C180.589 47.665 180.875 47.3196 181.007 46.9074C181.186 46.442 181.186 45.9267 181.007 45.4613C180.772 44.9683 180.428 44.5351 180.002 44.1943C179.431 43.7208 178.818 43.3013 178.17 42.941C177.543 42.6078 176.953 42.2109 176.407 41.7566C175.945 41.3637 175.55 40.8987 175.236 40.3794C174.948 39.8962 174.77 39.3555 174.713 38.7956C174.665 38.1744 174.749 37.55 174.961 36.964C175.212 36.1395 175.724 35.4192 176.421 34.9119C177.123 34.4159 177.946 34.1207 178.803 34.0581C179.774 33.9826 180.749 34.1092 181.668 34.4299C182.548 34.714 183.372 35.1473 184.106 35.7107C184.747 36.1834 185.278 36.7896 185.662 37.4873C185.777 37.6541 185.854 37.8442 185.888 38.0442C185.921 38.2442 185.91 38.449 185.855 38.6442C185.76 38.9154 185.562 39.1381 185.304 39.2639C185.179 39.3392 185.039 39.3867 184.894 39.4033C184.749 39.42 184.603 39.4053 184.464 39.3603C184.271 39.3072 184.104 39.1846 183.996 39.016C183.817 38.6498 183.575 38.3186 183.279 38.0382C182.942 37.7066 182.578 37.4026 182.191 37.1292C181.82 36.8676 181.411 36.6634 180.979 36.5233C180.415 36.3163 179.817 36.2181 179.217 36.234C178.731 36.2322 178.254 36.3657 177.839 36.6197C177.491 36.8518 177.233 37.1972 177.109 37.5975C176.933 38.0396 176.933 38.5325 177.109 38.9747C177.319 39.4294 177.635 39.8265 178.032 40.1315C178.527 40.542 179.052 40.9149 179.602 41.2471C180.275 41.6384 180.924 42.0707 181.544 42.5416C182.083 42.9134 182.55 43.3801 182.921 43.9189C183.267 44.4151 183.472 44.9958 183.513 45.599C183.568 46.2813 183.474 46.9673 183.238 47.6098C182.982 48.4392 182.453 49.1577 181.737 49.648C181.01 50.1487 180.165 50.4524 179.285 50.5294C178.33 50.5926 177.373 50.4517 176.476 50.1163V50.1163ZM177.206 52.127C177.161 52.2712 177.088 52.4051 176.991 52.5209C176.894 52.6368 176.775 52.7322 176.641 52.8018C176.498 52.8665 176.343 52.8999 176.187 52.8999C176.03 52.8999 175.875 52.8665 175.732 52.8018C175.588 52.7599 175.455 52.6862 175.343 52.5861C175.231 52.486 175.143 52.3621 175.085 52.2234C175.027 52.0838 174.997 51.934 174.997 51.7827C174.997 51.6314 175.027 51.4816 175.085 51.342L181.076 33.2042C181.121 33.0566 181.196 32.9196 181.295 32.8014C181.395 32.6831 181.517 32.5859 181.654 32.5156C181.797 32.4509 181.952 32.4175 182.109 32.4175C182.265 32.4175 182.42 32.4509 182.563 32.5156C182.706 32.5569 182.837 32.6289 182.949 32.7264C183.061 32.8239 183.15 32.9447 183.21 33.0802C183.272 33.2214 183.304 33.3738 183.304 33.5278C183.304 33.6819 183.272 33.8343 183.21 33.9754L177.206 52.127Z" fill="black"/>
<path d="M122.641 26.69C122.765 25.9738 122.751 25.2164 122.834 24.5002C122.944 23.4398 123.013 22.3793 123.109 21.3189C123.233 19.9417 123.343 18.5645 123.467 17.2561C123.483 17.1783 123.525 17.1083 123.587 17.0581C123.648 17.0078 123.725 16.9803 123.805 16.9803C123.884 16.9803 123.961 17.0078 124.023 17.0581C124.084 17.1083 124.126 17.1783 124.142 17.2561L126.194 26.3181C126.335 26.9542 126.681 27.5264 127.178 27.9468C127.676 28.3673 128.298 28.6128 128.949 28.6456L138.258 29.2791C138.336 29.2949 138.406 29.3372 138.456 29.3987C138.507 29.4602 138.534 29.5371 138.534 29.6166C138.534 29.696 138.507 29.773 138.456 29.8344C138.406 29.8959 138.336 29.9382 138.258 29.954L129.224 32.4054C128.655 32.563 128.145 32.8848 127.758 33.3306C127.371 33.7764 127.124 34.3265 127.048 34.9119L125.919 45.0344C125.903 45.1122 125.861 45.1822 125.799 45.2324C125.738 45.2827 125.661 45.3102 125.581 45.3102C125.502 45.3102 125.425 45.2827 125.363 45.2324C125.302 45.1822 125.26 45.1122 125.244 45.0344L123.481 35.9586C123.356 35.3222 123.028 34.7434 122.546 34.3089C122.065 33.8745 121.455 33.6077 120.809 33.5485L110.521 32.309C110.477 32.2973 110.438 32.2714 110.411 32.2353C110.383 32.1992 110.368 32.1549 110.368 32.1093C110.368 32.0637 110.383 32.0194 110.411 31.9833C110.438 31.9472 110.477 31.9213 110.521 31.9096L115.355 30.6564C116.485 30.3534 117.476 30.2432 118.826 29.83C120.176 29.4169 121.457 29.2378 122.228 27.9846C122.451 27.5854 122.592 27.145 122.641 26.69Z" fill="white"/>
<path d="M225.312 74.4243C225.436 73.7082 225.422 72.9507 225.491 72.2346C225.615 71.1741 225.684 70.1137 225.78 69.0532C225.89 67.676 226.014 66.2988 226.138 64.9216C226.138 64.8339 226.173 64.7499 226.235 64.6879C226.297 64.6259 226.381 64.5911 226.469 64.5911C226.556 64.5911 226.64 64.6259 226.702 64.6879C226.764 64.7499 226.799 64.8339 226.799 64.9216L228.865 73.9698C229.006 74.6059 229.352 75.1781 229.849 75.5985C230.347 76.019 230.969 76.2645 231.619 76.2973L240.929 76.9308C241.01 76.9366 241.086 76.9707 241.144 77.0271C241.203 77.0835 241.239 77.1587 241.247 77.2393C241.255 77.3199 241.235 77.4009 241.189 77.4679C241.144 77.5349 241.076 77.5837 240.998 77.6057L231.922 80.0295C231.343 80.1884 230.824 80.5175 230.434 80.9741C230.044 81.4308 229.799 81.9941 229.733 82.5911L228.589 92.7136C228.589 92.8013 228.555 92.8853 228.493 92.9473C228.431 93.0093 228.347 93.0441 228.259 93.0441C228.171 93.0441 228.087 93.0093 228.025 92.9473C227.963 92.8853 227.928 92.8013 227.928 92.7136L226.207 83.6378C226.075 82.9897 225.735 82.4027 225.237 81.9672C224.739 81.5317 224.112 81.2719 223.452 81.2277L213.178 80.0295C213.134 80.0179 213.095 79.992 213.068 79.9558C213.04 79.9197 213.025 79.8754 213.025 79.8299C213.025 79.7843 213.04 79.74 213.068 79.7039C213.095 79.6677 213.134 79.6418 213.178 79.6302L218.012 78.3769C219.142 78.0739 220.133 77.9637 221.483 77.5506C222.833 77.1374 224.114 76.9584 224.885 75.7051C225.11 75.3102 225.255 74.8751 225.312 74.4243Z" fill="white"/>
<path d="M202.794 238.904C203.235 238.339 203.579 237.65 203.979 237.058C204.571 236.177 205.136 235.282 205.714 234.387C206.458 233.243 207.201 232.1 207.931 230.957C207.977 230.89 208.044 230.841 208.122 230.819C208.2 230.796 208.283 230.802 208.357 230.835C208.431 230.868 208.491 230.926 208.526 230.998C208.562 231.071 208.571 231.154 208.551 231.233L206.127 240.198C205.958 240.821 205.995 241.481 206.23 242.081C206.466 242.681 206.888 243.19 207.436 243.531L215.354 248.448C215.416 248.493 215.462 248.557 215.483 248.631C215.504 248.704 215.5 248.783 215.472 248.854C215.443 248.925 215.392 248.985 215.326 249.023C215.26 249.062 215.183 249.078 215.107 249.068L205.976 247.015C205.392 246.883 204.782 246.929 204.224 247.148C203.667 247.366 203.188 247.747 202.849 248.241L197.093 256.656C197.044 256.717 196.977 256.76 196.901 256.778C196.825 256.795 196.745 256.787 196.674 256.753C196.604 256.72 196.547 256.663 196.513 256.593C196.479 256.523 196.47 256.443 196.487 256.367L199.241 247.442C199.432 246.823 199.416 246.159 199.195 245.55C198.973 244.941 198.559 244.42 198.015 244.068L189.463 238.188C189.416 238.167 189.378 238.129 189.359 238.082C189.339 238.034 189.34 237.98 189.36 237.933C189.38 237.885 189.418 237.848 189.466 237.828C189.513 237.809 189.567 237.809 189.614 237.83L194.49 238.973C195.619 239.248 196.556 239.62 197.933 239.882C199.31 240.143 200.536 240.598 201.817 239.882C202.206 239.625 202.538 239.293 202.794 238.904V238.904Z" fill="white"/>
<path d="M38.0943 180.386C38.2871 179.684 38.3422 178.926 38.4799 178.224C38.6865 177.191 38.8655 176.131 39.0583 175.084L39.802 171.076C39.8178 170.998 39.86 170.929 39.9215 170.878C39.983 170.828 40.06 170.801 40.1394 170.801C40.2188 170.801 40.2958 170.828 40.3573 170.878C40.4188 170.929 40.461 170.998 40.4768 171.076L41.6612 180.29C41.7467 180.929 42.0349 181.524 42.4836 181.988C42.9322 182.451 43.5177 182.759 44.154 182.865L53.3537 184.38C53.4414 184.38 53.5254 184.415 53.5874 184.477C53.6494 184.539 53.6842 184.623 53.6842 184.711C53.6842 184.798 53.6494 184.882 53.5874 184.944C53.5254 185.006 53.4414 185.041 53.3537 185.041L44.1402 186.639C43.5483 186.742 43.0009 187.02 42.5688 187.437C42.1367 187.855 41.8397 188.392 41.7163 188.98L39.623 198.951C39.6072 199.029 39.5649 199.099 39.5034 199.149C39.4419 199.199 39.365 199.227 39.2855 199.227C39.2061 199.227 39.1291 199.199 39.0676 199.149C39.0062 199.099 38.9639 199.029 38.9481 198.951L38.0529 189.669C37.988 189.024 37.7172 188.417 37.2806 187.939C36.8441 187.46 36.265 187.135 35.6291 187.011L25.479 184.862C25.4279 184.862 25.3789 184.842 25.3427 184.806C25.3066 184.77 25.2862 184.72 25.2862 184.669C25.2862 184.618 25.3066 184.569 25.3427 184.533C25.3789 184.497 25.4279 184.477 25.479 184.477L30.4232 183.664C31.5663 183.485 32.5717 183.471 33.9489 183.182C35.3261 182.893 36.7033 182.838 37.5158 181.667C37.7914 181.283 37.9879 180.847 38.0943 180.386V180.386Z" fill="white"/>
<path d="M76.5596 43.3684C76.5596 44.0984 76.3432 44.812 75.9376 45.419C75.532 46.026 74.9556 46.499 74.2812 46.7784C73.6067 47.0577 72.8646 47.1308 72.1487 46.9884C71.4327 46.846 70.775 46.4945 70.2588 45.9783C69.7427 45.4621 69.3911 44.8045 69.2487 44.0885C69.1063 43.3725 69.1794 42.6304 69.4588 41.956C69.7381 41.2816 70.2112 40.7051 70.8182 40.2995C71.4251 39.894 72.1387 39.6775 72.8687 39.6775C73.3539 39.6757 73.8347 39.7699 74.2833 39.9548C74.7319 40.1396 75.1395 40.4114 75.4826 40.7545C75.8257 41.0976 76.0975 41.5052 76.2824 41.9538C76.4672 42.4025 76.5614 42.8832 76.5596 43.3684V43.3684Z" fill="white"/>
<path d="M169.673 86.5847C171.711 86.5847 173.364 84.9322 173.364 82.8938C173.364 80.8554 171.711 79.2029 169.673 79.2029C167.634 79.2029 165.982 80.8554 165.982 82.8938C165.982 84.9322 167.634 86.5847 169.673 86.5847Z" fill="white"/>
<path d="M263.97 167.138C266.008 167.138 267.661 165.485 267.661 163.447C267.661 161.409 266.008 159.756 263.97 159.756C261.931 159.756 260.279 161.409 260.279 163.447C260.279 165.485 261.931 167.138 263.97 167.138Z" fill="white"/>
<path d="M22.2839 139.496C22.2867 140.228 22.0722 140.943 21.6677 141.552C21.2631 142.161 20.6868 142.637 20.0119 142.918C19.3369 143.199 18.5936 143.273 17.8764 143.131C17.1591 142.989 16.5002 142.637 15.9832 142.12C15.4662 141.603 15.1144 140.944 14.9724 140.227C14.8304 139.51 14.9047 138.766 15.1857 138.091C15.4668 137.416 15.942 136.84 16.5511 136.436C17.1601 136.031 17.8756 135.817 18.6068 135.819C19.0897 135.819 19.5679 135.914 20.014 136.099C20.4601 136.284 20.8655 136.555 21.2069 136.896C21.5484 137.238 21.8192 137.643 22.004 138.089C22.1888 138.535 22.2839 139.014 22.2839 139.496V139.496Z" fill="white"/>
<path d="M140.366 269.643C142.404 269.643 144.057 267.991 144.057 265.952C144.057 263.914 142.404 262.261 140.366 262.261C138.327 262.261 136.675 263.914 136.675 265.952C136.675 267.991 138.327 269.643 140.366 269.643Z" fill="white"/>
</svg>
