<svg width="81" height="105" viewBox="0 0 81 105" fill="none" xmlns="http://www.w3.org/2000/svg">
<path d="M56.2649 8V17.2942" stroke="#CDF6FF" stroke-width="6" stroke-linecap="round"/>
<path d="M40 12.6471L46.572 19.2191" stroke="#CDF6FF" stroke-width="6" stroke-linecap="round"/>
<path d="M73.094 12.6471L66.522 19.2191" stroke="#CDF6FF" stroke-width="6" stroke-linecap="round"/>
<path d="M24.8785 64.3385C24.8785 64.3385 29.255 55.7612 30.514 50.0958C32.0328 43.3806 29.4149 31.2377 36.769 31H37.3685C44.9224 31.416 43.8433 44.4503 43.3037 49.046C42.7642 53.6416 42.5643 53.602 42.5643 53.602L73.2596 35.5957C73.835 35.2513 74.4735 35.0232 75.1382 34.9244C75.803 34.8257 76.4808 34.8582 77.1328 35.0203C77.7848 35.1823 78.398 35.4706 78.9371 35.8685C79.4762 36.2664 79.9306 36.7661 80.274 37.3389V37.3389C80.9703 38.4922 81.1762 39.8724 80.8464 41.1761C80.5167 42.4799 79.6783 43.6005 78.5154 44.2918L57.832 56.5536L63.1278 53.4039C63.6119 53.1163 64.1485 52.9261 64.7068 52.8441C65.2652 52.7621 65.8343 52.79 66.3818 52.9261C66.9293 53.0623 67.4443 53.304 67.8975 53.6375C68.3507 53.971 68.7332 54.3897 69.023 54.8698V54.8698C69.601 55.8397 69.7677 56.997 69.4868 58.0885C69.2059 59.18 68.5003 60.1167 67.5243 60.6936L64.3468 62.4962H64.4068L66.7848 61.2087C67.2675 60.9215 67.8025 60.7317 68.3593 60.65C68.9161 60.5682 69.4837 60.5963 70.0295 60.7325C70.5754 60.8686 71.0887 61.1103 71.5401 61.4436C71.9915 61.7768 72.3721 62.1951 72.6601 62.6745V62.6745C72.9503 63.1544 73.1422 63.6863 73.2249 64.2398C73.3076 64.7932 73.2795 65.3574 73.1421 65.9001C73.0048 66.4427 72.761 66.9533 72.4245 67.4025C72.0881 67.8517 71.6656 68.2308 71.1813 68.5182L68.7832 70.0038C70.8216 68.8351 73.8192 69.1719 75.0382 71.1726C75.6188 72.1431 75.7892 73.3017 75.5123 74.3961C75.2353 75.4906 74.5334 76.4322 73.5594 77.0162L55.7137 87.5744L55.3341 87.7725L55.1342 87.8913C49.0591 91.4767 42.6443 90.8429 42.6443 90.8429L36.2694 81.4138L24.8785 64.3385" fill="#CDF6FF"/>
<path d="M19.9816 61.7785L9.07965 68.9855C7.93109 69.7448 7.79925 71.5483 8.78516 73.0137L28.5207 102.347C29.5066 103.812 31.2369 104.384 32.3855 103.625L43.2875 96.4181C44.436 95.6588 44.5679 93.8554 43.5819 92.39L23.8465 63.057C22.8605 61.5916 21.1302 61.0192 19.9816 61.7785Z" fill="#CDF6FF"/>
<path d="M51.565 3V12.2942" stroke="#24CDF3" stroke-width="6" stroke-linecap="round"/>
<path d="M35.3 7.64709L41.872 14.2191" stroke="#24CDF3" stroke-width="6" stroke-linecap="round"/>
<path d="M68.394 7.64709L61.8221 14.2191" stroke="#24CDF3" stroke-width="6" stroke-linecap="round"/>
<path d="M19.8785 59.1004C19.8785 59.1004 24.255 50.5232 25.514 44.8578C27.0328 38.1426 24.4149 25.9997 31.7689 25.762H32.3685C39.9224 26.178 38.8433 39.2122 38.3037 43.8079C37.7641 48.4036 37.5643 48.364 37.5643 48.364L68.2596 30.3576C68.835 30.0133 69.4735 29.7851 70.1382 29.6864C70.8029 29.5876 71.4808 29.6202 72.1328 29.7822C72.7847 29.9442 73.398 30.2325 73.9371 30.6305C74.4762 31.0284 74.9305 31.5281 75.274 32.1008V32.1008C75.9703 33.2542 76.1762 34.6343 75.8464 35.9381C75.5167 37.2418 74.6782 38.3625 73.5154 39.0538L52.832 51.3155L58.1278 48.1659C58.6119 47.8783 59.1485 47.6881 59.7068 47.6061C60.2651 47.5241 60.8343 47.552 61.3818 47.6881C61.9292 47.8242 62.4443 48.0659 62.8975 48.3994C63.3507 48.7329 63.7331 49.1517 64.023 49.6318V49.6318C64.6009 50.6016 64.7677 51.759 64.4868 52.8505C64.2059 53.9419 63.5002 54.8786 62.5242 55.4556L59.3468 57.2582H59.4067L61.7848 55.9706C62.2674 55.6835 62.8025 55.4936 63.3593 55.4119C63.9161 55.3302 64.4836 55.3582 65.0295 55.4944C65.5753 55.6306 66.0887 55.8723 66.5401 56.2055C66.9915 56.5388 67.3721 56.9571 67.6601 57.4365V57.4365C67.9502 57.9164 68.1421 58.4483 68.2249 59.0017C68.3076 59.5552 68.2794 60.1193 68.1421 60.662C68.0048 61.2047 67.7609 61.7152 67.4245 62.1644C67.088 62.6137 66.6656 62.9928 66.1813 63.2801L63.7832 64.7658C65.8216 63.5971 68.8192 63.9338 70.0382 65.9345C70.6188 66.9051 70.7892 68.0636 70.5122 69.1581C70.2353 70.2525 69.5334 71.1942 68.5594 71.7782L50.7137 82.3363L50.334 82.5344L50.1342 82.6533C44.0591 86.2387 37.6442 85.6048 37.6442 85.6048L31.2694 76.1758L19.8785 59.1004" stroke="#24CDF3" stroke-width="6" stroke-linecap="round" stroke-linejoin="round"/>
<path d="M14.9816 56.5404L4.07965 63.7475C2.93109 64.5068 2.79925 66.3102 3.78516 67.7756L23.5207 97.1086C24.5066 98.574 26.2369 99.1464 27.3855 98.3871L38.2875 91.1801C39.436 90.4208 39.5679 88.6173 38.5819 87.1519L18.8465 57.8189C17.8605 56.3536 16.1302 55.7812 14.9816 56.5404Z" stroke="#24CDF3" stroke-width="6" stroke-miterlimit="10"/>
</svg>
