<svg width="121" height="90" viewBox="0 0 121 90" fill="none" xmlns="http://www.w3.org/2000/svg">
<circle cx="81" cy="50" r="40" fill="#CDF6FF"/>
<path d="M52.6512 50.0464H8" stroke="#CDF6FF" stroke-width="6" stroke-linecap="round"/>
<path d="M52.6513 61.2092L26.6048 61.2092" stroke="#CDF6FF" stroke-width="6" stroke-linecap="round"/>
<path d="M52.6513 38.8838L26.6048 38.8838" stroke="#CDF6FF" stroke-width="6" stroke-linecap="round"/>
<path d="M75.5579 6.72093L75.5579 3" stroke="#24CDF3" stroke-width="6" stroke-linecap="round"/>
<path d="M51 17.5133C57.5043 11.9449 65.9524 8.58154 75.186 8.58154C95.7362 8.58154 112.395 25.2407 112.395 45.7908C112.395 66.341 95.7362 83.0001 75.186 83.0001C65.9524 83.0001 57.5043 79.6368 51 74.0684" stroke="#24CDF3" stroke-width="6" stroke-linecap="round" stroke-linejoin="round"/>
<path d="M86.349 60.6744L77.3667 51.6921C75.971 50.2968 75.1866 48.4042 75.1862 46.4307V23.4651" stroke="#24CDF3" stroke-width="6" stroke-linecap="round" stroke-linejoin="round"/>
<path d="M47.6512 45.0464H3" stroke="#24CDF3" stroke-width="6" stroke-linecap="round"/>
<path d="M47.6513 56.2092L21.6048 56.2092" stroke="#24CDF3" stroke-width="6" stroke-linecap="round"/>
<path d="M47.6513 33.8838L21.6048 33.8838" stroke="#24CDF3" stroke-width="6" stroke-linecap="round"/>
</svg>
