<svg width="88" height="90" viewBox="0 0 88 90" fill="none" xmlns="http://www.w3.org/2000/svg">
<circle cx="48" cy="50" r="40" fill="#CDF6FF"/>
<path d="M43 83C65.0914 83 83 65.0914 83 43C83 20.9086 65.0914 3 43 3C20.9086 3 3 20.9086 3 43C3 65.0914 20.9086 83 43 83Z" stroke="#24CDF3" stroke-width="6" stroke-linecap="round" stroke-linejoin="round"/>
<path d="M32.2 30.748C27.412 30.748 25 33.196 25 38.092V51.088C25 55.876 27.52 58.324 31.876 58.324C36.808 58.324 39.076 55.984 39.076 51.088V38.092C39.076 33.304 36.664 30.748 32.2 30.748ZM34.432 51.124C34.432 53.968 33.496 54.688 31.876 54.688C30.184 54.688 29.536 53.32 29.536 50.98L29.608 38.344C29.608 35.212 30.508 34.42 32.128 34.42C33.82 34.42 34.432 35.572 34.432 37.876V51.124ZM47.9272 30.748C45.0472 30.748 43.4992 32.044 43.4992 34.78V37.444C43.4992 40.18 45.0832 41.512 47.6752 41.512C50.5912 41.512 52.0672 40.144 52.0672 37.444V34.78C52.0672 32.08 50.4832 30.748 47.9272 30.748ZM49.4392 37.084C49.4392 38.2 48.6472 38.452 47.7832 38.452C46.9192 38.452 46.2352 37.984 46.2352 37.012V35.176C46.2352 33.88 47.0992 33.556 47.9272 33.556C48.8272 33.556 49.4392 33.988 49.4392 34.96V37.084ZM59.4472 47.56C56.5672 47.56 55.0192 48.82 55.0192 51.556V54.256C55.0192 56.884 56.6032 58.324 59.1952 58.324C62.1472 58.324 63.6232 56.956 63.6232 54.256V51.556C63.6232 48.928 62.0392 47.56 59.4472 47.56ZM60.9952 53.86C60.9952 55.012 60.1672 55.264 59.3392 55.264C58.4752 55.264 57.8272 54.76 57.8272 53.788V51.952C57.8272 50.692 58.6192 50.368 59.4472 50.368C60.4192 50.368 60.9952 50.764 60.9952 51.736V53.86ZM46.9192 58H50.8792L60.2032 31H56.2072L46.9192 58Z" fill="#24CDF3"/>
</svg>
