<svg width="254" height="60" viewBox="0 0 254 60" fill="none" xmlns="http://www.w3.org/2000/svg">
<path fill-rule="evenodd" clip-rule="evenodd" d="M82.362 24.5047C83.0802 24.4559 83.8006 24.562 84.4746 24.816C85.1487 25.0699 85.7607 25.4657 86.2698 25.9768C86.7788 26.4879 87.1729 27.1025 87.4258 27.7793C87.6787 28.4561 87.7844 29.1793 87.7358 29.9005V53.0624C87.7844 53.7836 87.6787 54.5069 87.4258 55.1837C87.1729 55.8605 86.7788 56.4751 86.2698 56.9862C85.7607 57.4974 85.1487 57.8932 84.4746 58.1471C83.8006 58.401 83.0802 58.5071 82.362 58.4583C81.6198 58.4894 80.879 58.3689 80.1847 58.1038C79.4903 57.8388 78.8567 57.435 78.3225 56.9167L77.7375 56.3293L76.9699 56.9167C74.8449 58.234 72.3723 58.8739 69.8779 58.752C67.9081 58.8471 65.9435 58.4784 64.1408 57.6754C62.3382 56.8723 60.7475 55.6572 59.4959 54.1269C56.9588 51.0388 55.6558 47.1139 55.8402 43.1149V29.7904C55.9203 28.4114 56.5223 27.1152 57.523 26.1673C58.5237 25.2193 59.8474 24.6913 61.2232 24.6913C62.5989 24.6913 63.9226 25.2193 64.9233 26.1673C65.924 27.1152 66.5261 28.4114 66.6061 29.7904V42.9131C66.6061 47.74 68.7081 48.6943 71.7971 48.6943C72.5363 48.723 73.2737 48.6012 73.9647 48.3363C74.6558 48.0713 75.2863 47.6687 75.8183 47.1527C76.8342 45.9785 77.3812 44.4682 77.3538 42.9131V29.7904C77.2466 29.094 77.2998 28.3821 77.5096 27.7097C77.7194 27.0372 78.0801 26.422 78.5639 25.9114C79.0476 25.4008 79.6415 25.0085 80.3 24.7647C80.9585 24.5208 81.6639 24.4318 82.362 24.5047Z" fill="white"/>
<path fill-rule="evenodd" clip-rule="evenodd" d="M114.66 24.5047C116.63 24.4096 118.595 24.7783 120.397 25.5813C122.2 26.3844 123.791 27.5996 125.042 29.1298C127.579 32.2179 128.882 36.1428 128.698 40.1417V53.4662C128.618 54.8453 128.016 56.1415 127.015 57.0894C126.014 58.0373 124.691 58.5654 123.315 58.5654C121.939 58.5654 120.615 58.0373 119.615 57.0894C118.614 56.1415 118.012 54.8453 117.932 53.4662V40.3252C117.932 35.4983 115.83 34.544 112.741 34.544C112.002 34.5154 111.264 34.6371 110.573 34.902C109.882 35.167 109.252 35.5696 108.72 36.0856C107.759 37.2804 107.276 38.7922 107.367 40.3252V53.4479C107.287 54.8269 106.685 56.1231 105.684 57.071C104.684 58.019 103.36 58.547 101.984 58.547C100.608 58.547 99.2846 58.019 98.2839 57.071C97.2832 56.1231 96.6812 54.8269 96.6011 53.4479V30.286C96.5506 29.5549 96.6587 28.8213 96.9179 28.1362C97.1772 27.451 97.5815 26.8305 98.1028 26.3175C98.6242 25.8045 99.2501 25.4113 99.9376 25.1648C100.625 24.9184 101.358 24.8247 102.085 24.8902C102.826 24.8653 103.565 24.9888 104.259 25.2535C104.952 25.5181 105.586 25.9186 106.124 26.4318L106.691 27.0191L107.458 26.6338C109.599 25.2292 112.103 24.4886 114.66 24.5047Z" fill="white"/>
<path fill-rule="evenodd" clip-rule="evenodd" d="M186.549 24.8897C187.269 24.8382 187.991 24.9423 188.667 25.195C189.344 25.4476 189.958 25.843 190.469 26.3545C190.98 26.8659 191.376 27.4814 191.63 28.1596C191.884 28.8377 191.99 29.5627 191.941 30.2856V53.631C191.984 54.3673 191.876 55.1047 191.625 55.7977C191.374 56.4908 190.984 57.125 190.48 57.6615C189.976 58.198 189.368 58.6255 188.694 58.9176C188.019 59.2098 187.293 59.3604 186.558 59.3604C185.824 59.3604 185.097 59.2098 184.422 58.9176C183.748 58.6255 183.14 58.198 182.636 57.6615C182.132 57.125 181.742 56.4908 181.491 55.7977C181.24 55.1047 181.132 54.3673 181.175 53.631V30.102C181.129 29.3896 181.238 28.6758 181.495 28.01C181.751 27.3442 182.149 26.7424 182.66 26.2465C183.171 25.7505 183.784 25.3722 184.456 25.1379C185.127 24.9036 185.841 24.819 186.549 24.8897Z" fill="white"/>
<path fill-rule="evenodd" clip-rule="evenodd" d="M206.893 24.89C207.611 24.8412 208.331 24.9473 209.005 25.2012C209.679 25.4551 210.292 25.8509 210.801 26.362C211.31 26.8732 211.704 27.4878 211.957 28.1645C212.21 28.8413 212.315 29.5647 212.267 30.2858V53.6312C212.309 54.3675 212.202 55.1048 211.951 55.7979C211.7 56.4909 211.31 57.1252 210.806 57.6616C210.302 58.1981 209.694 58.6256 209.019 58.9177C208.345 59.2099 207.618 59.3605 206.884 59.3605C206.149 59.3605 205.422 59.2099 204.748 58.9177C204.074 58.6256 203.466 58.1981 202.962 57.6616C202.457 57.1252 202.068 56.4909 201.817 55.7979C201.565 55.1048 201.458 54.3675 201.501 53.6312V30.1022C201.473 29.3929 201.595 28.6856 201.859 28.027C202.122 27.3683 202.522 26.7732 203.032 26.2808C203.541 25.7884 204.148 25.41 204.814 25.1702C205.479 24.9305 206.188 24.835 206.893 24.89Z" fill="white"/>
<path fill-rule="evenodd" clip-rule="evenodd" d="M239.922 24.5047C241.891 24.4096 243.856 24.7783 245.659 25.5813C247.461 26.3844 249.052 27.5996 250.304 29.1298C252.841 32.2179 254.144 36.1428 253.959 40.1417V53.4662C253.879 54.8453 253.277 56.1415 252.277 57.0894C251.276 58.0373 249.952 58.5654 248.576 58.5654C247.201 58.5654 245.877 58.0373 244.876 57.0894C243.876 56.1415 243.274 54.8453 243.193 53.4662V40.3252C243.193 35.4983 241.073 34.544 238.002 34.544C237.263 34.5154 236.526 34.6371 235.835 34.902C235.144 35.167 234.513 35.5696 233.981 36.0856C233.02 37.2804 232.538 38.7922 232.629 40.3252V53.4479C232.549 54.8269 231.947 56.1231 230.946 57.071C229.945 58.019 228.621 58.547 227.246 58.547C225.87 58.547 224.546 58.019 223.545 57.071C222.545 56.1231 221.943 54.8269 221.863 53.4479V30.286C221.814 29.5632 221.92 28.8382 222.174 28.16C222.428 27.4819 222.824 26.8664 223.335 26.3549C223.846 25.8435 224.46 25.4481 225.136 25.1954C225.813 24.9427 226.535 24.8386 227.255 24.8902C227.994 24.8615 228.731 24.9832 229.422 25.2482C230.113 25.5131 230.744 25.9158 231.276 26.4318L231.861 27.0191L232.629 26.6338C234.795 25.2118 237.334 24.4705 239.922 24.5047Z" fill="white"/>
<path fill-rule="evenodd" clip-rule="evenodd" d="M166.735 9.27103C166.016 9.21917 165.294 9.32318 164.619 9.57601C163.944 9.82883 163.33 10.2246 162.821 10.7364C162.311 11.2481 161.917 11.8639 161.665 12.5421C161.413 13.2203 161.31 13.945 161.361 14.6669V26.4313L159.808 25.6605C157.833 24.7241 155.667 24.2653 153.483 24.3207C151.36 24.2725 149.251 24.676 147.295 25.5048C145.339 26.3336 143.579 27.5688 142.132 29.1293C139.021 32.5482 137.368 37.0546 137.526 41.6828C137.404 46.2393 139.057 50.6639 142.132 54.0163C143.565 55.6094 145.317 56.8809 147.273 57.7474C149.229 58.614 151.345 59.0562 153.483 59.0451C156.257 59.1002 158.989 58.3619 161.361 56.9161L162.129 56.3288L162.696 57.0996C163.192 57.6807 163.813 58.14 164.514 58.4422C165.214 58.7444 165.974 58.8817 166.735 58.8432C167.444 58.8894 168.155 58.7799 168.819 58.5224C169.482 58.2649 170.081 57.8656 170.575 57.3521C171.069 56.8387 171.446 56.2235 171.679 55.5492C171.912 54.8749 171.997 54.1577 171.926 53.4474V14.9055C171.926 11.3817 170.098 9.27103 166.735 9.27103ZM159.424 47.0787C158.862 47.7535 158.156 48.2934 157.359 48.6586C156.562 49.0239 155.694 49.2052 154.818 49.1894C153.961 49.2538 153.102 49.1221 152.304 48.8041C151.506 48.4862 150.791 47.9904 150.211 47.3541C148.969 45.7956 148.321 43.8433 148.384 41.8481C148.312 40.8473 148.445 39.8425 148.775 38.8955C149.105 37.9485 149.625 37.0795 150.303 36.3421C150.886 35.7065 151.605 35.2114 152.406 34.8936C153.207 34.5758 154.069 34.4436 154.927 34.5068C155.803 34.4909 156.672 34.6723 157.469 35.0375C158.266 35.4028 158.971 35.9426 159.533 36.6174C160.843 38.1073 161.53 40.0462 161.453 42.0316C161.328 43.8987 160.617 45.6784 159.424 47.1155V47.0787Z" fill="white"/>
<path fill-rule="evenodd" clip-rule="evenodd" d="M186.549 10.2255C187.824 10.2255 189.047 10.734 189.948 11.6393C190.85 12.5445 191.356 13.7723 191.356 15.0525C191.356 16.3327 190.85 17.5604 189.948 18.4656C189.047 19.3708 187.824 19.8793 186.549 19.8793C185.274 19.8793 184.051 19.3708 183.15 18.4656C182.248 17.5604 181.742 16.3327 181.742 15.0525C181.742 13.7723 182.248 12.5445 183.15 11.6393C184.051 10.734 185.274 10.2255 186.549 10.2255Z" fill="white"/>
<path fill-rule="evenodd" clip-rule="evenodd" d="M206.893 10.2253C208.168 10.2253 209.39 10.7338 210.292 11.639C211.193 12.5442 211.7 13.7721 211.7 15.0523C211.7 16.3325 211.193 17.5602 210.292 18.4654C209.39 19.3707 208.168 19.8791 206.893 19.8791C206.244 19.9521 205.587 19.8775 204.97 19.6607C204.354 19.4439 203.794 19.0905 203.333 18.6268C202.871 18.1632 202.519 17.6012 202.303 16.9824C202.087 16.3636 202.013 15.7039 202.085 15.0523C202.03 14.4043 202.116 13.7519 202.338 13.1409C202.56 12.5298 202.912 11.9749 203.37 11.515C203.828 11.0551 204.381 10.7014 204.989 10.4786C205.598 10.2558 206.247 10.1693 206.893 10.2253Z" fill="white"/>
<path fill-rule="evenodd" clip-rule="evenodd" d="M15.9208 46.4919C17.7047 46.4919 19.4156 47.2035 20.677 48.4701C21.9385 49.7368 22.6472 51.4547 22.6472 53.246C22.6472 55.0373 21.9385 56.7551 20.677 58.0217C19.4156 59.2884 17.7047 60 15.9208 60H6.78159C4.99763 60 3.2867 59.2884 2.02524 58.0217C0.763792 56.7551 0.0550537 55.0373 0.0550537 53.246C0.0550537 51.4547 0.763792 49.7368 2.02524 48.4701C3.2867 47.2035 4.99763 46.4919 6.78159 46.4919H15.9208Z" fill="white"/>
<path fill-rule="evenodd" clip-rule="evenodd" d="M6.70787 23.2563H37.4338C39.1668 23.2825 40.8229 23.9794 42.0567 25.2017C43.2904 26.4239 44.0068 28.0771 44.0563 29.8166C44.1058 31.5562 43.4847 33.2479 42.3224 34.5388C41.1601 35.8298 39.5464 36.6204 37.8177 36.7459H6.74447C5.01148 36.7197 3.35545 36.023 2.12165 34.8007C0.887859 33.5785 0.171509 31.9252 0.122009 30.1856C0.0725101 28.4461 0.69363 26.7544 1.85591 25.4635C3.0182 24.1725 4.63191 23.3819 6.36058 23.2563H6.70787Z" fill="white"/>
<path fill-rule="evenodd" clip-rule="evenodd" d="M55.694 0.00275186C57.4779 -0.0483576 59.2091 0.614207 60.5065 1.84469C61.804 3.07517 62.5615 4.7728 62.6124 6.56407C62.6633 8.35535 62.0034 10.0936 60.778 11.3963C59.5525 12.6991 57.8618 13.4597 56.0779 13.5108H6.72641C4.94835 13.4917 3.24851 12.774 1.99116 11.5115C0.733809 10.249 0.0190183 8.54215 0 6.7568C0.0313016 5.04061 0.698463 3.39772 1.87123 2.14888C3.044 0.900036 4.63813 0.134852 6.34252 0.00275186H55.694Z" fill="white"/>
</svg>
