<svg width="126" height="126" viewBox="0 0 126 126" fill="none" xmlns="http://www.w3.org/2000/svg">
<rect x="1.5" y="1.5" width="123" height="123" rx="28.5" fill="#24C3FD" stroke="white" stroke-width="3"/>
<path fill-rule="evenodd" clip-rule="evenodd" d="M42.2276 84.9893C44.6062 84.9893 46.8873 85.9381 48.5693 87.627C50.2512 89.3158 51.1962 91.6064 51.1962 93.9948C51.1962 96.3831 50.2512 98.6736 48.5693 100.362C46.8873 102.051 44.6062 103 42.2276 103H30.042C27.6634 103 25.3822 102.051 23.7002 100.362C22.0183 98.6736 21.0733 96.3831 21.0733 93.9948C21.0733 91.6064 22.0183 89.3158 23.7002 87.627C25.3822 85.9381 27.6634 84.9893 30.042 84.9893H42.2276Z" fill="white"/>
<path fill-rule="evenodd" clip-rule="evenodd" d="M29.9438 54.0088H70.9118C73.2225 54.0437 75.4305 54.9729 77.0756 56.6026C78.7207 58.2322 79.6758 60.4364 79.7418 62.7559C79.8078 65.0753 78.9796 67.3308 77.4299 69.0521C75.8802 70.7734 73.7286 71.8276 71.4237 71.9949H29.9926C27.682 71.96 25.4739 71.031 23.8289 69.4013C22.1838 67.7717 21.2287 65.5673 21.1627 63.2479C21.0967 60.9284 21.9248 58.6729 23.4745 56.9516C25.0242 55.2303 27.1759 54.1761 29.4808 54.0088H29.9438Z" fill="white"/>
<path fill-rule="evenodd" clip-rule="evenodd" d="M95.2588 23.0037C97.6374 22.9355 99.9456 23.8189 101.676 25.4596C103.405 27.1002 104.415 29.3637 104.483 31.7521C104.551 34.1405 103.671 36.4581 102.037 38.1951C100.403 39.9321 98.1492 40.9463 95.7706 41.0144H29.9686C27.5978 40.989 25.3314 40.032 23.6549 38.3487C21.9784 36.6653 21.0254 34.3896 21 32.0091C21.0417 29.7208 21.9313 27.5303 23.495 25.8652C25.0587 24.2001 27.1842 23.1798 29.4567 23.0037H95.2588V23.0037Z" fill="white"/>
</svg>
