<svg width="148" height="93" viewBox="0 0 148 93" fill="none" xmlns="http://www.w3.org/2000/svg">
<path d="M122.48 13H21.0594C16.6083 13 13 16.6083 13 21.0594V84.9406C13 89.3917 16.6083 93 21.0594 93H122.48C126.931 93 130.54 89.3917 130.54 84.9406V21.0594C130.54 16.6083 126.931 13 122.48 13Z" fill="#CDF6FF"/>
<path d="M130.426 56.9195C140.008 56.9195 147.775 49.1521 147.775 39.5706C147.775 29.989 140.008 22.2217 130.426 22.2217C120.845 22.2217 113.078 29.989 113.078 39.5706C113.078 49.1521 120.845 56.9195 130.426 56.9195Z" fill="#CDF6FF"/>
<path d="M112.48 3H11.0594C6.60832 3 3 6.60831 3 11.0594V74.9406C3 79.3917 6.60832 83 11.0594 83H112.48C116.931 83 120.54 79.3917 120.54 74.9406V11.0594C120.54 6.60831 116.931 3 112.48 3Z" stroke="#24CDF3" stroke-width="5" stroke-miterlimit="10" stroke-linejoin="round"/>
<path d="M35.5346 17.5481H21.0277C19.3644 17.5481 18.0161 18.8965 18.0161 20.5598V38.4177C18.0161 40.081 19.3644 41.4293 21.0277 41.4293H35.5346C37.1979 41.4293 38.5463 40.081 38.5463 38.4177V20.5598C38.5463 18.8965 37.1979 17.5481 35.5346 17.5481Z" stroke="#24CDF3" stroke-width="2" stroke-miterlimit="10" stroke-linejoin="round"/>
<path d="M65.9059 19.2871H104.252" stroke="#24CDF3" stroke-width="2" stroke-miterlimit="10" stroke-linecap="round" stroke-linejoin="round"/>
<path d="M17.465 66.4565H55.8107" stroke="#24CDF3" stroke-width="2" stroke-miterlimit="10" stroke-linecap="round" stroke-linejoin="round"/>
<path d="M17.4226 55.5969H35.3654" stroke="#24CDF3" stroke-width="2" stroke-miterlimit="10" stroke-linecap="round" stroke-linejoin="round"/>
<path d="M40.625 55.5969H58.5678" stroke="#24CDF3" stroke-width="2" stroke-miterlimit="10" stroke-linecap="round" stroke-linejoin="round"/>
<path d="M63.785 55.5969H81.7278" stroke="#24CDF3" stroke-width="2" stroke-miterlimit="10" stroke-linecap="round" stroke-linejoin="round"/>
<path d="M86.9874 55.5969H104.93" stroke="#24CDF3" stroke-width="2" stroke-miterlimit="10" stroke-linecap="round" stroke-linejoin="round"/>
<path d="M120.427 46.9197C130.008 46.9197 137.775 39.1523 137.775 29.5708C137.775 19.9893 130.008 12.2219 120.427 12.2219C110.845 12.2219 103.078 19.9893 103.078 29.5708C103.078 39.1523 110.845 46.9197 120.427 46.9197Z" fill="#CDF6FF" stroke="#24CDF3" stroke-width="5" stroke-miterlimit="10" stroke-linejoin="round"/>
<path d="M112.622 26.3476L118.518 35.6795L128.274 22.1907" stroke="#24CDF3" stroke-width="3" stroke-miterlimit="10" stroke-linecap="round" stroke-linejoin="round"/>
</svg>
