<svg width="287" height="286" viewBox="0 0 287 286" fill="none" xmlns="http://www.w3.org/2000/svg">
<path d="M150.061 281.848L150.064 281.848C185.879 280.167 219.672 264.807 244.427 238.952C269.182 213.098 282.996 178.735 283 142.995C283.018 116.189 275.22 89.9561 260.558 67.4864L260.492 67.367L260.415 67.2503C257.097 62.1644 253.443 57.3037 249.478 52.7004L249.455 52.6741L249.432 52.6483L249.349 52.555C236.256 37.3301 220.014 25.1084 201.737 16.7277C183.449 8.34181 163.557 4 143.426 4C123.296 4 103.404 8.34181 85.1155 16.7277C66.8274 25.1136 50.5764 37.3452 37.4793 52.5831L36.5128 53.7076V53.7865C27.9123 64.0101 20.8349 75.4193 15.5018 87.6625L15.5001 87.6663C7.91401 105.131 4 123.961 4 142.993C4 162.024 7.91401 180.854 15.5001 198.319L15.5021 198.323C17.1362 202.073 18.9929 205.943 20.9541 209.447C22.8607 212.853 24.8342 216.198 27.0173 219.482C38.3946 236.659 53.4439 251.113 71.0855 261.811L71.0924 261.815C74.6188 263.943 78.2452 265.924 81.9713 267.758L81.9745 267.759C101.114 277.157 122.17 282.03 143.506 282H143.755C145.919 282 147.982 281.945 150.061 281.848Z" fill="#19CE45" stroke="white" stroke-width="8"/>
<path d="M150.19 277.354L150.19 277.354C148.267 277.443 146.369 277.495 144.391 277.5C129.921 257.123 107.073 224.436 99.6992 213.888L99.3965 213.454L99.3927 213.449C99.321 213.349 99.2487 213.246 99.1762 213.141C99.0306 212.933 98.8841 212.722 98.7385 212.538L97.6694 210.92L108.187 202.548L108.191 202.545L108.427 202.361L108.433 202.356L116.751 195.675L116.753 195.674L193.271 134.811L193.272 134.81L194.845 133.554L194.96 133.463L195.007 133.324C196.284 129.568 198.03 125.988 200.202 122.67C202.853 118.831 206.24 115.596 210.329 115.5C210.803 115.521 211.265 115.656 211.676 115.894C212.091 116.135 212.441 116.473 212.695 116.88C213.06 117.476 213.372 118.102 213.628 118.752L213.635 118.768L213.642 118.784C213.743 118.995 213.845 119.223 213.947 119.47C215.355 123.393 216.241 127.485 216.582 131.64L216.582 131.64L216.583 131.652C216.822 133.886 217.088 137.471 217.368 141.895L217.369 141.915L217.372 141.934C217.405 142.169 217.426 142.405 217.434 142.642L217.434 142.65L217.434 142.658C218.063 152.309 218.778 165.764 219.457 178.54C219.591 181.064 219.724 183.561 219.854 185.997C220.249 193.38 220.622 200.203 220.948 205.5C221.273 210.781 221.551 214.581 221.76 215.891L221.76 215.894C222.396 219.759 224.729 233.475 228.434 247.412C206.234 265.544 178.803 276.043 150.19 277.354Z" fill="#FCC2A5" stroke="#F2B89A"/>
<path d="M165.356 241.994C165.307 241.992 165.26 241.981 165.215 241.961C165.171 241.941 165.132 241.912 165.099 241.877C165.066 241.842 165.04 241.8 165.023 241.755C165.006 241.71 164.998 241.662 165 241.614C166.01 221.688 172.714 202.456 184.331 186.161C184.357 186.121 184.391 186.087 184.431 186.06C184.471 186.033 184.516 186.015 184.563 186.006C184.611 185.997 184.659 185.998 184.706 186.008C184.753 186.019 184.798 186.038 184.837 186.066C184.878 186.093 184.912 186.128 184.939 186.169C184.966 186.21 184.985 186.256 184.994 186.304C185.003 186.352 185.002 186.401 184.991 186.448C184.981 186.496 184.961 186.541 184.932 186.581C173.422 202.769 166.785 221.862 165.793 241.641C165.792 241.695 165.779 241.747 165.756 241.795C165.732 241.842 165.699 241.885 165.657 241.918C165.615 241.952 165.567 241.976 165.515 241.989C165.463 242.002 165.408 242.004 165.356 241.994V241.994Z" fill="black"/>
<path d="M218 143C217.044 142.864 216.124 142.514 215.297 141.972C213.841 140.936 212.659 139.499 211.871 137.806C210.295 134.643 209.692 131.01 210.149 127.444C210.606 123.877 212.099 120.566 214.409 118L214.701 118.764C212.723 121.021 211.399 123.867 210.893 126.944C210.317 130.529 210.872 134.222 212.467 137.417C213.2 139.007 214.303 140.358 215.665 141.333C216.364 141.796 217.141 142.098 217.949 142.222C217.975 142.472 217.987 142.722 218 143Z" fill="black"/>
<path d="M103.178 119.006C103.178 119.006 91.552 118.45 91.0146 128.021C90.4772 137.592 105 147 105 147L103.178 119.006Z" fill="#FC8AAA"/>
<path d="M103 144.064C103 144.064 91.2557 142.762 90.0707 151.876C88.8856 160.989 103 171 103 171V144.064Z" fill="#FC8AAA"/>
<path d="M96.0103 211.088L108.44 34.7701C108.454 34.2934 108.654 33.8413 108.997 33.5104C109.341 33.1796 109.8 32.9963 110.277 33.0001L201.278 36.7547C201.772 36.7957 202.229 37.0302 202.551 37.4069C202.872 37.7837 203.032 38.2722 202.995 38.7661L195.312 217.176C195.31 217.419 195.26 217.66 195.164 217.884C195.069 218.108 194.93 218.311 194.755 218.481C194.58 218.65 194.374 218.784 194.147 218.873C193.92 218.962 193.678 219.005 193.435 219L97.6997 213.153C97.4527 213.13 97.2129 213.058 96.994 212.941C96.775 212.824 96.5814 212.665 96.4243 212.473C96.2672 212.281 96.1498 212.06 96.0787 211.822C96.0076 211.584 95.9843 211.335 96.0103 211.088V211.088Z" fill="black"/>
<path d="M151 206C151 207.187 150.677 208.348 150.072 209.335C149.467 210.322 148.608 211.091 147.602 211.545C146.596 211.998 145.49 212.116 144.422 211.884C143.355 211.651 142.375 211.078 141.607 210.238C140.838 209.397 140.315 208.327 140.104 207.162C139.893 205.997 140.004 204.791 140.422 203.695C140.84 202.598 141.547 201.662 142.453 201.005C143.359 200.347 144.424 199.997 145.512 200C146.234 200 146.949 200.155 147.615 200.457C148.282 200.759 148.887 201.201 149.397 201.758C149.907 202.316 150.311 202.977 150.586 203.705C150.861 204.433 151.002 205.213 151 206V206Z" stroke="#FFD4C5" stroke-width="0.54" stroke-miterlimit="10"/>
<path d="M103 194.065L114.859 47L196 50.3284L190.077 200L103 194.065Z" fill="#FFD4C5"/>
<path d="M167.106 43.9988L150.725 43.3466C150.488 43.3373 150.256 43.2849 150.041 43.1925C149.826 43.1 149.633 42.9692 149.473 42.8077C149.313 42.6462 149.189 42.457 149.108 42.251C149.028 42.0451 148.991 41.8264 149.002 41.6075C149.022 41.1642 149.231 40.7465 149.583 40.4455C149.936 40.1446 150.402 39.9848 150.881 40.0011L167.263 40.6533C167.742 40.6722 168.193 40.8657 168.518 41.1916C168.844 41.5175 169.016 41.9492 168.999 42.3925C168.975 42.8368 168.763 43.2545 168.409 43.5552C168.055 43.8559 167.586 44.0153 167.106 43.9988V43.9988Z" stroke="#FFD4C5" stroke-width="0.54" stroke-miterlimit="10"/>
<path d="M98.3991 167.248C98.3991 167.248 110.187 170.594 109.998 177.111C109.809 183.628 102.328 191.085 102.328 191.085C102.328 191.085 108.499 193.692 107.945 200.397C107.392 207.102 101.397 216.401 93.3491 213.431C85.3016 210.462 82.304 198.341 84.9235 194.055C86.544 191.481 89.0881 189.617 92.0393 188.841C92.0393 188.841 81.9259 180.47 86.0442 172.838C90.1625 165.206 98.3991 167.248 98.3991 167.248Z" fill="#FC8AAA"/>
<path d="M91.3862 189.34C91.3862 189.34 101.024 187.581 105.416 192.065C110.297 197.108 107.802 209.947 101.783 212.973C95.7647 215.998 86.1266 212.346 84.2559 201.947C82.3852 191.548 91.3862 189.34 91.3862 189.34Z" stroke="black" stroke-width="0.54" stroke-linecap="round" stroke-linejoin="round"/>
<path d="M95.0383 189C98.7015 184.529 101.718 179.564 104 174.251C101.136 172.405 97.7004 171.657 94.3284 172.146C92.8566 172.372 91.4704 172.983 90.3097 173.916C89.2365 174.966 88.4944 176.309 88.1754 177.777C87.8564 179.244 87.9743 180.774 88.5147 182.175C89.5595 185.031 92.453 187.498 95.0383 189Z" stroke="black" stroke-width="0.54" stroke-linecap="round" stroke-linejoin="round"/>
<path d="M92.6249 210C97.4925 206.646 101.121 201.942 103 196.548C100.585 194.808 97.5977 193.918 94.5578 194.034C93.6153 193.943 92.663 194.034 91.7589 194.301C90.8548 194.567 90.0179 195.004 89.2992 195.585C88.4177 196.659 87.9604 197.987 88.0059 199.343C87.8638 202.846 90.3083 207.259 92.6249 210Z" stroke="black" stroke-width="0.54" stroke-linecap="round" stroke-linejoin="round"/>
<path d="M150 82V200.192C150 201.743 148.129 203 145.843 203H31.1566C28.8577 203 27 201.743 27 200.192V82H150Z" fill="white"/>
<g clip-path="url(#clip0_49_316)">
<rect width="124" height="124" transform="translate(27 97)" fill="white"/>
<path d="M96.1412 145.436C101.464 139.421 107.802 129.668 110.864 122.576C114.156 114.914 106.541 110.915 86.8339 137.313C86.8339 137.313 84.2033 140.867 87.1108 144.805C90.0184 148.744 95.2028 146.513 96.1412 145.436Z" fill="#FCC2A5"/>
<path d="M98.6644 150.313C105.003 145.375 115.125 139.667 122.402 137.067C130.248 134.267 134.201 142.313 106.618 160.312C106.618 160.312 102.464 162.528 98.726 159.359C94.9877 156.189 97.526 151.19 98.6644 150.313Z" fill="#FCC2A5"/>
<path d="M-17.392 307.86C-17.392 307.86 42.9283 224.017 45.9128 219.202C48.9127 214.387 60.2352 196.788 61.5429 190.788C62.8505 184.773 86.9417 174.019 88.357 189.373C89.7724 204.726 88.6032 208.403 87.7263 209.879C86.834 211.341 61.0967 261.169 57.9738 275.23C57.9738 275.215 -17.069 306.967 -17.392 307.86Z" fill="#FCC2A5"/>
<path d="M53.5434 176.481C54.5433 182.665 52.5588 186.942 57.4355 197.08C62.3122 207.218 77.25 212.448 77.25 212.448C77.25 212.448 80.2037 214.802 89.634 209.141C99.0644 203.48 111.556 187.096 112.971 185.803C114.387 184.511 110.372 163.158 105.187 160.805C100.003 158.451 81.9575 152.666 76.7731 158.097C76.7731 158.097 71.1733 164.466 69.8196 165.697C68.4658 166.927 66.2659 169.912 64.8044 168.589C63.4045 167.312 63.8044 163.758 60.3277 164.82C56.8509 165.866 52.8357 166.22 53.5434 176.481Z" fill="#FCC2A5"/>
<path d="M70.2501 204.233C70.327 204.726 70.4501 205.187 70.5885 205.649C70.727 206.11 70.9116 206.541 71.1116 206.972C71.5116 207.833 72.0192 208.618 72.6038 209.356C72.8961 209.725 73.2192 210.079 73.5422 210.418C73.6192 210.51 73.7115 210.587 73.7884 210.664L73.9115 210.787L73.9576 210.833L74.0191 210.879C74.2038 211.018 74.4037 211.156 74.6037 211.279C75.4037 211.787 76.2806 212.171 77.219 212.448C76.2344 212.495 75.2191 212.233 74.3114 211.802C74.0807 211.695 73.8653 211.572 73.6345 211.433L73.5576 211.372L73.5269 211.341L73.5115 211.325L73.4807 211.295L73.3269 211.172C73.2346 211.095 73.1269 211.002 73.0346 210.925C72.6654 210.587 72.3115 210.218 72.0039 209.833C71.3731 209.049 70.8654 208.156 70.5424 207.202C70.3732 206.726 70.2655 206.233 70.2039 205.741C70.1732 205.233 70.1578 204.726 70.2501 204.233Z" fill="#E8987C"/>
<path d="M59.8505 200.849C60.4351 201.295 61.0196 201.695 61.635 202.049C62.235 202.403 62.8657 202.726 63.5118 202.972C64.158 203.233 64.8195 203.449 65.4964 203.603C65.8348 203.695 66.1886 203.741 66.5425 203.818C66.7117 203.864 66.8963 203.864 67.0809 203.895C67.2655 203.926 67.4347 203.941 67.6194 203.987C67.4347 204.033 67.2655 204.064 67.0809 204.11C66.8963 204.141 66.7117 204.187 66.5271 204.187C66.1579 204.203 65.7887 204.233 65.4041 204.187C64.6502 204.141 63.9118 203.956 63.2195 203.68C62.5273 203.403 61.8658 203.018 61.2966 202.541C60.712 202.064 60.2043 201.51 59.8505 200.849Z" fill="#E8987C"/>
<path d="M81.9113 167.174C82.7266 167.974 83.5112 168.804 84.3112 169.604C84.7111 170.004 85.1111 170.404 85.5111 170.789C85.7111 170.973 85.9265 171.158 86.1265 171.327C86.2341 171.42 86.3418 171.496 86.4495 171.573L86.5264 171.635L86.6187 171.696L86.8034 171.82C87.7418 172.527 88.5725 173.296 89.3879 174.112C90.1878 174.927 90.9724 175.758 91.6801 176.665C90.757 175.989 89.8648 175.266 88.9879 174.542C88.111 173.819 87.2341 173.081 86.3572 172.419L86.0188 172.173C85.8957 172.081 85.7726 171.989 85.6649 171.896C85.4342 171.696 85.2188 171.496 85.0188 171.296C84.6034 170.881 84.2342 170.45 83.865 170.004C83.142 169.097 82.4805 168.174 81.9113 167.174Z" fill="#E8987C"/>
<path d="M90.7415 167.174C91.0338 167.958 91.2953 168.727 91.5261 169.512C91.7722 170.297 92.003 171.066 92.2338 171.85L92.926 174.189C93.1568 174.973 93.4029 175.742 93.6337 176.542C93.126 175.881 92.726 175.142 92.3722 174.389C92.0338 173.635 91.7415 172.85 91.5107 172.05C91.28 171.25 91.0953 170.45 90.9569 169.635C90.8338 168.835 90.7415 168.004 90.7415 167.174Z" fill="#E8987C"/>
<path d="M96.526 166.527C96.326 167.266 96.1568 167.989 96.0183 168.712C95.8799 169.435 95.7568 170.158 95.6799 170.881C95.6491 171.066 95.6491 171.25 95.6338 171.419C95.6184 171.604 95.603 171.789 95.5876 171.973C95.5722 172.158 95.5722 172.342 95.5415 172.527L95.5261 173.081C95.4953 173.45 95.5107 173.819 95.4953 174.189C95.4799 174.558 95.4953 174.942 95.4645 175.327C95.3261 174.973 95.2184 174.604 95.1261 174.235C95.0492 173.865 94.9722 173.481 94.9415 173.112C94.9261 172.927 94.8953 172.727 94.8953 172.542C94.8953 172.358 94.8799 172.158 94.8799 171.973C94.8799 171.789 94.8799 171.589 94.8953 171.404C94.9107 171.219 94.9107 171.019 94.9415 170.835C95.0184 170.066 95.203 169.312 95.4491 168.589C95.7107 167.82 96.0337 167.112 96.526 166.527Z" fill="#E8987C"/>
<path d="M49.2666 163.743C49.2666 163.743 50.1281 168.866 51.1896 173.235C52.2511 177.604 53.4818 187.557 56.3124 188.742C59.1431 189.926 66.0351 187.326 66.3889 182.019C66.7427 176.711 65.912 173.05 65.0967 170.342C64.2659 167.635 61.1122 157.051 58.4046 157.282C55.6971 157.528 51.2973 156.405 49.2666 163.743Z" fill="#FCC2A5"/>
<path d="M49.8973 167.127C49.7896 166.912 48.3282 159.666 48.7897 157.543C49.2666 155.42 50.205 151.497 50.9127 149.051C51.6203 146.621 52.2049 141.498 55.5432 142.482C58.22 143.267 60.6661 145.051 59.7276 158.974C58.7892 172.881 51.7742 170.896 49.8973 167.127Z" fill="#FCC2A5"/>
<path d="M60.8353 159.02C59.9277 162.728 55.3586 162.728 55.3586 162.728Z" fill="#E8987C"/>
<path d="M119.602 164.158H61.5582C60.4044 164.158 59.466 163.22 59.466 162.066V130.175C59.466 129.021 60.4044 128.083 61.5582 128.083H119.602C120.756 128.083 121.694 129.021 121.694 130.175V162.081C121.694 163.235 120.771 164.158 119.602 164.158Z" fill="#24CDF3"/>
<path d="M83.4801 135.406H67.3732C66.8209 135.406 66.3732 135.853 66.3732 136.406V155.836C66.3732 156.388 66.8209 156.836 67.3732 156.836H83.4801C84.0324 156.836 84.4801 156.388 84.4801 155.836V136.406C84.4801 135.853 84.0324 135.406 83.4801 135.406Z" fill="white"/>
<path d="M75.419 146.436C77.5516 146.436 79.2803 144.707 79.2803 142.575C79.2803 140.442 77.5516 138.713 75.419 138.713C73.2864 138.713 71.5576 140.442 71.5576 142.575C71.5576 144.707 73.2864 146.436 75.419 146.436Z" fill="#24CDF3"/>
<path d="M69.0038 153.528C69.0038 149.99 71.8806 147.113 75.4189 147.113C78.9572 147.113 81.834 149.99 81.834 153.528" fill="#24CDF3"/>
<path d="M104.517 139.775H89.5488C89.2897 139.775 89.0796 139.985 89.0796 140.244C89.0796 140.503 89.2897 140.713 89.5488 140.713H104.517C104.776 140.713 104.987 140.503 104.987 140.244C104.987 139.985 104.776 139.775 104.517 139.775Z" fill="white"/>
<path d="M114.332 143.698H89.5488C89.2897 143.698 89.0796 143.908 89.0796 144.167C89.0796 144.426 89.2897 144.636 89.5488 144.636H114.332C114.591 144.636 114.801 144.426 114.801 144.167C114.801 143.908 114.591 143.698 114.332 143.698Z" fill="white"/>
<path d="M114.332 147.621H89.5488C89.2897 147.621 89.0796 147.831 89.0796 148.09C89.0796 148.349 89.2897 148.559 89.5488 148.559H114.332C114.591 148.559 114.801 148.349 114.801 148.09C114.801 147.831 114.591 147.621 114.332 147.621Z" fill="white"/>
<path d="M114.332 151.544H89.5488C89.2897 151.544 89.0796 151.754 89.0796 152.013C89.0796 152.272 89.2897 152.482 89.5488 152.482H114.332C114.591 152.482 114.801 152.272 114.801 152.013C114.801 151.754 114.591 151.544 114.332 151.544Z" fill="white"/>
<path d="M83.4801 135.406H67.3732C66.8209 135.406 66.3732 135.853 66.3732 136.406V155.836C66.3732 156.388 66.8209 156.836 67.3732 156.836H83.4801C84.0324 156.836 84.4801 156.388 84.4801 155.836V136.406C84.4801 135.853 84.0324 135.406 83.4801 135.406Z" stroke="#FF529B" stroke-miterlimit="10"/>
<path d="M60.5736 130.653C60.5736 129.499 60.99 129.083 62.1437 129.083H120.709C120.971 129.083 121.232 129.129 121.463 129.221C121.125 128.545 120.417 128.068 119.602 128.068H61.5582C60.4044 128.068 59.4659 129.006 59.4659 130.16V162.066C59.4659 162.958 60.0198 163.712 60.8043 164.02C60.6659 163.743 60.5736 163.42 60.5736 163.066V130.653Z" fill="white"/>
<path d="M119.602 164.158H61.5582C60.4044 164.158 59.466 163.22 59.466 162.066V130.175C59.466 129.021 60.4044 128.083 61.5582 128.083H119.602C120.756 128.083 121.694 129.021 121.694 130.175V162.081C121.694 163.235 120.771 164.158 119.602 164.158Z" stroke="#FF529B" stroke-miterlimit="10"/>
<path d="M117.833 162.774H99.9564C99.7872 162.774 99.6641 162.635 99.6641 162.481C99.6641 162.327 99.8026 162.189 99.9564 162.189H117.833C118.817 162.189 119.632 161.389 119.632 160.389V157.22C119.632 157.051 119.771 156.928 119.925 156.928C120.079 156.928 120.217 157.066 120.217 157.22V160.389C120.217 161.712 119.156 162.774 117.833 162.774Z" fill="#15AFD1"/>
<path d="M120.556 181.388C116.294 184.927 109.372 189.034 104.31 190.896C98.8491 192.896 95.88 187.25 114.602 174.312C114.602 174.312 117.125 172.589 119.987 174.866C122.863 177.142 121.325 180.758 120.556 181.388Z" fill="#FCC2A5"/>
<path d="M120.556 181.388C119.463 182.404 118.31 183.327 117.11 184.204C115.91 185.081 114.679 185.911 113.417 186.696C110.895 188.265 108.264 189.68 105.495 190.834C105.141 190.973 104.802 191.096 104.449 191.234C104.079 191.357 103.71 191.48 103.326 191.542C103.141 191.588 102.941 191.603 102.741 191.619C102.541 191.634 102.341 191.634 102.141 191.634C101.741 191.603 101.31 191.526 100.926 191.326C100.541 191.126 100.203 190.773 100.033 190.357C99.8643 189.942 99.8335 189.511 99.8643 189.096C99.9566 188.28 100.28 187.557 100.649 186.896C101.403 185.557 102.372 184.419 103.403 183.342C104.449 182.281 105.556 181.296 106.725 180.373C105.679 181.419 104.633 182.465 103.679 183.604C102.726 184.727 101.833 185.896 101.172 187.173C100.849 187.819 100.603 188.496 100.526 189.157C100.51 189.48 100.541 189.803 100.664 190.08C100.787 190.342 100.987 190.557 101.264 190.696C101.541 190.834 101.849 190.896 102.187 190.911C102.356 190.926 102.526 190.911 102.695 190.896C102.864 190.865 103.033 190.865 103.203 190.819C103.541 190.757 103.879 190.65 104.218 190.526L105.233 190.126C106.587 189.573 107.925 188.957 109.233 188.296C110.556 187.634 111.848 186.927 113.125 186.204C115.679 184.727 118.187 183.142 120.556 181.388Z" fill="#E8987C"/>
<path d="M114.002 174.604C108.11 180.065 98.5105 186.634 91.4954 189.85C83.9111 193.326 79.7421 185.804 105.664 165.481C105.664 165.481 109.156 162.758 113.156 165.589C117.171 168.404 115.048 173.635 114.002 174.604Z" fill="#FCC2A5"/>
<path d="M114.002 174.604C110.079 178.389 105.726 181.742 101.157 184.757L100.295 185.327L99.4335 185.881C98.8643 186.25 98.2643 186.604 97.6797 186.957C97.0952 187.311 96.4952 187.65 95.9106 187.988L95.0183 188.48C94.7107 188.65 94.4184 188.819 94.1107 188.973L93.203 189.45C92.8953 189.603 92.5877 189.742 92.28 189.896C91.9723 190.05 91.6646 190.188 91.3416 190.342C91.0185 190.48 90.6955 190.603 90.3416 190.711C89.6647 190.926 88.9571 191.065 88.2186 191.065C87.8494 191.065 87.4648 191.019 87.0956 190.896C86.7264 190.773 86.3726 190.573 86.0803 190.296C85.788 190.003 85.588 189.634 85.4803 189.265C85.3726 188.88 85.3418 188.496 85.3572 188.127C85.3726 187.757 85.4341 187.388 85.5111 187.05C85.5418 186.88 85.6034 186.711 85.6495 186.527C85.7111 186.357 85.7572 186.188 85.8187 186.019C86.3264 184.696 87.0341 183.496 87.8187 182.358C88.6032 181.219 89.4647 180.142 90.357 179.112C91.2493 178.065 92.1877 177.066 93.1569 176.096C97.0182 172.22 101.264 168.758 105.649 165.497C105.126 165.943 104.603 166.374 104.079 166.82C103.556 167.251 103.033 167.697 102.526 168.143C101.495 169.035 100.464 169.927 99.4643 170.85C97.449 172.681 95.4645 174.543 93.5876 176.512C91.7262 178.481 89.9263 180.527 88.4186 182.758C87.6802 183.881 86.9879 185.034 86.5264 186.265C86.4649 186.419 86.4187 186.573 86.3726 186.727C86.3264 186.88 86.2803 187.034 86.2495 187.188C86.1726 187.496 86.1264 187.819 86.111 188.127C86.0803 188.742 86.2341 189.342 86.6187 189.727C87.0033 190.111 87.6187 190.28 88.234 190.296C88.8648 190.311 89.5109 190.188 90.1262 189.988C90.4339 189.896 90.7416 189.773 91.0493 189.65C91.357 189.527 91.6646 189.373 91.9569 189.234C92.5723 188.957 93.1723 188.634 93.7722 188.342C96.1875 187.111 98.5259 185.711 100.833 184.265C103.126 182.804 105.387 181.281 107.587 179.681C108.679 178.881 109.787 178.065 110.848 177.219L111.648 176.589L112.433 175.943L112.833 175.619L113.218 175.281L114.002 174.604Z" fill="#E8987C"/>
<path fill-rule="evenodd" clip-rule="evenodd" d="M37.5767 118.365C38.0896 118.365 38.5814 118.57 38.944 118.934C39.3066 119.298 39.5104 119.792 39.5104 120.307C39.5104 120.822 39.3066 121.315 38.944 121.679C38.5814 122.044 38.0896 122.248 37.5767 122.248H34.9495C34.4367 122.248 33.9448 122.044 33.5822 121.679C33.2195 121.315 33.0158 120.822 33.0158 120.307C33.0158 119.792 33.2195 119.298 33.5822 118.934C33.9448 118.57 34.4367 118.365 34.9495 118.365H37.5767Z" fill="#24CDF3"/>
<path fill-rule="evenodd" clip-rule="evenodd" d="M34.9283 111.686H43.7611C44.2593 111.693 44.7354 111.893 45.0901 112.245C45.4447 112.596 45.6507 113.071 45.6649 113.571C45.6791 114.072 45.5006 114.558 45.1665 114.929C44.8323 115.3 44.3684 115.527 43.8715 115.563H34.9389C34.4407 115.556 33.9646 115.356 33.6099 115.004C33.2553 114.653 33.0493 114.178 33.0351 113.678C33.0209 113.177 33.1994 112.691 33.5335 112.32C33.8677 111.949 34.3316 111.722 34.8285 111.686H34.9283Z" fill="#24CDF3"/>
<path fill-rule="evenodd" clip-rule="evenodd" d="M49.0104 105.001C49.5232 104.986 50.0209 105.177 50.3938 105.53C50.7668 105.884 50.9846 106.372 50.9992 106.887C51.0138 107.402 50.8242 107.902 50.4719 108.276C50.1196 108.651 49.6336 108.869 49.1207 108.884H34.9336C34.4225 108.878 33.9339 108.672 33.5724 108.309C33.2109 107.946 33.0055 107.456 33 106.942C33.009 106.449 33.2008 105.977 33.5379 105.618C33.8751 105.259 34.3333 105.039 34.8233 105.001L49.0104 105.001V105.001Z" fill="#24CDF3"/>
</g>
<path d="M151 81H27V97H151V81Z" fill="#707DFF"/>
<path d="M120 88.9881C120.003 89.582 119.8 90.1631 119.417 90.658C119.034 91.1529 118.488 91.5393 117.849 91.7682C117.21 91.9971 116.506 92.0582 115.826 91.9438C115.146 91.8294 114.521 91.5446 114.03 91.1255C113.539 90.7065 113.204 90.1719 113.068 89.5897C112.932 89.0074 113.001 88.4036 113.265 87.8548C113.53 87.3059 113.978 86.8366 114.554 86.5065C115.13 86.1763 115.807 86 116.5 86C116.959 85.9985 117.414 86.0746 117.838 86.2241C118.263 86.3735 118.649 86.5934 118.974 86.871C119.299 87.1486 119.557 87.4785 119.733 87.8419C119.909 88.2052 120 88.5947 120 88.9881V88.9881Z" fill="#FFD4C5"/>
<path d="M130 89C130 89.5934 129.824 90.1734 129.494 90.6667C129.165 91.1601 128.696 91.5446 128.148 91.7716C127.6 91.9987 126.997 92.0581 126.415 91.9424C125.833 91.8266 125.298 91.5409 124.879 91.1213C124.459 90.7018 124.173 90.1672 124.058 89.5853C123.942 89.0033 124.001 88.4001 124.228 87.852C124.455 87.3038 124.84 86.8353 125.333 86.5056C125.827 86.176 126.407 86 127 86C127.796 86 128.559 86.3161 129.121 86.8787C129.684 87.4413 130 88.2044 130 89Z" fill="#FC8AAA"/>
<path d="M141 89C141 89.5934 140.795 90.1734 140.41 90.6667C140.026 91.1601 139.479 91.5446 138.839 91.7716C138.2 91.9987 137.496 92.0581 136.817 91.9424C136.138 91.8266 135.515 91.5409 135.025 91.1213C134.536 90.7018 134.202 90.1672 134.067 89.5853C133.932 89.0033 134.002 88.4001 134.266 87.852C134.531 87.3038 134.98 86.8353 135.556 86.5056C136.131 86.176 136.808 86 137.5 86C138.428 86 139.319 86.3161 139.975 86.8787C140.631 87.4413 141 88.2044 141 89Z" fill="#FFD26B"/>
<path d="M202.151 29C196.959 29.0009 191.879 30.5242 187.527 33.3849C183.175 36.2457 179.739 40.3209 177.635 45.1161C175.532 49.9112 174.851 55.2199 175.677 60.3981C176.502 65.5762 178.797 70.4011 182.284 74.287L175 84L186.43 78.0598C189.858 80.5674 193.826 82.2201 198.007 82.883C202.189 83.5458 206.466 83.1999 210.49 81.8736C214.514 80.5473 218.171 78.2781 221.161 75.2516C224.151 72.225 226.389 68.5268 227.694 64.4592C228.998 60.3916 229.332 56.0699 228.667 51.8473C228.002 47.6246 226.357 43.6208 223.868 40.1628C221.378 36.7048 218.114 33.8909 214.342 31.9508C210.57 30.0107 206.397 28.9996 202.164 29H202.151Z" fill="#FF529B"/>
<path d="M216.306 45.444C210.105 41.0266 204.517 47.879 202.514 50.8461C200.496 47.879 194.922 41.0266 188.708 45.444C180.912 51.0058 202.336 73 202.336 73V72.9069C202.473 72.8403 224.101 50.9925 216.306 45.444Z" fill="#FFEEE8"/>
<path d="M83.9482 56.9368C84.0534 56.2723 84.0403 55.5807 84.106 54.9298C84.2113 53.9669 84.277 52.9905 84.356 52.0277L84.6717 48.3119C84.6717 48.2292 84.7036 48.1498 84.7603 48.0913C84.817 48.0328 84.894 48 84.9742 48C85.0545 48 85.1314 48.0328 85.1881 48.0913C85.2449 48.1498 85.2768 48.2292 85.2768 48.3119L87.0921 56.5978C87.2165 57.1719 87.5186 57.6886 87.9528 58.0702C88.387 58.4518 88.9298 58.6775 89.4993 58.7134L97.7602 59.2965C97.828 59.3113 97.8889 59.3497 97.9325 59.4053C97.9762 59.4608 98 59.5301 98 59.6016C98 59.6731 97.9762 59.7425 97.9325 59.798C97.8889 59.8535 97.828 59.8919 97.7602 59.9068L89.7624 62.1579C89.2469 62.2976 88.7847 62.5955 88.4371 63.012C88.0894 63.4285 87.8727 63.9441 87.8155 64.4905L86.8027 73.7528C86.7883 73.8227 86.7511 73.8854 86.6972 73.9304C86.6433 73.9754 86.576 74 86.5067 74C86.4374 74 86.3701 73.9754 86.3162 73.9304C86.2623 73.8854 86.2251 73.8227 86.2107 73.7528L84.6322 65.3855C84.5281 64.8024 84.2414 64.2705 83.8162 63.8712C83.3909 63.472 82.8505 63.2275 82.2776 63.175L73.1354 62.1037C73.0965 62.0927 73.0622 62.0688 73.0377 62.0357C73.0132 62.0026 73 61.9622 73 61.9206C73 61.879 73.0132 61.8386 73.0377 61.8055C73.0622 61.7724 73.0965 61.7485 73.1354 61.7375L77.4237 60.5848C78.4234 60.3136 79.3047 60.2187 80.5018 59.839C81.6988 59.4593 82.8301 59.2965 83.5141 58.1438C83.7376 57.7765 83.8854 57.3656 83.9482 56.9368Z" fill="white"/>
<path d="M238.005 194.894C238.123 194.242 238.097 193.535 238.175 192.896C238.267 191.917 238.332 190.952 238.424 189.973L238.739 186.248C238.753 186.178 238.79 186.115 238.844 186.07C238.897 186.025 238.964 186 239.033 186C239.102 186 239.169 186.025 239.223 186.07C239.277 186.115 239.314 186.178 239.328 186.248L241.149 194.554C241.271 195.132 241.571 195.654 242.003 196.039C242.436 196.424 242.978 196.652 243.547 196.689L251.761 197.26C251.829 197.275 251.889 197.313 251.933 197.369C251.976 197.425 252 197.494 252 197.566C252 197.637 251.976 197.707 251.933 197.763C251.889 197.818 251.829 197.857 251.761 197.872L243.796 200.128C243.282 200.268 242.822 200.567 242.476 200.985C242.129 201.402 241.914 201.919 241.857 202.467L240.848 211.752C240.834 211.822 240.797 211.885 240.743 211.93C240.689 211.975 240.622 212 240.553 212C240.484 212 240.417 211.975 240.363 211.93C240.31 211.885 240.273 211.822 240.258 211.752L238.686 203.35C238.58 202.768 238.293 202.238 237.87 201.841C237.447 201.443 236.91 201.2 236.341 201.148L227.17 200.06C227.125 200.06 227.082 200.042 227.05 200.009C227.018 199.976 227 199.931 227 199.884C227 199.837 227.018 199.792 227.05 199.759C227.082 199.726 227.125 199.707 227.17 199.707L231.441 198.538C232.437 198.266 233.315 198.171 234.507 197.79C235.699 197.409 236.839 197.246 237.52 196.091C237.756 195.729 237.921 195.322 238.005 194.894V194.894Z" fill="white"/>
<path d="M250.005 97.8943C250.123 97.2417 250.097 96.5348 250.175 95.8958C250.267 94.917 250.332 93.9517 250.424 92.9729L250.739 89.2479C250.753 89.1777 250.79 89.1149 250.844 89.0697C250.897 89.0246 250.964 89 251.033 89C251.102 89 251.169 89.0246 251.223 89.0697C251.277 89.1149 251.314 89.1777 251.328 89.2479L253.149 97.5544C253.271 98.1324 253.571 98.6535 254.003 99.0387C254.436 99.4239 254.978 99.6521 255.547 99.6888L263.761 100.26C263.829 100.275 263.889 100.313 263.933 100.369C263.976 100.425 264 100.494 264 100.566C264 100.637 263.976 100.707 263.933 100.763C263.889 100.818 263.829 100.857 263.761 100.872L255.796 103.128C255.282 103.268 254.822 103.567 254.476 103.985C254.129 104.402 253.914 104.919 253.857 105.467L252.848 114.752C252.834 114.822 252.797 114.885 252.743 114.93C252.689 114.975 252.622 115 252.553 115C252.484 115 252.417 114.975 252.363 114.93C252.31 114.885 252.273 114.822 252.258 114.752L250.686 106.35C250.58 105.768 250.293 105.238 249.87 104.841C249.447 104.443 248.91 104.2 248.341 104.148L239.17 103.06C239.125 103.06 239.082 103.042 239.05 103.009C239.018 102.976 239 102.931 239 102.884C239 102.837 239.018 102.792 239.05 102.759C239.082 102.726 239.125 102.707 239.17 102.707L243.441 101.538C244.437 101.266 245.315 101.171 246.507 100.79C247.699 100.409 248.839 100.246 249.52 99.0907C249.756 98.7291 249.921 98.3224 250.005 97.8943V97.8943Z" fill="white"/>
<path d="M94.3861 234.894C94.4956 234.228 94.4819 233.535 94.5503 232.882C94.6597 231.917 94.7281 230.938 94.8102 229.973C94.9196 228.736 95.0291 227.485 95.1522 226.248C95.1672 226.178 95.2059 226.115 95.2619 226.07C95.318 226.025 95.3879 226 95.46 226C95.5322 226 95.6021 226.025 95.6581 226.07C95.7142 226.115 95.7529 226.178 95.7679 226.248L97.6558 234.554C97.7852 235.13 98.0994 235.648 98.551 236.031C99.0025 236.413 99.567 236.639 100.159 236.675L108.751 237.26C108.821 237.275 108.884 237.313 108.93 237.369C108.975 237.425 109 237.494 109 237.566C109 237.637 108.975 237.707 108.93 237.763C108.884 237.818 108.821 237.857 108.751 237.872L100.433 240.128C99.8968 240.268 99.4161 240.567 99.0545 240.985C98.693 241.402 98.4676 241.919 98.4082 242.467L97.3548 251.752C97.3398 251.822 97.3011 251.885 97.245 251.93C97.189 251.975 97.1191 252 97.047 252C96.9749 252 96.9049 251.975 96.8489 251.93C96.7928 251.885 96.7541 251.822 96.7392 251.752L95.0975 243.364C94.9892 242.779 94.6911 242.246 94.2488 241.846C93.8066 241.446 93.2445 241.201 92.6487 241.148L83.1408 240.074C83.1003 240.063 83.0646 240.039 83.0392 240.006C83.0138 239.973 83 239.932 83 239.89C83 239.849 83.0138 239.808 83.0392 239.775C83.0646 239.742 83.1003 239.718 83.1408 239.707L87.6006 238.551C88.6403 238.279 89.5569 238.184 90.8018 237.804C92.0468 237.423 93.2233 237.26 93.9347 236.104C94.1671 235.736 94.3208 235.324 94.3861 234.894V234.894Z" fill="white"/>
<path d="M55 73.5C55 74.39 54.7654 75.26 54.3259 76.0001C53.8864 76.7401 53.2616 77.3169 52.5307 77.6575C51.7998 77.9981 50.9956 78.0872 50.2197 77.9135C49.4437 77.7399 48.731 77.3113 48.1716 76.682C47.6122 76.0526 47.2312 75.2508 47.0769 74.3779C46.9225 73.505 47.0017 72.6002 47.3045 71.7779C47.6072 70.9557 48.1199 70.2529 48.7777 69.7584C49.4355 69.2639 50.2089 69 51 69C52.0609 69 53.0783 69.4741 53.8284 70.318C54.5786 71.1619 55 72.3065 55 73.5V73.5Z" fill="white"/>
<path d="M141 22C141 22.7911 140.736 23.5645 140.242 24.2223C139.747 24.8801 139.044 25.3928 138.222 25.6955C137.4 25.9983 136.495 26.0775 135.622 25.9231C134.749 25.7688 133.947 25.3878 133.318 24.8284C132.689 24.269 132.26 23.5563 132.086 22.7804C131.913 22.0045 132.002 21.2002 132.343 20.4693C132.683 19.7384 133.26 19.1137 134 18.6741C134.74 18.2346 135.61 18 136.5 18C137.091 17.9983 137.677 18.1006 138.224 18.301C138.771 18.5014 139.268 18.796 139.686 19.1677C140.105 19.5395 140.436 19.9812 140.661 20.4672C140.887 20.9533 141.002 21.4742 141 22V22Z" fill="white"/>
<path d="M269 164C269 164.791 268.736 165.564 268.242 166.222C267.747 166.88 267.044 167.393 266.222 167.696C265.4 167.998 264.495 168.077 263.622 167.923C262.749 167.769 261.947 167.388 261.318 166.828C260.689 166.269 260.26 165.556 260.086 164.78C259.913 164.004 260.002 163.2 260.343 162.469C260.683 161.738 261.26 161.114 262 160.674C262.74 160.235 263.61 160 264.5 160C265.693 160 266.838 160.421 267.682 161.172C268.526 161.922 269 162.939 269 164V164Z" fill="white"/>
<path d="M244 129C244 129.791 243.736 130.564 243.242 131.222C242.747 131.88 242.044 132.393 241.222 132.696C240.4 132.998 239.495 133.077 238.622 132.923C237.749 132.769 236.947 132.388 236.318 131.828C235.689 131.269 235.26 130.556 235.086 129.78C234.913 129.004 235.002 128.2 235.343 127.469C235.683 126.738 236.26 126.114 237 125.674C237.74 125.235 238.61 125 239.5 125C240.693 125 241.838 125.421 242.682 126.172C243.526 126.922 244 127.939 244 129V129Z" fill="white"/>
<path d="M61 224.987C61.0029 225.779 60.7414 226.553 60.2487 227.213C59.756 227.872 59.0542 228.387 58.2322 228.692C57.4101 228.997 56.5049 229.078 55.631 228.925C54.7572 228.772 53.954 228.392 53.3232 227.833C52.6924 227.274 52.2624 226.561 52.0875 225.785C51.9127 225.009 52.001 224.204 52.3411 223.472C52.6813 222.741 53.2581 222.115 53.9984 221.675C54.7388 221.235 55.6093 221 56.5 221C57.0902 220.998 57.6751 221.1 58.221 221.3C58.7668 221.499 59.263 221.793 59.6811 222.163C60.0991 222.534 60.4308 222.974 60.6571 223.458C60.8835 223.943 61 224.462 61 224.987Z" fill="white"/>
<path d="M126 263.485C126.003 264.377 125.741 265.249 125.248 265.991C124.754 266.733 124.052 267.312 123.229 267.655C122.406 267.997 121.5 268.087 120.626 267.914C119.751 267.741 118.948 267.312 118.318 266.682C117.688 266.052 117.259 265.249 117.086 264.374C116.913 263.5 117.003 262.594 117.345 261.771C117.688 260.948 118.267 260.246 119.009 259.752C119.751 259.259 120.623 258.997 121.515 259C122.704 259 123.845 259.473 124.686 260.314C125.527 261.155 126 262.296 126 263.485V263.485Z" fill="white"/>
<defs>
<clipPath id="clip0_49_316">
<rect width="124" height="124" fill="white" transform="translate(27 97)"/>
</clipPath>
</defs>
</svg>
