<svg width="115" height="113" viewBox="0 0 115 113" fill="none" xmlns="http://www.w3.org/2000/svg">
<path d="M106.42 53.821H114.665V57.3763H106.42V66.6803H102.638V57.3763H94.4306V53.821H102.638V45.1978H106.42V53.821Z" fill="#CDF6FF"/>
<path d="M107.94 41.0825C102.984 30.9207 94.7306 22.7386 84.5263 17.8711C74.3219 13.0037 62.769 11.7383 51.753 14.2814C40.7369 16.8246 30.9079 23.0261 23.8698 31.8741C16.8317 40.7221 13 51.6942 13 63C13 74.3058 16.8317 85.2779 23.8698 94.1259C30.9079 102.974 40.7369 109.175 51.753 111.719C62.769 114.262 74.3219 112.996 84.5263 108.129C94.7306 103.261 102.984 95.0793 107.94 84.9175" fill="#CDF6FF"/>
<path d="M41.8888 65.622C42.165 65.622 42.3888 65.3981 42.3888 65.122V35.47C42.3888 35.1938 42.165 34.97 41.8888 34.97H41.2837C41.224 34.97 41.1648 34.9807 41.1088 35.0015L30.3676 39.0106C30.172 39.0836 30.0424 39.2703 30.0424 39.479V42.883C30.0424 43.0462 30.122 43.1991 30.2558 43.2927C30.3895 43.3862 30.5605 43.4086 30.7138 43.3527L37.6067 40.8368V65.122C37.6067 65.3981 37.8305 65.622 38.1067 65.622H41.8888Z" fill="#24CDF3" stroke="#24CDF3" stroke-linejoin="round"/>
<path d="M52.7731 43.4658C52.7852 44.9007 53.2068 46.3024 53.9883 47.506C53.9956 47.5171 54.0033 47.528 54.0114 47.5386C54.7313 48.4741 55.6446 49.2362 56.6837 49.7763C55.5121 50.4009 54.4992 51.296 53.7329 52.3938L53.7329 52.3937L53.728 52.401C52.8183 53.7542 52.3404 55.3513 52.3569 56.9815C52.2955 58.1951 52.5091 59.407 52.982 60.5266C53.4569 61.6511 54.181 62.6531 55.0995 63.4571L55.0995 63.4571L55.1047 63.4615C57.0868 65.1497 59.6384 66.0176 62.2383 65.8885C64.8257 66.0011 67.3636 65.1521 69.3626 63.5045C69.3682 63.4999 69.3737 63.4952 69.3791 63.4903C70.2878 62.6725 71.0043 61.6638 71.4775 60.5366C71.949 59.4133 72.1671 58.2001 72.1165 56.983C72.1286 55.3367 71.6194 53.7285 70.6616 52.3891L70.6605 52.3876C69.8582 51.2745 68.8053 50.3728 67.5928 49.7518C68.5561 49.1329 69.3855 48.3207 70.0259 47.3627C70.8437 46.1686 71.2822 44.7557 71.2844 43.3085C71.3218 42.1288 71.0997 40.9552 70.6339 39.8706C70.167 38.7836 69.4667 37.8125 68.5826 37.0264L68.5812 37.0252C66.7624 35.4202 64.3894 34.5883 61.9671 34.7061C59.5129 34.6341 57.1271 35.5225 55.3177 37.183L55.3177 37.183L55.3139 37.1865C54.459 37.9875 53.7889 38.9652 53.3502 40.0515C52.9129 41.1344 52.716 42.2994 52.7731 43.4658ZM65.7775 53.4104L65.7805 53.4135C66.2589 53.8871 66.6338 54.4547 66.8818 55.0804C67.1297 55.7062 67.2453 56.3766 67.2212 57.0493L67.7208 57.0672L67.2212 57.0864C67.2468 57.7527 67.1321 58.4169 66.8845 59.036C66.6383 59.6515 66.2662 60.2087 65.7921 60.6719C64.7599 61.5822 63.4113 62.0508 62.0368 61.9764C62.0191 61.9755 62.0014 61.9755 61.9837 61.9764C60.5998 62.0487 59.2419 61.5825 58.1945 60.6759C57.7435 60.204 57.3935 59.6448 57.1662 59.0327C56.9363 58.4139 56.8367 57.7543 56.8736 57.0952C56.8748 57.0747 56.8746 57.0542 56.8733 57.0337C56.8278 56.3568 56.9277 55.678 57.1662 55.0429C57.4046 54.4077 57.7762 53.8309 58.2559 53.3512C58.7357 52.8715 59.3125 52.4999 59.9476 52.2614C60.5827 52.0229 61.2616 51.9231 61.9385 51.9685C61.9595 51.9699 61.9807 51.97 62.0017 51.9688C62.6974 51.9273 63.3939 52.0344 64.0449 52.2829C64.6959 52.5315 65.2865 52.9159 65.7775 53.4104ZM60.217 38.9001C60.6738 38.7357 61.154 38.6486 61.6376 38.6417C61.7339 38.7283 61.8624 38.7762 61.9973 38.7693C62.565 38.7406 63.1328 38.8246 63.6678 39.0165C64.1976 39.2065 64.6848 39.4986 65.1021 39.8761C65.5288 40.3252 65.8597 40.8564 66.0747 41.4375C66.2917 42.0239 66.3859 42.6485 66.3517 43.2728C66.3505 43.2945 66.3507 43.3163 66.3524 43.338C66.3993 43.9585 66.3147 44.5819 66.1039 45.1674C65.8947 45.7484 65.5661 46.279 65.1393 46.725C64.2548 47.5372 63.0975 47.988 61.8963 47.988C60.6951 47.988 59.5379 47.5372 58.6534 46.7251C58.2265 46.279 57.8979 45.7484 57.6888 45.1674C57.478 44.5819 57.3933 43.9585 57.4403 43.338C57.442 43.3156 57.4422 43.2931 57.4408 43.2707C57.4041 42.6485 57.494 42.0253 57.7051 41.4389C57.9148 40.8564 58.2397 40.3222 58.6605 39.8682C59.1052 39.4394 59.6356 39.1094 60.217 38.9001Z" fill="#24CDF3" stroke="#24CDF3" stroke-linejoin="round"/>
<path d="M97.9401 31.0825C92.9842 20.9207 84.7306 12.7386 74.5263 7.87114C64.3219 3.00368 52.769 1.73828 41.753 4.28142C30.7369 6.82455 20.9079 13.0261 13.8698 21.8741C6.83166 30.7221 3 41.6942 3 53C3 64.3058 6.83166 75.2779 13.8698 84.1259C20.9079 92.9739 30.7369 99.1754 41.753 101.719C52.769 104.262 64.3219 102.996 74.5263 98.1289C84.7306 93.2614 92.9842 85.0793 97.9401 74.9175" stroke="#24CDF3" stroke-width="5" stroke-miterlimit="10" stroke-linecap="round" stroke-linejoin="round"/>
<path d="M110.165 48.8208C110.165 48.5447 109.941 48.3208 109.665 48.3208H101.92V40.1975C101.92 39.9214 101.696 39.6975 101.42 39.6975H97.6379C97.3617 39.6975 97.1379 39.9214 97.1379 40.1975V48.3208H89.4306C89.1545 48.3208 88.9306 48.5447 88.9306 48.8208V52.376C88.9306 52.6522 89.1545 52.876 89.4306 52.876H97.1379V61.6801C97.1379 61.9562 97.3617 62.1801 97.6379 62.1801H101.42C101.696 62.1801 101.92 61.9562 101.92 61.6801V52.876H109.665C109.941 52.876 110.165 52.6522 110.165 52.376V48.8208Z" fill="#24CDF3" stroke="#24CDF3" stroke-linejoin="round"/>
<path d="M89.7714 75.902L101.156 69.7749L101.647 81.7643" fill="#24CDF3"/>
</svg>
