<svg width="282" height="282" viewBox="0 0 282 282" fill="none" xmlns="http://www.w3.org/2000/svg">
<path d="M277.917 140.732C277.895 163.912 271.974 186.704 260.712 206.963C249.449 227.223 233.215 244.283 213.538 256.536C193.862 268.79 171.39 275.833 148.24 277.004C125.097 278.174 102.037 273.437 81.2297 263.237C80.3523 262.819 79.4982 262.378 78.7076 261.97L78.6814 261.957L78.6706 261.951C75.0658 260.076 71.5385 258.04 68.089 255.843M277.917 140.732L141.379 4.17825C138.553 4.17831 135.723 4.25895 132.919 4.44914C110.012 5.86556 87.8311 13.0355 68.4287 25.2959C49.0229 37.5585 33.0231 54.5173 21.9097 74.6033C10.7963 94.6894 4.92824 117.254 4.84836 140.209C4.76848 163.164 10.4791 185.768 21.4519 205.931M277.917 140.732C277.955 115.839 271.153 91.4146 258.252 70.1257L258.133 69.9172C258.026 69.724 257.908 69.5366 257.781 69.3557C245.601 49.4553 228.518 33.0121 208.165 21.6001C187.766 10.1622 164.769 4.16277 141.382 4.17825L277.917 140.732ZM68.089 255.843L70.2322 252.479L68.0907 255.844C68.0901 255.843 68.0896 255.843 68.089 255.843ZM68.089 255.843C65.2668 254.047 62.4946 252.14 59.8128 250.136M59.8128 250.136L62.2039 246.931L59.8102 250.134C59.811 250.134 59.8119 250.135 59.8128 250.136ZM59.8128 250.136C46.9363 240.527 35.8445 228.735 27.0411 215.296L27.0377 215.29C25.0537 212.251 23.1918 209.131 21.4519 205.931M21.4519 205.931C21.4521 205.932 21.4524 205.932 21.4527 205.933L24.9532 204.027L21.4519 205.931Z" fill="#E648B9" stroke="white" stroke-width="8"/>
<path d="M219.496 229.932L187.219 236.56L170.837 239.908L140.043 246.208L122.612 249.792L80.516 258.402C77.0157 256.582 73.5897 254.604 70.2382 252.469L70.632 247.324L79.9253 127.18L80.0697 125.316L80.3191 122.074L80.4635 120.223L80.5554 119.055L97.1599 115.826L98.5382 115.563L111.428 113.056L129.188 109.604L130.5 109.368L144.48 106.638L145.792 106.388L168.107 102.057L219.496 229.932Z" fill="#24CDF3"/>
<path d="M95.2566 129.109H95.1516C94.9885 129.08 94.8434 128.988 94.7475 128.853C94.6517 128.718 94.613 128.551 94.6397 128.387C94.9679 126.353 103.014 78.4289 117.479 74.7536C131.944 71.0783 150.754 117.374 151.542 119.383C151.572 119.458 151.587 119.539 151.586 119.621C151.584 119.703 151.567 119.783 151.535 119.858C151.503 119.933 151.456 120.001 151.397 120.058C151.339 120.115 151.27 120.16 151.194 120.19C151.118 120.22 151.037 120.235 150.955 120.234C150.874 120.233 150.793 120.215 150.718 120.183C150.643 120.151 150.575 120.104 150.518 120.045C150.461 119.987 150.417 119.918 150.386 119.842C150.19 119.369 131.34 72.5878 117.781 76.0006C104.222 79.4134 95.9523 128.138 95.8736 128.636C95.8384 128.773 95.7584 128.894 95.6466 128.979C95.5348 129.065 95.3975 129.111 95.2566 129.109V129.109Z" fill="black"/>
<path d="M99.9558 127.613C99.7524 126.819 99.3332 126.098 98.7447 125.528C98.1563 124.958 97.4215 124.562 96.6218 124.384C96.1966 124.257 95.7502 124.217 95.3092 124.266C95.0206 124.276 94.7343 124.321 94.456 124.397C93.3989 124.66 92.4748 125.301 91.8587 126.199C91.2427 127.097 90.9775 128.19 91.1134 129.271C91.2493 130.352 91.7768 131.345 92.5961 132.063C93.4154 132.78 94.4694 133.173 95.5586 133.165C95.9301 133.167 96.3004 133.123 96.6612 133.034C97.2286 132.889 97.7619 132.634 98.2304 132.282C98.6989 131.931 99.0935 131.491 99.3914 130.986C100.013 129.979 100.216 128.768 99.9558 127.613V127.613ZM98.3807 130.343C98.0612 130.893 97.585 131.334 97.013 131.611C96.441 131.888 95.7994 131.987 95.1703 131.897C94.5413 131.807 93.9536 131.531 93.4825 131.104C93.0114 130.678 92.6785 130.12 92.5264 129.503C92.4142 129.093 92.3851 128.664 92.441 128.243C92.4969 127.821 92.6366 127.415 92.8519 127.048C93.0672 126.681 93.3537 126.36 93.6945 126.106C94.0354 125.851 94.4237 125.668 94.8367 125.565H95.1254H95.6111C95.8694 125.565 96.1263 125.605 96.3724 125.684C96.8588 125.798 97.3114 126.026 97.6932 126.349C98.075 126.671 98.3753 127.079 98.5697 127.54C98.7641 128 98.8472 128.5 98.812 128.998C98.7769 129.497 98.6246 129.98 98.3676 130.409L98.3807 130.343Z" fill="black"/>
<path d="M154.823 117.926C154.718 117.53 154.559 117.15 154.351 116.797C154.276 116.654 154.188 116.518 154.088 116.39V116.39C153.828 116.029 153.508 115.713 153.143 115.458C153.027 115.366 152.904 115.283 152.775 115.209C151.82 114.629 150.677 114.441 149.586 114.684V114.684H149.415C149.063 114.778 148.724 114.915 148.404 115.091H148.299C147.625 115.461 147.066 116.011 146.685 116.679C146.384 117.179 146.186 117.733 146.1 118.31C146.014 118.886 146.044 119.474 146.186 120.039C146.486 121.185 147.22 122.169 148.234 122.783C148.923 123.186 149.706 123.399 150.505 123.4C150.876 123.395 151.245 123.351 151.607 123.269C152.294 123.093 152.929 122.755 153.458 122.284C153.81 121.979 154.112 121.621 154.351 121.221C154.559 120.863 154.718 120.479 154.823 120.079C154.916 119.71 154.965 119.331 154.968 118.95C154.954 118.605 154.905 118.262 154.823 117.926V117.926ZM153.261 120.656C152.939 121.204 152.462 121.644 151.889 121.92C151.316 122.196 150.675 122.295 150.046 122.205C149.416 122.115 148.828 121.839 148.356 121.414C147.884 120.989 147.549 120.433 147.394 119.816C147.287 119.408 147.264 118.983 147.325 118.566C147.386 118.149 147.53 117.748 147.748 117.388C148.021 116.916 148.415 116.527 148.89 116.259C149.143 116.105 149.417 115.99 149.704 115.918L150.085 115.839H150.505C151.077 115.843 151.638 115.997 152.132 116.285C152.863 116.722 153.391 117.43 153.602 118.254C153.708 118.657 153.732 119.077 153.673 119.49C153.615 119.902 153.475 120.299 153.261 120.656V120.656Z" fill="black"/>
<path d="M219.496 229.931L187.218 236.547L168.028 102.043L219.496 229.931Z" fill="#23B0D0"/>
<path d="M172.491 252.141L139.571 250.592L122.625 249.791L70.632 247.324L62.205 246.93C49.7033 237.601 38.9343 226.152 30.3872 213.104L65.1715 110.392L82.0649 111.363L83.4694 111.442L97.9081 112.282H99.2208L111.336 112.977L130.12 114.067H131.432L148.181 115.038H148.326H149.73L153.038 115.235H154.075L154.246 116.548L154.705 119.908L170.837 239.907L172.491 252.141Z" fill="white"/>
<path d="M89.77 47.54L89.99 47.58V58H87V44.8H91.08L96.43 55.2L96.21 55.24V44.8H99.2V58H95.1L89.77 47.54Z" fill="white"/>
<path d="M109.393 52.69H104.833V58H101.853V44.8H104.833V50.08H109.393V44.8H112.363V58H109.393V52.69Z" fill="white"/>
<path d="M119.307 44.8H122.277L127.487 58H124.297L123.337 55.35H118.257L117.287 58H114.087L119.307 44.8ZM119.257 52.73H122.347L120.817 48.4H120.787L119.257 52.73ZM120.787 61.19C120.467 61.19 120.193 61.0767 119.967 60.85C119.747 60.6233 119.637 60.3533 119.637 60.04C119.637 59.7267 119.747 59.4533 119.967 59.22C120.193 58.9933 120.467 58.88 120.787 58.88C121.1 58.88 121.37 58.9933 121.597 59.22C121.823 59.4533 121.937 59.7267 121.937 60.04C121.937 60.36 121.823 60.63 121.597 60.85C121.37 61.0767 121.1 61.19 120.787 61.19ZM118.347 44.03L117.257 42.58L120.787 40L124.307 42.59L123.227 44.03L120.787 42.24L118.347 44.03Z" fill="white"/>
<path d="M131.712 47.54L131.932 47.58V58H128.942V44.8H133.022L138.372 55.2L138.152 55.24V44.8H141.142V58H137.042L131.712 47.54Z" fill="white"/>
<path d="M157.028 52.69H152.468V58H149.488V44.8H152.468V50.08H157.028V44.8H159.998V58H157.028V52.69Z" fill="white"/>
<path d="M166.942 44.8H169.912L175.122 58H171.932L170.972 55.35H165.892L164.922 58H161.722L166.942 44.8ZM166.892 52.73H169.982L168.452 48.4H168.422L166.892 52.73ZM169.072 44.24L165.272 42.03L166.722 40.21L169.972 43.02L169.072 44.24Z" fill="white"/>
<path d="M179.347 47.54L179.567 47.58V58H176.577V44.8H180.657L186.007 55.2L185.787 55.24V44.8H188.777V58H184.677L179.347 47.54Z" fill="white"/>
<path d="M197.69 50.62H204.42V51.46C204.42 52.4067 204.26 53.29 203.94 54.11C203.627 54.93 203.177 55.65 202.59 56.27C202.004 56.89 201.304 57.3733 200.49 57.72C199.677 58.0667 198.777 58.24 197.79 58.24C196.77 58.24 195.844 58.0667 195.01 57.72C194.184 57.3667 193.47 56.8767 192.87 56.25C192.27 55.6233 191.81 54.8967 191.49 54.07C191.17 53.2367 191.01 52.3433 191.01 51.39C191.01 50.4433 191.17 49.5567 191.49 48.73C191.81 47.8967 192.27 47.17 192.87 46.55C193.47 45.9233 194.184 45.4367 195.01 45.09C195.844 44.7367 196.77 44.56 197.79 44.56C198.624 44.56 199.357 44.65 199.99 44.83C200.63 45.01 201.18 45.25 201.64 45.55C202.1 45.85 202.49 46.18 202.81 46.54C203.13 46.8933 203.397 47.24 203.61 47.58L200.77 48.92C200.497 48.5 200.124 48.1333 199.65 47.82C199.184 47.5067 198.564 47.35 197.79 47.35C197.25 47.35 196.754 47.4567 196.3 47.67C195.854 47.8833 195.467 48.1767 195.14 48.55C194.814 48.9167 194.56 49.3467 194.38 49.84C194.207 50.3267 194.12 50.8433 194.12 51.39C194.12 51.9433 194.207 52.4633 194.38 52.95C194.56 53.4367 194.814 53.8667 195.14 54.24C195.467 54.6133 195.854 54.9067 196.3 55.12C196.754 55.3267 197.25 55.43 197.79 55.43C198.264 55.43 198.694 55.37 199.08 55.25C199.467 55.13 199.8 54.9567 200.08 54.73C200.367 54.5033 200.59 54.2367 200.75 53.93C200.917 53.6167 201.017 53.2733 201.05 52.9H197.69V50.62Z" fill="white"/>
<circle cx="101" cy="175" r="30" fill="#24CDF3"/>
<path d="M133.323 128.9C133.17 128.898 133.024 128.841 132.911 128.739C132.798 128.638 132.725 128.499 132.706 128.348C132.64 127.85 125.906 77.8127 111.927 77.8127C97.9475 77.8127 77.9039 122.953 77.707 123.413C77.6382 123.564 77.5129 123.681 77.3582 123.74C77.2034 123.799 77.0316 123.795 76.8801 123.728C76.8048 123.697 76.7366 123.65 76.6796 123.592C76.6227 123.534 76.5781 123.464 76.5487 123.388C76.5192 123.312 76.5055 123.231 76.5083 123.15C76.5111 123.068 76.5304 122.988 76.565 122.914C77.392 121.011 97.0156 76.5657 111.927 76.5657C126.838 76.5657 133.664 126.078 133.939 128.191C133.951 128.272 133.945 128.354 133.924 128.434C133.903 128.513 133.866 128.587 133.816 128.651C133.766 128.716 133.704 128.77 133.632 128.811C133.561 128.851 133.483 128.877 133.401 128.887L133.323 128.9Z" fill="black"/>
<path d="M80.4635 120.21C80.1773 119.933 79.8496 119.703 79.4922 119.527C79.1215 119.329 78.7233 119.188 78.3108 119.107C78.0295 119.054 77.7438 119.028 77.4576 119.028C76.413 119.023 75.3993 119.383 74.5922 120.046C73.785 120.709 73.2353 121.634 73.0381 122.659C72.8409 123.685 73.0087 124.748 73.5124 125.663C74.0162 126.578 74.8241 127.288 75.7964 127.67C76.7686 128.052 77.8438 128.082 78.8359 127.755C79.8279 127.428 80.6742 126.764 81.2283 125.878C81.7823 124.993 82.0091 123.941 81.8694 122.906C81.7298 121.871 81.2324 120.917 80.4635 120.21V120.21ZM80.0697 125.316C79.754 125.766 79.3275 126.128 78.8314 126.366C78.3352 126.604 77.7862 126.71 77.2371 126.674C76.688 126.638 76.1575 126.461 75.6967 126.161C75.2358 125.86 74.8602 125.446 74.606 124.958C74.3518 124.47 74.2277 123.924 74.2455 123.374C74.2633 122.824 74.4226 122.288 74.7078 121.818C74.993 121.347 75.3947 120.958 75.874 120.688C76.3534 120.418 76.8943 120.276 77.4445 120.275H77.7464C78.1679 120.323 78.5771 120.448 78.954 120.643C79.5235 120.968 79.9811 121.457 80.2666 122.047C80.5282 122.558 80.6433 123.131 80.5993 123.704C80.5553 124.276 80.3538 124.825 80.0172 125.29L80.0697 125.316Z" fill="black"/>
<path d="M133.191 123.177H132.994C132.631 123.178 132.269 123.227 131.918 123.321C130.83 123.597 129.886 124.274 129.276 125.217C128.666 126.16 128.435 127.299 128.63 128.405C128.824 129.511 129.43 130.502 130.324 131.18C131.219 131.859 132.338 132.173 133.455 132.062C134.572 131.95 135.606 131.42 136.349 130.578C137.092 129.736 137.489 128.644 137.461 127.522C137.432 126.399 136.98 125.329 136.196 124.525C135.411 123.722 134.352 123.245 133.231 123.19L133.191 123.177ZM132.994 130.829C132.221 130.827 131.475 130.545 130.893 130.036C130.311 129.526 129.933 128.823 129.829 128.057C129.725 127.291 129.902 126.513 130.327 125.866C130.752 125.22 131.396 124.75 132.141 124.542C132.417 124.456 132.705 124.416 132.994 124.424H133.388C134.194 124.527 134.931 124.934 135.448 125.56C135.966 126.186 136.226 126.986 136.176 127.797C136.126 128.609 135.769 129.37 135.179 129.928C134.588 130.486 133.807 130.799 132.994 130.803V130.829Z" fill="black"/>
<path d="M172.491 252.141L139.584 250.592L154.18 115.497L172.491 252.141Z" fill="#E0E0E0"/>
<path d="M31.7786 116.206C31.8967 115.523 31.8705 114.801 31.9492 114.119C32.0542 113.108 32.133 112.097 32.2118 111.087C32.3299 109.774 32.448 108.462 32.553 107.215C32.5681 107.14 32.6083 107.074 32.6669 107.026C32.7255 106.978 32.7989 106.952 32.8746 106.952C32.9503 106.952 33.0237 106.978 33.0823 107.026C33.1409 107.074 33.1812 107.14 33.1962 107.215L35.152 115.838C35.2903 116.443 35.6211 116.986 36.0945 117.386C36.5679 117.786 37.1584 118.021 37.7772 118.057L46.6374 118.661C46.7144 118.666 46.7871 118.699 46.8425 118.752C46.898 118.806 46.9327 118.878 46.9405 118.955C46.9483 119.031 46.9288 119.109 46.8854 119.172C46.8419 119.236 46.7774 119.283 46.703 119.304L38.0791 121.64C37.5269 121.792 37.0328 122.105 36.6607 122.54C36.2887 122.976 36.0557 123.513 35.9921 124.082L34.9026 133.729C34.8875 133.804 34.8473 133.87 34.7887 133.918C34.7301 133.966 34.6567 133.992 34.581 133.992C34.5053 133.992 34.4319 133.966 34.3733 133.918C34.3147 133.87 34.2745 133.804 34.2594 133.729L32.5661 125C32.4494 124.395 32.1394 123.844 31.6826 123.429C31.2257 123.015 30.6468 122.76 30.0328 122.703L20.2013 121.575C20.1526 121.575 20.1058 121.555 20.0713 121.521C20.0369 121.486 20.0175 121.439 20.0175 121.391C20.0175 121.342 20.0369 121.295 20.0713 121.261C20.1058 121.226 20.1526 121.207 20.2013 121.207L24.8217 119.999C25.8849 119.711 26.83 119.606 28.1164 119.212C29.4027 118.818 30.6366 118.647 31.3717 117.453C31.5854 117.067 31.7236 116.644 31.7786 116.206V116.206Z" fill="white"/>
<path d="M201.798 107.635C201.89 107.096 201.877 106.532 201.929 105.994C202.008 105.193 202.074 104.392 202.139 103.592L202.415 100.533C202.415 100.467 202.441 100.404 202.488 100.357C202.535 100.31 202.598 100.284 202.664 100.284C202.731 100.284 202.794 100.31 202.841 100.357C202.888 100.404 202.914 100.467 202.914 100.533L204.463 107.359C204.571 107.833 204.828 108.259 205.197 108.576C205.565 108.892 206.026 109.082 206.51 109.118L213.533 109.59C213.599 109.59 213.663 109.617 213.709 109.663C213.756 109.71 213.782 109.774 213.782 109.84C213.782 109.906 213.756 109.969 213.709 110.016C213.663 110.063 213.599 110.089 213.533 110.089L206.734 111.953C206.31 112.073 205.931 112.315 205.644 112.649C205.357 112.983 205.174 113.393 205.119 113.83L204.266 121.47C204.253 121.528 204.22 121.579 204.174 121.616C204.127 121.654 204.069 121.674 204.01 121.674C203.95 121.674 203.893 121.654 203.846 121.616C203.8 121.579 203.767 121.528 203.754 121.47L202.441 114.565C202.349 114.086 202.103 113.65 201.741 113.323C201.378 112.996 200.919 112.796 200.433 112.754L192.662 111.861C192.63 111.852 192.601 111.832 192.581 111.804C192.561 111.777 192.55 111.744 192.55 111.71C192.55 111.676 192.561 111.643 192.581 111.616C192.601 111.589 192.63 111.569 192.662 111.559L196.311 110.614C197.151 110.391 197.9 110.312 198.937 109.997C199.974 109.682 200.919 109.551 201.496 108.593C201.658 108.296 201.76 107.97 201.798 107.635V107.635Z" fill="white"/>
<path d="M253.282 166.138C253.374 165.6 253.361 165.022 253.414 164.497C253.506 163.697 253.558 162.896 253.624 162.095L253.899 159.037C253.899 158.971 253.926 158.907 253.972 158.86C254.019 158.814 254.083 158.787 254.149 158.787C254.215 158.787 254.278 158.814 254.325 158.86C254.372 158.907 254.398 158.971 254.398 159.037L255.96 165.862C256.066 166.337 256.323 166.765 256.692 167.082C257.061 167.398 257.523 167.588 258.008 167.621L265.017 168.094C265.083 168.094 265.147 168.12 265.194 168.167C265.24 168.214 265.267 168.277 265.267 168.343C265.267 168.409 265.24 168.473 265.194 168.52C265.147 168.566 265.083 168.593 265.017 168.593L258.205 170.443C257.77 170.564 257.381 170.812 257.088 171.156C256.796 171.5 256.613 171.924 256.564 172.373L255.698 180.012C255.698 180.078 255.671 180.142 255.625 180.189C255.578 180.235 255.514 180.262 255.448 180.262C255.382 180.262 255.319 180.235 255.272 180.189C255.225 180.142 255.199 180.078 255.199 180.012L253.886 173.108C253.792 172.63 253.545 172.195 253.183 171.868C252.821 171.542 252.363 171.341 251.878 171.297L244.107 170.404C244.075 170.394 244.046 170.374 244.026 170.347C244.006 170.32 243.995 170.287 243.995 170.253C243.995 170.219 244.006 170.186 244.026 170.159C244.046 170.132 244.075 170.112 244.107 170.102L247.756 169.157C248.61 168.934 249.358 168.855 250.382 168.54C251.405 168.225 252.364 168.094 253.007 167.136C253.164 166.825 253.258 166.486 253.282 166.138Z" fill="white"/>
<path d="M251.612 112.82C251.704 112.281 251.691 111.704 251.743 111.179C251.835 110.378 251.888 109.577 251.954 108.777L252.229 105.718C252.229 105.652 252.255 105.589 252.302 105.542C252.349 105.495 252.412 105.469 252.479 105.469C252.545 105.469 252.608 105.495 252.655 105.542C252.702 105.589 252.728 105.652 252.728 105.718L254.29 112.544C254.396 113.019 254.653 113.446 255.022 113.763C255.391 114.08 255.852 114.269 256.338 114.303L263.347 114.775C263.413 114.775 263.477 114.802 263.523 114.848C263.57 114.895 263.596 114.959 263.596 115.025C263.596 115.091 263.57 115.154 263.523 115.201C263.477 115.248 263.413 115.274 263.347 115.274L256.535 117.125C256.099 117.246 255.711 117.494 255.418 117.838C255.126 118.182 254.943 118.606 254.894 119.055L254.027 126.694C254.027 126.76 254.001 126.824 253.954 126.87C253.908 126.917 253.844 126.943 253.778 126.943C253.712 126.943 253.648 126.917 253.602 126.87C253.555 126.824 253.529 126.76 253.529 126.694L252.216 119.79C252.122 119.311 251.875 118.876 251.513 118.55C251.151 118.223 250.693 118.023 250.208 117.978L242.437 117.086C242.405 117.076 242.376 117.056 242.356 117.029C242.335 117.002 242.325 116.969 242.325 116.935C242.325 116.901 242.335 116.868 242.356 116.841C242.376 116.813 242.405 116.793 242.437 116.784L246.086 115.839C246.939 115.616 247.688 115.537 248.711 115.222C249.735 114.907 250.693 114.775 251.337 113.817C251.494 113.506 251.587 113.167 251.612 112.82Z" fill="white"/>
<path d="M162.489 248.636C162.581 248.098 162.568 247.533 162.62 246.995C162.699 246.195 162.764 245.394 162.83 244.593L163.106 241.535C163.106 241.469 163.132 241.405 163.179 241.358C163.226 241.312 163.289 241.285 163.355 241.285C163.421 241.285 163.485 241.312 163.531 241.358C163.578 241.405 163.605 241.469 163.605 241.535L165.153 248.36C165.262 248.834 165.519 249.261 165.888 249.577C166.256 249.894 166.717 250.084 167.201 250.119L174.224 250.592C174.29 250.592 174.353 250.618 174.4 250.665C174.447 250.712 174.473 250.775 174.473 250.841C174.473 250.907 174.447 250.971 174.4 251.018C174.353 251.064 174.29 251.091 174.224 251.091L167.464 252.902C167.027 253.018 166.636 253.263 166.341 253.605C166.046 253.947 165.861 254.37 165.81 254.818L164.957 262.458C164.943 262.516 164.911 262.568 164.864 262.605C164.818 262.642 164.76 262.662 164.701 262.662C164.641 262.662 164.583 262.642 164.537 262.605C164.49 262.568 164.458 262.516 164.445 262.458L163.132 255.554C163.04 255.074 162.794 254.638 162.431 254.311C162.069 253.985 161.61 253.785 161.124 253.742L153.353 252.85C153.32 252.84 153.292 252.82 153.272 252.793C153.251 252.766 153.24 252.733 153.24 252.699C153.24 252.665 153.251 252.632 153.272 252.604C153.292 252.577 153.32 252.557 153.353 252.548L157.002 251.603C157.842 251.379 158.59 251.301 159.627 250.986C160.664 250.671 161.609 250.539 162.187 249.581C162.341 249.286 162.443 248.966 162.489 248.636Z" fill="white"/>
<path d="M68.4662 96.99C70.496 96.99 72.1415 95.3445 72.1415 93.3147C72.1415 91.2849 70.496 89.6394 68.4662 89.6394C66.4364 89.6394 64.7908 91.2849 64.7908 93.3147C64.7908 95.3445 66.4364 96.99 68.4662 96.99Z" fill="white"/>
<path d="M111.087 256.131C113.117 256.131 114.762 254.486 114.762 252.456C114.762 250.426 113.117 248.781 111.087 248.781C109.057 248.781 107.411 250.426 107.411 252.456C107.411 254.486 109.057 256.131 111.087 256.131Z" fill="white"/>
<path d="M198.244 238.896C200.274 238.896 201.92 237.251 201.92 235.221C201.92 233.191 200.274 231.546 198.244 231.546C196.215 231.546 194.569 233.191 194.569 235.221C194.569 237.251 196.215 238.896 198.244 238.896Z" fill="white"/>
<path d="M239.305 193.126C239.308 193.854 239.094 194.567 238.691 195.173C238.289 195.779 237.715 196.252 237.043 196.532C236.371 196.812 235.63 196.886 234.916 196.745C234.202 196.603 233.546 196.253 233.031 195.738C232.516 195.223 232.166 194.567 232.025 193.853C231.883 193.139 231.957 192.399 232.237 191.727C232.517 191.055 232.99 190.481 233.596 190.078C234.203 189.675 234.915 189.461 235.643 189.464C236.614 189.464 237.546 189.85 238.233 190.537C238.92 191.223 239.305 192.155 239.305 193.126V193.126Z" fill="white"/>
<path d="M245.971 80.0569C245.971 80.7838 245.756 81.4944 245.352 82.0988C244.948 82.7032 244.374 83.1743 243.702 83.4525C243.031 83.7306 242.292 83.8034 241.579 83.6616C240.866 83.5198 240.211 83.1698 239.697 82.6558C239.183 82.1418 238.833 81.4869 238.691 80.7739C238.549 80.061 238.622 79.322 238.9 78.6504C239.178 77.9789 239.65 77.4048 240.254 77.001C240.858 76.5971 241.569 76.3816 242.296 76.3816C243.271 76.3816 244.205 76.7688 244.895 77.4581C245.584 78.1473 245.971 79.0822 245.971 80.0569V80.0569Z" fill="white"/>
<path d="M220.64 149.586C220.64 150.313 220.424 151.023 220.021 151.628C219.617 152.232 219.043 152.703 218.371 152.982C217.7 153.26 216.961 153.332 216.248 153.191C215.535 153.049 214.88 152.699 214.366 152.185C213.852 151.671 213.502 151.016 213.36 150.303C213.218 149.59 213.291 148.851 213.569 148.179C213.847 147.508 214.318 146.934 214.923 146.53C215.527 146.126 216.238 145.911 216.965 145.911C217.939 145.911 218.874 146.298 219.563 146.987C220.253 147.676 220.64 148.611 220.64 149.586V149.586Z" fill="white"/>
<path d="M165.676 65.0269C162.684 65.0274 159.758 65.9177 157.251 67.5897C154.744 69.2618 152.764 71.6437 151.552 74.4463C150.34 77.2489 149.948 80.3518 150.424 83.3783C150.899 86.4048 152.222 89.2248 154.23 91.496L150.034 97.173L156.619 93.7011C158.594 95.1668 160.879 96.1327 163.288 96.5201C165.697 96.9075 168.162 96.7054 170.48 95.9302C172.798 95.155 174.904 93.8287 176.627 92.0598C178.349 90.2908 179.639 88.1293 180.391 85.7519C181.142 83.3745 181.334 80.8486 180.951 78.3805C180.568 75.9125 179.621 73.5723 178.186 71.5512C176.752 69.5301 174.872 67.8855 172.699 66.7515C170.526 65.6176 168.122 65.0266 165.683 65.0269H165.676Z" fill="#FF003D"/>
<path d="M173.958 74.2003C170.432 71.515 167.254 75.6805 166.115 77.4841C164.968 75.6805 161.798 71.515 158.264 74.2003C153.831 77.5812 166.014 90.951 166.014 90.951V90.8944C166.091 90.854 178.391 77.5731 173.958 74.2003Z" fill="#CF0334"/>
<path d="M31.4242 168.501C33.454 168.501 35.0995 166.856 35.0995 164.826C35.0995 162.796 33.454 161.15 31.4242 161.15C29.3943 161.15 27.7488 162.796 27.7488 164.826C27.7488 166.856 29.3943 168.501 31.4242 168.501Z" fill="white"/>
</svg>
