<svg width="88" height="113" viewBox="0 0 88 113" fill="none" xmlns="http://www.w3.org/2000/svg">
<path d="M27.1474 58.7981C34.9607 58.7981 41.2947 52.4641 41.2947 44.6508C41.2947 36.8374 34.9607 30.5034 27.1474 30.5034C19.334 30.5034 13 36.8374 13 44.6508C13 52.4641 19.334 58.7981 27.1474 58.7981Z" fill="#CDF6FF"/>
<path d="M83.2177 13H32.5432C31.4423 13 30.3865 13.4373 29.6081 14.2157C28.8297 14.9942 28.3924 16.05 28.3924 17.1508V30.641C31.9377 30.8902 35.2566 32.4745 37.68 35.0742C40.1034 37.674 41.4509 41.0959 41.4509 44.6499C41.4509 48.204 40.1034 51.6259 37.68 54.2257C35.2566 56.8254 31.9377 58.4097 28.3924 58.6589V108.849C28.3924 109.95 28.8297 111.006 29.6081 111.784C30.3865 112.563 31.4423 113 32.5432 113H83.2177C84.3185 113 85.3743 112.563 86.1528 111.784C86.9312 111.006 87.3685 109.95 87.3685 108.849V17.1508C87.3685 16.05 86.9312 14.9942 86.1528 14.2157C85.3743 13.4373 84.3185 13 83.2177 13V13Z" fill="#CDF6FF"/>
<path d="M18.1162 12.2354H76.9886" stroke="#24CDF3" stroke-width="5" stroke-miterlimit="10" stroke-linejoin="round"/>
<path d="M18.1162 93.2805H76.9886" stroke="#24CDF3" stroke-width="5" stroke-miterlimit="10" stroke-linejoin="round"/>
<path d="M17.1474 48.7979C24.9607 48.7979 31.2947 42.4639 31.2947 34.6505C31.2947 26.8371 24.9607 20.5032 17.1474 20.5032C9.33399 20.5032 3 26.8371 3 34.6505C3 42.4639 9.33399 48.7979 17.1474 48.7979Z" stroke="#24CDF3" stroke-width="5" stroke-miterlimit="10" stroke-linejoin="round"/>
<path d="M73.2177 3H22.5432C21.4423 3 20.3865 3.43731 19.6081 4.21574C18.8297 4.99417 18.3924 6.04995 18.3924 7.15082V20.641C21.9377 20.8902 25.2566 22.4745 27.68 25.0742C30.1034 27.674 31.4509 31.0959 31.4509 34.6499C31.4509 38.204 30.1034 41.6259 27.68 44.2257C25.2566 46.8254 21.9377 48.4097 18.3924 48.6589V98.8492C18.3924 99.9501 18.8297 101.006 19.6081 101.784C20.3865 102.563 21.4423 103 22.5432 103H73.2177C74.3185 103 75.3743 102.563 76.1528 101.784C76.9312 101.006 77.3685 99.9501 77.3685 98.8492V7.15082C77.3685 6.04995 76.9312 4.99417 76.1528 4.21574C75.3743 3.43731 74.3185 3 73.2177 3V3Z" stroke="#24CDF3" stroke-width="5" stroke-miterlimit="10" stroke-linejoin="round"/>
<path d="M10.7828 32.0219L15.5908 39.6317L23.5465 28.6321" stroke="#24CDF3" stroke-width="3" stroke-miterlimit="10" stroke-linecap="round" stroke-linejoin="round"/>
<path d="M48.5549 51.5986C53.2926 51.5986 57.1333 47.7579 57.1333 43.0202C57.1333 38.2825 53.2926 34.4419 48.5549 34.4419C43.8173 34.4419 39.9766 38.2825 39.9766 43.0202C39.9766 47.7579 43.8173 51.5986 48.5549 51.5986Z" stroke="#24CDF3" stroke-width="5" stroke-miterlimit="10" stroke-linejoin="round"/>
<path d="M30.7413 72.5257C30.7413 64.2932 38.4203 57.5828 48.0364 57.5828C57.6524 57.5828 65.3314 64.2932 65.3314 72.5257" stroke="#24CDF3" stroke-width="5" stroke-miterlimit="10" stroke-linejoin="round"/>
</svg>
