<svg id="Layer_1" data-name="Layer 1" xmlns="http://www.w3.org/2000/svg" viewBox="0 0 1258.6 1087.1">
  <defs>
    <style>
      .cls-1 {
        isolation: isolate;
      }

      .cls-2 {
        fill: #0852bc;
      }

      .cls-3, .cls-5, .cls-7 {
        fill: none;
        stroke-miterlimit: 10;
        stroke-width: 2.24px;
      }

      .cls-3 {
        stroke: #0852bc;
      }

      .cls-4 {
        fill: #fff;
      }

      .cls-5 {
        stroke: #fff;
      }

      .cls-6 {
        fill: #fcc029;
      }

      .cls-7 {
        stroke: #fcc029;
      }
    </style>
  </defs>
  <g>
    <g class="cls-1">
      <path class="cls-2" d="M350.5,420.3a30.6,30.6,0,0,1-9.3,3.8,47.9,47.9,0,0,1-10,1.1H313.8V365.7h17.4a42.1,42.1,0,0,1,10,1.2,30.6,30.6,0,0,1,9.3,3.7c9,5.8,13.5,14.1,13.5,25S359.5,414.4,350.5,420.3Zm-2.6-44.6a22.8,22.8,0,0,0-9.3-3.8,35.8,35.8,0,0,0-5.1-.6H319.8v48.6h15l4.8-.7a24.6,24.6,0,0,0,9.2-4,21.6,21.6,0,0,0,6.9-8.7,25.8,25.8,0,0,0,2.4-10.9C358.1,386.9,354.7,380.4,347.9,375.7Z" transform="translate(-3.4 0.5)"/>
      <path class="cls-2" d="M419.7,425.2l-8.7-20H383.4l-8.6,20h-6.2l25.3-59.5h6.7l25.5,59.5Zm-22.4-52.7-11.6,27.3h23Zm6.3-10.1-15.9-8.6,2.6-4.8,16,8.7Z" transform="translate(-3.4 0.5)"/>
      <path class="cls-2" d="M474.4,425.2l-35.2-52.3H439v52.3h-6V365.7h8.1l33.2,49.4h.1V365.7h5.9v59.5Z" transform="translate(-3.4 0.5)"/>
      <path class="cls-2" d="M529.3,425.2V397.3H498.5v27.9h-6V365.7h6v26.2h30.8V365.7h5.9v59.5Z" transform="translate(-3.4 0.5)"/>
      <path class="cls-2" d="M583.6,371.2v54h-6v-54H564v-5.5h33.2v5.5Z" transform="translate(-3.4 0.5)"/>
      <path class="cls-2" d="M649.8,425.2l-8.7-20H613.5l-8.6,20h-6.2L624,365.7h6.7l25.5,59.5Zm-8.3-71.5a11.6,11.6,0,0,1-5.6,6.5,20.7,20.7,0,0,1-16.9,0,11.4,11.4,0,0,1-5.5-6.5h5.2c1.8,2.5,4.7,3.7,8.8,3.7a14.6,14.6,0,0,0,4.8-.8,9.2,9.2,0,0,0,4-2.9Zm-14.1,18.8-11.6,27.3h23Zm-2.9,67.8V430.1h5.9v10.2Z" transform="translate(-3.4 0.5)"/>
      <path class="cls-2" d="M704.5,425.2l-35.2-52.3h-.2v52.3h-6V365.7h8.1l33.2,49.4h.1V365.7h5.9v59.5Z" transform="translate(-3.4 0.5)"/>
      <path class="cls-2" d="M783,397.9a29.3,29.3,0,0,1-10.1,20.3,30.8,30.8,0,0,1-21.3,8.1,31.4,31.4,0,0,1-22.3-9,29.7,29.7,0,0,1,0-43.7,32.3,32.3,0,0,1,46.5,2,23.6,23.6,0,0,1,3.9,6h-6.9a22.7,22.7,0,0,0-9.1-8.5,25.8,25.8,0,0,0-12.1-3,25.3,25.3,0,0,0-18.2,7.4,24.4,24.4,0,0,0-7.7,18.1,23.8,23.8,0,0,0,7.8,18,25.8,25.8,0,0,0,18.4,7.2,25.1,25.1,0,0,0,14.9-4.9,21.7,21.7,0,0,0,9.1-12.6H742.7v-5.4Z" transform="translate(-3.4 0.5)"/>
      <path class="cls-2" d="M845.6,421.9a19.4,19.4,0,0,1-7,2.8,47.2,47.2,0,0,1-7.5.5H814.7V365.7h15a25.4,25.4,0,0,1,10.8,2.1,14.3,14.3,0,0,1,7.4,7.7,15.4,15.4,0,0,1,1.2,6.1,13.4,13.4,0,0,1-1.7,6.8,20.5,20.5,0,0,1-4.8,5.2c6.6,2.6,9.9,7.5,9.9,14.6S850.2,419,845.6,421.9Zm-4.9-47.1a10.6,10.6,0,0,0-5.6-3.1l-3.3-.5H820.7v20.2h10.1l2.6-.2a16.6,16.6,0,0,0,4.9-1.5,8.8,8.8,0,0,0,4.9-8.3A10,10,0,0,0,840.7,374.8Zm-1.2,23.3a20.3,20.3,0,0,0-5.6-1.2H820.7v23h11.2l2.8-.2a18.4,18.4,0,0,0,5.6-1.3c4.1-1.8,6.2-5.1,6.2-10.1S844.2,400,839.5,398.1Z" transform="translate(-3.4 0.5)"/>
      <path class="cls-2" d="M906.9,425.2l-8.6-20H870.7l-8.7,20h-6.2l25.4-59.5h6.7l25.5,59.5Zm-22.3-52.7-11.7,27.3H896Zm-3,67.8V430.1h6v10.2Z" transform="translate(-3.4 0.5)"/>
      <path class="cls-2" d="M961.7,425.2l-35.3-52.3h-.1v52.3h-6V365.7h8l33.2,49.4h.2V365.7h5.9v59.5Z" transform="translate(-3.4 0.5)"/>
    </g>
    <g class="cls-1">
      <path class="cls-3" d="M350.5,420.3a30.6,30.6,0,0,1-9.3,3.8,47.9,47.9,0,0,1-10,1.1H313.8V365.7h17.4a42.1,42.1,0,0,1,10,1.2,30.6,30.6,0,0,1,9.3,3.7c9,5.8,13.5,14.1,13.5,25S359.5,414.4,350.5,420.3Zm-2.6-44.6a22.8,22.8,0,0,0-9.3-3.8,35.8,35.8,0,0,0-5.1-.6H319.8v48.6h15l4.8-.7a24.6,24.6,0,0,0,9.2-4,21.6,21.6,0,0,0,6.9-8.7,25.8,25.8,0,0,0,2.4-10.9C358.1,386.9,354.7,380.4,347.9,375.7Z" transform="translate(-3.4 0.5)"/>
      <path class="cls-3" d="M419.7,425.2l-8.7-20H383.4l-8.6,20h-6.2l25.3-59.5h6.7l25.5,59.5Zm-22.4-52.7-11.6,27.3h23Zm6.3-10.1-15.9-8.6,2.6-4.8,16,8.7Z" transform="translate(-3.4 0.5)"/>
      <path class="cls-3" d="M474.4,425.2l-35.2-52.3H439v52.3h-6V365.7h8.1l33.2,49.4h.1V365.7h5.9v59.5Z" transform="translate(-3.4 0.5)"/>
      <path class="cls-3" d="M529.3,425.2V397.3H498.5v27.9h-6V365.7h6v26.2h30.8V365.7h5.9v59.5Z" transform="translate(-3.4 0.5)"/>
      <path class="cls-3" d="M583.6,371.2v54h-6v-54H564v-5.5h33.2v5.5Z" transform="translate(-3.4 0.5)"/>
      <path class="cls-3" d="M649.8,425.2l-8.7-20H613.5l-8.6,20h-6.2L624,365.7h6.7l25.5,59.5Zm-8.3-71.5a11.6,11.6,0,0,1-5.6,6.5,20.7,20.7,0,0,1-16.9,0,11.4,11.4,0,0,1-5.5-6.5h5.2c1.8,2.5,4.7,3.7,8.8,3.7a14.6,14.6,0,0,0,4.8-.8,9.2,9.2,0,0,0,4-2.9Zm-14.1,18.8-11.6,27.3h23Zm-2.9,67.8V430.1h5.9v10.2Z" transform="translate(-3.4 0.5)"/>
      <path class="cls-3" d="M704.5,425.2l-35.2-52.3h-.2v52.3h-6V365.7h8.1l33.2,49.4h.1V365.7h5.9v59.5Z" transform="translate(-3.4 0.5)"/>
      <path class="cls-3" d="M783,397.9a29.3,29.3,0,0,1-10.1,20.3,30.8,30.8,0,0,1-21.3,8.1,31.4,31.4,0,0,1-22.3-9,29.7,29.7,0,0,1,0-43.7,32.3,32.3,0,0,1,46.5,2,23.6,23.6,0,0,1,3.9,6h-6.9a22.7,22.7,0,0,0-9.1-8.5,25.8,25.8,0,0,0-12.1-3,25.3,25.3,0,0,0-18.2,7.4,24.4,24.4,0,0,0-7.7,18.1,23.8,23.8,0,0,0,7.8,18,25.8,25.8,0,0,0,18.4,7.2,25.1,25.1,0,0,0,14.9-4.9,21.7,21.7,0,0,0,9.1-12.6H742.7v-5.4Z" transform="translate(-3.4 0.5)"/>
      <path class="cls-3" d="M845.6,421.9a19.4,19.4,0,0,1-7,2.8,47.2,47.2,0,0,1-7.5.5H814.7V365.7h15a25.4,25.4,0,0,1,10.8,2.1,14.3,14.3,0,0,1,7.4,7.7,15.4,15.4,0,0,1,1.2,6.1,13.4,13.4,0,0,1-1.7,6.8,20.5,20.5,0,0,1-4.8,5.2c6.6,2.6,9.9,7.5,9.9,14.6S850.2,419,845.6,421.9Zm-4.9-47.1a10.6,10.6,0,0,0-5.6-3.1l-3.3-.5H820.7v20.2h10.1l2.6-.2a16.6,16.6,0,0,0,4.9-1.5,8.8,8.8,0,0,0,4.9-8.3A10,10,0,0,0,840.7,374.8Zm-1.2,23.3a20.3,20.3,0,0,0-5.6-1.2H820.7v23h11.2l2.8-.2a18.4,18.4,0,0,0,5.6-1.3c4.1-1.8,6.2-5.1,6.2-10.1S844.2,400,839.5,398.1Z" transform="translate(-3.4 0.5)"/>
      <path class="cls-3" d="M906.9,425.2l-8.6-20H870.7l-8.7,20h-6.2l25.4-59.5h6.7l25.5,59.5Zm-22.3-52.7-11.7,27.3H896Zm-3,67.8V430.1h6v10.2Z" transform="translate(-3.4 0.5)"/>
      <path class="cls-3" d="M961.7,425.2l-35.3-52.3h-.1v52.3h-6V365.7h8l33.2,49.4h.2V365.7h5.9v59.5Z" transform="translate(-3.4 0.5)"/>
    </g>
    <g class="cls-1">
      <g class="cls-1">
        <path class="cls-2" d="M117.2,582.8H92.1L60.3,487.5h25l19.2,66.8h.3l19.3-66.8h25.1Z" transform="translate(-3.4 0.5)"/>
      </g>
      <g class="cls-1">
        <path class="cls-3" d="M117.2,582.8H92.1L60.3,487.5h25l19.2,66.8h.3l19.3-66.8h25.1Z" transform="translate(-3.4 0.5)"/>
      </g>
      <g class="cls-1">
        <path class="cls-2" d="M239.3,570.5q-14.7,14.1-35.7,14.1a49.2,49.2,0,0,1-35.2-13.9c-9.9-9.4-14.9-20.8-14.9-34.4a54.6,54.6,0,0,1,3.7-20.3,41.4,41.4,0,0,1,6.2-10.7c9.9-13.1,23.3-19.6,40.3-19.6,14,0,25.9,4.7,35.6,14.2S254,521.2,254,535.1,249.1,560.9,239.3,570.5Zm-16.7-54.9a23.8,23.8,0,0,0-18.8-8.5,24.1,24.1,0,0,0-18.8,8.3,28,28,0,0,0-7.2,19.5,29.2,29.2,0,0,0,7.2,19.9,24.5,24.5,0,0,0,19.1,8.4,23.4,23.4,0,0,0,18.5-8.5,28.7,28.7,0,0,0,7.1-19.4A29.1,29.1,0,0,0,222.6,515.6Z" transform="translate(-3.4 0.5)"/>
        <path class="cls-2" d="M340,545.1a62.4,62.4,0,0,1-1.6,15.8,31.8,31.8,0,0,1-7.8,13.4c-6.8,6.9-15.7,10.3-26.7,10.3a47.5,47.5,0,0,1-14.9-2.3,30.1,30.1,0,0,1-12.5-7.9,31.9,31.9,0,0,1-8.1-13.5,39.5,39.5,0,0,1-1.2-7.4q-.3-3.3-.3-8.4V487.5h24.3v57.6a56,56,0,0,0,.4,6.4,20.7,20.7,0,0,0,1.7,5.9c2,3.9,5.4,5.8,10.3,5.8s8.6-1.9,10.3-5.7a17.4,17.4,0,0,0,1.6-5.8c.1-1.6.2-3.9.2-6.6V487.5H340Z" transform="translate(-3.4 0.5)"/>
        <path class="cls-2" d="M451.5,547.1A47.7,47.7,0,0,1,434,574.3a48.3,48.3,0,0,1-30.6,10.3,49.4,49.4,0,0,1-35.6-14.3c-9.8-9.6-14.7-21.4-14.7-35.3s4.9-25.6,14.6-35.1,21.5-14.2,35.4-14.2q27.1,0,42,22.4a38.6,38.6,0,0,1,6.4,15.6H426c-4.2-11.1-11.9-16.6-23-16.6a23.9,23.9,0,0,0-18.6,8.3,29.1,29.1,0,0,0-6.9,19.5,29.6,29.6,0,0,0,6.9,19.7,23.7,23.7,0,0,0,18.7,8.6c10.4,0,18-5.3,22.9-16.1Z" transform="translate(-3.4 0.5)"/>
        <path class="cls-2" d="M519.6,582.8V544.7H488.5v38.1H464.1V487.5h24.4v35.8h31.1V487.5H544v95.3Z" transform="translate(-3.4 0.5)"/>
        <path class="cls-2" d="M561.2,582.8V487.5h53v21.3H584.5v14.9h28.7v21.4H584.5v16.3h29.7v21.4Z" transform="translate(-3.4 0.5)"/>
        <path class="cls-2" d="M674.8,582.8l-22-30.8h-.3v30.8H629.2V487.5h30.1c3.2,0,5.8,0,7.7.2a57,57,0,0,1,7.7.8,29.7,29.7,0,0,1,14,5.8q11.7,9.4,11.7,26.1c0,7.5-2,14.1-6.2,19.5a26.1,26.1,0,0,1-17.5,10.5l25.9,32.4Zm-2.4-71c-2.7-2-6.4-3-11-3h-8.9v26.6h8.6c10.7,0,16-4.6,16-13.7C677.1,517.3,675.5,514,672.4,511.8Z" transform="translate(-3.4 0.5)"/>
        <path class="cls-2" d="M753,530.1v-27a17.4,17.4,0,0,1,3.3-10.8,11.7,11.7,0,0,1,9.9-4.8h9.2v11.6h-3.1l-3.4.4a4.3,4.3,0,0,0-3.6,4.5v4.3h10.1v21.9Zm31.8,0v-27a17.4,17.4,0,0,1,3.3-10.8,11.7,11.7,0,0,1,9.9-4.8h9.2v11.6h-3.1l-3.4.4c-2.4.6-3.7,2.1-3.7,4.5v4.3h10.2v21.9Z" transform="translate(-3.4 0.5)"/>
        <path class="cls-2" d="M847.8,508.8v16.3h27.7v21.4H847.8v36.3H824.5V487.5h52v21.3Z" transform="translate(-3.4 0.5)"/>
        <path class="cls-2" d="M962.5,545.1a67.4,67.4,0,0,1-1.6,15.8,31,31,0,0,1-7.9,13.4c-6.8,6.9-15.6,10.3-26.7,10.3a46.9,46.9,0,0,1-14.8-2.3,31.2,31.2,0,0,1-12.6-7.9,31.7,31.7,0,0,1-8-13.5,49.2,49.2,0,0,1-1.3-7.4c-.2-2.2-.2-5-.2-8.4V487.5h24.3v57.6a39.8,39.8,0,0,0,.4,6.4,17.9,17.9,0,0,0,1.7,5.9c1.9,3.9,5.3,5.8,10.3,5.8s8.5-1.9,10.3-5.7a20.3,20.3,0,0,0,1.5-5.8,57.4,57.4,0,0,0,.3-6.6V487.5h24.3Z" transform="translate(-3.4 0.5)"/>
        <path class="cls-2" d="M1038.7,582.8l-36.3-58h-.3l.7,57.9H979.5V487.5h21l36.8,59.9.3-.3-1.1-59.6h23.3v95.3Z" transform="translate(-3.4 0.5)"/>
        <path class="cls-2" d="M1122.5,548.1v34.7h-24.3V548.1l-28.5-60.6h26.4l14.2,38.3,14.2-38.3h26.2Z" transform="translate(-3.4 0.5)"/>
        <path class="cls-2" d="M1182.9,514.6a18,18,0,0,1-3.2,10.8,11.9,11.9,0,0,1-9.9,4.7h-9.3V518.7h3.2a10.9,10.9,0,0,0,3.4-.4,4.2,4.2,0,0,0,3.6-4.5v-4.4h-10.2V487.5h22.4Zm31.8,0a17.3,17.3,0,0,1-3.2,10.8,11.9,11.9,0,0,1-9.9,4.7h-9.3V518.7h3.2a10.6,10.6,0,0,0,3.3-.4,4.2,4.2,0,0,0,3.6-4.5v-4.4h-10.1V487.5h22.4Z" transform="translate(-3.4 0.5)"/>
      </g>
      <g class="cls-1">
        <path class="cls-3" d="M239.3,570.5q-14.7,14.1-35.7,14.1a49.2,49.2,0,0,1-35.2-13.9c-9.9-9.4-14.9-20.8-14.9-34.4a54.6,54.6,0,0,1,3.7-20.3,41.4,41.4,0,0,1,6.2-10.7c9.9-13.1,23.3-19.6,40.3-19.6,14,0,25.9,4.7,35.6,14.2S254,521.2,254,535.1,249.1,560.9,239.3,570.5Zm-16.7-54.9a23.8,23.8,0,0,0-18.8-8.5,24.1,24.1,0,0,0-18.8,8.3,28,28,0,0,0-7.2,19.5,29.2,29.2,0,0,0,7.2,19.9,24.5,24.5,0,0,0,19.1,8.4,23.4,23.4,0,0,0,18.5-8.5,28.7,28.7,0,0,0,7.1-19.4A29.1,29.1,0,0,0,222.6,515.6Z" transform="translate(-3.4 0.5)"/>
        <path class="cls-3" d="M340,545.1a62.4,62.4,0,0,1-1.6,15.8,31.8,31.8,0,0,1-7.8,13.4c-6.8,6.9-15.7,10.3-26.7,10.3a47.5,47.5,0,0,1-14.9-2.3,30.1,30.1,0,0,1-12.5-7.9,31.9,31.9,0,0,1-8.1-13.5,39.5,39.5,0,0,1-1.2-7.4q-.3-3.3-.3-8.4V487.5h24.3v57.6a56,56,0,0,0,.4,6.4,20.7,20.7,0,0,0,1.7,5.9c2,3.9,5.4,5.8,10.3,5.8s8.6-1.9,10.3-5.7a17.4,17.4,0,0,0,1.6-5.8c.1-1.6.2-3.9.2-6.6V487.5H340Z" transform="translate(-3.4 0.5)"/>
        <path class="cls-3" d="M451.5,547.1A47.7,47.7,0,0,1,434,574.3a48.3,48.3,0,0,1-30.6,10.3,49.4,49.4,0,0,1-35.6-14.3c-9.8-9.6-14.7-21.4-14.7-35.3s4.9-25.6,14.6-35.1,21.5-14.2,35.4-14.2q27.1,0,42,22.4a38.6,38.6,0,0,1,6.4,15.6H426c-4.2-11.1-11.9-16.6-23-16.6a23.9,23.9,0,0,0-18.6,8.3,29.1,29.1,0,0,0-6.9,19.5,29.6,29.6,0,0,0,6.9,19.7,23.7,23.7,0,0,0,18.7,8.6c10.4,0,18-5.3,22.9-16.1Z" transform="translate(-3.4 0.5)"/>
        <path class="cls-3" d="M519.6,582.8V544.7H488.5v38.1H464.1V487.5h24.4v35.8h31.1V487.5H544v95.3Z" transform="translate(-3.4 0.5)"/>
        <path class="cls-3" d="M561.2,582.8V487.5h53v21.3H584.5v14.9h28.7v21.4H584.5v16.3h29.7v21.4Z" transform="translate(-3.4 0.5)"/>
        <path class="cls-3" d="M674.8,582.8l-22-30.8h-.3v30.8H629.2V487.5h30.1c3.2,0,5.8,0,7.7.2a57,57,0,0,1,7.7.8,29.7,29.7,0,0,1,14,5.8q11.7,9.4,11.7,26.1c0,7.5-2,14.1-6.2,19.5a26.1,26.1,0,0,1-17.5,10.5l25.9,32.4Zm-2.4-71c-2.7-2-6.4-3-11-3h-8.9v26.6h8.6c10.7,0,16-4.6,16-13.7C677.1,517.3,675.5,514,672.4,511.8Z" transform="translate(-3.4 0.5)"/>
        <path class="cls-3" d="M753,530.1v-27a17.4,17.4,0,0,1,3.3-10.8,11.7,11.7,0,0,1,9.9-4.8h9.2v11.6h-3.1l-3.4.4a4.3,4.3,0,0,0-3.6,4.5v4.3h10.1v21.9Zm31.8,0v-27a17.4,17.4,0,0,1,3.3-10.8,11.7,11.7,0,0,1,9.9-4.8h9.2v11.6h-3.1l-3.4.4c-2.4.6-3.7,2.1-3.7,4.5v4.3h10.2v21.9Z" transform="translate(-3.4 0.5)"/>
        <path class="cls-3" d="M847.8,508.8v16.3h27.7v21.4H847.8v36.3H824.5V487.5h52v21.3Z" transform="translate(-3.4 0.5)"/>
        <path class="cls-3" d="M962.5,545.1a67.4,67.4,0,0,1-1.6,15.8,31,31,0,0,1-7.9,13.4c-6.8,6.9-15.6,10.3-26.7,10.3a46.9,46.9,0,0,1-14.8-2.3,31.2,31.2,0,0,1-12.6-7.9,31.7,31.7,0,0,1-8-13.5,49.2,49.2,0,0,1-1.3-7.4c-.2-2.2-.2-5-.2-8.4V487.5h24.3v57.6a39.8,39.8,0,0,0,.4,6.4,17.9,17.9,0,0,0,1.7,5.9c1.9,3.9,5.3,5.8,10.3,5.8s8.5-1.9,10.3-5.7a20.3,20.3,0,0,0,1.5-5.8,57.4,57.4,0,0,0,.3-6.6V487.5h24.3Z" transform="translate(-3.4 0.5)"/>
        <path class="cls-3" d="M1038.7,582.8l-36.3-58h-.3l.7,57.9H979.5V487.5h21l36.8,59.9.3-.3-1.1-59.6h23.3v95.3Z" transform="translate(-3.4 0.5)"/>
        <path class="cls-3" d="M1122.5,548.1v34.7h-24.3V548.1l-28.5-60.6h26.4l14.2,38.3,14.2-38.3h26.2Z" transform="translate(-3.4 0.5)"/>
        <path class="cls-3" d="M1182.9,514.6a18,18,0,0,1-3.2,10.8,11.9,11.9,0,0,1-9.9,4.7h-9.3V518.7h3.2a10.9,10.9,0,0,0,3.4-.4,4.2,4.2,0,0,0,3.6-4.5v-4.4h-10.2V487.5h22.4Zm31.8,0a17.3,17.3,0,0,1-3.2,10.8,11.9,11.9,0,0,1-9.9,4.7h-9.3V518.7h3.2a10.6,10.6,0,0,0,3.3-.4,4.2,4.2,0,0,0,3.6-4.5v-4.4h-10.1V487.5h22.4Z" transform="translate(-3.4 0.5)"/>
      </g>
    </g>
    <g class="cls-1">
      <path class="cls-2" d="M157.1,670.2v74H132.8v-74H114V648.9h61.8v21.3Z" transform="translate(-3.4 0.5)"/>
      <path class="cls-2" d="M231.1,744.2l-22-30.8h-.2v30.8H185.5V648.9h30.1c3.2,0,5.8,0,7.7.2a55.3,55.3,0,0,1,7.7.8,29.3,29.3,0,0,1,14,5.8c7.9,6.3,11.8,15,11.8,26.1a31,31,0,0,1-6.3,19.5,26.1,26.1,0,0,1-17.4,10.5l25.8,32.4Zm-2.4-71c-2.7-2-6.4-3-11-3h-8.8v26.6h8.6c10.6,0,15.9-4.6,15.9-13.7C233.4,678.7,231.9,675.4,228.7,673.2Z" transform="translate(-3.4 0.5)"/>
      <path class="cls-2" d="M269.6,744.2V648.9h24.3v95.3Zm1.9,30.9V755.6H292v19.5Z" transform="translate(-3.4 0.5)"/>
      <path class="cls-2" d="M448.3,695c0,14.7-4.9,26.8-14.5,36.6s-21.8,14.5-36.4,14.5-26.1-4.8-35.9-14.4-14.7-21.5-14.7-35.5,5-25.9,15-35.3,21.8-13.8,36-13.8a51.3,51.3,0,0,1,29.3,9.2c9.4,6.4,15.5,14.6,18.3,24.5H418.1q-6.9-12.3-21-12.3a24.1,24.1,0,0,0-18.8,8.2q-7.2,7.8-7.2,19.5c0,8,2.3,14.7,7,20.1a24.4,24.4,0,0,0,19.2,8.5,27.3,27.3,0,0,0,14.2-3.7,19.6,19.6,0,0,0,8.5-11.7H391.6V690h56.5c.1.7.1,1.6.2,2.5Z" transform="translate(-3.4 0.5)"/>
      <path class="cls-2" d="M460.8,744.2V648.9h24.4v95.3Z" transform="translate(-3.4 0.5)"/>
      <path class="cls-2" d="M563.8,744.2l-4.6-13.8H526.1l-5,13.8H494.9l38.3-95.3h19.1l38,95.3Zm-31.4-99.9-6-12.7L557.2,615l6.9,15.3ZM543,678.5h-.4l-9.8,32.6h20Z" transform="translate(-3.4 0.5)"/>
      <path class="cls-2" d="M637.7,744.2V725.3l7.8-5.2c2.8-1.9,5.3-3.7,7.5-5.5a99.5,99.5,0,0,0,13.8-12.5l4.4-5.2c1.6-2.1,3-4.1,4.3-6.1,2.9-4.9,4.4-9.3,4.4-13.1,0-6.1-3-9.2-9-9.2a9.2,9.2,0,0,0-8.6,4.8c-1.3,2.4-2.1,5.8-2.3,10.2H636.8a56.9,56.9,0,0,1,1.2-11.4,37.2,37.2,0,0,1,4.4-10.5,31.9,31.9,0,0,1,12.8-11,39.5,39.5,0,0,1,16.6-3.5,37.4,37.4,0,0,1,17.6,4,26.8,26.8,0,0,1,14.9,23.7,38.2,38.2,0,0,1-3,14.6,55.8,55.8,0,0,1-7.5,12.9,124,124,0,0,1-10.2,11.4l-5.6,5.2-5.4,4.8h32.3v20.5Z" transform="translate(-3.4 0.5)"/>
      <path class="cls-2" d="M786,709.8a39,39,0,0,1-4.7,19.4,32,32,0,0,1-14.8,13.3,36.1,36.1,0,0,1-15.7,3.5,38.7,38.7,0,0,1-14.5-2.9c-14.3-6-21.4-17.1-21.4-33.3V683.3c0-16.5,7.2-27.6,21.5-33.4a39.6,39.6,0,0,1,14.4-2.8,36.2,36.2,0,0,1,14.6,3.1c13.7,6,20.6,17,20.6,33.1Zm-24.4-27.2c0-4.2-.7-7.5-2.2-9.8s-4.9-4.3-9-4.3a9.9,9.9,0,0,0-8.7,4.3c-1.7,2.5-2.5,5.8-2.5,9.8v27.8c0,4.1.8,7.4,2.5,9.9s4.8,4.3,8.7,4.3,7.1-1.4,9-4.2,2.2-5.7,2.2-10Z" transform="translate(-3.4 0.5)"/>
      <path class="cls-2" d="M799.3,744.2V722.3h22.3v21.9Z" transform="translate(-3.4 0.5)"/>
      <path class="cls-2" d="M905.9,709.8c0,7.4-1.5,13.9-4.6,19.4a32,32,0,0,1-14.8,13.3,36.4,36.4,0,0,1-15.7,3.5,38.3,38.3,0,0,1-14.5-2.9c-14.3-6-21.4-17.1-21.4-33.3V683.3c0-16.5,7.1-27.6,21.5-33.4a38.8,38.8,0,0,1,14.4-2.8,36.2,36.2,0,0,1,14.6,3.1c13.7,6,20.5,17,20.5,33.1Zm-24.3-27.2c0-4.2-.8-7.5-2.3-9.8s-4.8-4.3-8.9-4.3-6.8,1.4-8.7,4.3-2.5,5.8-2.5,9.8v27.8c0,4.1.8,7.4,2.5,9.9s4.8,4.3,8.7,4.3,7.1-1.4,8.9-4.2,2.3-5.7,2.3-10Z" transform="translate(-3.4 0.5)"/>
      <path class="cls-2" d="M985.5,709.8a39,39,0,0,1-4.7,19.4,31.3,31.3,0,0,1-14.7,13.3,36.5,36.5,0,0,1-15.8,3.5,38.7,38.7,0,0,1-14.5-2.9c-14.2-6-21.4-17.1-21.4-33.3V683.3c0-16.5,7.2-27.6,21.5-33.4a39.6,39.6,0,0,1,14.4-2.8,36.2,36.2,0,0,1,14.6,3.1c13.7,6,20.6,17,20.6,33.1Zm-24.3-27.2c0-4.2-.8-7.5-2.3-9.8s-4.9-4.3-8.9-4.3-6.8,1.4-8.8,4.3a18,18,0,0,0-2.4,9.8v27.8q0,6.1,2.4,9.9c1.9,2.9,4.9,4.3,8.8,4.3s7-1.4,8.9-4.2,2.3-5.7,2.3-10Z" transform="translate(-3.4 0.5)"/>
      <path class="cls-2" d="M1065,709.8c0,7.4-1.5,13.9-4.6,19.4a32,32,0,0,1-14.8,13.3,36.4,36.4,0,0,1-15.7,3.5,38.3,38.3,0,0,1-14.5-2.9c-14.3-6-21.4-17.1-21.4-33.3V683.3c0-16.5,7.1-27.6,21.5-33.4a39.6,39.6,0,0,1,14.4-2.8,36.2,36.2,0,0,1,14.6,3.1c13.7,6,20.5,17,20.5,33.1Zm-24.3-27.2c0-4.2-.7-7.5-2.3-9.8s-4.8-4.3-8.9-4.3-6.8,1.4-8.7,4.3-2.5,5.8-2.5,9.8v27.8c0,4.1.8,7.4,2.5,9.9s4.8,4.3,8.7,4.3,7.1-1.4,8.9-4.2,2.3-5.7,2.3-10Z" transform="translate(-3.4 0.5)"/>
      <path class="cls-2" d="M1152,731c-8.4,8.8-19.8,13.2-34.3,13.2h-35.9V706.1h-8.6V684.7h8.6V648.9h32a88.8,88.8,0,0,1,12.3.7,47.1,47.1,0,0,1,10.9,2.6c7.3,2.7,13.4,7.5,18.5,14.5s8.7,17.9,8.7,29.6C1164.2,710.8,1160.1,722.4,1152,731Zm-17.7-53.2c-3.9-5-9.8-7.6-17.6-7.6h-10.6v14.5H1120v21.4h-13.9v16.7h10.4c8,0,14-2.4,18-7.3s5.4-10.7,5.4-18.8S1138,682.4,1134.3,677.8Z" transform="translate(-3.4 0.5)"/>
    </g>
    <g class="cls-1">
      <path class="cls-3" d="M157.1,670.2v74H132.8v-74H114V648.9h61.8v21.3Z" transform="translate(-3.4 0.5)"/>
      <path class="cls-3" d="M231.1,744.2l-22-30.8h-.2v30.8H185.5V648.9h30.1c3.2,0,5.8,0,7.7.2a55.3,55.3,0,0,1,7.7.8,29.3,29.3,0,0,1,14,5.8c7.9,6.3,11.8,15,11.8,26.1a31,31,0,0,1-6.3,19.5,26.1,26.1,0,0,1-17.4,10.5l25.8,32.4Zm-2.4-71c-2.7-2-6.4-3-11-3h-8.8v26.6h8.6c10.6,0,15.9-4.6,15.9-13.7C233.4,678.7,231.9,675.4,228.7,673.2Z" transform="translate(-3.4 0.5)"/>
      <path class="cls-3" d="M269.6,744.2V648.9h24.3v95.3Zm1.9,30.9V755.6H292v19.5Z" transform="translate(-3.4 0.5)"/>
      <path class="cls-3" d="M448.3,695c0,14.7-4.9,26.8-14.5,36.6s-21.8,14.5-36.4,14.5-26.1-4.8-35.9-14.4-14.7-21.5-14.7-35.5,5-25.9,15-35.3,21.8-13.8,36-13.8a51.3,51.3,0,0,1,29.3,9.2c9.4,6.4,15.5,14.6,18.3,24.5H418.1q-6.9-12.3-21-12.3a24.1,24.1,0,0,0-18.8,8.2q-7.2,7.8-7.2,19.5c0,8,2.3,14.7,7,20.1a24.4,24.4,0,0,0,19.2,8.5,27.3,27.3,0,0,0,14.2-3.7,19.6,19.6,0,0,0,8.5-11.7H391.6V690h56.5c.1.7.1,1.6.2,2.5Z" transform="translate(-3.4 0.5)"/>
      <path class="cls-3" d="M460.8,744.2V648.9h24.4v95.3Z" transform="translate(-3.4 0.5)"/>
      <path class="cls-3" d="M563.8,744.2l-4.6-13.8H526.1l-5,13.8H494.9l38.3-95.3h19.1l38,95.3Zm-31.4-99.9-6-12.7L557.2,615l6.9,15.3ZM543,678.5h-.4l-9.8,32.6h20Z" transform="translate(-3.4 0.5)"/>
      <path class="cls-3" d="M637.7,744.2V725.3l7.8-5.2c2.8-1.9,5.3-3.7,7.5-5.5a99.5,99.5,0,0,0,13.8-12.5l4.4-5.2c1.6-2.1,3-4.1,4.3-6.1,2.9-4.9,4.4-9.3,4.4-13.1,0-6.1-3-9.2-9-9.2a9.2,9.2,0,0,0-8.6,4.8c-1.3,2.4-2.1,5.8-2.3,10.2H636.8a56.9,56.9,0,0,1,1.2-11.4,37.2,37.2,0,0,1,4.4-10.5,31.9,31.9,0,0,1,12.8-11,39.5,39.5,0,0,1,16.6-3.5,37.4,37.4,0,0,1,17.6,4,26.8,26.8,0,0,1,14.9,23.7,38.2,38.2,0,0,1-3,14.6,55.8,55.8,0,0,1-7.5,12.9,124,124,0,0,1-10.2,11.4l-5.6,5.2-5.4,4.8h32.3v20.5Z" transform="translate(-3.4 0.5)"/>
      <path class="cls-3" d="M786,709.8a39,39,0,0,1-4.7,19.4,32,32,0,0,1-14.8,13.3,36.1,36.1,0,0,1-15.7,3.5,38.7,38.7,0,0,1-14.5-2.9c-14.3-6-21.4-17.1-21.4-33.3V683.3c0-16.5,7.2-27.6,21.5-33.4a39.6,39.6,0,0,1,14.4-2.8,36.2,36.2,0,0,1,14.6,3.1c13.7,6,20.6,17,20.6,33.1Zm-24.4-27.2c0-4.2-.7-7.5-2.2-9.8s-4.9-4.3-9-4.3a9.9,9.9,0,0,0-8.7,4.3c-1.7,2.5-2.5,5.8-2.5,9.8v27.8c0,4.1.8,7.4,2.5,9.9s4.8,4.3,8.7,4.3,7.1-1.4,9-4.2,2.2-5.7,2.2-10Z" transform="translate(-3.4 0.5)"/>
      <path class="cls-3" d="M799.3,744.2V722.3h22.3v21.9Z" transform="translate(-3.4 0.5)"/>
      <path class="cls-3" d="M905.9,709.8c0,7.4-1.5,13.9-4.6,19.4a32,32,0,0,1-14.8,13.3,36.4,36.4,0,0,1-15.7,3.5,38.3,38.3,0,0,1-14.5-2.9c-14.3-6-21.4-17.1-21.4-33.3V683.3c0-16.5,7.1-27.6,21.5-33.4a38.8,38.8,0,0,1,14.4-2.8,36.2,36.2,0,0,1,14.6,3.1c13.7,6,20.5,17,20.5,33.1Zm-24.3-27.2c0-4.2-.8-7.5-2.3-9.8s-4.8-4.3-8.9-4.3-6.8,1.4-8.7,4.3-2.5,5.8-2.5,9.8v27.8c0,4.1.8,7.4,2.5,9.9s4.8,4.3,8.7,4.3,7.1-1.4,8.9-4.2,2.3-5.7,2.3-10Z" transform="translate(-3.4 0.5)"/>
      <path class="cls-3" d="M985.5,709.8a39,39,0,0,1-4.7,19.4,31.3,31.3,0,0,1-14.7,13.3,36.5,36.5,0,0,1-15.8,3.5,38.7,38.7,0,0,1-14.5-2.9c-14.2-6-21.4-17.1-21.4-33.3V683.3c0-16.5,7.2-27.6,21.5-33.4a39.6,39.6,0,0,1,14.4-2.8,36.2,36.2,0,0,1,14.6,3.1c13.7,6,20.6,17,20.6,33.1Zm-24.3-27.2c0-4.2-.8-7.5-2.3-9.8s-4.9-4.3-8.9-4.3-6.8,1.4-8.8,4.3a18,18,0,0,0-2.4,9.8v27.8q0,6.1,2.4,9.9c1.9,2.9,4.9,4.3,8.8,4.3s7-1.4,8.9-4.2,2.3-5.7,2.3-10Z" transform="translate(-3.4 0.5)"/>
      <path class="cls-3" d="M1065,709.8c0,7.4-1.5,13.9-4.6,19.4a32,32,0,0,1-14.8,13.3,36.4,36.4,0,0,1-15.7,3.5,38.3,38.3,0,0,1-14.5-2.9c-14.3-6-21.4-17.1-21.4-33.3V683.3c0-16.5,7.1-27.6,21.5-33.4a39.6,39.6,0,0,1,14.4-2.8,36.2,36.2,0,0,1,14.6,3.1c13.7,6,20.5,17,20.5,33.1Zm-24.3-27.2c0-4.2-.7-7.5-2.3-9.8s-4.8-4.3-8.9-4.3-6.8,1.4-8.7,4.3-2.5,5.8-2.5,9.8v27.8c0,4.1.8,7.4,2.5,9.9s4.8,4.3,8.7,4.3,7.1-1.4,8.9-4.2,2.3-5.7,2.3-10Z" transform="translate(-3.4 0.5)"/>
      <path class="cls-3" d="M1152,731c-8.4,8.8-19.8,13.2-34.3,13.2h-35.9V706.1h-8.6V684.7h8.6V648.9h32a88.8,88.8,0,0,1,12.3.7,47.1,47.1,0,0,1,10.9,2.6c7.3,2.7,13.4,7.5,18.5,14.5s8.7,17.9,8.7,29.6C1164.2,710.8,1160.1,722.4,1152,731Zm-17.7-53.2c-3.9-5-9.8-7.6-17.6-7.6h-10.6v14.5H1120v21.4h-13.9v16.7h10.4c8,0,14-2.4,18-7.3s5.4-10.7,5.4-18.8S1138,682.4,1134.3,677.8Z" transform="translate(-3.4 0.5)"/>
    </g>
    <g class="cls-1">
      <g class="cls-1">
        <path class="cls-4" d="M63,69.6C57,80.7,47.9,86.3,35.7,86.3a30.5,30.5,0,0,1-22-8.9A29.5,29.5,0,0,1,4.6,55.6a29.5,29.5,0,0,1,9-21.9,30.2,30.2,0,0,1,22-8.9A29.7,29.7,0,0,1,59,35.4,19.8,19.8,0,0,1,62.8,41H56.1c-4.8-7.2-11.7-10.8-20.6-10.8a23.7,23.7,0,0,0-17.7,7.7,24.8,24.8,0,0,0-7.3,17.7A24.1,24.1,0,0,0,18,73.2a23.9,23.9,0,0,0,17.6,7.6,24.3,24.3,0,0,0,11.7-3,30.5,30.5,0,0,0,9.1-8.2Z" transform="translate(-3.4 0.5)"/>
        <path class="cls-4" d="M109.2,85.2V57.3H78.4V85.2H72.5V25.7h5.9V51.9h30.8V25.7h5.9V85.2Z" transform="translate(-3.4 0.5)"/>
        <path class="cls-4" d="M167.7,62.8a42.3,42.3,0,0,1-.5,6.3,29.7,29.7,0,0,1-1.7,6.1q-5.2,11.1-18,11.1t-18-11.1a24.4,24.4,0,0,1-1.8-6.1,42.3,42.3,0,0,1-.5-6.3V25.7h6V62.8a32.4,32.4,0,0,0,.4,5.5,16.6,16.6,0,0,0,1.6,5.3,13.1,13.1,0,0,0,12.3,7.2,13,13,0,0,0,12.2-7.2,14.4,14.4,0,0,0,1.6-5.3,32.1,32.1,0,0,0,.5-5.5V25.7h5.9ZM143,22.4l-2.7-4.7,16-8.7,2.6,4.8Z" transform="translate(-3.4 0.5)"/>
        <path class="cls-4" d="M235.7,69.6c-6,11.1-15.1,16.7-27.3,16.7a30.5,30.5,0,0,1-22-8.9,29.5,29.5,0,0,1-9.1-21.8,29.5,29.5,0,0,1,9-21.9,30.2,30.2,0,0,1,22-8.9,29.7,29.7,0,0,1,23.4,10.6,19.8,19.8,0,0,1,3.8,5.6h-6.7c-4.8-7.2-11.7-10.8-20.6-10.8a23.3,23.3,0,0,0-17.6,7.7,24.5,24.5,0,0,0-7.4,17.7,24.1,24.1,0,0,0,7.5,17.6A24.2,24.2,0,0,0,220,77.8a30.5,30.5,0,0,0,9.1-8.2Z" transform="translate(-3.4 0.5)"/>
        <path class="cls-4" d="M323.1,85.2V32.3h-.2L300.7,85.2h-5.1l-22-52.9h-.2V85.2h-6V25.7h9.2l21.6,50.7,21.7-50.7H329V85.2Z" transform="translate(-3.4 0.5)"/>
        <path class="cls-4" d="M381.7,32.5V62.8a42.3,42.3,0,0,1-.5,6.3,24.4,24.4,0,0,1-1.8,6.1q-5.1,11.1-18,11.1t-18-11.1a29.7,29.7,0,0,1-1.7-6.1,42.3,42.3,0,0,1-.5-6.3V25.7h5.9V62.8a47.4,47.4,0,0,0,.4,5.5,19.6,19.6,0,0,0,1.6,5.3,13.2,13.2,0,0,0,12.3,7.2q8.4,0,12.3-7.2a16.6,16.6,0,0,0,1.6-5.3,32.4,32.4,0,0,0,.4-5.5V25.7h6v1.5a4.4,4.4,0,0,0,1.7-2.8h-2.6v-7h7.4v7.2a8.6,8.6,0,0,1-1,3.2,6.2,6.2,0,0,1-1.7,2.2,8.6,8.6,0,0,1-1.7,1.3ZM366.1,22.4l-15.9-8.6L352.8,9l16,8.7Z" transform="translate(-3.4 0.5)"/>
        <path class="cls-4" d="M435.1,85.2,399.9,32.9h-.2V85.2h-5.9V25.7h8L435,75.1h.1V25.7h6V85.2Z" transform="translate(-3.4 0.5)"/>
        <path class="cls-4" d="M513.6,57.9a29.3,29.3,0,0,1-10.1,20.3,30.8,30.8,0,0,1-21.3,8.1,31.1,31.1,0,0,1-22.2-9,28.8,28.8,0,0,1-9.6-21.8,28.8,28.8,0,0,1,9.5-21.9,31.2,31.2,0,0,1,22.3-8.9,30.8,30.8,0,0,1,24.2,10.9,21.2,21.2,0,0,1,3.9,6h-6.9a22.7,22.7,0,0,0-9.1-8.5,25.8,25.8,0,0,0-12.1-3A25.5,25.5,0,0,0,464,37.5a24.4,24.4,0,0,0-7.7,18.1,23.8,23.8,0,0,0,7.8,18,25.8,25.8,0,0,0,18.4,7.2,25.1,25.1,0,0,0,14.9-4.9,21.7,21.7,0,0,0,9.1-12.6H473.3V57.9Z" transform="translate(-3.4 0.5)"/>
        <path class="cls-4" d="M576.2,81.9a19.7,19.7,0,0,1-6.9,2.8,49.5,49.5,0,0,1-7.6.5H545.3V25.7h15a25.4,25.4,0,0,1,10.8,2.1,14,14,0,0,1,7.4,7.7,15.4,15.4,0,0,1,1.2,6.1,12.5,12.5,0,0,1-1.7,6.8,20.5,20.5,0,0,1-4.8,5.2c6.6,2.6,9.9,7.5,9.9,14.6S580.8,79,576.2,81.9Zm-4.9-47.1a10.6,10.6,0,0,0-5.6-3.1l-3.3-.5H551.3V51.4h10.1l2.6-.2a15.7,15.7,0,0,0,4.9-1.5,8.7,8.7,0,0,0,4.9-8.3A10,10,0,0,0,571.3,34.8Zm-1.1,23.3a22,22,0,0,0-5.7-1.2H551.3v23h11.2l2.8-.2a17.7,17.7,0,0,0,5.6-1.3c4.2-1.8,6.2-5.1,6.2-10.1S574.8,60,570.2,58.1Z" transform="translate(-3.4 0.5)"/>
        <path class="cls-4" d="M637.5,85.2l-8.6-20H601.3l-8.7,20h-6.2l25.4-59.5h6.7L644,85.2ZM615.2,32.5,603.5,59.8h23.1Zm-3,67.8V90.1h6v10.2Z" transform="translate(-3.4 0.5)"/>
        <path class="cls-4" d="M692.3,85.2,657,32.9h-.1V85.2h-6V25.7H659l33.1,49.4h.2V25.7h5.9V85.2Z" transform="translate(-3.4 0.5)"/>
        <path class="cls-4" d="M732.5,51.9V25.7h17.3a42.9,42.9,0,0,1,10.1,1.2,32.8,32.8,0,0,1,9.3,3.7c9,5.8,13.5,14.1,13.5,25s-4.5,18.8-13.5,24.7a32.4,32.4,0,0,1-9.4,3.8,47.1,47.1,0,0,1-10,1.1H732.5V57.3h-4.8V51.9Zm5.9,5.4V79.8h15l4.9-.7a24.1,24.1,0,0,0,9.1-4,21,21,0,0,0,7-8.7,27.3,27.3,0,0,0,2.3-10.9c0-8.5-3.3-15-10.1-19.7a23.9,23.9,0,0,0-9.4-3.8,36.1,36.1,0,0,0-5-.6H738.4V51.9h18.1v5.4Z" transform="translate(-3.4 0.5)"/>
        <path class="cls-4" d="M838.3,85.2l-8.6-20H802.1l-8.7,20h-6.2l25.4-59.5h6.7l25.5,59.5Zm-8.4-67.7c-2.8,2.1-5.4,3.1-7.9,3.1a13.2,13.2,0,0,1-3.3-.5,22.8,22.8,0,0,1-2.9-1.1l-2.7-1.1a7.4,7.4,0,0,0-2.7-.6,7.8,7.8,0,0,0-5.4,2.4l-2.8-4a12.1,12.1,0,0,1,8.3-3.4,9.6,9.6,0,0,1,3.3.6l2.8,1.1h.3l.4.2.6.3,1.3.5a7.1,7.1,0,0,0,2.7.5,6.6,6.6,0,0,0,2.7-.6l1.8-1.1.6-.4ZM816,32.5,804.3,59.8h23.1Z" transform="translate(-3.4 0.5)"/>
        <path class="cls-4" d="M910.7,85.2V57.3H880V85.2h-6V25.7h6V51.9h30.7V25.7h6V85.2Z" transform="translate(-3.4 0.5)"/>
        <path class="cls-4" d="M979.7,77.3a30.4,30.4,0,0,1-22.1,9,30.8,30.8,0,0,1-21.9-8.9,28.8,28.8,0,0,1-9.5-21.6,30.2,30.2,0,0,1,9.2-22.1,31.9,31.9,0,0,1,44.4,0,29.1,29.1,0,0,1,9.3,21.8A29,29,0,0,1,979.7,77.3Zm-4.1-39.7a24.5,24.5,0,0,0-18-7.5,24.3,24.3,0,0,0-18,7.6,25.1,25.1,0,0,0-7.4,18.1,23.9,23.9,0,0,0,7.6,17.7,25.5,25.5,0,0,0,35.8-.1,23.8,23.8,0,0,0,7.6-17.8A24.3,24.3,0,0,0,975.6,37.6Z" transform="translate(-3.4 0.5)"/>
        <path class="cls-4" d="M1044.6,85.2l-8.6-20h-27.6l-8.7,20h-6.2l25.4-59.5h6.6l25.6,59.5Zm-22.4-52.7-11.6,27.3h23.1Zm6.3-10.1-15.9-8.6,2.6-4.8,16,8.7Z" transform="translate(-3.4 0.5)"/>
        <path class="cls-4" d="M1099.3,85.2l-35.2-52.3h-.2V85.2H1058V25.7h8l33.2,49.4h.1V25.7h6V85.2Z" transform="translate(-3.4 0.5)"/>
        <path class="cls-4" d="M1153.7,31.2v54h-6v-54h-13.6V25.7h33.2v5.5Z" transform="translate(-3.4 0.5)"/>
        <path class="cls-4" d="M1219.9,85.2l-8.7-20h-27.6l-8.6,20h-6.2l25.3-59.5h6.7l25.5,59.5Zm-15.3-64.4-6.9-5.9-7.1,5.9h-7.3l11.7-10h5.3l11.4,10Zm-7.1,11.7-11.6,27.3h23Zm9.7-18-2.7-4.6,16-8.8,2.6,4.8Z" transform="translate(-3.4 0.5)"/>
        <path class="cls-4" d="M1247.3,31.2v54h-5.9v-54h-13.7V25.7h33.2v5.5Z" transform="translate(-3.4 0.5)"/>
      </g>
      <g class="cls-1">
        <path class="cls-5" d="M63,69.6C57,80.7,47.9,86.3,35.7,86.3a30.5,30.5,0,0,1-22-8.9A29.5,29.5,0,0,1,4.6,55.6a29.5,29.5,0,0,1,9-21.9,30.2,30.2,0,0,1,22-8.9A29.7,29.7,0,0,1,59,35.4,19.8,19.8,0,0,1,62.8,41H56.1c-4.8-7.2-11.7-10.8-20.6-10.8a23.7,23.7,0,0,0-17.7,7.7,24.8,24.8,0,0,0-7.3,17.7A24.1,24.1,0,0,0,18,73.2a23.9,23.9,0,0,0,17.6,7.6,24.3,24.3,0,0,0,11.7-3,30.5,30.5,0,0,0,9.1-8.2Z" transform="translate(-3.4 0.5)"/>
        <path class="cls-5" d="M109.2,85.2V57.3H78.4V85.2H72.5V25.7h5.9V51.9h30.8V25.7h5.9V85.2Z" transform="translate(-3.4 0.5)"/>
        <path class="cls-5" d="M167.7,62.8a42.3,42.3,0,0,1-.5,6.3,29.7,29.7,0,0,1-1.7,6.1q-5.2,11.1-18,11.1t-18-11.1a24.4,24.4,0,0,1-1.8-6.1,42.3,42.3,0,0,1-.5-6.3V25.7h6V62.8a32.4,32.4,0,0,0,.4,5.5,16.6,16.6,0,0,0,1.6,5.3,13.1,13.1,0,0,0,12.3,7.2,13,13,0,0,0,12.2-7.2,14.4,14.4,0,0,0,1.6-5.3,32.1,32.1,0,0,0,.5-5.5V25.7h5.9ZM143,22.4l-2.7-4.7,16-8.7,2.6,4.8Z" transform="translate(-3.4 0.5)"/>
        <path class="cls-5" d="M235.7,69.6c-6,11.1-15.1,16.7-27.3,16.7a30.5,30.5,0,0,1-22-8.9,29.5,29.5,0,0,1-9.1-21.8,29.5,29.5,0,0,1,9-21.9,30.2,30.2,0,0,1,22-8.9,29.7,29.7,0,0,1,23.4,10.6,19.8,19.8,0,0,1,3.8,5.6h-6.7c-4.8-7.2-11.7-10.8-20.6-10.8a23.3,23.3,0,0,0-17.6,7.7,24.5,24.5,0,0,0-7.4,17.7,24.1,24.1,0,0,0,7.5,17.6A24.2,24.2,0,0,0,220,77.8a30.5,30.5,0,0,0,9.1-8.2Z" transform="translate(-3.4 0.5)"/>
        <path class="cls-5" d="M323.1,85.2V32.3h-.2L300.7,85.2h-5.1l-22-52.9h-.2V85.2h-6V25.7h9.2l21.6,50.7,21.7-50.7H329V85.2Z" transform="translate(-3.4 0.5)"/>
        <path class="cls-5" d="M381.7,32.5V62.8a42.3,42.3,0,0,1-.5,6.3,24.4,24.4,0,0,1-1.8,6.1q-5.1,11.1-18,11.1t-18-11.1a29.7,29.7,0,0,1-1.7-6.1,42.3,42.3,0,0,1-.5-6.3V25.7h5.9V62.8a47.4,47.4,0,0,0,.4,5.5,19.6,19.6,0,0,0,1.6,5.3,13.2,13.2,0,0,0,12.3,7.2q8.4,0,12.3-7.2a16.6,16.6,0,0,0,1.6-5.3,32.4,32.4,0,0,0,.4-5.5V25.7h6v1.5a4.4,4.4,0,0,0,1.7-2.8h-2.6v-7h7.4v7.2a8.6,8.6,0,0,1-1,3.2,6.2,6.2,0,0,1-1.7,2.2,8.6,8.6,0,0,1-1.7,1.3ZM366.1,22.4l-15.9-8.6L352.8,9l16,8.7Z" transform="translate(-3.4 0.5)"/>
        <path class="cls-5" d="M435.1,85.2,399.9,32.9h-.2V85.2h-5.9V25.7h8L435,75.1h.1V25.7h6V85.2Z" transform="translate(-3.4 0.5)"/>
        <path class="cls-5" d="M513.6,57.9a29.3,29.3,0,0,1-10.1,20.3,30.8,30.8,0,0,1-21.3,8.1,31.1,31.1,0,0,1-22.2-9,28.8,28.8,0,0,1-9.6-21.8,28.8,28.8,0,0,1,9.5-21.9,31.2,31.2,0,0,1,22.3-8.9,30.8,30.8,0,0,1,24.2,10.9,21.2,21.2,0,0,1,3.9,6h-6.9a22.7,22.7,0,0,0-9.1-8.5,25.8,25.8,0,0,0-12.1-3A25.5,25.5,0,0,0,464,37.5a24.4,24.4,0,0,0-7.7,18.1,23.8,23.8,0,0,0,7.8,18,25.8,25.8,0,0,0,18.4,7.2,25.1,25.1,0,0,0,14.9-4.9,21.7,21.7,0,0,0,9.1-12.6H473.3V57.9Z" transform="translate(-3.4 0.5)"/>
        <path class="cls-5" d="M576.2,81.9a19.7,19.7,0,0,1-6.9,2.8,49.5,49.5,0,0,1-7.6.5H545.3V25.7h15a25.4,25.4,0,0,1,10.8,2.1,14,14,0,0,1,7.4,7.7,15.4,15.4,0,0,1,1.2,6.1,12.5,12.5,0,0,1-1.7,6.8,20.5,20.5,0,0,1-4.8,5.2c6.6,2.6,9.9,7.5,9.9,14.6S580.8,79,576.2,81.9Zm-4.9-47.1a10.6,10.6,0,0,0-5.6-3.1l-3.3-.5H551.3V51.4h10.1l2.6-.2a15.7,15.7,0,0,0,4.9-1.5,8.7,8.7,0,0,0,4.9-8.3A10,10,0,0,0,571.3,34.8Zm-1.1,23.3a22,22,0,0,0-5.7-1.2H551.3v23h11.2l2.8-.2a17.7,17.7,0,0,0,5.6-1.3c4.2-1.8,6.2-5.1,6.2-10.1S574.8,60,570.2,58.1Z" transform="translate(-3.4 0.5)"/>
        <path class="cls-5" d="M637.5,85.2l-8.6-20H601.3l-8.7,20h-6.2l25.4-59.5h6.7L644,85.2ZM615.2,32.5,603.5,59.8h23.1Zm-3,67.8V90.1h6v10.2Z" transform="translate(-3.4 0.5)"/>
        <path class="cls-5" d="M692.3,85.2,657,32.9h-.1V85.2h-6V25.7H659l33.1,49.4h.2V25.7h5.9V85.2Z" transform="translate(-3.4 0.5)"/>
        <path class="cls-5" d="M732.5,51.9V25.7h17.3a42.9,42.9,0,0,1,10.1,1.2,32.8,32.8,0,0,1,9.3,3.7c9,5.8,13.5,14.1,13.5,25s-4.5,18.8-13.5,24.7a32.4,32.4,0,0,1-9.4,3.8,47.1,47.1,0,0,1-10,1.1H732.5V57.3h-4.8V51.9Zm5.9,5.4V79.8h15l4.9-.7a24.1,24.1,0,0,0,9.1-4,21,21,0,0,0,7-8.7,27.3,27.3,0,0,0,2.3-10.9c0-8.5-3.3-15-10.1-19.7a23.9,23.9,0,0,0-9.4-3.8,36.1,36.1,0,0,0-5-.6H738.4V51.9h18.1v5.4Z" transform="translate(-3.4 0.5)"/>
        <path class="cls-5" d="M838.3,85.2l-8.6-20H802.1l-8.7,20h-6.2l25.4-59.5h6.7l25.5,59.5Zm-8.4-67.7c-2.8,2.1-5.4,3.1-7.9,3.1a13.2,13.2,0,0,1-3.3-.5,22.8,22.8,0,0,1-2.9-1.1l-2.7-1.1a7.4,7.4,0,0,0-2.7-.6,7.8,7.8,0,0,0-5.4,2.4l-2.8-4a12.1,12.1,0,0,1,8.3-3.4,9.6,9.6,0,0,1,3.3.6l2.8,1.1h.3l.4.2.6.3,1.3.5a7.1,7.1,0,0,0,2.7.5,6.6,6.6,0,0,0,2.7-.6l1.8-1.1.6-.4ZM816,32.5,804.3,59.8h23.1Z" transform="translate(-3.4 0.5)"/>
        <path class="cls-5" d="M910.7,85.2V57.3H880V85.2h-6V25.7h6V51.9h30.7V25.7h6V85.2Z" transform="translate(-3.4 0.5)"/>
        <path class="cls-5" d="M979.7,77.3a30.4,30.4,0,0,1-22.1,9,30.8,30.8,0,0,1-21.9-8.9,28.8,28.8,0,0,1-9.5-21.6,30.2,30.2,0,0,1,9.2-22.1,31.9,31.9,0,0,1,44.4,0,29.1,29.1,0,0,1,9.3,21.8A29,29,0,0,1,979.7,77.3Zm-4.1-39.7a24.5,24.5,0,0,0-18-7.5,24.3,24.3,0,0,0-18,7.6,25.1,25.1,0,0,0-7.4,18.1,23.9,23.9,0,0,0,7.6,17.7,25.5,25.5,0,0,0,35.8-.1,23.8,23.8,0,0,0,7.6-17.8A24.3,24.3,0,0,0,975.6,37.6Z" transform="translate(-3.4 0.5)"/>
        <path class="cls-5" d="M1044.6,85.2l-8.6-20h-27.6l-8.7,20h-6.2l25.4-59.5h6.6l25.6,59.5Zm-22.4-52.7-11.6,27.3h23.1Zm6.3-10.1-15.9-8.6,2.6-4.8,16,8.7Z" transform="translate(-3.4 0.5)"/>
        <path class="cls-5" d="M1099.3,85.2l-35.2-52.3h-.2V85.2H1058V25.7h8l33.2,49.4h.1V25.7h6V85.2Z" transform="translate(-3.4 0.5)"/>
        <path class="cls-5" d="M1153.7,31.2v54h-6v-54h-13.6V25.7h33.2v5.5Z" transform="translate(-3.4 0.5)"/>
        <path class="cls-5" d="M1219.9,85.2l-8.7-20h-27.6l-8.6,20h-6.2l25.3-59.5h6.7l25.5,59.5Zm-15.3-64.4-6.9-5.9-7.1,5.9h-7.3l11.7-10h5.3l11.4,10Zm-7.1,11.7-11.6,27.3h23Zm9.7-18-2.7-4.6,16-8.8,2.6,4.8Z" transform="translate(-3.4 0.5)"/>
        <path class="cls-5" d="M1247.3,31.2v54h-5.9v-54h-13.7V25.7h33.2v5.5Z" transform="translate(-3.4 0.5)"/>
      </g>
      <g class="cls-1">
        <path class="cls-4" d="M104.2,177a17.5,17.5,0,0,1-13.4,5.7,19.1,19.1,0,0,1-7.1-1.4,18,18,0,0,1-9-7.2A22.6,22.6,0,0,1,71.6,163h6a30.5,30.5,0,0,0,.5,4.1,11.6,11.6,0,0,0,1.5,3.8,12.4,12.4,0,0,0,11.2,6.3,12.1,12.1,0,0,0,9.4-3.9,14.5,14.5,0,0,0,3.4-9.7,12.3,12.3,0,0,0-2.9-8,13.4,13.4,0,0,0-7.2-4.7,16.9,16.9,0,0,0-3.5-.4l-3.5-.2v-5.2h2a12.7,12.7,0,0,0,7.8-2.3,8.2,8.2,0,0,0,3.3-7,8.9,8.9,0,0,0-9.2-9.4,7.7,7.7,0,0,0-6.6,3.3,11.1,11.1,0,0,0-2.3,7.2h-6a17.5,17.5,0,0,1,4.2-11.2,13.9,13.9,0,0,1,10.8-4.7,14.4,14.4,0,0,1,10.8,4.4,14.9,14.9,0,0,1,4.3,10.9,12.8,12.8,0,0,1-1.6,6.3,22,22,0,0,1-4.5,4.9c6.7,3.5,10,8.7,10,15.7A18.9,18.9,0,0,1,104.2,177Z" transform="translate(-3.4 0.5)"/>
        <path class="cls-4" d="M175.6,181.6l-19.9-25.8-7.7,9.5v16.3h-5.9V122.1H148v34.2h.2l27.2-34.2H183l-23.5,29.1L183,181.6Z" transform="translate(-3.4 0.5)"/>
        <path class="cls-4" d="M195.2,118.8l-15.9-8.6,2.6-4.8,16,8.7Zm-6,62.8V122.1h5.9v59.5Z" transform="translate(-3.4 0.5)"/>
        <path class="cls-4" d="M243.5,127.6v54h-6v-54H223.9v-5.5h33.2v5.5Z" transform="translate(-3.4 0.5)"/>
        <path class="cls-4" d="M300.4,181.6V153.7H269.7v27.9h-6V122.1h6v26.2h30.7V122.1h5.9v59.5Z" transform="translate(-3.4 0.5)"/>
        <path class="cls-4" d="M364.5,181.6l-8.6-20H328.3l-8.7,20h-6.2l25.4-59.5h6.6L371,181.6Zm-22.4-52.7-11.6,27.3h23Z" transform="translate(-3.4 0.5)"/>
        <path class="cls-4" d="M419.2,181.6,384,129.3h-.2v52.3h-5.9V122.1h8l33.2,49.4h.1V122.1h6v59.5Z" transform="translate(-3.4 0.5)"/>
        <path class="cls-4" d="M474.1,181.6V153.7H443.3v27.9h-5.9V122.1h5.9v26.2h30.8V122.1H480v59.5Z" transform="translate(-3.4 0.5)"/>
        <path class="cls-4" d="M528.4,127.6v54h-5.9v-54H508.8v-5.5H542v5.5Z" transform="translate(-3.4 0.5)"/>
        <path class="cls-4" d="M599.5,173.7a30.6,30.6,0,0,1-22.1,9,31.2,31.2,0,0,1-22-8.9,28.7,28.7,0,0,1-9.4-21.6,31.5,31.5,0,0,1,53.5-22.1,30,30,0,0,1,0,43.6ZM595.4,134a24.5,24.5,0,0,0-18-7.5,24.1,24.1,0,0,0-18,7.6,24.7,24.7,0,0,0-7.4,18.1,23.9,23.9,0,0,0,7.6,17.7,25.5,25.5,0,0,0,35.8-.1,24.1,24.1,0,0,0,7.5-17.8A24.5,24.5,0,0,0,595.4,134Z" transform="translate(-3.4 0.5)"/>
        <path class="cls-4" d="M664.4,181.6l-8.7-20H628.1l-8.6,20h-6.2l25.3-59.5h6.7l25.5,59.5ZM642,128.9l-11.6,27.3h23Zm-6.1-10.1-2.6-4.7,16-8.7,2.5,4.8Z" transform="translate(-3.4 0.5)"/>
        <path class="cls-4" d="M719.1,181.6l-35.2-52.3h-.2v52.3h-6V122.1h8.1L719,171.5h.1V122.1H725v59.5Z" transform="translate(-3.4 0.5)"/>
        <path class="cls-4" d="M773.5,127.6v54h-6v-54H753.9v-5.5H787v5.5Z" transform="translate(-3.4 0.5)"/>
        <path class="cls-4" d="M839.6,181.6l-8.6-20H803.4l-8.7,20h-6.2l25.4-59.5h6.7l25.5,59.5Zm-22.3-52.7-11.7,27.3h23.1Zm-3,67.8V186.5h6v10.2Z" transform="translate(-3.4 0.5)"/>
        <path class="cls-4" d="M853.1,181.6V122.1H859v59.5Z" transform="translate(-3.4 0.5)"/>
        <path class="cls-4" d="M898.9,127.6v21.5h23.2v5.4H898.9v27.1H893V122.1h30v5.5Z" transform="translate(-3.4 0.5)"/>
        <path class="cls-4" d="M972.8,159.2a42.3,42.3,0,0,1-.5,6.3,24.4,24.4,0,0,1-1.8,6.1q-5.1,11.1-18,11.1t-18-11.1a29.7,29.7,0,0,1-1.7-6.1,42.3,42.3,0,0,1-.5-6.3V122.1h6v37.1a32.4,32.4,0,0,0,.4,5.5,14.4,14.4,0,0,0,1.6,5.3,13,13,0,0,0,12.2,7.2,13.1,13.1,0,0,0,12.3-7.2,16.6,16.6,0,0,0,1.6-5.3,32.1,32.1,0,0,0,.5-5.5V122.1h5.9Z" transform="translate(-3.4 0.5)"/>
        <path class="cls-4" d="M1026.3,181.6,991,129.3h-.1v52.3h-6V122.1h8l33.2,49.4h.2V122.1h5.9v59.5Z" transform="translate(-3.4 0.5)"/>
        <path class="cls-4" d="M1080.9,176.7a30.6,30.6,0,0,1-9.3,3.8,47.9,47.9,0,0,1-10,1.1h-17.4V122.1h17.4a42.1,42.1,0,0,1,10,1.2,30.6,30.6,0,0,1,9.3,3.7c9,5.8,13.5,14.1,13.5,25S1089.9,170.8,1080.9,176.7Zm-2.5-44.6a23.9,23.9,0,0,0-9.4-3.8,36.1,36.1,0,0,0-5-.6h-13.8v48.6h15l4.8-.7a24.6,24.6,0,0,0,9.2-4,21.6,21.6,0,0,0,6.9-8.7,25.8,25.8,0,0,0,2.4-10.9C1088.5,143.3,1085.1,136.8,1078.4,132.1Z" transform="translate(-3.4 0.5)"/>
        <path class="cls-4" d="M1104.1,181.6V122.1h6v59.5Z" transform="translate(-3.4 0.5)"/>
        <path class="cls-4" d="M1122.2,181.6V122.1h6v59.5Z" transform="translate(-3.4 0.5)"/>
        <path class="cls-4" d="M1181.7,181.6l-35.3-52.3h-.2v52.3h-5.9V122.1h8l33.2,49.4h.2V122.1h5.9v59.5Z" transform="translate(-3.4 0.5)"/>
      </g>
      <g class="cls-1">
        <path class="cls-5" d="M104.2,177a17.5,17.5,0,0,1-13.4,5.7,19.1,19.1,0,0,1-7.1-1.4,18,18,0,0,1-9-7.2A22.6,22.6,0,0,1,71.6,163h6a30.5,30.5,0,0,0,.5,4.1,11.6,11.6,0,0,0,1.5,3.8,12.4,12.4,0,0,0,11.2,6.3,12.1,12.1,0,0,0,9.4-3.9,14.5,14.5,0,0,0,3.4-9.7,12.3,12.3,0,0,0-2.9-8,13.4,13.4,0,0,0-7.2-4.7,16.9,16.9,0,0,0-3.5-.4l-3.5-.2v-5.2h2a12.7,12.7,0,0,0,7.8-2.3,8.2,8.2,0,0,0,3.3-7,8.9,8.9,0,0,0-9.2-9.4,7.7,7.7,0,0,0-6.6,3.3,11.1,11.1,0,0,0-2.3,7.2h-6a17.5,17.5,0,0,1,4.2-11.2,13.9,13.9,0,0,1,10.8-4.7,14.4,14.4,0,0,1,10.8,4.4,14.9,14.9,0,0,1,4.3,10.9,12.8,12.8,0,0,1-1.6,6.3,22,22,0,0,1-4.5,4.9c6.7,3.5,10,8.7,10,15.7A18.9,18.9,0,0,1,104.2,177Z" transform="translate(-3.4 0.5)"/>
        <path class="cls-5" d="M175.6,181.6l-19.9-25.8-7.7,9.5v16.3h-5.9V122.1H148v34.2h.2l27.2-34.2H183l-23.5,29.1L183,181.6Z" transform="translate(-3.4 0.5)"/>
        <path class="cls-5" d="M195.2,118.8l-15.9-8.6,2.6-4.8,16,8.7Zm-6,62.8V122.1h5.9v59.5Z" transform="translate(-3.4 0.5)"/>
        <path class="cls-5" d="M243.5,127.6v54h-6v-54H223.9v-5.5h33.2v5.5Z" transform="translate(-3.4 0.5)"/>
        <path class="cls-5" d="M300.4,181.6V153.7H269.7v27.9h-6V122.1h6v26.2h30.7V122.1h5.9v59.5Z" transform="translate(-3.4 0.5)"/>
        <path class="cls-5" d="M364.5,181.6l-8.6-20H328.3l-8.7,20h-6.2l25.4-59.5h6.6L371,181.6Zm-22.4-52.7-11.6,27.3h23Z" transform="translate(-3.4 0.5)"/>
        <path class="cls-5" d="M419.2,181.6,384,129.3h-.2v52.3h-5.9V122.1h8l33.2,49.4h.1V122.1h6v59.5Z" transform="translate(-3.4 0.5)"/>
        <path class="cls-5" d="M474.1,181.6V153.7H443.3v27.9h-5.9V122.1h5.9v26.2h30.8V122.1H480v59.5Z" transform="translate(-3.4 0.5)"/>
        <path class="cls-5" d="M528.4,127.6v54h-5.9v-54H508.8v-5.5H542v5.5Z" transform="translate(-3.4 0.5)"/>
        <path class="cls-5" d="M599.5,173.7a30.6,30.6,0,0,1-22.1,9,31.2,31.2,0,0,1-22-8.9,28.7,28.7,0,0,1-9.4-21.6,31.5,31.5,0,0,1,53.5-22.1,30,30,0,0,1,0,43.6ZM595.4,134a24.5,24.5,0,0,0-18-7.5,24.1,24.1,0,0,0-18,7.6,24.7,24.7,0,0,0-7.4,18.1,23.9,23.9,0,0,0,7.6,17.7,25.5,25.5,0,0,0,35.8-.1,24.1,24.1,0,0,0,7.5-17.8A24.5,24.5,0,0,0,595.4,134Z" transform="translate(-3.4 0.5)"/>
        <path class="cls-5" d="M664.4,181.6l-8.7-20H628.1l-8.6,20h-6.2l25.3-59.5h6.7l25.5,59.5ZM642,128.9l-11.6,27.3h23Zm-6.1-10.1-2.6-4.7,16-8.7,2.5,4.8Z" transform="translate(-3.4 0.5)"/>
        <path class="cls-5" d="M719.1,181.6l-35.2-52.3h-.2v52.3h-6V122.1h8.1L719,171.5h.1V122.1H725v59.5Z" transform="translate(-3.4 0.5)"/>
        <path class="cls-5" d="M773.5,127.6v54h-6v-54H753.9v-5.5H787v5.5Z" transform="translate(-3.4 0.5)"/>
        <path class="cls-5" d="M839.6,181.6l-8.6-20H803.4l-8.7,20h-6.2l25.4-59.5h6.7l25.5,59.5Zm-22.3-52.7-11.7,27.3h23.1Zm-3,67.8V186.5h6v10.2Z" transform="translate(-3.4 0.5)"/>
        <path class="cls-5" d="M853.1,181.6V122.1H859v59.5Z" transform="translate(-3.4 0.5)"/>
        <path class="cls-5" d="M898.9,127.6v21.5h23.2v5.4H898.9v27.1H893V122.1h30v5.5Z" transform="translate(-3.4 0.5)"/>
        <path class="cls-5" d="M972.8,159.2a42.3,42.3,0,0,1-.5,6.3,24.4,24.4,0,0,1-1.8,6.1q-5.1,11.1-18,11.1t-18-11.1a29.7,29.7,0,0,1-1.7-6.1,42.3,42.3,0,0,1-.5-6.3V122.1h6v37.1a32.4,32.4,0,0,0,.4,5.5,14.4,14.4,0,0,0,1.6,5.3,13,13,0,0,0,12.2,7.2,13.1,13.1,0,0,0,12.3-7.2,16.6,16.6,0,0,0,1.6-5.3,32.1,32.1,0,0,0,.5-5.5V122.1h5.9Z" transform="translate(-3.4 0.5)"/>
        <path class="cls-5" d="M1026.3,181.6,991,129.3h-.1v52.3h-6V122.1h8l33.2,49.4h.2V122.1h5.9v59.5Z" transform="translate(-3.4 0.5)"/>
        <path class="cls-5" d="M1080.9,176.7a30.6,30.6,0,0,1-9.3,3.8,47.9,47.9,0,0,1-10,1.1h-17.4V122.1h17.4a42.1,42.1,0,0,1,10,1.2,30.6,30.6,0,0,1,9.3,3.7c9,5.8,13.5,14.1,13.5,25S1089.9,170.8,1080.9,176.7Zm-2.5-44.6a23.9,23.9,0,0,0-9.4-3.8,36.1,36.1,0,0,0-5-.6h-13.8v48.6h15l4.8-.7a24.6,24.6,0,0,0,9.2-4,21.6,21.6,0,0,0,6.9-8.7,25.8,25.8,0,0,0,2.4-10.9C1088.5,143.3,1085.1,136.8,1078.4,132.1Z" transform="translate(-3.4 0.5)"/>
        <path class="cls-5" d="M1104.1,181.6V122.1h6v59.5Z" transform="translate(-3.4 0.5)"/>
        <path class="cls-5" d="M1122.2,181.6V122.1h6v59.5Z" transform="translate(-3.4 0.5)"/>
        <path class="cls-5" d="M1181.7,181.6l-35.3-52.3h-.2v52.3h-5.9V122.1h8l33.2,49.4h.2V122.1h5.9v59.5Z" transform="translate(-3.4 0.5)"/>
      </g>
    </g>
    <g class="cls-1">
      <path class="cls-4" d="M341,416.5a30.6,30.6,0,0,1-9.3,3.8,47.9,47.9,0,0,1-10,1.1H304.3V361.9h17.4a42.1,42.1,0,0,1,10,1.2,30.6,30.6,0,0,1,9.3,3.7c9,5.8,13.5,14.1,13.5,25S350,410.6,341,416.5Zm-2.6-44.6a22.8,22.8,0,0,0-9.3-3.8,35.8,35.8,0,0,0-5.1-.6H310.3V416h15l4.8-.7a24.6,24.6,0,0,0,9.2-4,21.6,21.6,0,0,0,6.9-8.7,25.8,25.8,0,0,0,2.4-10.9C348.6,383.1,345.2,376.6,338.4,371.9Z" transform="translate(-3.4 0.5)"/>
      <path class="cls-4" d="M410.2,421.4l-8.7-20H373.9l-8.6,20h-6.2l25.3-59.5h6.7l25.5,59.5Zm-22.4-52.7L376.2,396h23Zm6.3-10.1L378.2,350l2.6-4.8,16,8.7Z" transform="translate(-3.4 0.5)"/>
      <path class="cls-4" d="M464.9,421.4l-35.2-52.3h-.2v52.3h-6V361.9h8.1l33.2,49.4h.1V361.9h5.9v59.5Z" transform="translate(-3.4 0.5)"/>
      <path class="cls-4" d="M519.8,421.4V393.5H489v27.9h-6V361.9h6v26.2h30.8V361.9h5.9v59.5Z" transform="translate(-3.4 0.5)"/>
      <path class="cls-4" d="M574.1,367.4v54h-6v-54H554.5v-5.5h33.2v5.5Z" transform="translate(-3.4 0.5)"/>
      <path class="cls-4" d="M640.3,421.4l-8.7-20H604l-8.6,20h-6.2l25.3-59.5h6.7l25.5,59.5ZM632,349.9a11.6,11.6,0,0,1-5.6,6.5,20.7,20.7,0,0,1-16.9,0,11.4,11.4,0,0,1-5.5-6.5h5.2c1.8,2.5,4.7,3.7,8.8,3.7a14.6,14.6,0,0,0,4.8-.8,9.2,9.2,0,0,0,4-2.9Zm-14.1,18.8L606.3,396h23ZM615,436.5V426.3h5.9v10.2Z" transform="translate(-3.4 0.5)"/>
      <path class="cls-4" d="M695,421.4l-35.2-52.3h-.2v52.3h-6V361.9h8.1l33.2,49.4h.1V361.9h5.9v59.5Z" transform="translate(-3.4 0.5)"/>
      <path class="cls-4" d="M773.5,394.1a29.3,29.3,0,0,1-10.1,20.3,30.8,30.8,0,0,1-21.3,8.1,31.4,31.4,0,0,1-22.3-9,29.7,29.7,0,0,1,0-43.7,32.3,32.3,0,0,1,46.5,2,23.6,23.6,0,0,1,3.9,6h-6.9a22.7,22.7,0,0,0-9.1-8.5,25.8,25.8,0,0,0-12.1-3,25.3,25.3,0,0,0-18.2,7.4,24.4,24.4,0,0,0-7.7,18.1,23.8,23.8,0,0,0,7.8,18,25.8,25.8,0,0,0,18.4,7.2,25.1,25.1,0,0,0,14.9-4.9,21.7,21.7,0,0,0,9.1-12.6H733.2v-5.4Z" transform="translate(-3.4 0.5)"/>
      <path class="cls-4" d="M836.1,418.1a19.4,19.4,0,0,1-7,2.8,47.2,47.2,0,0,1-7.5.5H805.2V361.9h15A25.4,25.4,0,0,1,831,364a14.3,14.3,0,0,1,7.4,7.7,15.4,15.4,0,0,1,1.2,6.1,13.4,13.4,0,0,1-1.7,6.8,20.5,20.5,0,0,1-4.8,5.2c6.6,2.6,9.9,7.5,9.9,14.6S840.7,415.2,836.1,418.1ZM831.2,371a10.6,10.6,0,0,0-5.6-3.1l-3.3-.5H811.2v20.2h10.1l2.6-.2a16.6,16.6,0,0,0,4.9-1.5,8.8,8.8,0,0,0,4.9-8.3A10,10,0,0,0,831.2,371ZM830,394.3a20.3,20.3,0,0,0-5.6-1.2H811.2v23h11.2l2.8-.2a18.4,18.4,0,0,0,5.6-1.3c4.1-1.8,6.2-5.1,6.2-10.1S834.7,396.2,830,394.3Z" transform="translate(-3.4 0.5)"/>
      <path class="cls-4" d="M897.4,421.4l-8.6-20H861.2l-8.7,20h-6.2l25.4-59.5h6.7l25.5,59.5Zm-22.3-52.7L863.4,396h23.1Zm-3,67.8V426.3h6v10.2Z" transform="translate(-3.4 0.5)"/>
      <path class="cls-4" d="M952.2,421.4l-35.3-52.3h-.1v52.3h-6V361.9h8L952,411.3h.2V361.9h5.9v59.5Z" transform="translate(-3.4 0.5)"/>
    </g>
    <g class="cls-1">
      <path class="cls-5" d="M341,416.5a30.6,30.6,0,0,1-9.3,3.8,47.9,47.9,0,0,1-10,1.1H304.3V361.9h17.4a42.1,42.1,0,0,1,10,1.2,30.6,30.6,0,0,1,9.3,3.7c9,5.8,13.5,14.1,13.5,25S350,410.6,341,416.5Zm-2.6-44.6a22.8,22.8,0,0,0-9.3-3.8,35.8,35.8,0,0,0-5.1-.6H310.3V416h15l4.8-.7a24.6,24.6,0,0,0,9.2-4,21.6,21.6,0,0,0,6.9-8.7,25.8,25.8,0,0,0,2.4-10.9C348.6,383.1,345.2,376.6,338.4,371.9Z" transform="translate(-3.4 0.5)"/>
      <path class="cls-5" d="M410.2,421.4l-8.7-20H373.9l-8.6,20h-6.2l25.3-59.5h6.7l25.5,59.5Zm-22.4-52.7L376.2,396h23Zm6.3-10.1L378.2,350l2.6-4.8,16,8.7Z" transform="translate(-3.4 0.5)"/>
      <path class="cls-5" d="M464.9,421.4l-35.2-52.3h-.2v52.3h-6V361.9h8.1l33.2,49.4h.1V361.9h5.9v59.5Z" transform="translate(-3.4 0.5)"/>
      <path class="cls-5" d="M519.8,421.4V393.5H489v27.9h-6V361.9h6v26.2h30.8V361.9h5.9v59.5Z" transform="translate(-3.4 0.5)"/>
      <path class="cls-5" d="M574.1,367.4v54h-6v-54H554.5v-5.5h33.2v5.5Z" transform="translate(-3.4 0.5)"/>
      <path class="cls-5" d="M640.3,421.4l-8.7-20H604l-8.6,20h-6.2l25.3-59.5h6.7l25.5,59.5ZM632,349.9a11.6,11.6,0,0,1-5.6,6.5,20.7,20.7,0,0,1-16.9,0,11.4,11.4,0,0,1-5.5-6.5h5.2c1.8,2.5,4.7,3.7,8.8,3.7a14.6,14.6,0,0,0,4.8-.8,9.2,9.2,0,0,0,4-2.9Zm-14.1,18.8L606.3,396h23ZM615,436.5V426.3h5.9v10.2Z" transform="translate(-3.4 0.5)"/>
      <path class="cls-5" d="M695,421.4l-35.2-52.3h-.2v52.3h-6V361.9h8.1l33.2,49.4h.1V361.9h5.9v59.5Z" transform="translate(-3.4 0.5)"/>
      <path class="cls-5" d="M773.5,394.1a29.3,29.3,0,0,1-10.1,20.3,30.8,30.8,0,0,1-21.3,8.1,31.4,31.4,0,0,1-22.3-9,29.7,29.7,0,0,1,0-43.7,32.3,32.3,0,0,1,46.5,2,23.6,23.6,0,0,1,3.9,6h-6.9a22.7,22.7,0,0,0-9.1-8.5,25.8,25.8,0,0,0-12.1-3,25.3,25.3,0,0,0-18.2,7.4,24.4,24.4,0,0,0-7.7,18.1,23.8,23.8,0,0,0,7.8,18,25.8,25.8,0,0,0,18.4,7.2,25.1,25.1,0,0,0,14.9-4.9,21.7,21.7,0,0,0,9.1-12.6H733.2v-5.4Z" transform="translate(-3.4 0.5)"/>
      <path class="cls-5" d="M836.1,418.1a19.4,19.4,0,0,1-7,2.8,47.2,47.2,0,0,1-7.5.5H805.2V361.9h15A25.4,25.4,0,0,1,831,364a14.3,14.3,0,0,1,7.4,7.7,15.4,15.4,0,0,1,1.2,6.1,13.4,13.4,0,0,1-1.7,6.8,20.5,20.5,0,0,1-4.8,5.2c6.6,2.6,9.9,7.5,9.9,14.6S840.7,415.2,836.1,418.1ZM831.2,371a10.6,10.6,0,0,0-5.6-3.1l-3.3-.5H811.2v20.2h10.1l2.6-.2a16.6,16.6,0,0,0,4.9-1.5,8.8,8.8,0,0,0,4.9-8.3A10,10,0,0,0,831.2,371ZM830,394.3a20.3,20.3,0,0,0-5.6-1.2H811.2v23h11.2l2.8-.2a18.4,18.4,0,0,0,5.6-1.3c4.1-1.8,6.2-5.1,6.2-10.1S834.7,396.2,830,394.3Z" transform="translate(-3.4 0.5)"/>
      <path class="cls-5" d="M897.4,421.4l-8.6-20H861.2l-8.7,20h-6.2l25.4-59.5h6.7l25.5,59.5Zm-22.3-52.7L863.4,396h23.1Zm-3,67.8V426.3h6v10.2Z" transform="translate(-3.4 0.5)"/>
      <path class="cls-5" d="M952.2,421.4l-35.3-52.3h-.1v52.3h-6V361.9h8L952,411.3h.2V361.9h5.9v59.5Z" transform="translate(-3.4 0.5)"/>
    </g>
    <g class="cls-1">
      <g class="cls-1">
        <path class="cls-4" d="M347.1,973l-8.6-20H310.9l-8.7,20H296l25.4-59.5h6.7L353.6,973Zm-22.3-52.7-11.7,27.3h23.1Zm-6.1-10.1-2.7-4.7,16-8.7,2.6,4.8Z" transform="translate(-3.4 0.5)"/>
        <path class="cls-4" d="M399.3,967.4a23.1,23.1,0,0,1-16.7,6.7c-7.4,0-13.2-3-17.2-8.8h-.1v23.1h-5.6V929.1h5.6v7.7h.1a20,20,0,0,1,17.2-8.9,23.1,23.1,0,0,1,16.6,6.6,22.9,22.9,0,0,1,.1,32.9Zm-3.8-29.2a17.2,17.2,0,0,0-12.9-5.2,16.6,16.6,0,0,0-12.6,5.4,18.2,18.2,0,0,0,0,25.3,16.9,16.9,0,0,0,12.6,5.3,17.4,17.4,0,0,0,12.8-5.1,17.2,17.2,0,0,0,5.1-12.7A18,18,0,0,0,395.5,938.2Z" transform="translate(-3.4 0.5)"/>
        <path class="cls-4" d="M475.5,973v-7.7h-.2c-3.9,5.8-9.6,8.8-17.1,8.8a23.1,23.1,0,0,1-16.7-6.7,23.1,23.1,0,0,1,0-32.9,23.3,23.3,0,0,1,16.7-6.6q11.3,0,17.1,8.7h.2V913.5h5.6V973Zm-4.7-34.6a16.8,16.8,0,0,0-12.6-5.4,17.2,17.2,0,0,0-12.9,5.2,17.7,17.7,0,0,0-5.1,13,17.2,17.2,0,0,0,5.1,12.7,17.8,17.8,0,0,0,12.9,5.1,17.1,17.1,0,0,0,12.6-5.3,18.5,18.5,0,0,0,0-25.3Z" transform="translate(-3.4 0.5)"/>
        <path class="cls-4" d="M524.6,973v-6.8h-.1a12.5,12.5,0,0,1-5.9,5.9,17.2,17.2,0,0,1-8.2,2c-6.6,0-11.6-2.2-15.1-6.6a16.6,16.6,0,0,1-3.1-6.7,33.8,33.8,0,0,1-.8-7.5V929.1H497v24.1c0,4.9,1,8.7,2.9,11.3s5.7,4.5,10.5,4.5a12.9,12.9,0,0,0,9.3-3.6,13.5,13.5,0,0,0,3.7-6,23.6,23.6,0,0,0,.9-7.1V929.1h5.6V973Zm-14.8,15.1V977.9h6v10.2Z" transform="translate(-3.4 0.5)"/>
        <path class="cls-4" d="M573.6,973V948.8a22.7,22.7,0,0,0-1-6.5,12.3,12.3,0,0,0-3.2-5.5,13.7,13.7,0,0,0-9.6-3.8,13.3,13.3,0,0,0-9.5,3.8,11.3,11.3,0,0,0-3.3,5.4,20.6,20.6,0,0,0-.9,6.2V973h-5.6V929.1h5.6v5.6h.2c2.9-4.5,7.4-6.8,13.5-6.8s11,2,14.4,5.9,5,8.8,5,15V973Z" transform="translate(-3.4 0.5)"/>
        <path class="cls-4" d="M632.9,966.1c0,1.7,0,3.1-.1,4.3s-.3,2.9-.5,4.1a17.6,17.6,0,0,1-3.4,7.6c-4.1,5.4-9.9,8.2-17.4,8.2a24,24,0,0,1-14.1-4.2,21.4,21.4,0,0,1-8.4-12h6c2.9,7.4,8.4,11.1,16.4,11.1q7.4,0,11.7-4.5c2.8-3,4.2-6.9,4.2-11.9V965h-.1a16.4,16.4,0,0,1-7.2,6.8,21.4,21.4,0,0,1-9.8,2.3,22.1,22.1,0,0,1-16.2-6.7,21.8,21.8,0,0,1-6.8-16.2,22.9,22.9,0,0,1,6.7-16.4,21.9,21.9,0,0,1,16.3-6.9c7.4,0,13.1,3,17,9h.1v-7.8h5.6Zm-10.3-27.7a16.9,16.9,0,0,0-24.8,0,17.8,17.8,0,0,0-5,12.7,17.5,17.5,0,0,0,5,12.5,16.9,16.9,0,0,0,24.8,0,18.4,18.4,0,0,0,0-25.2Z" transform="translate(-3.4 0.5)"/>
        <path class="cls-4" d="M704.5,973v-7.7h-.1c-3.9,5.8-9.6,8.8-17.1,8.8a23.5,23.5,0,0,1-16.8-6.7,22.2,22.2,0,0,1-6.8-16.5,21.8,21.8,0,0,1,6.9-16.4,23.3,23.3,0,0,1,16.7-6.6q11.1,0,17.1,8.7h.1V913.5h5.7V973Zm-4.7-34.6a16.6,16.6,0,0,0-12.5-5.4,17.2,17.2,0,0,0-12.9,5.2,17.7,17.7,0,0,0-5.1,13,17.2,17.2,0,0,0,5.1,12.7,17.5,17.5,0,0,0,12.9,5.1,16.9,16.9,0,0,0,12.5-5.3,18.2,18.2,0,0,0,0-25.3Zm15.4-18.8v5.5H690.7v-5.5Z" transform="translate(-3.4 0.5)"/>
        <path class="cls-4" d="M764.4,953.1H724.3a16.5,16.5,0,0,0,5.5,11.2,16.9,16.9,0,0,0,11.6,4.7,17.5,17.5,0,0,0,9.5-2.7,15,15,0,0,0,6.2-7.7h6a23.1,23.1,0,0,1-21.6,15.5,23,23,0,0,1-22.9-23,22.4,22.4,0,0,1,6.7-16.3,21.5,21.5,0,0,1,16.1-6.9,21.7,21.7,0,0,1,16.3,7.1,22.7,22.7,0,0,1,6.7,16.5Zm-5.7-5.1a18.1,18.1,0,0,0-5.9-10.7,17,17,0,0,0-22.6,0,18.1,18.1,0,0,0-5.9,10.7Zm-10-26.3-6.9-5.9-7.1,5.9h-7.3l11.7-10.1h5.3l11.4,10.1Zm3-5.9-2.6-4.6,15.9-8.8,2.6,4.8Z" transform="translate(-3.4 0.5)"/>
        <path class="cls-4" d="M806,973V948.8a22.7,22.7,0,0,0-.9-6.5,11.6,11.6,0,0,0-3.3-5.5,13.5,13.5,0,0,0-9.5-3.8,13.7,13.7,0,0,0-9.6,3.8,12,12,0,0,0-3.2,5.4,20.6,20.6,0,0,0-.9,6.2V973H773V929.1h5.6v5.6h.1c2.9-4.5,7.5-6.8,13.6-6.8s10.9,2,14.4,5.9,4.9,8.8,4.9,15V973Z" transform="translate(-3.4 0.5)"/>
        <path class="cls-4" d="M876.9,973V948.8a22.7,22.7,0,0,0-.9-6.5,12.3,12.3,0,0,0-3.2-5.5,13.7,13.7,0,0,0-9.6-3.8,13.3,13.3,0,0,0-9.5,3.8,11.3,11.3,0,0,0-3.3,5.4,20.6,20.6,0,0,0-.9,6.2V973h-5.6V913.5h5.6v21.2h.2c2.9-4.5,7.4-6.8,13.5-6.8s11,2,14.4,5.9,5,8.8,5,15V973Z" transform="translate(-3.4 0.5)"/>
        <path class="cls-4" d="M936.8,953.1h-40a16,16,0,0,0,5.4,11.2,16.9,16.9,0,0,0,11.6,4.7,17.5,17.5,0,0,0,9.5-2.7,15,15,0,0,0,6.2-7.7h6a23.1,23.1,0,0,1-21.6,15.5,23,23,0,0,1-22.9-23,22.4,22.4,0,0,1,6.7-16.3,22.2,22.2,0,0,1,32.4.2,22.7,22.7,0,0,1,6.7,16.5Zm-5.7-5.1a18.1,18.1,0,0,0-5.9-10.7,16.1,16.1,0,0,0-11.3-4.3,16.3,16.3,0,0,0-11.3,4.3,17.5,17.5,0,0,0-5.8,10.7Zm-10-26.3-6.9-5.9-7.1,5.9h-7.3l11.7-10.1h5.3l11.4,10.1Zm3-5.9-2.6-4.6,15.9-8.8,2.6,4.8Z" transform="translate(-3.4 0.5)"/>
        <path class="cls-4" d="M956.1,934.1V973h-5.6V934.1h-9.2v-5h9.2V913.5h5.6v15.6h10.5v5Z" transform="translate(-3.4 0.5)"/>
      </g>
      <g class="cls-1">
        <path class="cls-4" d="M357.8,1069.4v-24.2a22.7,22.7,0,0,0-.9-6.5,11.6,11.6,0,0,0-3.3-5.5,13.3,13.3,0,0,0-9.5-3.8,13.7,13.7,0,0,0-9.6,3.8,12,12,0,0,0-3.2,5.4,20.6,20.6,0,0,0-.9,6.2v24.6h-5.6v-43.9h5.6v5.6h.2c2.9-4.5,7.4-6.8,13.5-6.8s11,2,14.4,5.9,4.9,8.8,4.9,15v24.2Z" transform="translate(-3.4 0.5)"/>
        <path class="cls-4" d="M417.2,1062.5c0,1.7,0,3.1-.1,4.3s-.3,2.9-.5,4.1a17.6,17.6,0,0,1-3.4,7.6c-4.1,5.5-9.9,8.2-17.4,8.2a24,24,0,0,1-14.1-4.2,21.4,21.4,0,0,1-8.4-12h6c2.9,7.4,8.4,11.1,16.4,11.1q7.4,0,11.7-4.5c2.8-3,4.2-6.9,4.2-11.9v-3.8h-.1a16.4,16.4,0,0,1-7.2,6.8,21.7,21.7,0,0,1-9.8,2.3,22.1,22.1,0,0,1-16.2-6.7,21.8,21.8,0,0,1-6.8-16.2,22.5,22.5,0,0,1,6.7-16.4,21.9,21.9,0,0,1,16.3-6.9c7.4,0,13.1,3,17,9h.1v-7.8h5.6Zm-10.3-27.7a16.9,16.9,0,0,0-24.8,0,17.8,17.8,0,0,0-5,12.7,17.5,17.5,0,0,0,5,12.5,16.4,16.4,0,0,0,12.4,5.4,16.7,16.7,0,0,0,12.4-5.4,17.7,17.7,0,0,0,5-12.5A18.2,18.2,0,0,0,406.9,1034.8Z" transform="translate(-3.4 0.5)"/>
        <path class="cls-4" d="M466.9,1069.4v-7.7h-.2c-3.9,5.8-9.6,8.8-17.1,8.8a23.1,23.1,0,0,1-16.7-6.7,23.1,23.1,0,0,1,0-32.9,23.3,23.3,0,0,1,16.7-6.6c7.7,0,13.4,3,17.1,8.9h.2v-7.7h5.6v43.9Zm-4.7-34.6a16.8,16.8,0,0,0-12.6-5.4,17.2,17.2,0,0,0-12.9,5.2,17.7,17.7,0,0,0-5.1,13,17.2,17.2,0,0,0,5.1,12.7,17.8,17.8,0,0,0,12.9,5.1,17.1,17.1,0,0,0,12.6-5.3,18.5,18.5,0,0,0,0-25.3Zm-5.8-15.1-15.9-8.6,2.5-4.8,16,8.7Z" transform="translate(-3.4 0.5)"/>
        <path class="cls-4" d="M494,1084.8h-5.9l7.6-16.9-17.1-42.4h6l14,35,14.9-35h5.9Z" transform="translate(-3.4 0.5)"/>
        <path class="cls-4" d="M580.6,1037.5c-1,1.3-2.1,2.8-3.5,4.3s-2.3,2.4-4.1,4L553.9,1064h29.8v5.4H545.9V1064l24.6-23.6a39.1,39.1,0,0,0,3.6-4c2.6-3.3,3.9-6.4,3.9-9.5a12.1,12.1,0,0,0-3.8-8.9,12.2,12.2,0,0,0-9-3.7,11.8,11.8,0,0,0-9.7,4.4,16.6,16.6,0,0,0-3.2,10.5h-5.9v-.2a22.2,22.2,0,0,1,2.7-11.3,16.8,16.8,0,0,1,8.8-7.3,19.8,19.8,0,0,1,7.6-1.5c8.2,0,13.8,3.8,17,11.4a16.3,16.3,0,0,1,1.5,6.7A19.2,19.2,0,0,1,580.6,1037.5Z" transform="translate(-3.4 0.5)"/>
        <path class="cls-4" d="M622.7,1065.1a18.3,18.3,0,0,1-13.2,5.4,18.7,18.7,0,0,1-13.3-5.3,17.5,17.5,0,0,1-5.8-13.1,17.9,17.9,0,0,1,2.8-9.5,16.3,16.3,0,0,1,7.4-6.4c-4.6-3-6.9-6.9-6.9-11.9a14.9,14.9,0,0,1,4.5-11,15.8,15.8,0,0,1,11.2-4.4,15.5,15.5,0,0,1,15.8,15.7c0,5.2-2.4,9-7.1,11.6,6.8,3.3,10.3,8.6,10.3,15.9A17.2,17.2,0,0,1,622.7,1065.1Zm-4.1-22.1a12.9,12.9,0,0,0-9.3-3.7,12.6,12.6,0,0,0-9,3.7,12,12,0,0,0-3.9,8.9,12.7,12.7,0,0,0,3.7,9.4,12.8,12.8,0,0,0,9.4,3.7,12.8,12.8,0,0,0,12.9-12.9A12.4,12.4,0,0,0,618.6,1043Zm-2.2-25.8a9.4,9.4,0,0,0-6.9-2.9,9.6,9.6,0,0,0-7,2.8,9.5,9.5,0,0,0,.1,13.8,9.8,9.8,0,0,0,6.9,2.9,9.4,9.4,0,0,0,6.8-2.9,9.2,9.2,0,0,0,2.9-6.8A9.4,9.4,0,0,0,616.4,1017.2Z" transform="translate(-3.4 0.5)"/>
        <path class="cls-4" d="M639.8,1069.4v-10.1h6v10.1Z" transform="translate(-3.4 0.5)"/>
        <path class="cls-4" d="M696.1,1047.7a38.6,38.6,0,0,1-.7,7,22.6,22.6,0,0,1-2.3,6.5c-3.7,6.2-9.3,9.3-17,9.3s-13.3-3.1-16.9-9.3a22.6,22.6,0,0,1-2.4-6.5,38.8,38.8,0,0,1-.6-7v-17.3a24.2,24.2,0,0,1,2.3-11c3.5-7,9.4-10.5,17.6-10.5s14.2,3.5,17.7,10.5a24.2,24.2,0,0,1,2.3,11Zm-6-16a28.6,28.6,0,0,0-.6-5.8,19.5,19.5,0,0,0-1.9-5.5c-2.6-4.1-6.4-6.1-11.5-6.1a12.6,12.6,0,0,0-11.4,6.1,16.8,16.8,0,0,0-1.9,5.5,28.6,28.6,0,0,0-.6,5.8v15.1a39.6,39.6,0,0,0,.4,6.2,17.4,17.4,0,0,0,1.8,5.7q3.9,6.3,11.7,6.3c5.3,0,9.2-2.1,11.8-6.3a17.4,17.4,0,0,0,1.8-5.7,39.6,39.6,0,0,0,.4-6.2Z" transform="translate(-3.4 0.5)"/>
        <path class="cls-4" d="M736.2,1037.5a39.1,39.1,0,0,1-3.5,4.3c-.9,1-2.3,2.4-4,4L709.6,1064h29.7v5.4H701.6V1064l24.5-23.6c1.5-1.5,2.7-2.8,3.7-4,2.6-3.3,3.9-6.4,3.9-9.5a11.8,11.8,0,0,0-3.9-8.9,12.2,12.2,0,0,0-9-3.7,11.6,11.6,0,0,0-9.6,4.4,16.6,16.6,0,0,0-3.2,10.5h-6v-.2a21.3,21.3,0,0,1,2.8-11.3,16.8,16.8,0,0,1,8.8-7.3,19.4,19.4,0,0,1,7.6-1.5c8.1,0,13.8,3.8,17,11.4a17.9,17.9,0,0,1,1.4,6.7A18.4,18.4,0,0,1,736.2,1037.5Z" transform="translate(-3.4 0.5)"/>
        <path class="cls-4" d="M751,1069.4v-10.1h6v10.1Z" transform="translate(-3.4 0.5)"/>
        <path class="cls-4" d="M802.9,1037.5a30.1,30.1,0,0,1-3.5,4.3c-.9,1-2.3,2.4-4,4L776.3,1064H806v5.4H768.3V1064l24.6-23.6c1.4-1.5,2.7-2.8,3.6-4,2.6-3.3,3.9-6.4,3.9-9.5a11.8,11.8,0,0,0-3.9-8.9,12.2,12.2,0,0,0-8.9-3.7,11.7,11.7,0,0,0-9.7,4.4,16.6,16.6,0,0,0-3.2,10.5h-6v-.2a21.3,21.3,0,0,1,2.8-11.3,16.8,16.8,0,0,1,8.8-7.3,19.4,19.4,0,0,1,7.6-1.5c8.1,0,13.8,3.8,17,11.4a16.1,16.1,0,0,1,1.4,6.7A18.4,18.4,0,0,1,802.9,1037.5Z" transform="translate(-3.4 0.5)"/>
        <path class="cls-4" d="M851.7,1047.7a38.8,38.8,0,0,1-.6,7,20,20,0,0,1-2.4,6.5c-3.6,6.2-9.2,9.3-16.9,9.3s-13.3-3.1-16.9-9.3a20,20,0,0,1-2.4-6.5,38.8,38.8,0,0,1-.6-7v-17.3a24.2,24.2,0,0,1,2.2-11q5.4-10.5,17.7-10.5c8.2,0,14.1,3.5,17.6,10.5a23,23,0,0,1,2.3,11Zm-5.9-16a28.6,28.6,0,0,0-.6-5.8,19.3,19.3,0,0,0-2-5.5,12.6,12.6,0,0,0-11.4-6.1c-5,0-8.9,2-11.4,6.1a16.7,16.7,0,0,0-2,5.5,28.6,28.6,0,0,0-.6,5.8v15.1a38.9,38.9,0,0,0,.5,6.2,13.7,13.7,0,0,0,1.8,5.7q3.8,6.3,11.7,6.3t11.7-6.3a13.7,13.7,0,0,0,1.8-5.7,38.9,38.9,0,0,0,.5-6.2Z" transform="translate(-3.4 0.5)"/>
        <path class="cls-4" d="M891.9,1037.5a39.1,39.1,0,0,1-3.5,4.3c-1,1-2.3,2.4-4.1,4l-19,18.2H895v5.4H857.2V1064l24.6-23.6a39.1,39.1,0,0,0,3.6-4c2.6-3.3,3.9-6.4,3.9-9.5a12.1,12.1,0,0,0-3.8-8.9,12.2,12.2,0,0,0-9-3.7,11.6,11.6,0,0,0-9.6,4.4q-3.3,4-3.3,10.5h-5.9v-.2a22.2,22.2,0,0,1,2.7-11.3,17,17,0,0,1,8.9-7.3,19.3,19.3,0,0,1,7.5-1.5c8.2,0,13.9,3.8,17,11.4a16.3,16.3,0,0,1,1.5,6.7A18.4,18.4,0,0,1,891.9,1037.5Z" transform="translate(-3.4 0.5)"/>
        <path class="cls-4" d="M936.4,1037.5c-1,1.3-2.1,2.8-3.5,4.3l-4.1,4L909.7,1064h29.8v5.4H901.7V1064l24.6-23.6a39.1,39.1,0,0,0,3.6-4c2.6-3.3,3.9-6.4,3.9-9.5a12.1,12.1,0,0,0-3.8-8.9,12.2,12.2,0,0,0-9-3.7,11.7,11.7,0,0,0-9.7,4.4,16.6,16.6,0,0,0-3.2,10.5h-5.9v-.2a22.2,22.2,0,0,1,2.7-11.3,16.8,16.8,0,0,1,8.8-7.3,19.8,19.8,0,0,1,7.6-1.5c8.2,0,13.8,3.8,17,11.4a16.3,16.3,0,0,1,1.5,6.7A19.2,19.2,0,0,1,936.4,1037.5Z" transform="translate(-3.4 0.5)"/>
      </g>
    </g>
    <g class="cls-1">
      <g class="cls-1">
        <path class="cls-4" d="M105.1,579H80L48.2,483.7h25l19.2,66.8h.3L112,483.7h25.1Z" transform="translate(-3.4 0.5)"/>
      </g>
      <g class="cls-1">
        <path class="cls-4" d="M227.2,566.7q-14.7,14.1-35.7,14.1a49.2,49.2,0,0,1-35.2-13.9c-9.9-9.4-14.9-20.8-14.9-34.4a54.6,54.6,0,0,1,3.7-20.3,41.4,41.4,0,0,1,6.2-10.7c9.9-13.1,23.3-19.6,40.3-19.6,14,0,25.9,4.7,35.6,14.2s14.7,21.3,14.7,35.2S237,557.1,227.2,566.7Zm-16.7-54.9a23.8,23.8,0,0,0-18.8-8.5,24.1,24.1,0,0,0-18.8,8.3,28,28,0,0,0-7.2,19.5,29.2,29.2,0,0,0,7.2,19.9,24.5,24.5,0,0,0,19.1,8.4,23.4,23.4,0,0,0,18.5-8.5,28.7,28.7,0,0,0,7.1-19.4A29.1,29.1,0,0,0,210.5,511.8Z" transform="translate(-3.4 0.5)"/>
        <path class="cls-4" d="M327.9,541.3a62.4,62.4,0,0,1-1.6,15.8,31.8,31.8,0,0,1-7.8,13.4c-6.8,6.9-15.7,10.3-26.7,10.3a47.5,47.5,0,0,1-14.9-2.3,30.1,30.1,0,0,1-12.5-7.9,31.9,31.9,0,0,1-8.1-13.5,39.5,39.5,0,0,1-1.2-7.4q-.3-3.3-.3-8.4V483.7h24.3v57.6a56,56,0,0,0,.4,6.4,20.7,20.7,0,0,0,1.7,5.9c2,3.9,5.4,5.8,10.3,5.8s8.6-1.9,10.3-5.7a17.4,17.4,0,0,0,1.6-5.8c.1-1.6.2-3.9.2-6.6V483.7h24.3Z" transform="translate(-3.4 0.5)"/>
        <path class="cls-4" d="M439.4,543.3a47.7,47.7,0,0,1-17.5,27.2,48.3,48.3,0,0,1-30.6,10.3,49.4,49.4,0,0,1-35.6-14.3c-9.8-9.6-14.7-21.4-14.7-35.3s4.9-25.6,14.6-35.1,21.5-14.2,35.4-14.2q27.2,0,42,22.4a38.6,38.6,0,0,1,6.4,15.6H413.9c-4.2-11.1-11.9-16.6-23-16.6a23.9,23.9,0,0,0-18.6,8.3,29.1,29.1,0,0,0-6.9,19.5,29.6,29.6,0,0,0,6.9,19.7,23.7,23.7,0,0,0,18.7,8.6c10.4,0,18-5.3,22.9-16.1Z" transform="translate(-3.4 0.5)"/>
        <path class="cls-4" d="M507.5,579V540.9H476.4V579H452V483.7h24.4v35.8h31.1V483.7h24.4V579Z" transform="translate(-3.4 0.5)"/>
        <path class="cls-4" d="M549.1,579V483.7h53V505H572.4v14.9h28.7v21.4H572.4v16.3h29.7V579Z" transform="translate(-3.4 0.5)"/>
        <path class="cls-4" d="M662.7,579l-22-30.8h-.3V579H617.1V483.7h30.1c3.2,0,5.8,0,7.7.2a57,57,0,0,1,7.7.8,29.7,29.7,0,0,1,14,5.8q11.7,9.5,11.7,26.1c0,7.5-2,14.1-6.2,19.5a26.1,26.1,0,0,1-17.5,10.5L690.5,579Zm-2.4-71c-2.7-2-6.4-3-11-3h-8.9v26.6H649c10.7,0,16-4.6,16-13.7C665,513.5,663.4,510.2,660.3,508Z" transform="translate(-3.4 0.5)"/>
        <path class="cls-4" d="M740.9,526.3v-27a17.4,17.4,0,0,1,3.3-10.8,11.7,11.7,0,0,1,9.9-4.8h9.2v11.6h-3.1l-3.4.4a4.3,4.3,0,0,0-3.6,4.5v4.3h10.1v21.9Zm31.8,0v-27a17.4,17.4,0,0,1,3.3-10.8,11.7,11.7,0,0,1,9.9-4.8h9.2v11.6H792l-3.4.4c-2.4.6-3.7,2.1-3.7,4.5v4.3h10.2v21.9Z" transform="translate(-3.4 0.5)"/>
        <path class="cls-4" d="M835.7,505v16.3h27.7v21.4H835.7V579H812.4V483.7h52V505Z" transform="translate(-3.4 0.5)"/>
        <path class="cls-4" d="M950.4,541.3a67.4,67.4,0,0,1-1.6,15.8,31,31,0,0,1-7.9,13.4c-6.8,6.9-15.6,10.3-26.7,10.3a46.9,46.9,0,0,1-14.8-2.3,31.2,31.2,0,0,1-12.6-7.9,31.7,31.7,0,0,1-8-13.5,49.2,49.2,0,0,1-1.3-7.4c-.2-2.2-.2-5-.2-8.4V483.7h24.3v57.6a39.8,39.8,0,0,0,.4,6.4,17.9,17.9,0,0,0,1.7,5.9c1.9,3.9,5.3,5.8,10.3,5.8s8.5-1.9,10.3-5.7a20.3,20.3,0,0,0,1.5-5.8,57.4,57.4,0,0,0,.3-6.6V483.7h24.3Z" transform="translate(-3.4 0.5)"/>
        <path class="cls-4" d="M1026.6,579l-36.3-58H990l.7,57.9H967.4V483.7h21l36.8,59.9.3-.3-1.1-59.6h23.3V579Z" transform="translate(-3.4 0.5)"/>
        <path class="cls-4" d="M1110.4,544.3V579h-24.3V544.3l-28.5-60.6H1084l14.2,38.3,14.2-38.3h26.2Z" transform="translate(-3.4 0.5)"/>
        <path class="cls-4" d="M1170.8,510.8a18,18,0,0,1-3.2,10.8,11.9,11.9,0,0,1-9.9,4.7h-9.3V514.9h3.2a10.9,10.9,0,0,0,3.4-.4,4.2,4.2,0,0,0,3.6-4.5v-4.4h-10.2V483.7h22.4Zm31.8,0a17.3,17.3,0,0,1-3.2,10.8,11.9,11.9,0,0,1-9.9,4.7h-9.3V514.9h3.2a10.6,10.6,0,0,0,3.3-.4,4.2,4.2,0,0,0,3.6-4.5v-4.4h-10.1V483.7h22.4Z" transform="translate(-3.4 0.5)"/>
      </g>
    </g>
    <g class="cls-1">
      <path class="cls-6" d="M147.6,666.4v74H123.3v-74H104.5V645.1h61.8v21.3Z" transform="translate(-3.4 0.5)"/>
      <path class="cls-6" d="M221.6,740.4l-22-30.8h-.2v30.8H176V645.1h30.1c3.2,0,5.8,0,7.7.2a55.3,55.3,0,0,1,7.7.8,29.3,29.3,0,0,1,14,5.8c7.9,6.3,11.8,15,11.8,26.1a31,31,0,0,1-6.3,19.5A26.1,26.1,0,0,1,223.6,708l25.8,32.4Zm-2.4-71c-2.7-2-6.4-3-11-3h-8.8V693H208c10.6,0,15.9-4.6,15.9-13.7C223.9,674.9,222.4,671.6,219.2,669.4Z" transform="translate(-3.4 0.5)"/>
      <path class="cls-6" d="M260.1,740.4V645.1h24.3v95.3Zm1.9,30.9V751.8h20.5v19.5Z" transform="translate(-3.4 0.5)"/>
      <path class="cls-6" d="M438.8,691.2c0,14.7-4.9,26.8-14.5,36.6s-21.8,14.5-36.4,14.5-26.1-4.8-35.9-14.4-14.7-21.5-14.7-35.5,5-25.9,15-35.3,21.8-13.8,36-13.8a51.3,51.3,0,0,1,29.3,9.2c9.4,6.4,15.5,14.6,18.3,24.5H408.6q-6.9-12.3-21-12.3a24.1,24.1,0,0,0-18.8,8.2q-7.2,7.8-7.2,19.5c0,8,2.3,14.7,7,20.1a24.4,24.4,0,0,0,19.2,8.5,27.3,27.3,0,0,0,14.2-3.7,19.6,19.6,0,0,0,8.5-11.7H382.1V686.2h56.5c.1.7.1,1.6.2,2.5Z" transform="translate(-3.4 0.5)"/>
      <path class="cls-6" d="M451.3,740.4V645.1h24.4v95.3Z" transform="translate(-3.4 0.5)"/>
      <path class="cls-6" d="M554.3,740.4l-4.6-13.8H516.6l-5,13.8H485.4l38.3-95.3h19.1l38,95.3Zm-31.4-99.9-6-12.7,30.8-16.6,6.9,15.3Zm10.6,34.2h-.4l-9.8,32.6h20Z" transform="translate(-3.4 0.5)"/>
      <path class="cls-6" d="M628.2,740.4V721.5l7.8-5.2c2.8-1.9,5.3-3.7,7.5-5.5a99.5,99.5,0,0,0,13.8-12.5l4.4-5.2c1.6-2.1,3-4.1,4.3-6.1,2.9-4.9,4.4-9.3,4.4-13.1,0-6.1-3-9.2-9-9.2a9.2,9.2,0,0,0-8.6,4.8c-1.3,2.4-2.1,5.8-2.3,10.2H627.3a56.9,56.9,0,0,1,1.2-11.4,37.2,37.2,0,0,1,4.4-10.5,31.9,31.9,0,0,1,12.8-11,39.5,39.5,0,0,1,16.6-3.5,37.4,37.4,0,0,1,17.6,4A26.8,26.8,0,0,1,694.8,671a38.2,38.2,0,0,1-3,14.6,55.8,55.8,0,0,1-7.5,12.9,124,124,0,0,1-10.2,11.4l-5.6,5.2-5.4,4.8h32.3v20.5Z" transform="translate(-3.4 0.5)"/>
      <path class="cls-6" d="M776.5,706a39,39,0,0,1-4.7,19.4A32,32,0,0,1,757,738.7a36.1,36.1,0,0,1-15.7,3.5,38.7,38.7,0,0,1-14.5-2.9c-14.3-6-21.4-17.1-21.4-33.3V679.5c0-16.5,7.2-27.6,21.5-33.4a39.6,39.6,0,0,1,14.4-2.8,36.2,36.2,0,0,1,14.6,3.1c13.7,6,20.6,17,20.6,33.1Zm-24.4-27.2c0-4.2-.7-7.5-2.2-9.8s-4.9-4.3-9-4.3a9.9,9.9,0,0,0-8.7,4.3c-1.7,2.5-2.5,5.8-2.5,9.8v27.8c0,4.1.8,7.4,2.5,9.9s4.8,4.3,8.7,4.3,7.1-1.4,9-4.2,2.2-5.7,2.2-10Z" transform="translate(-3.4 0.5)"/>
      <path class="cls-6" d="M789.8,740.4V718.5h22.3v21.9Z" transform="translate(-3.4 0.5)"/>
      <path class="cls-6" d="M896.4,706c0,7.4-1.5,13.9-4.6,19.4A32,32,0,0,1,877,738.7a36.4,36.4,0,0,1-15.7,3.5,38.3,38.3,0,0,1-14.5-2.9c-14.3-6-21.4-17.1-21.4-33.3V679.5c0-16.5,7.1-27.6,21.5-33.4a38.8,38.8,0,0,1,14.4-2.8,36.2,36.2,0,0,1,14.6,3.1c13.7,6,20.5,17,20.5,33.1Zm-24.3-27.2c0-4.2-.8-7.5-2.3-9.8s-4.8-4.3-8.9-4.3-6.8,1.4-8.7,4.3-2.5,5.8-2.5,9.8v27.8c0,4.1.8,7.4,2.5,9.9s4.8,4.3,8.7,4.3,7.1-1.4,8.9-4.2,2.3-5.7,2.3-10Z" transform="translate(-3.4 0.5)"/>
      <path class="cls-6" d="M976,706a39,39,0,0,1-4.7,19.4,31.3,31.3,0,0,1-14.7,13.3,36.5,36.5,0,0,1-15.8,3.5,38.7,38.7,0,0,1-14.5-2.9c-14.2-6-21.4-17.1-21.4-33.3V679.5c0-16.5,7.2-27.6,21.5-33.4a39.6,39.6,0,0,1,14.4-2.8,36.2,36.2,0,0,1,14.6,3.1c13.7,6,20.6,17,20.6,33.1Zm-24.3-27.2c0-4.2-.8-7.5-2.3-9.8s-4.9-4.3-8.9-4.3-6.8,1.4-8.8,4.3a18,18,0,0,0-2.4,9.8v27.8q0,6.1,2.4,9.9c1.9,2.9,4.9,4.3,8.8,4.3s7-1.4,8.9-4.2,2.3-5.7,2.3-10Z" transform="translate(-3.4 0.5)"/>
      <path class="cls-6" d="M1055.5,706c0,7.4-1.5,13.9-4.6,19.4a32,32,0,0,1-14.8,13.3,36.4,36.4,0,0,1-15.7,3.5,38.3,38.3,0,0,1-14.5-2.9c-14.3-6-21.4-17.1-21.4-33.3V679.5c0-16.5,7.1-27.6,21.5-33.4a39.6,39.6,0,0,1,14.4-2.8,36.2,36.2,0,0,1,14.6,3.1c13.7,6,20.5,17,20.5,33.1Zm-24.3-27.2c0-4.2-.7-7.5-2.3-9.8s-4.8-4.3-8.9-4.3-6.8,1.4-8.7,4.3-2.5,5.8-2.5,9.8v27.8c0,4.1.8,7.4,2.5,9.9s4.8,4.3,8.7,4.3,7.1-1.4,8.9-4.2,2.3-5.7,2.3-10Z" transform="translate(-3.4 0.5)"/>
      <path class="cls-6" d="M1142.5,727.2c-8.4,8.8-19.8,13.2-34.3,13.2h-35.9V702.3h-8.6V680.9h8.6V645.1h32a88.8,88.8,0,0,1,12.3.7,47.1,47.1,0,0,1,10.9,2.6c7.3,2.7,13.4,7.5,18.5,14.5s8.7,17.9,8.7,29.6C1154.7,707,1150.6,718.6,1142.5,727.2ZM1124.8,674c-3.9-5-9.8-7.6-17.6-7.6h-10.6v14.5h13.9v21.4h-13.9V719H1107c8,0,14-2.4,18-7.3s5.4-10.7,5.4-18.8S1128.5,678.6,1124.8,674Z" transform="translate(-3.4 0.5)"/>
    </g>
    <g class="cls-1">
      <path class="cls-7" d="M147.6,666.4v74H123.3v-74H104.5V645.1h61.8v21.3Z" transform="translate(-3.4 0.5)"/>
      <path class="cls-7" d="M221.6,740.4l-22-30.8h-.2v30.8H176V645.1h30.1c3.2,0,5.8,0,7.7.2a55.3,55.3,0,0,1,7.7.8,29.3,29.3,0,0,1,14,5.8c7.9,6.3,11.8,15,11.8,26.1a31,31,0,0,1-6.3,19.5A26.1,26.1,0,0,1,223.6,708l25.8,32.4Zm-2.4-71c-2.7-2-6.4-3-11-3h-8.8V693H208c10.6,0,15.9-4.6,15.9-13.7C223.9,674.9,222.4,671.6,219.2,669.4Z" transform="translate(-3.4 0.5)"/>
      <path class="cls-7" d="M260.1,740.4V645.1h24.3v95.3Zm1.9,30.9V751.8h20.5v19.5Z" transform="translate(-3.4 0.5)"/>
      <path class="cls-7" d="M438.8,691.2c0,14.7-4.9,26.8-14.5,36.6s-21.8,14.5-36.4,14.5-26.1-4.8-35.9-14.4-14.7-21.5-14.7-35.5,5-25.9,15-35.3,21.8-13.8,36-13.8a51.3,51.3,0,0,1,29.3,9.2c9.4,6.4,15.5,14.6,18.3,24.5H408.6q-6.9-12.3-21-12.3a24.1,24.1,0,0,0-18.8,8.2q-7.2,7.8-7.2,19.5c0,8,2.3,14.7,7,20.1a24.4,24.4,0,0,0,19.2,8.5,27.3,27.3,0,0,0,14.2-3.7,19.6,19.6,0,0,0,8.5-11.7H382.1V686.2h56.5c.1.7.1,1.6.2,2.5Z" transform="translate(-3.4 0.5)"/>
      <path class="cls-7" d="M451.3,740.4V645.1h24.4v95.3Z" transform="translate(-3.4 0.5)"/>
      <path class="cls-7" d="M554.3,740.4l-4.6-13.8H516.6l-5,13.8H485.4l38.3-95.3h19.1l38,95.3Zm-31.4-99.9-6-12.7,30.8-16.6,6.9,15.3Zm10.6,34.2h-.4l-9.8,32.6h20Z" transform="translate(-3.4 0.5)"/>
      <path class="cls-7" d="M628.2,740.4V721.5l7.8-5.2c2.8-1.9,5.3-3.7,7.5-5.5a99.5,99.5,0,0,0,13.8-12.5l4.4-5.2c1.6-2.1,3-4.1,4.3-6.1,2.9-4.9,4.4-9.3,4.4-13.1,0-6.1-3-9.2-9-9.2a9.2,9.2,0,0,0-8.6,4.8c-1.3,2.4-2.1,5.8-2.3,10.2H627.3a56.9,56.9,0,0,1,1.2-11.4,37.2,37.2,0,0,1,4.4-10.5,31.9,31.9,0,0,1,12.8-11,39.5,39.5,0,0,1,16.6-3.5,37.4,37.4,0,0,1,17.6,4A26.8,26.8,0,0,1,694.8,671a38.2,38.2,0,0,1-3,14.6,55.8,55.8,0,0,1-7.5,12.9,124,124,0,0,1-10.2,11.4l-5.6,5.2-5.4,4.8h32.3v20.5Z" transform="translate(-3.4 0.5)"/>
      <path class="cls-7" d="M776.5,706a39,39,0,0,1-4.7,19.4A32,32,0,0,1,757,738.7a36.1,36.1,0,0,1-15.7,3.5,38.7,38.7,0,0,1-14.5-2.9c-14.3-6-21.4-17.1-21.4-33.3V679.5c0-16.5,7.2-27.6,21.5-33.4a39.6,39.6,0,0,1,14.4-2.8,36.2,36.2,0,0,1,14.6,3.1c13.7,6,20.6,17,20.6,33.1Zm-24.4-27.2c0-4.2-.7-7.5-2.2-9.8s-4.9-4.3-9-4.3a9.9,9.9,0,0,0-8.7,4.3c-1.7,2.5-2.5,5.8-2.5,9.8v27.8c0,4.1.8,7.4,2.5,9.9s4.8,4.3,8.7,4.3,7.1-1.4,9-4.2,2.2-5.7,2.2-10Z" transform="translate(-3.4 0.5)"/>
      <path class="cls-7" d="M789.8,740.4V718.5h22.3v21.9Z" transform="translate(-3.4 0.5)"/>
      <path class="cls-7" d="M896.4,706c0,7.4-1.5,13.9-4.6,19.4A32,32,0,0,1,877,738.7a36.4,36.4,0,0,1-15.7,3.5,38.3,38.3,0,0,1-14.5-2.9c-14.3-6-21.4-17.1-21.4-33.3V679.5c0-16.5,7.1-27.6,21.5-33.4a38.8,38.8,0,0,1,14.4-2.8,36.2,36.2,0,0,1,14.6,3.1c13.7,6,20.5,17,20.5,33.1Zm-24.3-27.2c0-4.2-.8-7.5-2.3-9.8s-4.8-4.3-8.9-4.3-6.8,1.4-8.7,4.3-2.5,5.8-2.5,9.8v27.8c0,4.1.8,7.4,2.5,9.9s4.8,4.3,8.7,4.3,7.1-1.4,8.9-4.2,2.3-5.7,2.3-10Z" transform="translate(-3.4 0.5)"/>
      <path class="cls-7" d="M976,706a39,39,0,0,1-4.7,19.4,31.3,31.3,0,0,1-14.7,13.3,36.5,36.5,0,0,1-15.8,3.5,38.7,38.7,0,0,1-14.5-2.9c-14.2-6-21.4-17.1-21.4-33.3V679.5c0-16.5,7.2-27.6,21.5-33.4a39.6,39.6,0,0,1,14.4-2.8,36.2,36.2,0,0,1,14.6,3.1c13.7,6,20.6,17,20.6,33.1Zm-24.3-27.2c0-4.2-.8-7.5-2.3-9.8s-4.9-4.3-8.9-4.3-6.8,1.4-8.8,4.3a18,18,0,0,0-2.4,9.8v27.8q0,6.1,2.4,9.9c1.9,2.9,4.9,4.3,8.8,4.3s7-1.4,8.9-4.2,2.3-5.7,2.3-10Z" transform="translate(-3.4 0.5)"/>
      <path class="cls-7" d="M1055.5,706c0,7.4-1.5,13.9-4.6,19.4a32,32,0,0,1-14.8,13.3,36.4,36.4,0,0,1-15.7,3.5,38.3,38.3,0,0,1-14.5-2.9c-14.3-6-21.4-17.1-21.4-33.3V679.5c0-16.5,7.1-27.6,21.5-33.4a39.6,39.6,0,0,1,14.4-2.8,36.2,36.2,0,0,1,14.6,3.1c13.7,6,20.5,17,20.5,33.1Zm-24.3-27.2c0-4.2-.7-7.5-2.3-9.8s-4.8-4.3-8.9-4.3-6.8,1.4-8.7,4.3-2.5,5.8-2.5,9.8v27.8c0,4.1.8,7.4,2.5,9.9s4.8,4.3,8.7,4.3,7.1-1.4,8.9-4.2,2.3-5.7,2.3-10Z" transform="translate(-3.4 0.5)"/>
      <path class="cls-7" d="M1142.5,727.2c-8.4,8.8-19.8,13.2-34.3,13.2h-35.9V702.3h-8.6V680.9h8.6V645.1h32a88.8,88.8,0,0,1,12.3.7,47.1,47.1,0,0,1,10.9,2.6c7.3,2.7,13.4,7.5,18.5,14.5s8.7,17.9,8.7,29.6C1154.7,707,1150.6,718.6,1142.5,727.2ZM1124.8,674c-3.9-5-9.8-7.6-17.6-7.6h-10.6v14.5h13.9v21.4h-13.9V719H1107c8,0,14-2.4,18-7.3s5.4-10.7,5.4-18.8S1128.5,678.6,1124.8,674Z" transform="translate(-3.4 0.5)"/>
    </g>
  </g>
</svg>
