<svg xmlns="http://www.w3.org/2000/svg" xmlns:xlink="http://www.w3.org/1999/xlink" width="419.25" viewBox="0 0 419.25 297.75" height="297.75" version="1.0"><defs><clipPath id="b"><path d="M 0 0.140625 L 418.5 0.140625 L 418.5 297.359375 L 0 297.359375 Z M 0 0.140625"/></clipPath><clipPath id="e"><path d="M 0 0.363281 L 13.894531 0.363281 L 13.894531 34.863281 L 0 34.863281 Z M 0 0.363281"/></clipPath><clipPath id="d"><path d="M0 0H14V35H0z"/></clipPath><clipPath id="h"><path d="M 0.414062 0.726562 L 12 0.726562 L 12 12.226562 L 0.414062 12.226562 Z M 0.414062 0.726562"/></clipPath><clipPath id="g"><path d="M0 0H13V13H0z"/></clipPath><clipPath id="k"><path d="M 0.585938 0.28125 L 12 0.28125 L 12 11.78125 L 0.585938 11.78125 Z M 0.585938 0.28125"/></clipPath><clipPath id="j"><path d="M0 0H13V12H0z"/></clipPath><clipPath id="l"><path d="M 399 89 L 418.5 89 L 418.5 124 L 399 124 Z M 399 89"/></clipPath><clipPath id="o"><path d="M 0.84375 0.261719 L 19.5 0.261719 L 19.5 34.761719 L 0.84375 34.761719 Z M 0.84375 0.261719"/></clipPath><clipPath id="n"><path d="M0 0H20V35H0z"/></clipPath><clipPath id="r"><path d="M 0.855469 0.261719 L 12.355469 0.261719 L 12.355469 11.761719 L 0.855469 11.761719 Z M 0.855469 0.261719"/></clipPath><clipPath id="q"><path d="M0 0H13V12H0z"/></clipPath><clipPath id="u"><path d="M 0.726562 0.707031 L 7.914062 0.707031 L 7.914062 7.894531 L 0.726562 7.894531 Z M 0.726562 0.707031"/></clipPath><clipPath id="t"><path d="M0 0H8V8H0z"/></clipPath><clipPath id="x"><path d="M 0.0351562 0.707031 L 7.222656 0.707031 L 7.222656 7.894531 L 0.0351562 7.894531 Z M 0.0351562 0.707031"/></clipPath><clipPath id="w"><path d="M0 0H8V8H0z"/></clipPath><clipPath id="y"><path d="M 0 0.140625 L 315.300781 0.140625 L 315.300781 85.234375 L 0 85.234375 Z M 0 0.140625"/></clipPath><clipPath id="z"><path d="M 208.402344 0.140625 L 418.5 0.140625 L 418.5 89.6875 L 208.402344 89.6875 Z M 208.402344 0.140625"/></clipPath><clipPath id="C"><path d="M 0.0742188 0.0273438 L 11.8125 0.0273438 L 11.8125 11.765625 L 0.0742188 11.765625 Z M 0.0742188 0.0273438"/></clipPath><clipPath id="B"><path d="M0 0H12V12H0z"/></clipPath><clipPath id="D"><path d="M 37 277 L 72 277 L 72 297.359375 L 37 297.359375 Z M 37 277"/></clipPath><clipPath id="G"><path d="M 0.375 0.0859375 L 34.871094 0.0859375 L 34.871094 20.359375 L 0.375 20.359375 Z M 0.375 0.0859375"/></clipPath><clipPath id="F"><path d="M0 0H35V21H0z"/></clipPath><clipPath id="H"><path d="M 345 273 L 380 273 L 380 297.359375 L 345 297.359375 Z M 345 273"/></clipPath><clipPath id="K"><path d="M 0.222656 0.253906 L 34.71875 0.253906 L 34.71875 24.359375 L 0.222656 24.359375 Z M 0.222656 0.253906"/></clipPath><clipPath id="J"><path d="M0 0H35V25H0z"/></clipPath><clipPath id="N"><path d="M 0.746094 0.0859375 L 12.242188 0.0859375 L 12.242188 11.585938 L 0.746094 11.585938 Z M 0.746094 0.0859375"/></clipPath><clipPath id="M"><path d="M0 0H13V12H0z"/></clipPath><clipPath id="Q"><path d="M 0.664062 0.273438 L 7.851562 0.273438 L 7.851562 7.460938 L 0.664062 7.460938 Z M 0.664062 0.273438"/></clipPath><clipPath id="P"><path d="M0 0H8V8H0z"/></clipPath><clipPath id="T"><path d="M 0.90625 0.253906 L 8 0.253906 L 8 7.441406 L 0.90625 7.441406 Z M 0.90625 0.253906"/></clipPath><clipPath id="S"><path d="M0 0H9V8H0z"/></clipPath><clipPath id="U"><path d="M 13.636719 0.140625 L 152.304688 0.140625 L 152.304688 115.128906 L 13.636719 115.128906 Z M 13.636719 0.140625"/></clipPath><clipPath id="V"><path d="M 313.957031 0.140625 L 418.5 0.140625 L 418.5 121.78125 L 313.957031 121.78125 Z M 313.957031 0.140625"/></clipPath><mask id="c"><g filter="url(#a)"><path fill-opacity=".298" d="M-41.925 -29.775H461.175V327.52500000000003H-41.925z"/></g></mask><mask id="f"><g filter="url(#a)"><path fill-opacity=".298" d="M-41.925 -29.775H461.175V327.52500000000003H-41.925z"/></g></mask><mask id="i"><g filter="url(#a)"><path fill-opacity=".298" d="M-41.925 -29.775H461.175V327.52500000000003H-41.925z"/></g></mask><mask id="m"><g filter="url(#a)"><path fill-opacity=".298" d="M-41.925 -29.775H461.175V327.52500000000003H-41.925z"/></g></mask><mask id="p"><g filter="url(#a)"><path fill-opacity=".298" d="M-41.925 -29.775H461.175V327.52500000000003H-41.925z"/></g></mask><mask id="s"><g filter="url(#a)"><path fill-opacity=".298" d="M-41.925 -29.775H461.175V327.52500000000003H-41.925z"/></g></mask><mask id="v"><g filter="url(#a)"><path fill-opacity=".298" d="M-41.925 -29.775H461.175V327.52500000000003H-41.925z"/></g></mask><mask id="A"><g filter="url(#a)"><path fill-opacity=".298" d="M-41.925 -29.775H461.175V327.52500000000003H-41.925z"/></g></mask><mask id="E"><g filter="url(#a)"><path fill-opacity=".298" d="M-41.925 -29.775H461.175V327.52500000000003H-41.925z"/></g></mask><mask id="I"><g filter="url(#a)"><path fill-opacity=".298" d="M-41.925 -29.775H461.175V327.52500000000003H-41.925z"/></g></mask><mask id="L"><g filter="url(#a)"><path fill-opacity=".298" d="M-41.925 -29.775H461.175V327.52500000000003H-41.925z"/></g></mask><mask id="O"><g filter="url(#a)"><path fill-opacity=".298" d="M-41.925 -29.775H461.175V327.52500000000003H-41.925z"/></g></mask><mask id="R"><g filter="url(#a)"><path fill-opacity=".298" d="M-41.925 -29.775H461.175V327.52500000000003H-41.925z"/></g></mask><filter x="0%" y="0%" width="100%" xmlns:xlink="http://www.w3.org/1999/xlink" xlink:type="simple" xlink:actuate="onLoad" height="100%" id="a" xlink:show="other"><feColorMatrix values="0 0 0 0 1 0 0 0 0 1 0 0 0 0 1 0 0 0 1 0" color-interpolation-filters="sRGB"/></filter></defs><g clip-path="url(#b)"><path fill="#FFF" d="M 0 0.140625 L 418.996094 0.140625 L 418.996094 297.710938 L 0 297.710938 Z M 0 0.140625"/><path fill="#24C3FD" d="M 0 0.140625 L 418.996094 0.140625 L 418.996094 297.710938 L 0 297.710938 Z M 0 0.140625"/></g><g mask="url(#c)"><g><g clip-path="url(#d)" transform="translate(0 121)"><g clip-path="url(#e)"><path fill="#FFF" d="M -3.292969 0.410156 C -3.855469 0.410156 -4.414062 0.4375 -4.976562 0.492188 C -5.535156 0.546875 -6.089844 0.628906 -6.640625 0.738281 C -7.191406 0.847656 -7.738281 0.984375 -8.273438 1.148438 C -8.8125 1.3125 -9.339844 1.5 -9.859375 1.714844 C -10.378906 1.929688 -10.886719 2.171875 -11.382812 2.4375 C -11.878906 2.703125 -12.359375 2.988281 -12.828125 3.300781 C -13.292969 3.613281 -13.746094 3.949219 -14.179688 4.304688 C -14.613281 4.660156 -15.03125 5.039062 -15.429688 5.4375 C -15.824219 5.832031 -16.203125 6.25 -16.558594 6.683594 C -16.914062 7.117188 -17.25 7.570312 -17.5625 8.039062 C -17.875 8.503906 -18.164062 8.984375 -18.429688 9.480469 C -18.695312 9.976562 -18.933594 10.484375 -19.148438 11.003906 C -19.363281 11.523438 -19.554688 12.050781 -19.714844 12.589844 C -19.878906 13.128906 -20.015625 13.671875 -20.125 14.222656 C -20.234375 14.773438 -20.316406 15.332031 -20.371094 15.890625 C -20.425781 16.449219 -20.453125 17.011719 -20.453125 17.570312 C -20.453125 18.132812 -20.425781 18.695312 -20.371094 19.253906 C -20.316406 19.8125 -20.234375 20.367188 -20.125 20.921875 C -20.015625 21.472656 -19.878906 22.015625 -19.714844 22.554688 C -19.554688 23.09375 -19.363281 23.621094 -19.148438 24.140625 C -18.933594 24.660156 -18.695312 25.167969 -18.429688 25.664062 C -18.164062 26.15625 -17.875 26.640625 -17.5625 27.105469 C -17.25 27.574219 -16.914062 28.023438 -16.558594 28.460938 C -16.203125 28.894531 -15.824219 29.308594 -15.429688 29.707031 C -15.03125 30.105469 -14.613281 30.480469 -14.179688 30.839844 C -13.746094 31.195312 -13.292969 31.53125 -12.828125 31.84375 C -12.359375 32.15625 -11.878906 32.441406 -11.382812 32.707031 C -10.886719 32.972656 -10.378906 33.214844 -9.859375 33.429688 C -9.339844 33.644531 -8.8125 33.832031 -8.273438 33.996094 C -7.738281 34.160156 -7.191406 34.296875 -6.640625 34.40625 C -6.089844 34.515625 -5.535156 34.597656 -4.976562 34.652344 C -4.414062 34.707031 -3.855469 34.734375 -3.292969 34.734375 C -2.730469 34.734375 -2.167969 34.707031 -1.609375 34.652344 C -1.050781 34.597656 -0.496094 34.515625 0.0546875 34.40625 C 0.605469 34.296875 1.152344 34.160156 1.6875 33.996094 C 2.226562 33.832031 2.757812 33.644531 3.273438 33.429688 C 3.792969 33.214844 4.300781 32.972656 4.796875 32.707031 C 5.292969 32.441406 5.773438 32.15625 6.242188 31.84375 C 6.710938 31.53125 7.160156 31.195312 7.59375 30.839844 C 8.03125 30.480469 8.445312 30.105469 8.84375 29.707031 C 9.242188 29.308594 9.617188 28.894531 9.972656 28.460938 C 10.332031 28.023438 10.664062 27.574219 10.976562 27.105469 C 11.289062 26.640625 11.578125 26.15625 11.84375 25.664062 C 12.109375 25.167969 12.347656 24.660156 12.5625 24.140625 C 12.777344 23.621094 12.96875 23.09375 13.128906 22.554688 C 13.292969 22.015625 13.429688 21.472656 13.539062 20.921875 C 13.648438 20.367188 13.730469 19.8125 13.789062 19.253906 C 13.84375 18.695312 13.871094 18.132812 13.871094 17.570312 C 13.871094 17.011719 13.84375 16.449219 13.789062 15.890625 C 13.730469 15.332031 13.648438 14.773438 13.539062 14.222656 C 13.429688 13.671875 13.292969 13.128906 13.128906 12.589844 C 12.96875 12.050781 12.777344 11.523438 12.5625 11.003906 C 12.347656 10.484375 12.109375 9.976562 11.84375 9.480469 C 11.578125 8.984375 11.289062 8.503906 10.976562 8.039062 C 10.664062 7.570312 10.332031 7.117188 9.972656 6.683594 C 9.617188 6.25 9.242188 5.832031 8.84375 5.4375 C 8.445312 5.039062 8.03125 4.660156 7.59375 4.304688 C 7.160156 3.949219 6.710938 3.613281 6.242188 3.300781 C 5.773438 2.988281 5.292969 2.703125 4.796875 2.4375 C 4.300781 2.171875 3.792969 1.929688 3.273438 1.714844 C 2.757812 1.5 2.226562 1.3125 1.6875 1.148438 C 1.152344 0.984375 0.605469 0.847656 0.0546875 0.738281 C -0.496094 0.628906 -1.050781 0.546875 -1.609375 0.492188 C -2.167969 0.4375 -2.730469 0.410156 -3.292969 0.410156 Z M -3.292969 0.410156"/></g></g></g></g><g mask="url(#f)"><g><g clip-path="url(#g)" transform="translate(13 164)"><g clip-path="url(#h)"><path fill="#FFF" d="M 6.285156 0.753906 C 5.914062 0.753906 5.546875 0.789062 5.183594 0.863281 C 4.820312 0.9375 4.464844 1.042969 4.125 1.183594 C 3.78125 1.328125 3.453125 1.5 3.148438 1.707031 C 2.839844 1.914062 2.554688 2.148438 2.289062 2.410156 C 2.027344 2.671875 1.792969 2.957031 1.589844 3.265625 C 1.382812 3.574219 1.207031 3.898438 1.066406 4.242188 C 0.925781 4.582031 0.816406 4.9375 0.746094 5.300781 C 0.671875 5.664062 0.636719 6.03125 0.636719 6.402344 C 0.636719 6.773438 0.671875 7.140625 0.746094 7.503906 C 0.816406 7.867188 0.925781 8.222656 1.066406 8.5625 C 1.207031 8.90625 1.382812 9.230469 1.589844 9.539062 C 1.792969 9.847656 2.027344 10.132812 2.289062 10.394531 C 2.554688 10.660156 2.839844 10.890625 3.148438 11.097656 C 3.453125 11.304688 3.78125 11.476562 4.125 11.621094 C 4.464844 11.761719 4.820312 11.871094 5.183594 11.941406 C 5.546875 12.015625 5.914062 12.050781 6.285156 12.050781 C 6.65625 12.050781 7.023438 12.015625 7.386719 11.941406 C 7.75 11.871094 8.101562 11.761719 8.445312 11.621094 C 8.789062 11.476562 9.113281 11.304688 9.421875 11.097656 C 9.730469 10.890625 10.015625 10.660156 10.277344 10.394531 C 10.539062 10.132812 10.773438 9.847656 10.980469 9.539062 C 11.1875 9.230469 11.359375 8.90625 11.503906 8.5625 C 11.644531 8.222656 11.75 7.867188 11.824219 7.503906 C 11.894531 7.140625 11.933594 6.773438 11.933594 6.402344 C 11.933594 6.03125 11.894531 5.664062 11.824219 5.300781 C 11.75 4.9375 11.644531 4.582031 11.503906 4.242188 C 11.359375 3.898438 11.1875 3.574219 10.980469 3.265625 C 10.773438 2.957031 10.539062 2.671875 10.277344 2.410156 C 10.015625 2.148438 9.730469 1.914062 9.421875 1.707031 C 9.113281 1.5 8.789062 1.328125 8.445312 1.183594 C 8.101562 1.042969 7.75 0.9375 7.386719 0.863281 C 7.023438 0.789062 6.65625 0.753906 6.285156 0.753906 Z M 6.285156 0.753906"/></g></g></g></g><g mask="url(#i)"><g><g clip-path="url(#j)" transform="translate(388 123)"><g clip-path="url(#k)"><path fill="#FFF" d="M 6.292969 0.410156 C 5.921875 0.410156 5.554688 0.445312 5.191406 0.515625 C 4.828125 0.589844 4.472656 0.695312 4.128906 0.839844 C 3.789062 0.980469 3.460938 1.15625 3.152344 1.359375 C 2.847656 1.566406 2.558594 1.800781 2.296875 2.0625 C 2.035156 2.324219 1.800781 2.609375 1.597656 2.917969 C 1.390625 3.226562 1.214844 3.550781 1.074219 3.894531 C 0.933594 4.238281 0.824219 4.589844 0.753906 4.953125 C 0.679688 5.316406 0.644531 5.683594 0.644531 6.054688 C 0.644531 6.425781 0.679688 6.792969 0.753906 7.15625 C 0.824219 7.523438 0.933594 7.875 1.074219 8.21875 C 1.214844 8.558594 1.390625 8.886719 1.597656 9.195312 C 1.800781 9.503906 2.035156 9.789062 2.296875 10.050781 C 2.558594 10.3125 2.847656 10.546875 3.152344 10.753906 C 3.460938 10.957031 3.789062 11.132812 4.128906 11.273438 C 4.472656 11.417969 4.828125 11.523438 5.191406 11.59375 C 5.554688 11.667969 5.921875 11.703125 6.292969 11.703125 C 6.664062 11.703125 7.03125 11.667969 7.394531 11.59375 C 7.757812 11.523438 8.109375 11.417969 8.453125 11.273438 C 8.796875 11.132812 9.121094 10.957031 9.429688 10.753906 C 9.738281 10.546875 10.023438 10.3125 10.285156 10.050781 C 10.546875 9.789062 10.78125 9.503906 10.988281 9.195312 C 11.195312 8.886719 11.367188 8.558594 11.507812 8.21875 C 11.652344 7.875 11.757812 7.523438 11.832031 7.15625 C 11.902344 6.792969 11.941406 6.425781 11.941406 6.054688 C 11.941406 5.683594 11.902344 5.316406 11.832031 4.953125 C 11.757812 4.589844 11.652344 4.238281 11.507812 3.894531 C 11.367188 3.550781 11.195312 3.226562 10.988281 2.917969 C 10.78125 2.609375 10.546875 2.324219 10.285156 2.0625 C 10.023438 1.800781 9.738281 1.566406 9.429688 1.359375 C 9.121094 1.15625 8.796875 0.980469 8.453125 0.839844 C 8.109375 0.695312 7.757812 0.589844 7.394531 0.515625 C 7.03125 0.445312 6.664062 0.410156 6.292969 0.410156 Z M 6.292969 0.410156"/></g></g></g></g><g clip-path="url(#l)"><g mask="url(#m)"><g><g clip-path="url(#n)" transform="translate(399 89)"><g clip-path="url(#o)"><path fill="#FFF" d="M 18.007812 0.316406 C 17.445312 0.316406 16.886719 0.34375 16.324219 0.398438 C 15.765625 0.453125 15.210938 0.535156 14.660156 0.648438 C 14.109375 0.757812 13.5625 0.894531 13.027344 1.054688 C 12.488281 1.21875 11.960938 1.410156 11.441406 1.625 C 10.921875 1.839844 10.414062 2.078125 9.917969 2.34375 C 9.421875 2.609375 8.941406 2.898438 8.472656 3.210938 C 8.003906 3.523438 7.554688 3.855469 7.121094 4.210938 C 6.6875 4.570312 6.269531 4.945312 5.871094 5.34375 C 5.476562 5.742188 5.097656 6.15625 4.742188 6.589844 C 4.382812 7.027344 4.050781 7.476562 3.738281 7.945312 C 3.425781 8.410156 3.136719 8.894531 2.871094 9.390625 C 2.605469 9.882812 2.367188 10.390625 2.152344 10.910156 C 1.9375 11.429688 1.746094 11.960938 1.585938 12.496094 C 1.421875 13.035156 1.285156 13.578125 1.175781 14.132812 C 1.066406 14.683594 0.984375 15.238281 0.929688 15.796875 C 0.875 16.355469 0.84375 16.917969 0.84375 17.480469 C 0.84375 18.042969 0.875 18.601562 0.929688 19.160156 C 0.984375 19.722656 1.066406 20.277344 1.175781 20.828125 C 1.285156 21.378906 1.421875 21.921875 1.585938 22.460938 C 1.746094 23 1.9375 23.527344 2.152344 24.046875 C 2.367188 24.566406 2.605469 25.074219 2.871094 25.570312 C 3.136719 26.066406 3.425781 26.546875 3.738281 27.015625 C 4.050781 27.480469 4.382812 27.933594 4.742188 28.367188 C 5.097656 28.800781 5.476562 29.21875 5.871094 29.613281 C 6.269531 30.011719 6.6875 30.390625 7.121094 30.746094 C 7.554688 31.101562 8.003906 31.4375 8.472656 31.75 C 8.941406 32.0625 9.421875 32.351562 9.917969 32.613281 C 10.414062 32.878906 10.921875 33.121094 11.441406 33.335938 C 11.960938 33.550781 12.488281 33.738281 13.027344 33.902344 C 13.5625 34.066406 14.109375 34.203125 14.660156 34.3125 C 15.210938 34.421875 15.765625 34.503906 16.324219 34.558594 C 16.886719 34.613281 17.445312 34.640625 18.007812 34.640625 C 18.570312 34.640625 19.128906 34.613281 19.691406 34.558594 C 20.25 34.503906 20.804688 34.421875 21.355469 34.3125 C 21.90625 34.203125 22.453125 34.066406 22.988281 33.902344 C 23.527344 33.738281 24.054688 33.550781 24.574219 33.335938 C 25.09375 33.121094 25.601562 32.878906 26.097656 32.613281 C 26.59375 32.351562 27.074219 32.0625 27.542969 31.75 C 28.011719 31.4375 28.460938 31.101562 28.894531 30.746094 C 29.332031 30.390625 29.746094 30.011719 30.144531 29.613281 C 30.542969 29.21875 30.917969 28.800781 31.273438 28.367188 C 31.632812 27.933594 31.964844 27.480469 32.277344 27.015625 C 32.589844 26.546875 32.878906 26.066406 33.144531 25.570312 C 33.410156 25.074219 33.648438 24.566406 33.863281 24.046875 C 34.078125 23.527344 34.269531 23 34.429688 22.460938 C 34.59375 21.921875 34.730469 21.378906 34.839844 20.828125 C 34.949219 20.277344 35.03125 19.722656 35.085938 19.160156 C 35.144531 18.601562 35.171875 18.042969 35.171875 17.480469 C 35.171875 16.917969 35.144531 16.355469 35.085938 15.796875 C 35.03125 15.238281 34.949219 14.683594 34.839844 14.132812 C 34.730469 13.578125 34.59375 13.035156 34.429688 12.496094 C 34.269531 11.960938 34.078125 11.429688 33.863281 10.910156 C 33.648438 10.390625 33.410156 9.882812 33.144531 9.390625 C 32.878906 8.894531 32.589844 8.410156 32.277344 7.945312 C 31.964844 7.476562 31.632812 7.027344 31.273438 6.589844 C 30.917969 6.15625 30.542969 5.742188 30.144531 5.34375 C 29.746094 4.945312 29.332031 4.570312 28.894531 4.210938 C 28.460938 3.855469 28.011719 3.523438 27.542969 3.210938 C 27.074219 2.898438 26.59375 2.609375 26.097656 2.34375 C 25.601562 2.078125 25.09375 1.839844 24.574219 1.625 C 24.054688 1.410156 23.527344 1.21875 22.988281 1.054688 C 22.453125 0.894531 21.90625 0.757812 21.355469 0.648438 C 20.804688 0.535156 20.25 0.453125 19.691406 0.398438 C 19.128906 0.34375 18.570312 0.316406 18.007812 0.316406 Z M 18.007812 0.316406"/></g></g></g></g></g><g mask="url(#p)"><g><g clip-path="url(#q)" transform="translate(192 89)"><g clip-path="url(#r)"><path fill="#FFF" d="M 6.507812 0.265625 C 6.136719 0.265625 5.769531 0.300781 5.40625 0.375 C 5.042969 0.445312 4.691406 0.554688 4.347656 0.695312 C 4.003906 0.839844 3.679688 1.011719 3.371094 1.21875 C 3.0625 1.425781 2.777344 1.65625 2.515625 1.921875 C 2.253906 2.183594 2.019531 2.46875 1.8125 2.777344 C 1.605469 3.085938 1.433594 3.410156 1.289062 3.753906 C 1.148438 4.09375 1.042969 4.449219 0.96875 4.8125 C 0.898438 5.175781 0.859375 5.542969 0.859375 5.914062 C 0.859375 6.285156 0.898438 6.652344 0.96875 7.015625 C 1.042969 7.378906 1.148438 7.734375 1.289062 8.074219 C 1.433594 8.417969 1.605469 8.742188 1.8125 9.050781 C 2.019531 9.359375 2.253906 9.644531 2.515625 9.90625 C 2.777344 10.167969 3.0625 10.402344 3.371094 10.609375 C 3.679688 10.816406 4.003906 10.988281 4.347656 11.132812 C 4.691406 11.273438 5.042969 11.378906 5.40625 11.453125 C 5.769531 11.527344 6.136719 11.5625 6.507812 11.5625 C 6.878906 11.5625 7.246094 11.527344 7.609375 11.453125 C 7.972656 11.378906 8.328125 11.273438 8.671875 11.132812 C 9.011719 10.988281 9.339844 10.816406 9.644531 10.609375 C 9.953125 10.402344 10.238281 10.167969 10.503906 9.90625 C 10.765625 9.644531 11 9.359375 11.203125 9.050781 C 11.410156 8.742188 11.585938 8.417969 11.726562 8.074219 C 11.867188 7.734375 11.976562 7.378906 12.046875 7.015625 C 12.121094 6.652344 12.15625 6.285156 12.15625 5.914062 C 12.15625 5.542969 12.121094 5.175781 12.046875 4.8125 C 11.976562 4.449219 11.867188 4.09375 11.726562 3.753906 C 11.585938 3.410156 11.410156 3.085938 11.203125 2.777344 C 11 2.46875 10.765625 2.183594 10.503906 1.921875 C 10.238281 1.65625 9.953125 1.425781 9.644531 1.21875 C 9.339844 1.011719 9.011719 0.839844 8.671875 0.695312 C 8.328125 0.554688 7.972656 0.445312 7.609375 0.375 C 7.246094 0.300781 6.878906 0.265625 6.507812 0.265625 Z M 6.507812 0.265625"/></g></g></g></g><g mask="url(#s)"><g><g clip-path="url(#t)" transform="translate(63 107)"><g clip-path="url(#u)"><path fill="#FFF" d="M 4.289062 0.773438 C 3.828125 0.773438 3.382812 0.863281 2.953125 1.039062 C 2.527344 1.214844 2.148438 1.46875 1.824219 1.796875 C 1.496094 2.121094 1.242188 2.5 1.066406 2.929688 C 0.886719 3.355469 0.800781 3.800781 0.800781 4.265625 C 0.800781 4.726562 0.886719 5.171875 1.066406 5.601562 C 1.242188 6.027344 1.496094 6.40625 1.824219 6.734375 C 2.148438 7.058594 2.527344 7.3125 2.953125 7.488281 C 3.382812 7.667969 3.828125 7.753906 4.289062 7.753906 C 4.753906 7.753906 5.199219 7.667969 5.625 7.488281 C 6.054688 7.3125 6.433594 7.058594 6.757812 6.734375 C 7.085938 6.40625 7.339844 6.027344 7.515625 5.601562 C 7.691406 5.171875 7.78125 4.726562 7.78125 4.265625 C 7.78125 3.800781 7.691406 3.355469 7.515625 2.929688 C 7.339844 2.5 7.085938 2.121094 6.757812 1.796875 C 6.433594 1.46875 6.054688 1.214844 5.625 1.039062 C 5.199219 0.863281 4.753906 0.773438 4.289062 0.773438 Z M 4.289062 0.773438"/></g></g></g></g><g mask="url(#v)"><g><g clip-path="url(#w)" transform="translate(315 107)"><g clip-path="url(#x)"><path fill="#FFF" d="M 3.59375 0.773438 C 3.132812 0.773438 2.6875 0.863281 2.257812 1.039062 C 1.832031 1.214844 1.453125 1.46875 1.125 1.796875 C 0.796875 2.121094 0.546875 2.5 0.371094 2.929688 C 0.191406 3.355469 0.105469 3.800781 0.105469 4.265625 C 0.105469 4.726562 0.191406 5.171875 0.371094 5.601562 C 0.546875 6.027344 0.796875 6.40625 1.125 6.734375 C 1.453125 7.058594 1.832031 7.3125 2.257812 7.488281 C 2.6875 7.667969 3.132812 7.753906 3.59375 7.753906 C 4.058594 7.753906 4.503906 7.667969 4.929688 7.488281 C 5.359375 7.3125 5.734375 7.058594 6.0625 6.734375 C 6.390625 6.40625 6.644531 6.027344 6.820312 5.601562 C 6.996094 5.171875 7.085938 4.726562 7.085938 4.265625 C 7.085938 3.800781 6.996094 3.355469 6.820312 2.929688 C 6.644531 2.5 6.390625 2.121094 6.0625 1.796875 C 5.734375 1.46875 5.359375 1.214844 4.929688 1.039062 C 4.503906 0.863281 4.058594 0.773438 3.59375 0.773438 Z M 3.59375 0.773438"/></g></g></g></g><g clip-path="url(#y)"><path fill="#FFF" d="M 138.710938 85.152344 C 134.78125 85.152344 130.851562 85.152344 126.921875 85.152344 C 117.523438 82.808594 107.734375 81.457031 98.820312 77.902344 C 85.378906 72.539062 74.824219 63.035156 67.445312 49.933594 C 51.195312 56.734375 34.773438 59.121094 17.699219 55.976562 C -10.9375 50.703125 -32.066406 32.164062 -37.449219 6.992188 C -40.089844 -5.359375 -37.851562 -17.285156 -32.433594 -28.523438 C -60.511719 -44.269531 -64.898438 -49.652344 -73.480469 -78.660156 C -73.480469 -82.59375 -73.480469 -86.53125 -73.480469 -90.464844 C -73.144531 -90.789062 -72.566406 -91.070312 -72.5 -91.441406 C -67.675781 -118.835938 -49.785156 -133.910156 -24.5 -141.105469 C -15.011719 -143.808594 -4.835938 -144.085938 4.992188 -145.464844 C 12.171875 -173.074219 31.046875 -188.574219 58.3125 -194.4375 C 85.464844 -200.277344 109.722656 -193.769531 130.429688 -174.972656 C 147.242188 -187.261719 165.699219 -192.796875 185.980469 -191.011719 C 212.277344 -188.699219 233.726562 -177.828125 245.421875 -152.984375 C 249.15625 -145.046875 249.976562 -135.730469 252.214844 -126.707031 C 279.246094 -122.316406 295.171875 -113.472656 306.765625 -94.207031 C 310.917969 -87.308594 312.683594 -78.964844 315.535156 -71.28125 C 315.535156 -67.839844 315.535156 -64.394531 315.535156 -60.953125 C 312.730469 -45.347656 305.65625 -32.082031 293.515625 -22.070312 C 314.429688 12.789062 296.265625 47.792969 265.816406 61.585938 C 242.363281 72.207031 218.863281 71.921875 195.695312 60.710938 C 191.6875 58.769531 189.472656 59.40625 186.246094 62.246094 C 180.441406 67.355469 174.484375 72.882812 167.589844 76.023438 C 158.46875 80.179688 148.378906 82.207031 138.710938 85.152344 Z M 138.710938 85.152344"/></g><g clip-path="url(#z)"><path fill="#FFF" d="M 420.082031 89.605469 C 416.148438 89.605469 412.222656 89.605469 408.292969 89.605469 C 398.894531 87.261719 389.105469 85.910156 380.191406 82.355469 C 366.75 76.992188 356.195312 67.492188 348.816406 54.386719 C 332.566406 61.1875 316.144531 63.574219 299.070312 60.433594 C 270.429688 55.15625 249.304688 36.621094 243.921875 11.445312 C 241.28125 -0.902344 243.519531 -12.832031 248.9375 -24.070312 C 220.859375 -39.8125 216.472656 -45.195312 207.890625 -74.203125 C 207.890625 -78.140625 207.890625 -82.078125 207.890625 -86.011719 C 208.226562 -86.335938 208.804688 -86.617188 208.867188 -86.988281 C 213.691406 -114.382812 231.582031 -129.457031 256.867188 -136.652344 C 266.355469 -139.355469 276.535156 -139.632812 286.363281 -141.011719 C 293.542969 -168.621094 312.417969 -184.121094 339.679688 -189.984375 C 366.835938 -195.824219 391.09375 -189.316406 411.800781 -170.519531 C 428.613281 -182.808594 447.070312 -188.339844 467.351562 -186.558594 C 493.648438 -184.246094 515.097656 -173.371094 526.792969 -148.527344 C 530.527344 -140.59375 531.347656 -131.277344 533.585938 -122.253906 C 560.617188 -117.863281 576.539062 -109.019531 588.136719 -89.753906 C 592.289062 -82.851562 594.050781 -74.511719 596.90625 -66.828125 C 596.90625 -63.382812 596.90625 -59.941406 596.90625 -56.496094 C 594.097656 -40.894531 587.027344 -27.625 574.886719 -17.617188 C 595.800781 17.242188 577.632812 52.246094 547.1875 66.039062 C 523.734375 76.660156 500.234375 76.375 477.066406 65.164062 C 473.058594 63.222656 470.84375 63.859375 467.617188 66.699219 C 461.808594 71.808594 455.855469 77.335938 448.957031 80.476562 C 439.839844 84.632812 429.75 86.660156 420.082031 89.605469 Z M 420.082031 89.605469"/></g><g mask="url(#A)"><g><g clip-path="url(#B)" transform="translate(383 221)"><g clip-path="url(#C)"><path fill="#FFF" d="M 5.933594 0.25 C 5.5625 0.25 5.195312 0.285156 4.832031 0.359375 C 4.46875 0.429688 4.117188 0.539062 3.773438 0.679688 C 3.429688 0.820312 3.105469 0.996094 2.796875 1.199219 C 2.488281 1.40625 2.203125 1.640625 1.941406 1.902344 C 1.679688 2.164062 1.445312 2.449219 1.238281 2.757812 C 1.03125 3.066406 0.859375 3.394531 0.714844 3.734375 C 0.574219 4.078125 0.46875 4.429688 0.394531 4.796875 C 0.324219 5.160156 0.285156 5.527344 0.285156 5.898438 C 0.285156 6.269531 0.324219 6.636719 0.394531 7 C 0.46875 7.363281 0.574219 7.714844 0.714844 8.058594 C 0.859375 8.402344 1.03125 8.726562 1.238281 9.035156 C 1.445312 9.34375 1.679688 9.628906 1.941406 9.890625 C 2.203125 10.152344 2.488281 10.386719 2.796875 10.59375 C 3.105469 10.800781 3.429688 10.972656 3.773438 11.113281 C 4.117188 11.257812 4.46875 11.363281 4.832031 11.4375 C 5.195312 11.507812 5.5625 11.542969 5.933594 11.542969 C 6.304688 11.542969 6.671875 11.507812 7.035156 11.4375 C 7.398438 11.363281 7.753906 11.257812 8.097656 11.113281 C 8.4375 10.972656 8.765625 10.800781 9.074219 10.59375 C 9.378906 10.386719 9.664062 10.152344 9.929688 9.890625 C 10.191406 9.628906 10.425781 9.34375 10.628906 9.035156 C 10.835938 8.726562 11.011719 8.402344 11.152344 8.058594 C 11.292969 7.714844 11.402344 7.363281 11.472656 7 C 11.546875 6.636719 11.582031 6.269531 11.582031 5.898438 C 11.582031 5.527344 11.546875 5.160156 11.472656 4.796875 C 11.402344 4.429688 11.292969 4.078125 11.152344 3.734375 C 11.011719 3.394531 10.835938 3.066406 10.628906 2.757812 C 10.425781 2.449219 10.191406 2.164062 9.929688 1.902344 C 9.664062 1.640625 9.378906 1.40625 9.074219 1.199219 C 8.765625 0.996094 8.4375 0.820312 8.097656 0.679688 C 7.753906 0.539062 7.398438 0.429688 7.035156 0.359375 C 6.671875 0.285156 6.304688 0.25 5.933594 0.25 Z M 5.933594 0.25"/></g></g></g></g><g clip-path="url(#D)"><g mask="url(#E)"><g><g clip-path="url(#F)" transform="translate(37 277)"><g clip-path="url(#G)"><path fill="#FFF" d="M 17.664062 0.257812 C 17.101562 0.257812 16.539062 0.285156 15.980469 0.339844 C 15.421875 0.394531 14.867188 0.476562 14.316406 0.585938 C 13.761719 0.695312 13.21875 0.832031 12.679688 0.996094 C 12.144531 1.160156 11.613281 1.347656 11.09375 1.5625 C 10.574219 1.777344 10.070312 2.019531 9.574219 2.285156 C 9.078125 2.546875 8.59375 2.835938 8.128906 3.148438 C 7.660156 3.460938 7.210938 3.796875 6.777344 4.152344 C 6.339844 4.507812 5.925781 4.886719 5.527344 5.285156 C 5.128906 5.679688 4.753906 6.097656 4.394531 6.53125 C 4.039062 6.964844 3.707031 7.417969 3.394531 7.882812 C 3.082031 8.351562 2.792969 8.832031 2.527344 9.328125 C 2.261719 9.824219 2.023438 10.332031 1.808594 10.851562 C 1.59375 11.371094 1.402344 11.898438 1.238281 12.4375 C 1.078125 12.976562 0.941406 13.519531 0.832031 14.070312 C 0.722656 14.621094 0.636719 15.179688 0.582031 15.738281 C 0.527344 16.296875 0.5 16.855469 0.5 17.417969 C 0.5 17.980469 0.527344 18.542969 0.582031 19.101562 C 0.636719 19.660156 0.722656 20.214844 0.832031 20.769531 C 0.941406 21.320312 1.078125 21.863281 1.238281 22.402344 C 1.402344 22.9375 1.59375 23.46875 1.808594 23.988281 C 2.023438 24.507812 2.261719 25.015625 2.527344 25.507812 C 2.792969 26.003906 3.082031 26.488281 3.394531 26.953125 C 3.707031 27.421875 4.039062 27.871094 4.394531 28.308594 C 4.753906 28.742188 5.128906 29.15625 5.527344 29.554688 C 5.925781 29.953125 6.339844 30.328125 6.777344 30.6875 C 7.210938 31.042969 7.660156 31.378906 8.128906 31.6875 C 8.59375 32 9.078125 32.289062 9.574219 32.554688 C 10.070312 32.820312 10.574219 33.058594 11.09375 33.273438 C 11.613281 33.492188 12.144531 33.679688 12.679688 33.84375 C 13.21875 34.007812 13.761719 34.140625 14.316406 34.253906 C 14.867188 34.363281 15.421875 34.445312 15.980469 34.5 C 16.539062 34.554688 17.101562 34.582031 17.664062 34.582031 C 18.226562 34.582031 18.785156 34.554688 19.34375 34.5 C 19.90625 34.445312 20.460938 34.363281 21.011719 34.253906 C 21.5625 34.140625 22.105469 34.007812 22.644531 33.84375 C 23.183594 33.679688 23.710938 33.492188 24.230469 33.273438 C 24.75 33.058594 25.257812 32.820312 25.753906 32.554688 C 26.25 32.289062 26.730469 32 27.199219 31.6875 C 27.664062 31.378906 28.117188 31.042969 28.550781 30.6875 C 28.984375 30.328125 29.402344 29.953125 29.796875 29.554688 C 30.195312 29.15625 30.574219 28.742188 30.929688 28.308594 C 31.285156 27.871094 31.621094 27.421875 31.933594 26.953125 C 32.246094 26.488281 32.535156 26.003906 32.800781 25.507812 C 33.0625 25.015625 33.304688 24.507812 33.519531 23.988281 C 33.734375 23.46875 33.921875 22.9375 34.085938 22.402344 C 34.25 21.863281 34.386719 21.320312 34.496094 20.769531 C 34.605469 20.214844 34.6875 19.660156 34.742188 19.101562 C 34.796875 18.542969 34.824219 17.980469 34.824219 17.417969 C 34.824219 16.855469 34.796875 16.296875 34.742188 15.738281 C 34.6875 15.179688 34.605469 14.621094 34.496094 14.070312 C 34.386719 13.519531 34.25 12.976562 34.085938 12.4375 C 33.921875 11.898438 33.734375 11.371094 33.519531 10.851562 C 33.304688 10.332031 33.0625 9.824219 32.800781 9.328125 C 32.535156 8.832031 32.246094 8.351562 31.933594 7.882812 C 31.621094 7.417969 31.285156 6.964844 30.929688 6.53125 C 30.574219 6.097656 30.195312 5.679688 29.796875 5.285156 C 29.402344 4.886719 28.984375 4.507812 28.550781 4.152344 C 28.117188 3.796875 27.664062 3.460938 27.199219 3.148438 C 26.730469 2.835938 26.25 2.546875 25.753906 2.285156 C 25.257812 2.019531 24.75 1.777344 24.230469 1.5625 C 23.710938 1.347656 23.183594 1.160156 22.644531 0.996094 C 22.105469 0.832031 21.5625 0.695312 21.011719 0.585938 C 20.460938 0.476562 19.90625 0.394531 19.34375 0.339844 C 18.785156 0.285156 18.226562 0.257812 17.664062 0.257812 Z M 17.664062 0.257812"/></g></g></g></g></g><g clip-path="url(#H)"><g mask="url(#I)"><g><g clip-path="url(#J)" transform="translate(345 273)"><g clip-path="url(#K)"><path fill="#FFF" d="M 17.460938 0.359375 C 16.898438 0.359375 16.339844 0.386719 15.777344 0.445312 C 15.21875 0.5 14.664062 0.582031 14.113281 0.691406 C 13.5625 0.800781 13.015625 0.9375 12.480469 1.101562 C 11.941406 1.261719 11.414062 1.453125 10.894531 1.667969 C 10.375 1.882812 9.867188 2.121094 9.371094 2.386719 C 8.875 2.652344 8.394531 2.941406 7.925781 3.253906 C 7.460938 3.566406 7.007812 3.898438 6.574219 4.257812 C 6.140625 4.613281 5.722656 4.988281 5.324219 5.386719 C 4.929688 5.785156 4.550781 6.199219 4.195312 6.636719 C 3.839844 7.070312 3.503906 7.519531 3.191406 7.988281 C 2.878906 8.457031 2.589844 8.9375 2.324219 9.433594 C 2.0625 9.929688 1.820312 10.4375 1.605469 10.957031 C 1.390625 11.476562 1.203125 12.003906 1.039062 12.542969 C 0.875 13.078125 0.738281 13.625 0.628906 14.175781 C 0.519531 14.726562 0.4375 15.28125 0.382812 15.839844 C 0.328125 16.398438 0.300781 16.960938 0.300781 17.523438 C 0.300781 18.085938 0.328125 18.644531 0.382812 19.207031 C 0.4375 19.765625 0.519531 20.320312 0.628906 20.871094 C 0.738281 21.421875 0.875 21.96875 1.039062 22.503906 C 1.203125 23.042969 1.390625 23.570312 1.605469 24.089844 C 1.820312 24.609375 2.0625 25.117188 2.324219 25.613281 C 2.589844 26.109375 2.878906 26.589844 3.191406 27.058594 C 3.503906 27.527344 3.839844 27.976562 4.195312 28.410156 C 4.550781 28.84375 4.929688 29.261719 5.324219 29.660156 C 5.722656 30.054688 6.140625 30.433594 6.574219 30.789062 C 7.007812 31.144531 7.460938 31.480469 7.925781 31.792969 C 8.394531 32.105469 8.875 32.394531 9.371094 32.660156 C 9.867188 32.925781 10.375 33.164062 10.894531 33.378906 C 11.414062 33.59375 11.941406 33.785156 12.480469 33.945312 C 13.015625 34.109375 13.5625 34.246094 14.113281 34.355469 C 14.664062 34.464844 15.21875 34.546875 15.777344 34.601562 C 16.339844 34.65625 16.898438 34.6875 17.460938 34.6875 C 18.023438 34.6875 18.585938 34.65625 19.144531 34.601562 C 19.703125 34.546875 20.257812 34.464844 20.808594 34.355469 C 21.359375 34.246094 21.90625 34.109375 22.445312 33.945312 C 22.980469 33.785156 23.511719 33.59375 24.027344 33.378906 C 24.546875 33.164062 25.054688 32.925781 25.550781 32.660156 C 26.046875 32.394531 26.527344 32.105469 26.996094 31.792969 C 27.464844 31.480469 27.914062 31.144531 28.347656 30.789062 C 28.785156 30.433594 29.199219 30.054688 29.597656 29.660156 C 29.996094 29.261719 30.371094 28.84375 30.726562 28.410156 C 31.085938 27.976562 31.417969 27.527344 31.730469 27.058594 C 32.042969 26.589844 32.332031 26.109375 32.597656 25.613281 C 32.863281 25.117188 33.101562 24.609375 33.316406 24.089844 C 33.53125 23.570312 33.722656 23.042969 33.886719 22.503906 C 34.046875 21.96875 34.183594 21.421875 34.292969 20.871094 C 34.402344 20.320312 34.484375 19.765625 34.542969 19.207031 C 34.597656 18.644531 34.625 18.085938 34.625 17.523438 C 34.625 16.960938 34.597656 16.398438 34.542969 15.839844 C 34.484375 15.28125 34.402344 14.726562 34.292969 14.175781 C 34.183594 13.625 34.046875 13.078125 33.886719 12.542969 C 33.722656 12.003906 33.53125 11.476562 33.316406 10.957031 C 33.101562 10.4375 32.863281 9.929688 32.597656 9.433594 C 32.332031 8.9375 32.042969 8.457031 31.730469 7.988281 C 31.417969 7.519531 31.085938 7.070312 30.726562 6.636719 C 30.371094 6.199219 29.996094 5.785156 29.597656 5.386719 C 29.199219 4.988281 28.785156 4.613281 28.347656 4.257812 C 27.914062 3.898438 27.464844 3.566406 26.996094 3.253906 C 26.527344 2.941406 26.046875 2.652344 25.550781 2.386719 C 25.054688 2.121094 24.546875 1.882812 24.027344 1.667969 C 23.511719 1.453125 22.980469 1.261719 22.445312 1.101562 C 21.90625 0.9375 21.359375 0.800781 20.808594 0.691406 C 20.257812 0.582031 19.703125 0.5 19.144531 0.445312 C 18.585938 0.386719 18.023438 0.359375 17.460938 0.359375 Z M 17.460938 0.359375"/></g></g></g></g></g><g mask="url(#L)"><g><g clip-path="url(#M)" transform="translate(321 277)"><g clip-path="url(#N)"><path fill="#FFF" d="M 6.570312 0.257812 C 6.199219 0.257812 5.832031 0.292969 5.46875 0.367188 C 5.105469 0.4375 4.75 0.546875 4.410156 0.6875 C 4.066406 0.828125 3.742188 1.003906 3.433594 1.207031 C 3.125 1.414062 2.839844 1.648438 2.574219 1.910156 C 2.3125 2.171875 2.078125 2.457031 1.875 2.765625 C 1.667969 3.074219 1.492188 3.402344 1.351562 3.742188 C 1.210938 4.085938 1.101562 4.4375 1.03125 4.804688 C 0.957031 5.167969 0.921875 5.535156 0.921875 5.90625 C 0.921875 6.277344 0.957031 6.644531 1.03125 7.007812 C 1.101562 7.371094 1.210938 7.722656 1.351562 8.066406 C 1.492188 8.410156 1.667969 8.734375 1.875 9.042969 C 2.078125 9.351562 2.3125 9.636719 2.574219 9.898438 C 2.839844 10.160156 3.125 10.394531 3.433594 10.601562 C 3.742188 10.808594 4.066406 10.980469 4.410156 11.121094 C 4.75 11.265625 5.105469 11.371094 5.46875 11.445312 C 5.832031 11.515625 6.199219 11.550781 6.570312 11.550781 C 6.941406 11.550781 7.308594 11.515625 7.671875 11.445312 C 8.035156 11.371094 8.386719 11.265625 8.730469 11.121094 C 9.074219 10.980469 9.398438 10.808594 9.707031 10.601562 C 10.015625 10.394531 10.300781 10.160156 10.5625 9.898438 C 10.824219 9.636719 11.058594 9.351562 11.265625 9.042969 C 11.472656 8.734375 11.644531 8.410156 11.789062 8.066406 C 11.929688 7.722656 12.035156 7.371094 12.109375 7.007812 C 12.179688 6.644531 12.21875 6.277344 12.21875 5.90625 C 12.21875 5.535156 12.179688 5.167969 12.109375 4.804688 C 12.035156 4.4375 11.929688 4.085938 11.789062 3.742188 C 11.644531 3.402344 11.472656 3.074219 11.265625 2.765625 C 11.058594 2.457031 10.824219 2.171875 10.5625 1.910156 C 10.300781 1.648438 10.015625 1.414062 9.707031 1.207031 C 9.398438 1.003906 9.074219 0.828125 8.730469 0.6875 C 8.386719 0.546875 8.035156 0.4375 7.671875 0.367188 C 7.308594 0.292969 6.941406 0.257812 6.570312 0.257812 Z M 6.570312 0.257812"/></g></g></g></g><g mask="url(#O)"><g><g clip-path="url(#P)" transform="translate(30 238)"><g clip-path="url(#Q)"><path fill="#FFF" d="M 4.171875 0.296875 C 3.710938 0.296875 3.265625 0.382812 2.835938 0.5625 C 2.410156 0.738281 2.03125 0.992188 1.703125 1.316406 C 1.378906 1.644531 1.125 2.023438 0.949219 2.449219 C 0.769531 2.878906 0.683594 3.324219 0.683594 3.785156 C 0.683594 4.25 0.769531 4.695312 0.949219 5.121094 C 1.125 5.550781 1.378906 5.925781 1.703125 6.253906 C 2.03125 6.582031 2.410156 6.835938 2.835938 7.011719 C 3.265625 7.1875 3.710938 7.277344 4.171875 7.277344 C 4.636719 7.277344 5.082031 7.1875 5.507812 7.011719 C 5.9375 6.835938 6.316406 6.582031 6.640625 6.253906 C 6.96875 5.925781 7.222656 5.550781 7.398438 5.121094 C 7.574219 4.695312 7.664062 4.25 7.664062 3.785156 C 7.664062 3.324219 7.574219 2.878906 7.398438 2.449219 C 7.222656 2.023438 6.96875 1.644531 6.640625 1.316406 C 6.316406 0.992188 5.9375 0.738281 5.507812 0.5625 C 5.082031 0.382812 4.636719 0.296875 4.171875 0.296875 Z M 4.171875 0.296875"/></g></g></g></g><g mask="url(#R)"><g><g clip-path="url(#S)" transform="translate(185 273)"><g clip-path="url(#T)"><path fill="#FFF" d="M 4.417969 0.359375 C 3.953125 0.359375 3.507812 0.449219 3.082031 0.625 C 2.652344 0.804688 2.277344 1.054688 1.949219 1.382812 C 1.621094 1.710938 1.367188 2.089844 1.191406 2.515625 C 1.015625 2.945312 0.925781 3.390625 0.925781 3.851562 C 0.925781 4.316406 1.015625 4.761719 1.191406 5.1875 C 1.367188 5.617188 1.621094 5.992188 1.949219 6.320312 C 2.277344 6.648438 2.652344 6.898438 3.082031 7.078125 C 3.507812 7.253906 3.953125 7.34375 4.417969 7.34375 C 4.878906 7.34375 5.324219 7.253906 5.753906 7.078125 C 6.179688 6.898438 6.558594 6.648438 6.886719 6.320312 C 7.210938 5.992188 7.464844 5.617188 7.640625 5.1875 C 7.820312 4.761719 7.90625 4.316406 7.90625 3.851562 C 7.90625 3.390625 7.820312 2.945312 7.640625 2.515625 C 7.464844 2.089844 7.210938 1.710938 6.886719 1.382812 C 6.558594 1.054688 6.179688 0.804688 5.753906 0.625 C 5.324219 0.449219 4.878906 0.359375 4.417969 0.359375 Z M 4.417969 0.359375"/></g></g></g></g><g clip-path="url(#U)"><path fill="#FFF" d="M 225.316406 115.042969 C 221.382812 115.042969 217.457031 115.042969 213.527344 115.042969 C 204.128906 112.703125 194.339844 111.347656 185.425781 107.792969 C 171.984375 102.433594 161.429688 92.929688 154.046875 79.824219 C 137.800781 86.628906 121.378906 89.011719 104.300781 85.871094 C 75.664062 80.59375 54.535156 62.058594 49.15625 36.882812 C 46.511719 24.535156 48.753906 12.609375 54.171875 1.371094 C 26.089844 -14.375 21.707031 -19.757812 13.125 -48.765625 C 13.125 -52.703125 13.125 -56.636719 13.125 -60.574219 C 13.460938 -60.898438 14.035156 -61.179688 14.101562 -61.550781 C 18.925781 -88.945312 36.816406 -104.019531 62.101562 -111.214844 C 71.589844 -113.914062 81.765625 -114.195312 91.59375 -115.574219 C 98.777344 -143.183594 117.648438 -158.683594 144.914062 -164.546875 C 172.070312 -170.386719 196.328125 -163.878906 217.035156 -145.082031 C 233.847656 -157.371094 252.304688 -162.902344 272.585938 -161.121094 C 298.882812 -158.808594 320.332031 -147.933594 332.027344 -123.089844 C 335.761719 -115.152344 336.578125 -105.839844 338.820312 -96.816406 C 365.847656 -92.425781 381.773438 -83.582031 393.367188 -64.316406 C 397.519531 -57.414062 399.285156 -49.074219 402.136719 -41.390625 C 402.136719 -37.945312 402.136719 -34.503906 402.136719 -31.058594 C 399.332031 -15.457031 392.261719 -2.1875 380.117188 7.820312 C 401.03125 42.683594 382.867188 77.683594 352.421875 91.476562 C 328.96875 102.101562 305.46875 101.8125 282.300781 90.605469 C 278.292969 88.660156 276.078125 89.296875 272.851562 92.136719 C 267.042969 97.246094 261.089844 102.773438 254.191406 105.914062 C 245.070312 110.070312 234.984375 112.097656 225.316406 115.042969 Z M 225.316406 115.042969"/></g><g clip-path="url(#V)"><path fill="#FFF" d="M 525.632812 121.699219 C 521.703125 121.699219 517.777344 121.699219 513.84375 121.699219 C 504.445312 119.355469 494.65625 118.003906 485.742188 114.449219 C 472.300781 109.085938 461.746094 99.582031 454.367188 86.480469 C 438.117188 93.28125 421.695312 95.667969 404.621094 92.523438 C 375.984375 87.25 354.855469 68.710938 349.472656 43.539062 C 346.832031 31.1875 349.074219 19.261719 354.488281 8.023438 C 326.410156 -7.722656 322.027344 -13.105469 313.441406 -42.113281 C 313.441406 -46.046875 313.441406 -49.984375 313.441406 -53.917969 C 313.78125 -54.242188 314.355469 -54.523438 314.421875 -54.894531 C 319.246094 -82.289062 337.136719 -97.363281 362.421875 -104.558594 C 371.910156 -107.261719 382.085938 -107.539062 391.914062 -108.917969 C 399.097656 -136.53125 417.96875 -152.027344 445.234375 -157.890625 C 472.386719 -163.730469 496.644531 -157.226562 517.355469 -138.425781 C 534.167969 -150.714844 552.625 -156.25 572.902344 -154.464844 C 599.203125 -152.152344 620.652344 -141.28125 632.34375 -116.4375 C 636.082031 -108.5 636.898438 -99.183594 639.136719 -90.160156 C 666.167969 -85.769531 682.09375 -76.925781 693.6875 -57.664062 C 697.839844 -50.761719 699.605469 -42.417969 702.457031 -34.734375 C 702.457031 -31.292969 702.457031 -27.847656 702.457031 -24.40625 C 699.652344 -8.800781 692.578125 4.464844 680.4375 14.476562 C 701.351562 49.335938 683.1875 84.339844 652.742188 98.128906 C 629.285156 108.753906 605.789062 108.46875 582.621094 97.257812 C 578.609375 95.316406 576.394531 95.953125 573.167969 98.792969 C 567.363281 103.902344 561.40625 109.429688 554.511719 112.570312 C 545.390625 116.722656 535.304688 118.753906 525.632812 121.699219 Z M 525.632812 121.699219"/></g></svg>