<svg width="50" height="50" viewBox="0 0 50 50" fill="none" xmlns="http://www.w3.org/2000/svg">
<path d="M24.975 0C11.175 0 0 11.2 0 25C0 38.8 11.175 50 24.975 50C38.8 50 50 38.8 50 25C50 11.2 38.8 0 24.975 0ZM25 45C13.95 45 5 36.05 5 25C5 13.95 13.95 5 25 5C36.05 5 45 13.95 45 25C45 36.05 36.05 45 25 45ZM24.45 12.5H24.3C23.3 12.5 22.5 13.3 22.5 14.3V26.1C22.5 26.975 22.95 27.8 23.725 28.25L34.1 34.475C34.95 34.975 36.05 34.725 36.55 33.875C36.6755 33.6726 36.759 33.4469 36.7956 33.2116C36.8321 32.9762 36.8208 32.7359 36.7625 32.5049C36.7042 32.274 36.6 32.0571 36.4561 31.8673C36.3122 31.6775 36.1316 31.5186 35.925 31.4L26.25 25.65V14.3C26.25 13.3 25.45 12.5 24.45 12.5Z" fill="white"/>
</svg>
