<svg width="40" height="40" viewBox="0 0 40 40" fill="none" xmlns="http://www.w3.org/2000/svg">
<path d="M26.6655 28.4277L30.1095 24.982C30.5733 24.5236 31.1602 24.2099 31.7989 24.0788C32.4375 23.9477 33.1005 24.005 33.7072 24.2436L37.9046 25.9203C38.5178 26.1693 39.0436 26.5944 39.4157 27.1419C39.7878 27.6894 39.9896 28.3348 39.9956 28.9969V36.6884C39.9921 37.1388 39.8974 37.5837 39.7175 37.9966C39.5375 38.4094 39.2758 38.7815 38.9483 39.0905C38.6208 39.3995 38.2342 39.639 37.8117 39.7946C37.3893 39.9501 36.9397 40.0185 36.4901 39.9957C7.07763 38.1651 1.14286 13.2448 0.0204757 3.70735C-0.0316259 3.239 0.0159779 2.76491 0.160155 2.31629C0.304333 1.86766 0.541816 1.45466 0.856982 1.10446C1.17215 0.754257 1.55785 0.474788 1.98873 0.284438C2.4196 0.0940877 2.88587 -0.00282917 3.35686 6.28686e-05H10.783C11.4457 0.0020254 12.0926 0.202298 12.6406 0.575122C13.1886 0.947946 13.6126 1.47627 13.858 2.09214L15.5339 6.29169C15.7803 6.89634 15.8432 7.56023 15.7146 8.20042C15.5861 8.84061 15.2719 9.42872 14.8113 9.89129L11.3673 13.3371C11.3673 13.3371 13.3507 26.7664 26.6655 28.4277Z" fill="white"/>
</svg>
