<svg width="60" height="60" viewBox="0 0 60 60" fill="none" xmlns="http://www.w3.org/2000/svg">
<rect x="2.5" y="2.5" width="55" height="55" rx="12.5" stroke="white" stroke-width="5"/>
<path d="M31.2554 26.8312V26.1365H33.332V35.895H32.145C31.91 35.8954 31.6844 35.8026 31.5177 35.6368C31.3509 35.471 31.2566 35.2458 31.2554 35.0106V35.0121C30.3886 35.6474 29.3419 35.9892 28.2677 35.9877C26.9255 35.9877 25.6382 35.454 24.6888 34.504C23.7394 33.5541 23.2057 32.2655 23.2048 30.9216C23.2057 29.5778 23.7394 28.2892 24.6888 27.3392C25.6382 26.3893 26.9255 25.8556 28.2677 25.8556C29.3414 25.8544 30.3875 26.1961 31.2539 26.8312H31.2554V26.8312ZM22.6668 23V23.3164C22.6668 23.9061 22.5882 24.3877 22.2043 24.9526L22.158 25.0051C22.0301 25.1487 21.9058 25.2954 21.785 25.445L15.1203 33.8205H22.6668V35.0059C22.6668 35.1228 22.6438 35.2386 22.599 35.3465C22.5543 35.4545 22.4888 35.5526 22.4062 35.6352C22.3235 35.7178 22.2255 35.7832 22.1175 35.8278C22.0096 35.8724 21.894 35.8952 21.7772 35.895H12V35.3363C12 34.6525 12.1696 34.3468 12.3854 34.0289L19.4879 25.2227H12.296V23H22.6683H22.6668ZM35.8496 35.895C35.6533 35.895 35.4651 35.817 35.3263 35.678C35.1875 35.5391 35.1096 35.3506 35.1096 35.1541V23H37.3311V35.895H35.8496V35.895ZM43.9017 25.7939C44.571 25.7937 45.2338 25.9255 45.8523 26.1817C46.4707 26.438 47.0327 26.8137 47.5061 27.2874C47.9795 27.7612 48.3551 28.3236 48.6114 28.9427C48.8678 29.5617 48.9998 30.2252 49 30.8954C49.0002 31.5655 48.8686 32.2292 48.6126 32.8484C48.3567 33.4676 47.9814 34.0302 47.5083 34.5043C47.0352 34.9783 46.4734 35.3543 45.8551 35.611C45.2368 35.8676 44.5741 35.9998 43.9048 36C42.553 36.0004 41.2565 35.4632 40.3004 34.5064C39.3443 33.5497 38.8069 32.2519 38.8065 30.8985C38.8061 29.5451 39.3427 28.2469 40.2982 27.2896C41.2538 26.3323 42.55 25.7943 43.9017 25.7939V25.7939ZM28.2692 33.9023C28.666 33.9113 29.0605 33.8409 29.4297 33.6951C29.7988 33.5493 30.1352 33.3312 30.419 33.0534C30.7028 32.7757 30.9283 32.444 31.0822 32.0777C31.2362 31.7115 31.3155 31.3182 31.3155 30.9209C31.3155 30.5235 31.2362 30.1302 31.0822 29.764C30.9283 29.3978 30.7028 29.066 30.419 28.7883C30.1352 28.5105 29.7988 28.2924 29.4297 28.1466C29.0605 28.0008 28.666 27.9304 28.2692 27.9394C27.4912 27.9572 26.751 28.2791 26.207 28.8363C25.663 29.3935 25.3585 30.1417 25.3585 30.9209C25.3585 31.7 25.663 32.4483 26.207 33.0055C26.751 33.5627 27.4912 33.8846 28.2692 33.9023V33.9023ZM43.9017 33.8976C44.697 33.8976 45.4597 33.5813 46.022 33.0183C46.5843 32.4553 46.9002 31.6916 46.9002 30.8954C46.9002 30.0991 46.5843 29.3355 46.022 28.7725C45.4597 28.2094 44.697 27.8931 43.9017 27.8931C43.1064 27.8931 42.3438 28.2094 41.7814 28.7725C41.2191 29.3355 40.9032 30.0991 40.9032 30.8954C40.9032 31.6916 41.2191 32.4553 41.7814 33.0183C42.3438 33.5813 43.1064 33.8976 43.9017 33.8976V33.8976Z" fill="white"/>
</svg>
